<?xml version="1.0" encoding="UTF-8" standalone="no"?>
<svg
   xmlns:dc="http://purl.org/dc/elements/1.1/"
   xmlns:cc="http://creativecommons.org/ns#"
   xmlns:rdf="http://www.w3.org/1999/02/22-rdf-syntax-ns#"
   xmlns:svg="http://www.w3.org/2000/svg"
   xmlns="http://www.w3.org/2000/svg"
   xmlns:xlink="http://www.w3.org/1999/xlink"
   xmlns:sodipodi="http://sodipodi.sourceforge.net/DTD/sodipodi-0.dtd"
   xmlns:inkscape="http://www.inkscape.org/namespaces/inkscape"
   inkscape:version="1.0 (4035a4fb49, 2020-05-01)"
   height="16"
   width="16"
   sodipodi:docname="chrome16.svg"
   id="svg125"
   version="1.1"
   viewBox="1 1 16 16">
  <metadata
     id="metadata129">
    <rdf:RDF>
      <cc:Work
         rdf:about="">
        <dc:format>image/svg+xml</dc:format>
        <dc:type
           rdf:resource="http://purl.org/dc/dcmitype/StillImage" />
        <dc:title></dc:title>
      </cc:Work>
    </rdf:RDF>
  </metadata>
  <sodipodi:namedview
     inkscape:current-layer="svg125"
     inkscape:window-maximized="1"
     inkscape:window-y="27"
     inkscape:window-x="0"
     inkscape:cy="7.9875581"
     inkscape:cx="8.3093047"
     inkscape:zoom="50.268864"
     showgrid="true"
     id="namedview127"
     inkscape:window-height="1022"
     inkscape:window-width="1920"
     inkscape:pageshadow="2"
     inkscape:pageopacity="0"
     guidetolerance="10"
     gridtolerance="10"
     objecttolerance="10"
     borderopacity="1"
     bordercolor="#666666"
     pagecolor="#ffffff">
    <inkscape:grid
       id="grid966"
       type="xygrid" />
  </sodipodi:namedview>
  <style
     id="style2"><![CDATA[.B{clip-path:url(#C)}.C{fill:#3e2723}.D{fill-opacity:.15}.E{fill-opacity:.2}]]></style>
  <defs
     id="defs6">
    <circle
       r="88"
       cy="96"
       cx="96"
       id="A" />
    <path
       d="m 8,184 h 83.77 l 38.88,-38.88 V 116 H 61.35 L 8,24.48 Z"
       id="B" />
    <linearGradient
       y2="44.349998"
       x2="81.839996"
       y1="75.019997"
       x1="29.34"
       gradientUnits="userSpaceOnUse"
       id="linearGradient954"
       xlink:href="#D"
       inkscape:collect="always" />
    <linearGradient
       y2="130.3"
       x2="52.540001"
       y1="164.5"
       x1="110.9"
       gradientUnits="userSpaceOnUse"
       id="linearGradient956"
       xlink:href="#E"
       inkscape:collect="always" />
    <linearGradient
       y2="114.1"
       x2="136.60001"
       y1="49.799999"
       x1="121.9"
       gradientUnits="userSpaceOnUse"
       id="linearGradient958"
       xlink:href="#H"
       inkscape:collect="always" />
    <linearGradient
       y2="114.1"
       x2="136.60001"
       y1="49.799999"
       x1="121.9"
       gradientUnits="userSpaceOnUse"
       id="linearGradient960"
       xlink:href="#H"
       inkscape:collect="always" />
    <linearGradient
       y2="44.349998"
       x2="81.839996"
       y1="75.019997"
       x1="29.34"
       gradientUnits="userSpaceOnUse"
       id="linearGradient962"
       xlink:href="#D"
       inkscape:collect="always" />
    <linearGradient
       y2="130.3"
       x2="52.540001"
       y1="164.5"
       x1="110.9"
       gradientUnits="userSpaceOnUse"
       id="linearGradient964"
       xlink:href="#E"
       inkscape:collect="always" />
  </defs>
  <clipPath
     id="C">
    <use
       height="100%"
       width="100%"
       y="0"
       x="0"
       id="use8"
       xlink:href="#A" />
  </clipPath>
  <g
     id="g66"
     clip-path="url(#C)"
     transform="matrix(0.09090909,0,0,0.09090909,0.27272728,0.27272728)"
     class="B">
    <path
       id="path11"
       fill="#db4437"
       d="m 21.97,8 v 108 h 39.4 L 96,56 h 88 V 8 Z" />
    <linearGradient
       gradientUnits="userSpaceOnUse"
       y2="44.349998"
       y1="75.019997"
       x2="81.839996"
       x1="29.34"
       id="D">
      <stop
         id="stop13"
         offset="0"
         stop-opacity=".6"
         stop-color="#a52714" />
      <stop
         id="stop15"
         offset=".66"
         stop-opacity="0"
         stop-color="#a52714" />
    </linearGradient>
    <path
       style="fill:url(#linearGradient954)"
       id="path18"
       fill="url(#D)"
       d="m 21.97,8 v 108 h 39.4 L 96,56 h 88 V 8 Z" />
    <path
       id="path20"
       class="C D"
       d="m 62.3,115.6 -39.82,-68.3 -0.58,1 39.54,67.8 z" />
    <use
       height="100%"
       width="100%"
       y="0"
       x="0"
       id="use22"
       fill="#0f9d58"
       xlink:href="#B" />
    <linearGradient
       gradientUnits="userSpaceOnUse"
       y2="130.3"
       y1="164.5"
       x2="52.540001"
       x1="110.9"
       id="E">
      <stop
         id="stop24"
         offset="0"
         stop-opacity=".4"
         stop-color="#055524" />
      <stop
         id="stop26"
         offset=".33"
         stop-opacity="0"
         stop-color="#055524" />
    </linearGradient>
    <path
       style="fill:url(#linearGradient956)"
       id="path29"
       fill="url(#E)"
       d="m 8,184 h 83.77 l 38.88,-38.88 V 116 H 61.35 L 8,24.48 Z" />
    <path
       id="path31"
       class="D"
       fill="#263238"
       d="m 129.8,117.3 -0.83,-0.48 -38.4,67.15 h 1.15 l 38.1,-66.64 z" />
    <defs
       id="defs34">
      <path
         d="m 8,184 h 83.77 l 38.88,-38.88 V 116 H 61.35 L 8,24.48 Z"
         id="F" />
    </defs>
    <clipPath
       id="G">
      <use
         height="100%"
         width="100%"
         y="0"
         x="0"
         id="use36"
         xlink:href="#F" />
    </clipPath>
    <g
       id="g48"
       clip-path="url(#G)">
      <path
         id="path39"
         fill="#ffcd40"
         d="m 96,56 34.65,60 -38.88,68 H 184 V 56 Z" />
      <linearGradient
         gradientUnits="userSpaceOnUse"
         y2="114.1"
         y1="49.799999"
         x2="136.60001"
         x1="121.9"
         id="H">
        <stop
           id="stop41"
           offset="0"
           stop-opacity=".3"
           stop-color="#ea6100" />
        <stop
           id="stop43"
           offset=".66"
           stop-opacity="0"
           stop-color="#ea6100" />
      </linearGradient>
      <path
         style="fill:url(#linearGradient958)"
         id="path46"
         fill="url(#H)"
         d="m 96,56 34.65,60 -38.88,68 H 184 V 56 Z" />
    </g>
    <path
       id="path50"
       fill="#ffcd40"
       d="m 96,56 34.65,60 -38.88,68 H 184 V 56 Z" />
    <path
       style="fill:url(#linearGradient960)"
       id="path52"
       fill="url(#H)"
       d="m 96,56 34.65,60 -38.88,68 H 184 V 56 Z" />
    <defs
       id="defs55">
      <path
         d="m 96,56 34.65,60 -38.88,68 H 184 V 56 Z"
         id="I" />
    </defs>
    <clipPath
       id="J">
      <use
         height="100%"
         width="100%"
         y="0"
         x="0"
         id="use57"
         xlink:href="#I" />
    </clipPath>
    <g
       id="g64"
       clip-path="url(#J)">
      <path
         id="path60"
         fill="#db4437"
         d="m 21.97,8 v 108 h 39.4 L 96,56 h 88 V 8 Z" />
      <path
         style="fill:url(#linearGradient962)"
         id="path62"
         fill="url(#D)"
         d="m 21.97,8 v 108 h 39.4 L 96,56 h 88 V 8 Z" />
    </g>
  </g>
  <radialGradient
     gradientUnits="userSpaceOnUse"
     gradientTransform="translate(-576)"
     r="84.080002"
     cy="55.950001"
     cx="668.20001"
     id="K">
    <stop
       id="stop68"
       offset="0"
       stop-opacity=".2"
       stop-color="#3e2723" />
    <stop
       id="stop70"
       offset="1"
       stop-opacity="0"
       stop-color="#3e2723" />
  </radialGradient>
  <g
     id="g89"
     transform="matrix(0.09090909,0,0,0.09090909,0.27272728,0.27272728)">
    <path
       style="fill:url(#K)"
       id="path73"
       clip-path="url(#C)"
       class="B"
       fill="url(#K)"
       d="M 96,56 V 76.95 L 174.4,56 Z" />
    <g
       id="g87"
       clip-path="url(#C)"
       class="B">
      <defs
         id="defs76">
        <path
           d="M 21.97,8 V 48.34 L 61.36,116 96,56 h 88 V 8 Z"
           id="L" />
      </defs>
      <clipPath
         id="M">
        <use
           height="100%"
           width="100%"
           y="0"
           x="0"
           id="use78"
           xlink:href="#L" />
      </clipPath>
      <g
         id="g85"
         clip-path="url(#M)">
        <use
           height="100%"
           width="100%"
           y="0"
           x="0"
           id="use81"
           fill="#0f9d58"
           xlink:href="#B" />
        <path
           style="fill:url(#linearGradient964)"
           id="path83"
           fill="url(#E)"
           d="m 8,184 h 83.77 l 38.88,-38.88 V 116 H 61.35 L 8,24.48 Z" />
      </g>
    </g>
  </g>
  <radialGradient
     gradientUnits="userSpaceOnUse"
     gradientTransform="translate(-576)"
     r="78.040001"
     cy="48.52"
     cx="597.90002"
     id="N">
    <stop
       id="stop91"
       offset="0"
       stop-opacity=".2"
       stop-color="#3e2723" />
    <stop
       id="stop93"
       offset="1"
       stop-opacity="0"
       stop-color="#3e2723" />
  </radialGradient>
  <path
     style="fill:url(#N)"
     id="path96"
     clip-path="url(#C)"
     class="B"
     fill="url(#N)"
     d="M 21.97,48.45 79.22,105.69 61.36,116 Z"
     transform="matrix(0.09090909,0,0,0.09090909,0.27272728,0.27272728)" />
  <radialGradient
     gradientUnits="userSpaceOnUse"
     gradientTransform="translate(-576)"
     r="87.870003"
     cy="96.139999"
     cx="671.79999"
     id="O">
    <stop
       id="stop98"
       offset="0"
       stop-opacity=".2"
       stop-color="#263238" />
    <stop
       id="stop100"
       offset="1"
       stop-opacity="0"
       stop-color="#263238" />
  </radialGradient>
  <g
     id="g123"
     transform="matrix(0.09090909,0,0,0.09090909,0.27272728,0.27272728)">
    <path
       style="fill:url(#O)"
       id="path103"
       clip-path="url(#C)"
       class="B"
       fill="url(#O)"
       d="m 91.83,183.9 20.96,-78.2 17.86,10.3 z" />
    <g
       id="g121"
       clip-path="url(#C)"
       class="B">
      <circle
         id="circle105"
         fill="#f1f1f1"
         r="40"
         cy="96"
         cx="96" />
      <circle
         id="circle107"
         fill="#4285f4"
         r="32"
         cy="96"
         cx="96" />
      <path
         id="path109"
         class="C E"
         d="M 96,55 C 73.9,55 56,72.9 56,95 v 1 C 56,73.9 73.9,56 96,56 h 88 v -1 z" />
      <path
         id="path111"
         fill-opacity="0.1"
         fill="#ffffff"
         d="m 130.6,116 c -6.92,11.94 -19.8,20 -34.6,20 -14.8,0 -27.7,-8.06 -34.6,-20 H 61.36 L 8,24.48 v 1 L 61.4,117 c 6.92,11.94 19.8,20 34.6,20 14.8,0 27.68,-8.05 34.6,-20 h 0.05 v -1 h -0.06 z" />
      <path
         id="path113"
         class="C"
         opacity="0.1"
         d="m 97,56 c -0.17,0 -0.33,0.02 -0.5,0.03 21.86,0.27 39.5,18.05 39.5,39.97 0,21.92 -17.64,39.7 -39.5,39.97 0.17,0 0.33,0.03 0.5,0.03 22.1,0 40,-17.9 40,-40 0,-22.1 -17.9,-40 -40,-40 z" />
      <path
         id="path115"
         class="E"
         fill="#ffffff"
         d="m 131,117.3 c 3.4,-5.88 5.37,-12.68 5.37,-19.96 A 39.87,39.87 0 0 0 134.5,85.25 c 0.95,3.42 1.5,7 1.5,10.73 0,7.28 -1.97,14.08 -5.37,19.96 l 0.02,0.04 -38.88,68 h 1.16 z" />
      <path
         id="path117"
         class="E"
         fill="#ffffff"
         d="m 96,9 c 48.43,0 87.72,39.13 88,87.5 0,-0.17 0.01,-0.33 0.01,-0.5 0,-48.6 -39.4,-88 -88,-88 C 47.41,8 8,47.4 8,96 8,96.17 8.01,96.33 8.01,96.5 8.28,48.13 47.57,9 96,9 Z" />
      <path
         id="path119"
         class="C D"
         d="m 96,183 c 48.43,0 87.72,-39.13 88,-87.5 0,0.17 0.01,0.33 0.01,0.5 0,48.6 -39.4,88 -88,88 C 47.41,184 8,144.6 8,96 c 0,-0.17 0.01,-0.33 0.01,-0.5 0.27,48.37 39.56,87.5 88,87.5 z" />
    </g>
  </g>
</svg>
