<?xml version="1.0" encoding="UTF-8" standalone="no"?>
<svg
   width="32"
   height="32"
   version="1.1"
   viewBox="0 0 32 32"
   id="svg12"
   sodipodi:docname="slack.svg"
   inkscape:version="1.3.2 (091e20ef0f, 2023-11-25, custom)"
   xmlns:inkscape="http://www.inkscape.org/namespaces/inkscape"
   xmlns:sodipodi="http://sodipodi.sourceforge.net/DTD/sodipodi-0.dtd"
   xmlns="http://www.w3.org/2000/svg"
   xmlns:svg="http://www.w3.org/2000/svg">
  <defs
     id="defs12" />
  <sodipodi:namedview
     id="namedview12"
     pagecolor="#ffffff"
     bordercolor="#666666"
     borderopacity="1.0"
     inkscape:showpageshadow="2"
     inkscape:pageopacity="0.0"
     inkscape:pagecheckerboard="0"
     inkscape:deskcolor="#d1d1d1"
     inkscape:zoom="25.28125"
     inkscape:cx="16"
     inkscape:cy="16"
     inkscape:window-width="1920"
     inkscape:window-height="1011"
     inkscape:window-x="0"
     inkscape:window-y="32"
     inkscape:window-maximized="1"
     inkscape:current-layer="g12" />
  <g
     transform="translate(0 -1020.4)"
     id="g12">
    <rect
       opacity="0.2"
       width="27.034483"
       height="27.034483"
       x="-1049.4344"
       y="-29.534504"
       rx="2.0275862"
       ry="2.0275862"
       transform="matrix(0,-1,-1,0,0,0)"
       id="rect1"
       style="stroke-width:0.965517" />
    <rect
       fill="#f4f1ef"
       stroke="#f4f1ef"
       stroke-width="1.35172"
       width="14.570621"
       height="14.570621"
       x="-277.22729"
       y="992.23541"
       transform="rotate(-16)"
       id="rect2" />
    <path
       fill="#48c39e"
       d="m 3.3197434,1030.0277 c -0.2795655,-4e-4 -0.54964,0.014 -0.8197434,0.017 v 17.3687 c 0,0.15 0.018181,0.2949 0.048865,0.4356 2.9933931,-0.267 5.9161104,-0.923 8.473379,-3.5892 L 7.005403,1030.253 c -1.3075035,-0.1478 -2.5362207,-0.2238 -3.6855725,-0.2257 z"
       id="path2"
       style="stroke-width:0.965517" />
    <path
       fill="#d81768"
       d="m 25.029399,1040.1656 -14.006759,4.017 c -0.446108,1.8248 -0.457452,3.54 -0.168966,5.1811 h 16.653242 c 0.408336,0 0.786018,-0.123 1.103586,-0.3287 -0.107028,-3.2283 -0.396181,-6.4106 -3.581296,-8.8694 z"
       id="path3"
       style="stroke-width:0.965517" />
    <path
       fill="#ecb524"
       d="m 28.721537,1022.7863 c -3.155794,0.3022 -6.076676,0.9389 -7.709076,3.4176 l 4.016841,14.0067 c 1.600441,0.3304 3.09091,0.3596 4.505297,0.1783 v -15.987 c 0,-0.6648 -0.321759,-1.2464 -0.81314,-1.6157 z"
       id="path4"
       style="stroke-width:0.965517" />
    <path
       fill="#81d2e0"
       d="m 4.5276055,1022.4001 c -0.4055752,0 -0.7807269,0.1217 -1.0969241,0.3247 0.6651352,2.598 1.8946345,5.0984 3.5746345,7.5217 l 14.0067581,-4.017 c 0.564355,-1.4228 0.724892,-2.6769 0.640225,-3.8294 H 4.52692 Z"
       id="path5"
       style="stroke-width:0.965517" />
    <path
       fill="#390f39"
       d="m 11.02264,1044.2208 -8.5222345,2.4433 v 0.7103 c 0,1.1232 0.9043035,2.0275 2.0275862,2.0275 h 7.9809653 z"
       id="path6"
       style="stroke-width:0.965517" />
    <path
       fill="#20a48e"
       d="m 4.5276055,1022.4001 c -1.1232827,0 -2.0275862,0.9043 -2.0275862,2.0276 v 7.111 l 4.5052966,-1.2922 -2.2493656,-7.8464 H 4.5275862 Z"
       id="path7"
       style="stroke-width:0.965517" />
    <path
       fill="#77971f"
       d="m 19.914088,1022.4001 1.098276,3.8294 8.419214,-2.4129 c -0.259386,-0.8207 -1.01611,-1.4165 -1.924662,-1.4165 h -7.592924 z"
       id="path8"
       style="stroke-width:0.965517" />
    <path
       fill="#d5100d"
       d="m 29.534502,1038.9104 -4.505296,1.2923 2.632193,9.1823 c 1.049131,-0.08 1.873103,-0.9415 1.873103,-2.0118 z"
       id="path9"
       style="stroke-width:0.965517" />
    <path
       fill="#ffffff"
       opacity="0.1"
       d="m 3.9482952,1022.4001 c -0.8023449,0 -1.4482759,0.6459 -1.4482759,1.4483 v 0.9655 c 0,-0.8024 0.645931,-1.4483 1.4482759,-1.4483 H 28.086226 c 0.802345,0 1.448276,0.6459 1.448276,1.4483 v -0.9655 c 0,-0.8024 -0.645931,-1.4483 -1.448276,-1.4483 z"
       id="path10"
       style="stroke-width:0.965517" />
    <path
       opacity="0.2"
       d="m 2.5000193,1047.9863 v 0.9655 c 0,0.8024 0.645931,1.4483 1.4482759,1.4483 H 28.086226 c 0.802345,0 1.448276,-0.6459 1.448276,-1.4483 v -0.9655 c 0,0.8024 -0.645931,1.4483 -1.448276,1.4483 H 3.9482952 c -0.8023449,0 -1.4482759,-0.6459 -1.4482759,-1.4483 z"
       id="path11"
       style="stroke-width:0.965517" />
    <path
       fill="#5a3856"
       d="m 19.380157,1037.8484 c -9e-6,0.9285 -0.305779,1.6405 -0.917309,2.1359 -0.607078,0.4955 -1.504276,0.7432 -2.691669,0.7432 -0.821336,0 -1.535558,-0.1361 -2.142579,-0.4084 -0.602618,-0.2722 -1.093641,-0.7119 -1.47309,-1.3191 l 1.452911,-1.1115 c 0.214258,0.3036 0.417364,0.5313 0.609309,0.683 0.191935,0.1518 0.419594,0.2701 0.682958,0.3549 0.263355,0.085 0.566894,0.1272 0.910618,0.1272 0.513327,0 0.912829,-0.087 1.198497,-0.2611 0.290138,-0.1786 0.435216,-0.4486 0.435226,-0.8102 -1e-5,-0.2053 -0.05137,-0.3771 -0.154,-0.5156 -0.09821,-0.1384 -0.247742,-0.2566 -0.448608,-0.3548 -0.200876,-0.1027 -0.549051,-0.2187 -1.044497,-0.3482 -0.482083,-0.1295 -0.937392,-0.2588 -1.365917,-0.3883 -0.424055,-0.1339 -0.792323,-0.3058 -1.104745,-0.5156 -0.308,-0.2098 -0.551262,-0.4732 -0.729825,-0.7901 -0.178543,-0.317 -0.267825,-0.7164 -0.267825,-1.1986 0,-0.8793 0.296839,-1.5645 0.890526,-2.0555 0.593687,-0.4955 1.444028,-0.7432 2.55109,-0.7432 1.602469,0 2.736275,0.5491 3.40142,1.6471 l -1.439586,1.1249 c -0.254433,-0.3928 -0.54012,-0.6741 -0.857051,-0.8437 -0.316931,-0.1695 -0.69411,-0.2544 -1.131586,-0.2544 -0.437457,0 -0.794553,0.08 -1.071338,0.2411 -0.272286,0.1562 -0.408433,0.404 -0.408433,0.7431 0,0.2992 0.142838,0.529 0.428525,0.6897 0.285687,0.1562 0.783392,0.3148 1.493173,0.4754 0.392801,0.1027 0.781151,0.2143 1.164993,0.3348 0.38388,0.116 0.725364,0.279 1.024414,0.4888 0.303539,0.2098 0.546811,0.4843 0.729834,0.8235 0.183004,0.3393 0.274516,0.7745 0.274526,1.3057"
       id="path12"
       style="stroke-width:0.965517" />
  </g>
</svg>
