<?xml version="1.0" encoding="UTF-8" standalone="no"?>
<svg
   xmlns:dc="http://purl.org/dc/elements/1.1/"
   xmlns:cc="http://creativecommons.org/ns#"
   xmlns:rdf="http://www.w3.org/1999/02/22-rdf-syntax-ns#"
   xmlns:svg="http://www.w3.org/2000/svg"
   xmlns="http://www.w3.org/2000/svg"
   xmlns:sodipodi="http://sodipodi.sourceforge.net/DTD/sodipodi-0.dtd"
   xmlns:inkscape="http://www.inkscape.org/namespaces/inkscape"
   viewBox="0 0 22 22"
   version="1.1"
   id="svg4"
   sodipodi:docname="slack22.svg"
   inkscape:version="0.92.4 5da689c313, 2019-01-14">
  <metadata
     id="metadata10">
    <rdf:RDF>
      <cc:Work
         rdf:about="">
        <dc:format>image/svg+xml</dc:format>
        <dc:type
           rdf:resource="http://purl.org/dc/dcmitype/StillImage" />
      </cc:Work>
    </rdf:RDF>
  </metadata>
  <defs
     id="defs8" />
  <sodipodi:namedview
     pagecolor="#ffffff"
     bordercolor="#666666"
     borderopacity="1"
     objecttolerance="10"
     gridtolerance="10"
     guidetolerance="10"
     inkscape:pageopacity="0"
     inkscape:pageshadow="2"
     inkscape:window-width="1920"
     inkscape:window-height="1022"
     id="namedview6"
     showgrid="false"
     inkscape:zoom="10.727273"
     inkscape:cx="11"
     inkscape:cy="11"
     inkscape:window-x="0"
     inkscape:window-y="27"
     inkscape:window-maximized="1"
     inkscape:current-layer="svg4" />
  <path
     style="fill:#dfdfdf;fill-opacity:1"
     d="m 12.428 1.01 c -0.231 -0.02 -0.469 0.006 -0.703 0.082 c -0.936 0.304 -1.447 1.308 -1.143 2.244 l 0.584 1.795 l -3.75 1.221 c -0.129 -0.397 -0.584 -1.797 -0.584 -1.797 c -0.304 -0.936 -1.308 -1.449 -2.244 -1.145 c -0.936 0.304 -1.449 1.31 -1.145 2.246 l 0.584 1.797 l -1.854 0.602 c -0.874 0.316 -1.365 1.26 -1.104 2.166 c 0.272 0.946 1.276 1.522 2.205 1.221 c 0.005 -0.002 1.43 -0.464 1.854 -0.602 l 1.219 3.75 l -1.854 0.602 c -0.874 0.316 -1.366 1.261 -1.105 2.168 c 0.272 0.946 1.276 1.522 2.205 1.221 c 0.005 -0.002 1.431 -0.466 1.855 -0.604 l 0.602 1.854 c 0.316 0.874 1.26 1.365 2.166 1.104 c 0.946 -0.272 1.522 -1.276 1.221 -2.205 c -0.002 -0.005 -0.464 -1.429 -0.602 -1.852 c 1.747 -0.568 2.01 -0.655 3.75 -1.219 l 0.602 1.852 c 0.316 0.874 1.261 1.366 2.168 1.105 c 0.946 -0.272 1.522 -1.276 1.221 -2.205 c -0.002 -0.005 -0.464 -1.43 -0.602 -1.854 c 0.395 -0.128 1.793 -0.582 1.793 -0.582 c 0.936 -0.304 1.449 -1.31 1.145 -2.246 c -0.304 -0.936 -1.308 -1.447 -2.244 -1.143 l -1.795 0.584 c -0.568 -1.747 -0.654 -2.01 -1.219 -3.75 c 0.396 -0.129 1.795 -0.584 1.795 -0.584 c 0.936 -0.304 1.449 -1.308 1.145 -2.244 c -0.304 -0.936 -1.31 -1.449 -2.246 -1.145 l -1.795 0.584 c -0.129 -0.396 -0.582 -1.795 -0.582 -1.795 c -0.228 -0.702 -0.851 -1.167 -1.543 -1.227 z m -0.162 7.51 l 1.219 3.75 l -3.75 1.219 c -0.568 -1.747 -0.654 -2.01 -1.219 -3.75 c 1.747 -0.568 2.01 -0.654 3.75 -1.219 z"
     id="path2" />
</svg>
