<?xml version="1.0" encoding="UTF-8" standalone="no"?>
<svg
   xmlns:dc="http://purl.org/dc/elements/1.1/"
   xmlns:cc="http://creativecommons.org/ns#"
   xmlns:rdf="http://www.w3.org/1999/02/22-rdf-syntax-ns#"
   xmlns:svg="http://www.w3.org/2000/svg"
   xmlns="http://www.w3.org/2000/svg"
   xmlns:sodipodi="http://sodipodi.sourceforge.net/DTD/sodipodi-0.dtd"
   xmlns:inkscape="http://www.inkscape.org/namespaces/inkscape"
   inkscape:version="1.0 (4035a4fb49, 2020-05-01)"
   sodipodi:docname="firefox16.svg"
   viewBox="0 0 16 16"
   version="1.1"
   id="svg4959"
   width="16"
   height="16">
  <sodipodi:namedview
     inkscape:current-layer="svg4959"
     inkscape:window-maximized="1"
     inkscape:window-y="27"
     inkscape:window-x="0"
     inkscape:cy="11.677983"
     inkscape:cx="16.044895"
     inkscape:zoom="64"
     showgrid="true"
     id="namedview233"
     inkscape:window-height="1022"
     inkscape:window-width="1920"
     inkscape:pageshadow="2"
     inkscape:pageopacity="0"
     guidetolerance="10"
     gridtolerance="10"
     objecttolerance="10"
     borderopacity="1"
     bordercolor="#666666"
     pagecolor="#ffffff">
    <inkscape:grid
       id="grid1058"
       type="xygrid" />
  </sodipodi:namedview>
  <metadata
     id="metadata4963">
    <rdf:RDF>
      <cc:Work
         rdf:about="">
        <dc:format>image/svg+xml</dc:format>
        <dc:type
           rdf:resource="http://purl.org/dc/dcmitype/StillImage" />
        <dc:title></dc:title>
      </cc:Work>
    </rdf:RDF>
  </metadata>
  <defs
     id="defs4647">
    <linearGradient
       x1="84.162506"
       y1="-3.6041653"
       x2="91.017914"
       y2="41.136391"
       id="f"
       gradientTransform="matrix(0.14211915,0,0,0.29980798,-0.258731,-0.50084329)"
       gradientUnits="userSpaceOnUse">
      <stop
         stop-color="#AAF2FF"
         offset="0%"
         id="stop4518" />
      <stop
         stop-color="#0DF"
         offset="29%"
         id="stop4520" />
      <stop
         stop-color="#0090ED"
         offset="61%"
         id="stop4522" />
      <stop
         stop-color="#0250BB"
         offset="89%"
         id="stop4524" />
    </linearGradient>
    <linearGradient
       x1="59.666759"
       y1="0.0084456606"
       x2="65.72345"
       y2="30.049629"
       id="g"
       gradientTransform="matrix(0.15848524,0,0,0.26884808,-0.258731,-0.50084329)"
       gradientUnits="userSpaceOnUse">
      <stop
         stop-color="#AAF2FF"
         offset="0%"
         id="stop4527" />
      <stop
         stop-color="#0DF"
         offset="29%"
         id="stop4529" />
      <stop
         stop-color="#0090ED"
         offset="74%"
         id="stop4531" />
      <stop
         stop-color="#0250BB"
         offset="100%"
         id="stop4533" />
    </linearGradient>
    <linearGradient
       x1="68.991951"
       y1="11.815484"
       x2="17.021517"
       y2="66.148209"
       id="k"
       gradientTransform="matrix(0.20319122,0,0,0.20969634,-0.258731,-0.50084329)"
       gradientUnits="userSpaceOnUse">
      <stop
         stop-color="#80EBFF"
         stop-opacity=".5"
         offset="24%"
         id="stop4536" />
      <stop
         stop-color="#0DF"
         stop-opacity="0"
         offset="70%"
         id="stop4538" />
    </linearGradient>
    <linearGradient
       x1="32.206059"
       y1="33.089981"
       x2="25.120728"
       y2="60.567245"
       id="l"
       gradientTransform="matrix(0.21267355,0,0,0.20034673,-0.258731,-0.50084329)"
       gradientUnits="userSpaceOnUse">
      <stop
         stop-color="#BFF3FF"
         stop-opacity=".9"
         offset="0%"
         id="stop4541" />
      <stop
         stop-color="#80EBFF"
         stop-opacity=".5"
         offset="100%"
         id="stop4543" />
    </linearGradient>
    <linearGradient
       x1="95.009483"
       y1="-0.82379484"
       x2="93.769226"
       y2="57.467999"
       id="m"
       gradientTransform="matrix(0.13266858,0,0,0.32116462,-0.258731,-0.50084329)"
       gradientUnits="userSpaceOnUse">
      <stop
         stop-color="#BFF3FF"
         offset="0%"
         id="stop4546" />
      <stop
         stop-color="#0DF"
         stop-opacity="0"
         offset="100%"
         id="stop4548" />
    </linearGradient>
    <linearGradient
       x1="56.13681"
       y1="-0.63725394"
       x2="55.329029"
       y2="23.111471"
       id="n"
       gradientTransform="matrix(0.16832265,0,0,0.25313559,-0.258731,-0.50084329)"
       gradientUnits="userSpaceOnUse">
      <stop
         stop-color="#BFF3FF"
         offset="0%"
         id="stop4551" />
      <stop
         stop-color="#AAF2FF"
         stop-opacity=".5"
         offset="100%"
         id="stop4553" />
    </linearGradient>
    <linearGradient
       x1="58.332546"
       y1="25.308983"
       x2="56.715939"
       y2="64.10762"
       id="o"
       gradientTransform="matrix(0.18398993,0,0,0.23158034,-0.258731,-0.50084329)"
       gradientUnits="userSpaceOnUse">
      <stop
         stop-color="#BFF3FF"
         offset="0%"
         id="stop4556" />
      <stop
         stop-color="#0DF"
         stop-opacity="0"
         offset="100%"
         id="stop4558" />
    </linearGradient>
    <linearGradient
       x1="23.729013"
       y1="33.093102"
       x2="25.866491"
       y2="66.491219"
       id="p"
       gradientTransform="matrix(0.21932393,0,0,0.19427179,-0.258731,-0.50084329)"
       gradientUnits="userSpaceOnUse">
      <stop
         stop-color="#BFF3FF"
         stop-opacity=".8"
         offset="0%"
         id="stop4561" />
      <stop
         stop-color="#80EBFF"
         stop-opacity=".2"
         offset="100%"
         id="stop4563" />
    </linearGradient>
    <linearGradient
       x1="29.194855"
       y1="12.974803"
       x2="20.563929"
       y2="26.988457"
       id="q"
       gradientTransform="matrix(0.20224632,0,0,0.21067604,-0.258731,-0.50084329)"
       gradientUnits="userSpaceOnUse">
      <stop
         stop-color="#BFF3FF"
         stop-opacity=".8"
         offset="0%"
         id="stop4566" />
      <stop
         stop-color="#80EBFF"
         stop-opacity=".2"
         offset="100%"
         id="stop4568" />
    </linearGradient>
    <linearGradient
       x1="18.502363"
       y1="29.405516"
       x2="16.874853"
       y2="74.324791"
       id="r"
       gradientTransform="matrix(0.1651335,0,0,0.25802428,-0.258731,-0.50084329)"
       gradientUnits="userSpaceOnUse">
      <stop
         stop-color="#0DF"
         stop-opacity=".4"
         offset="0%"
         id="stop4571" />
      <stop
         stop-color="#0DF"
         stop-opacity="0"
         offset="100%"
         id="stop4573" />
    </linearGradient>
    <linearGradient
       x1="25.577993"
       y1="4.5553231"
       x2="25.577993"
       y2="57.36784"
       id="s"
       gradientTransform="matrix(0.16406022,0,0,0.25971228,-0.258731,-0.50084329)"
       gradientUnits="userSpaceOnUse">
      <stop
         stop-color="#BFF3FF"
         offset="0%"
         id="stop4576" />
      <stop
         stop-color="#0DF"
         stop-opacity="0"
         offset="100%"
         id="stop4578" />
    </linearGradient>
    <linearGradient
       x1="68.298668"
       y1="12.77847"
       x2="65.108376"
       y2="89.877266"
       id="t"
       gradientTransform="matrix(0.17428193,0,0,0.24448005,-0.258731,-0.50084329)"
       gradientUnits="userSpaceOnUse">
      <stop
         stop-color="#BFF3FF"
         stop-opacity=".8"
         offset="0%"
         id="stop4581" />
      <stop
         stop-color="#0DF"
         stop-opacity="0"
         offset="100%"
         id="stop4583" />
    </linearGradient>
    <linearGradient
       x1="-0.1"
       y1="0.66000003"
       x2="1.1"
       y2="0.33000001"
       id="u">
      <stop
         offset="0"
         stop-color="#0250bb"
         id="stop4586" />
      <stop
         offset=".123"
         stop-color="#024eb6"
         id="stop4588" />
      <stop
         offset="1"
         stop-color="#054096"
         id="stop4590" />
    </linearGradient>
    <radialGradient
       cx="42.067257"
       cy="30.945194"
       r="22.6548"
       id="a"
       gradientTransform="matrix(0.20647283,0,0,0.20636349,-0.258731,-0.50084329)"
       fx="42.067257"
       fy="30.945194"
       gradientUnits="userSpaceOnUse">
      <stop
         stop-color="#0DF"
         stop-opacity=".4"
         offset="10%"
         id="stop4593" />
      <stop
         stop-color="#7542E5"
         stop-opacity=".25"
         offset="90%"
         id="stop4595" />
    </radialGradient>
    <radialGradient
       cx="39.89164"
       cy="41.40416"
       fx="39.801777"
       fy="41.40416"
       r="19.256578"
       id="b"
       gradientTransform="matrix(0.20647283,0,0,0.20636349,-0.258731,-0.50084329)"
       gradientUnits="userSpaceOnUse">
      <stop
         stop-color="#7542E5"
         stop-opacity="0"
         offset="91%"
         id="stop4598" />
      <stop
         stop-color="#0DF"
         stop-opacity=".4"
         offset="100%"
         id="stop4600" />
    </radialGradient>
    <radialGradient
       cx="61.200493"
       cy="9.810463"
       fx="61.200493"
       fy="9.810463"
       r="89.403168"
       gradientTransform="matrix(0.22906282,0,0,0.18601209,-0.258731,-0.50084329)"
       id="c"
       gradientUnits="userSpaceOnUse">
      <stop
         stop-color="#80EBFF"
         offset="0%"
         id="stop4603" />
      <stop
         stop-color="#0DF"
         offset="26%"
         id="stop4605" />
      <stop
         stop-color="#0090ED"
         offset="53%"
         id="stop4607" />
      <stop
         stop-color="#0060DF"
         offset="86%"
         id="stop4609" />
    </radialGradient>
    <radialGradient
       cx="34.469643"
       cy="46.828964"
       fx="34.658924"
       fy="46.828964"
       r="89.403168"
       gradientTransform="matrix(0.22906282,0,0,0.18601209,-0.258731,-0.50084329)"
       id="d"
       gradientUnits="userSpaceOnUse">
      <stop
         stop-color="#321C64"
         stop-opacity=".8"
         offset="30%"
         id="stop4612" />
      <stop
         stop-color="#212F83"
         stop-opacity=".5"
         offset="37%"
         id="stop4614" />
      <stop
         stop-color="#0A47AC"
         stop-opacity=".14"
         offset="48%"
         id="stop4616" />
      <stop
         stop-color="#0250BB"
         stop-opacity="0"
         offset="53%"
         id="stop4618" />
    </radialGradient>
    <radialGradient
       cx="61.191902"
       cy="-19.160242"
       r="139.74019"
       gradientTransform="matrix(0.2253977,0,0,0.18903677,-0.258731,-0.50084329)"
       id="e"
       fx="61.191902"
       fy="-19.160242"
       gradientUnits="userSpaceOnUse">
      <stop
         stop-color="#80EBFF"
         offset="0%"
         id="stop4621" />
      <stop
         stop-color="#00B3F4"
         offset="47%"
         id="stop4623" />
      <stop
         stop-color="#0060DF"
         offset="84%"
         id="stop4625" />
      <stop
         stop-color="#592ACB"
         offset="100%"
         id="stop4627" />
    </radialGradient>
    <radialGradient
       cx="37.300232"
       cy="5.5633535"
       fx="37.300232"
       fy="5.5633535"
       r="28.381479"
       gradientTransform="matrix(0.20616738,0,0,0.20666922,-0.258731,-0.50084329)"
       id="h"
       gradientUnits="userSpaceOnUse">
      <stop
         stop-color="#0DF"
         offset="0%"
         id="stop4630" />
      <stop
         stop-color="#0090ED"
         offset="82%"
         id="stop4632" />
    </radialGradient>
    <radialGradient
       cx="52.950813"
       cy="21.181152"
       fx="52.950813"
       fy="21.181152"
       r="85.359634"
       gradientTransform="matrix(0.21824515,0,0,0.19523208,-0.258731,-0.50084329)"
       id="i"
       gradientUnits="userSpaceOnUse">
      <stop
         stop-color="#80EBFF"
         offset="29%"
         id="stop4635" />
      <stop
         stop-color="#00B3F4"
         offset="100%"
         id="stop4637" />
    </radialGradient>
    <radialGradient
       cx="36.138844"
       cy="15.884185"
       fx="36.138844"
       fy="15.884185"
       r="71.746956"
       gradientTransform="matrix(0.20848698,0,0,0.20436985,-0.258731,-0.50084329)"
       id="j"
       gradientUnits="userSpaceOnUse">
      <stop
         stop-color="#AAF2FF"
         offset="18%"
         id="stop4640" />
      <stop
         stop-color="#0DF"
         offset="43%"
         id="stop4642" />
      <stop
         stop-color="#0060DF"
         offset="69%"
         id="stop4644" />
    </radialGradient>
  </defs>
  <path
     d="m 4.356985,9.1242286 0.504074,1.3974514 0.757348,1.021976 1.778086,0.339351 0.850649,0.07225 1.452358,-0.362883 0.625654,-0.599645 z"
     id="path4649"
     style="fill:#09204d;stroke-width:0.206418" />
  <path
     d="M 11.882372,7.0627306 11.704233,6.4719616 11.195206,5.5112916 10.6129,4.8974036 9.994678,4.4558756 9.457991,4.2453286 8.813966,4.0162046 l -1.06037,-0.0675 -0.668795,0.120548 -0.545563,0.167818 -0.968101,0.566618 -0.605012,0.675194 -0.557948,0.906176 -0.219422,0.771178 -0.04108,1.170184 0.209308,0.797807 0.461551,0.9082404 0.325315,0.438638 0.450198,0.412836 0.562077,0.380223 0.693152,0.301577 1.159864,0.136029 0.605837,0.01693 0.896268,-0.252449 0.801315,-0.439877 0.515426,-0.439877 0.399832,-0.476826 0.565173,-1.1064014 0.124677,-0.756936 z"
     id="path4651"
     style="fill:#09204d;stroke-width:0.206418" />
  <path
     d="m 7.772999,4.4804386 -0.474968,0.471047 0.774688,0.314168 0.576319,-0.714826 z"
     id="path4653"
     style="fill:#0e56d7;stroke-width:0.206418" />
  <path
     d="M 8.072719,5.2656536 9.572553,5.2200336 8.649038,4.5508256 Z"
     id="path4655"
     style="fill:#1053d1;stroke-width:0.206418" />
  <path
     d="m 9.461087,4.5458736 -0.812049,0.005 0.923515,0.669208 0.853952,-0.05573 z"
     id="path4657"
     style="fill:#0b4fbf;stroke-width:0.206418" />
  <path
     d="M 10.426505,5.1643026 9.941009,4.4948886 10.6129,4.8974036 Z"
     id="path4659"
     style="fill:#0b48b0;stroke-width:0.206418" />
  <path
     d="M 11.069291,5.5742486 10.426505,5.1643026 10.6129,4.8974036 Z"
     id="path4661"
     style="fill:#0c45a7;stroke-width:0.206418" />
  <path
     d="m 10.426505,5.1643026 -0.107544,0.458661 0.587879,0.23511 z"
     id="path4663"
     style="fill:#0f46af;stroke-width:0.206418" />
  <path
     d="m 10.426505,5.1643026 0.642786,0.409946 -0.162451,0.283825 z"
     id="path4665"
     style="fill:#0c47ad;stroke-width:0.206418" />
  <path
     d="m 9.572553,5.2200356 0.853952,-0.05573 -0.107544,0.458661 z"
     id="path4667"
     style="fill:#0e4fc3;stroke-width:0.206418" />
  <path
     d="m 9.572553,5.2200356 -0.674781,0.610997 0.868401,0.425222 z"
     id="path4669"
     style="fill:#174dca;stroke-width:0.206418" />
  <path
     d="m 8.072719,5.2656536 1.499834,-0.04562 -0.674781,0.610997 z"
     id="path4671"
     style="fill:#1650d4;stroke-width:0.206418" />
  <path
     d="m 10.318961,5.6229636 0.408295,0.792233 0.179584,-0.557123 z"
     id="path4673"
     style="fill:#1246b2;stroke-width:0.206418" />
  <path
     d="m 10.727256,6.4151966 0.179584,-0.557123 0.427905,1.017642 z"
     id="path4675"
     style="fill:#133ea1;stroke-width:0.206418" />
  <path
     d="m 10.90684,5.8580736 0.652075,0.477652 -0.22417,0.53999 z"
     id="path4677"
     style="fill:#103d98;stroke-width:0.206418" />
  <path
     d="m 11.069291,5.5742486 0.125915,-0.06296 0.363709,0.824434 z"
     id="path4679"
     style="fill:#0b3785;stroke-width:0.206418" />
  <path
     d="m 11.558915,6.3357256 0.145318,0.136236 -0.509027,-0.96067 z"
     id="path4681"
     style="fill:#0b3685;stroke-width:0.206418" />
  <path
     d="m 11.558915,6.3357256 -0.489624,-0.761477 -0.162451,0.283825 z m -0.946015,-1.438322 0.456391,0.676845 0.125915,-0.06193 z"
     id="path4683"
     style="fill:#0c3b91;stroke-width:0.206418" />
  <path
     d="m 11.849552,7.5242816 -0.145319,-1.05232 0.178139,0.590769 -0.03509,0.461551 z"
     id="path4685"
     style="fill:#0b3279;stroke-width:0.206418" />
  <path
     d="m 11.558915,6.3357256 0.290637,1.188556 -0.145319,-1.05232 z"
     id="path4687"
     style="fill:#0f388d;stroke-width:0.206418" />
  <path
     d="m 11.334745,6.8757156 0.514807,0.648566 -0.290637,-1.188556 z"
     id="path4689"
     style="fill:#0d3481;stroke-width:0.206418" />
  <path
     d="m 11.847281,7.5242816 0.03509,-0.461551 0.0353,1.183601 -0.06812,-0.72205 z"
     id="path4691"
     style="fill:#0b2e71;stroke-width:0.206418" />
  <path
     d="m 11.763269,8.4597686 0.154401,-0.213437 -0.06812,-0.72205 z"
     id="path4693"
     style="fill:#0e2f77;stroke-width:0.206418" />
  <path
     d="m 11.792993,9.0032676 -0.123438,0.05945 0.248115,-0.816384 z"
     id="path4695"
     style="fill:#0e2969;stroke-width:0.206418" />
  <path
     d="m 11.669555,9.0627156 0.248115,-0.816384 -0.154401,0.213437 z"
     id="path4697"
     style="fill:#0c2a69;stroke-width:0.206418" />
  <path
     d="m 11.763269,8.4597686 0.08628,-0.935487 -0.264422,0.311897 z"
     id="path4699"
     style="fill:#123180;stroke-width:0.206418" />
  <path
     d="m 11.669555,9.0627156 0.09371,-0.602947 -0.510059,0.857254 z"
     id="path4701"
     style="fill:#112b70;stroke-width:0.206418" />
  <path
     d="m 11.334745,6.8757156 0.514807,0.648566 -0.264422,0.311897 z"
     id="path4703"
     style="fill:#12378c;stroke-width:0.206418" />
  <path
     d="m 11.763269,8.4597686 -0.178139,-0.62359 -0.268963,0.767876 z"
     id="path4705"
     style="fill:#122e7b;stroke-width:0.206418" />
  <path
     d="M 11.22782,10.109669 11.669555,9.0627156 11.256306,9.825844 Z"
     id="path4707"
     style="fill:#11296c;stroke-width:0.206418" />
  <path
     d="M 11.256306,9.825844 11.669555,9.0627156 11.25321,9.3170226 Z"
     id="path4709"
     style="fill:#142a72;stroke-width:0.206418" />
  <path
     d="M 11.669555,9.0627156 11.22782,10.10905 11.792993,9.0026476 Z m -0.84136,1.5237794 0.399625,-0.476826 0.02849,-0.283825 z m -0.516046,0.439877 0.516046,-0.439877 -0.544944,0.250591 z"
     id="path4711"
     style="fill:#112768;stroke-width:0.206418" />
  <path
     d="m 7.303811,11.332696 -0.520793,0.127567 0.01589,-0.363709 z"
     id="path4713"
     style="fill:#1c226a;stroke-width:0.206418" />
  <path
     d="m 4.408177,6.3850596 0.143667,-0.05326 -0.363089,0.824434 z"
     id="path4715"
     style="fill:#182b7a;stroke-width:0.206418" />
  <path
     d="m 4.188755,7.1562376 0.274949,-0.05119 0.08814,-0.773242 z"
     id="path4717"
     style="fill:#1f308d;stroke-width:0.206418" />
  <path
     d="m 4.205268,8.1464256 -0.01651,-0.990188 0.274949,-0.05119 z"
     id="path4719"
     style="fill:#1e2b7f;stroke-width:0.206418" />
  <path
     d="m 10.318961,5.6229636 -0.552788,0.633291 0.961083,0.158942 z M 5.495382,4.9735716 6.200919,4.4907596 5.571137,4.8041026 Z"
     id="path4721"
     style="fill:#1346b5;stroke-width:0.206418" />
  <path
     d="m 5.571137,4.8036896 0.968101,-0.566618 -0.338319,0.253688 -0.629782,0.31293"
     id="path4723"
     style="fill:#1244ac;stroke-width:0.206418" />
  <path
     d="M 6.200919,4.4907596 7.084801,4.0692536 6.539238,4.2370716 Z"
     id="path4725"
     style="fill:#0e4ab6;stroke-width:0.206418" />
  <path
     d="m 9.572553,5.2200356 0.19362,1.036219 0.552788,-0.633291 z M 6.738845,4.4416326 7.562453,4.1113636 7.084388,4.0684336 Z"
     id="path4727"
     style="fill:#0e4bba;stroke-width:0.206418" />
  <path
     d="m 7.753596,3.9487056 -0.668795,0.120548 0.478065,0.04293 z"
     id="path4729"
     style="fill:#0a4ebc;stroke-width:0.206418" />
  <path
     d="m 8.386061,4.1041386 -0.823195,0.008 0.19073,-0.163483"
     id="path4731"
     style="fill:#0c54cc;stroke-width:0.206418" />
  <path
     d="m 9.941009,4.4944756 -0.479922,0.05099 0.965418,0.619255 z m -1.554948,-0.390337 1.07193,0.14119 -0.644025,-0.229124 z"
     id="path4733"
     style="fill:#0b4bb4;stroke-width:0.206418" />
  <path
     d="m 9.941009,4.4948886 -0.483018,-0.24956 0.536687,0.210547 z"
     id="path4735"
     style="fill:#0c3889;stroke-width:0.206418" />
  <path
     d="M 4.356985,9.1242286 4.674663,9.3849346 4.206094,8.1464256 Z M 8.73078,11.587416 9.009444,10.93142 7.994073,11.204098 Z m 0.278664,-0.655996 0.848792,0.235523 0.0514,-0.65641 z"
     id="path4737"
     style="fill:#202575;stroke-width:0.206418" />
  <path
     d="M 10.283251,10.837086 9.909634,10.510533 10.8123,9.910682 Z"
     id="path4739"
     style="fill:#1b2773;stroke-width:0.206418" />
  <path
     d="m 10.8123,9.910682 -0.529049,0.926404 0.544944,-0.250591 0.428111,-0.760651 z"
     id="path4741"
     style="fill:#15276d;stroke-width:0.206418" />
  <path
     d="m 9.994678,4.4558756 -0.05367,0.03901 0.671891,0.402515 z m -0.533591,0.09 0.479922,-0.05098 -0.483018,-0.24956 z"
     id="path4743"
     style="fill:#0c409d;stroke-width:0.206418" />
  <path
     d="m 7.753596,3.9487056 0.632465,0.155433 0.427905,-0.08793 z m 1.704395,0.296623 -1.07193,-0.14119 1.075026,0.441735 z"
     id="path4745"
     style="fill:#0b4cb7;stroke-width:0.206418" />
  <path
     d="m 8.386061,4.1041386 0.262977,0.446689 0.812049,-0.005 z"
     id="path4747"
     style="fill:#0b55ce;stroke-width:0.206418" />
  <path
     d="m 8.386061,4.1041386 0.262977,0.446689 -0.876039,-0.07039 z"
     id="path4749"
     style="fill:#0a52c5;stroke-width:0.206418" />
  <path
     d="m 7.562866,4.1121886 0.210133,0.36825 0.613062,-0.3763 z"
     id="path4751"
     style="fill:#0951c4;stroke-width:0.206418" />
  <path
     d="m 6.739257,4.4416326 0.823609,-0.329444 0.210133,0.36825 z"
     id="path4753"
     style="fill:#0b50c4;stroke-width:0.206418" />
  <path
     d="m 6.200919,4.4907596 0.538338,-0.04913 0.345544,-0.371553 z m 0.538338,-0.04913 0.558774,0.509853 0.474762,-0.471047 z"
     id="path4755"
     style="fill:#0f4dbf;stroke-width:0.206418" />
  <path
     d="M 6.739257,4.4416326 5.829573,5.2947586 6.200919,4.4907596 Z"
     id="path4757"
     style="fill:#1546b6;stroke-width:0.206418" />
  <path
     d="m 5.829573,5.2947586 0.580447,0.0964 0.329237,-0.949523 z"
     id="path4759"
     style="fill:#1549bd;stroke-width:0.206418" />
  <path
     d="m 6.41002,5.3911556 0.329237,-0.949523 0.558774,0.509853 z"
     id="path4761"
     style="fill:#144bc3;stroke-width:0.206418" />
  <path
     d="m 4.966125,5.4788836 0.0353,0.343067 0.493959,-0.848379 z"
     id="path4763"
     style="fill:#173794;stroke-width:0.206418" />
  <path
     d="m 4.551844,6.3318036 0.414281,-0.85292 0.0353,0.343067 z"
     id="path4765"
     style="fill:#192f84;stroke-width:0.206418" />
  <path
     d="m 5.001423,5.8219506 0.493959,-0.848379 0.334191,0.321187 z"
     id="path4767"
     style="fill:#1a389b;stroke-width:0.206418" />
  <path
     d="m 4.971492,6.5576246 0.02993,-0.735674 -0.449579,0.509853 z"
     id="path4769"
     style="fill:#1d3089;stroke-width:0.206418" />
  <path
     d="m 4.971492,6.5576246 0.02993,-0.735674 0.583544,0.47373 z"
     id="path4771"
     style="fill:#1e389f;stroke-width:0.206418" />
  <path
     d="m 5.584967,6.2956806 0.244606,-1.000922 -0.82815,0.527192 z"
     id="path4773"
     style="fill:#1c40af;stroke-width:0.206418" />
  <path
     d="m 5.584967,6.2956806 0.244606,-1.000922 0.580447,0.0964 z"
     id="path4775"
     style="fill:#1e41b7;stroke-width:0.206418" />
  <path
     d="m 4.463704,7.1050456 0.08814,-0.773242 0.419648,0.225821 z"
     id="path4777"
     style="fill:#192c7d;stroke-width:0.206418" />
  <path
     d="M 8.73078,11.587416 9.511247,11.466249 9.858236,11.166943 Z M 4.148297,8.3260096 4.205887,8.1460126 4.189377,7.1552056 Z m 0.316026,-1.221377 -0.258436,1.04138 0.46857,1.238509 -0.229331,-1.434606 z"
     id="path4779"
     style="fill:#162467;stroke-width:0.206418" />
  <path
     d="m 4.673837,9.3849346 0.386621,0.05429 -0.27082,-0.632053 z"
     id="path4781"
     style="fill:#1a236a;stroke-width:0.206418" />
  <path
     d="m 10.283251,10.837086 -0.425015,0.33027 -0.346989,0.299306 0.801315,-0.439877 z M 8.009142,11.701772 8.614979,11.718702 9.511247,11.466253 8.73078,11.58742 Z M 5.034656,10.103683 5.440887,10.181713 5.060458,9.4386066 Z"
     id="path4783"
     style="fill:#132668;stroke-width:0.206418" />
  <path
     d="M 6.798912,11.096554 6.11092,10.566885 5.825031,10.842041 6.783018,11.460263 Z M 4.356985,9.1242286 4.818536,10.032469 4.674044,9.3849346 Z M 4.147677,8.3264216 4.356985,9.1242286 4.205268,8.1464256 Z m 3.846396,2.8776764 -1.195161,-0.107544 0.504899,0.236142 -0.520793,0.127567 -0.626892,-0.195272 0.693152,0.301577 1.159864,0.13603 0.722463,-0.114356 z M 5.060458,9.4392226 4.674663,9.3849326 5.035482,10.103681 Z m -0.615332,-1.489307 0.229537,1.435019 0.115801,-0.577971 z m 0.995761,2.2317934 -0.406231,-0.07803 -0.2155,-0.07121 0.325315,0.438638 0.450198,0.412836 0.561457,0.381048 -0.330269,-0.422125 z"
     id="path4785"
     style="fill:#1b2268;stroke-width:0.206418" />
  <path
     d="m 4.463704,7.1050456 0.545563,0.844044 -0.03777,-1.391465 z"
     id="path4787"
     style="fill:#212a81;stroke-width:0.206418" />
  <path
     d="m 4.445126,7.9499156 0.344512,0.857254 0.219629,-0.85808 z"
     id="path4789"
     style="fill:#21267a;stroke-width:0.206418" />
  <path
     d="m 4.789638,8.8071696 0.219629,-0.85808 0.272678,0.678084 z"
     id="path4791"
     style="fill:#262781;stroke-width:0.206418" />
  <path
     d="M 5.060458,9.4392226 6.106586,10.087582 5.281945,8.6271736 Z"
     id="path4793"
     style="fill:#272379;stroke-width:0.206418" />
  <path
     d="M 4.819156,10.032469 5.035275,10.103679 4.674663,9.3849306 Z M 7.1298,10.405466 6.799531,11.096554 7.994693,11.204098 Z M 5.060458,9.4392226 5.440887,10.182328 5.825031,10.842866 6.11092,10.567711 6.10662,10.088408 Z"
     id="path4795"
     style="fill:#1e226d;stroke-width:0.206418" />
  <path
     d="m 9.909634,10.510533 -0.0514,0.65641 0.425015,-0.330269 z m -1.829071,-0.09433 -0.0869,0.787898 1.015784,-0.272678 -0.03612,-0.885741 z"
     id="path4797"
     style="fill:#222475;stroke-width:0.206418" />
  <path
     d="M 4.445126,7.9499156 H 5.009267 L 4.463704,7.1058716 Z m 4.528195,2.0957634 0.03612,0.885741 0.90019,-0.420887 z"
     id="path4799"
     style="fill:#23277d;stroke-width:0.206418" />
  <path
     d="M 8.973321,10.045679 9.552737,9.520964 9.909634,10.510533 Z"
     id="path4801"
     style="fill:#1e2776;stroke-width:0.206418" />
  <path
     d="M 9.909634,10.510533 10.347653,9.1838826 9.552737,9.520964 Z"
     id="path4803"
     style="fill:#222b86;stroke-width:0.206418" />
  <path
     d="M 10.8123,9.910682 9.909634,10.510533 10.347653,9.1838826 Z"
     id="path4805"
     style="fill:#192974;stroke-width:0.206418" />
  <path
     d="M 11.25321,9.3170226 10.347653,9.1838826 10.8123,9.910682 11.256306,9.825842 Z"
     id="path4807"
     style="fill:#172a75;stroke-width:0.206418" />
  <path
     d="m 11.316167,8.6040546 -0.968514,0.579828 0.905557,0.13314 0.510059,-0.857461 z"
     id="path4809"
     style="fill:#172d7d;stroke-width:0.206418" />
  <path
     d="m 4.551844,6.3315966 0.414281,-0.852919 -0.557329,0.906175 z m 6.403091,1.055829 0.361232,1.216422 0.268344,-0.767875 z"
     id="path4811"
     style="fill:#18338a;stroke-width:0.206418" />
  <path
     d="m 11.58513,7.8361786 -0.250385,-0.960463 -0.37981,0.511917 z"
     id="path4813"
     style="fill:#153791;stroke-width:0.206418" />
  <path
     d="m 10.347653,9.1838826 0.968514,-0.579828 -0.938583,-0.41779 z"
     id="path4815"
     style="fill:#1b318b;stroke-width:0.206418" />
  <path
     d="M 10.347653,9.1838826 9.469963,8.2971106 9.552733,9.520964 Z"
     id="path4817"
     style="fill:#242d8d;stroke-width:0.206418" />
  <path
     d="M 8.973321,10.045679 8.299366,9.4489236 9.552737,9.520964 Z"
     id="path4819"
     style="fill:#2a2b8f;stroke-width:0.206418" />
  <path
     d="m 5.060458,9.4392226 0.221487,-0.812049 -0.492307,0.179996 z m 3.238908,0.0093 -0.218803,0.9676884 0.892345,-0.370521 z"
     id="path4821"
     style="fill:#27267f;stroke-width:0.206418" />
  <path
     d="m 6.904392,9.646879 -0.648566,-0.3298564 -0.14924,0.7705594 1.022595,0.317884 0.951794,0.01073 z"
     id="path4823"
     style="fill:#2d2381;stroke-width:0.206418" />
  <path
     d="M 8.080975,10.4162 8.299366,9.4489236 6.904392,9.646879 Z"
     id="path4825"
     style="fill:#2f2485;stroke-width:0.206418" />
  <path
     d="M 5.009267,7.9490896 5.288963,7.0557116 4.971492,6.5576246 Z"
     id="path4827"
     style="fill:#233196;stroke-width:0.206418" />
  <path
     d="M 5.584967,6.2956806 6.813155,5.9377516 6.164383,7.2631626 Z"
     id="path4829"
     style="fill:#293cb7;stroke-width:0.206418" />
  <path
     d="m 10.347653,9.1838826 -0.87769,-0.886772 0.907621,-0.110846 z"
     id="path4831"
     style="fill:#25339c;stroke-width:0.206418" />
  <path
     d="m 11.316167,8.6040546 -0.361232,-1.216422 -0.577351,0.798632 z"
     id="path4833"
     style="fill:#19348f;stroke-width:0.206418" />
  <path
     d="M 9.552737,9.520964 8.548925,8.5503856 9.469963,8.2971106 Z"
     id="path4835"
     style="fill:#2a309a;stroke-width:0.206418" />
  <path
     d="M 8.299366,9.4489236 9.552737,9.520964 8.548925,8.5503856 Z"
     id="path4837"
     style="fill:#302b96;stroke-width:0.206418" />
  <path
     d="m 8.299366,9.4489236 -0.686341,-0.55898 0.9359,-0.339558 z"
     id="path4839"
     style="fill:#3630a7;stroke-width:0.206418" />
  <path
     d="m 5.495382,4.9735716 0.07575,-0.169882 -0.605012,0.675194 z m 5.231874,1.441625 0.22706,0.972436 0.379809,-0.511917 z"
     id="path4841"
     style="fill:#173da2;stroke-width:0.206418" />
  <path
     d="m 5.584967,6.2956806 0.579416,0.967482 -0.87542,-0.207451 z"
     id="path4843"
     style="fill:#2a36a8;stroke-width:0.206418" />
  <path
     d="m 5.288963,7.0557116 0.87542,0.207451 -0.592007,0.93239 z"
     id="path4845"
     style="fill:#312e9f;stroke-width:0.206418" />
  <path
     d="M 6.813155,5.9377516 7.298031,4.9514856 6.41002,5.3911556 Z"
     id="path4847"
     style="fill:#184dcd;stroke-width:0.206418" />
  <path
     d="m 5.009267,7.9490896 0.563109,0.246463 -0.290431,0.431621 z"
     id="path4849"
     style="fill:#272986;stroke-width:0.206418" />
  <path
     d="M 5.572376,8.1955526 5.281945,8.6271736 6.106586,10.087582 6.255826,9.3170226 Z"
     id="path4851"
     style="fill:#2c2584;stroke-width:0.206418" />
  <path
     d="m 6.255826,9.3170226 0.09124,-1.356786 -0.774687,0.235316 z"
     id="path4853"
     style="fill:#32268b;stroke-width:0.206418" />
  <path
     d="M 6.255826,9.3170226 7.613025,8.8899436 6.347063,7.9602366 Z"
     id="path4855"
     style="fill:#372999;stroke-width:0.206418" />
  <path
     d="M 7.613025,8.8899436 7.480711,7.8409266 6.347063,7.9602366 Z"
     id="path4857"
     style="fill:#392da5;stroke-width:0.206418" />
  <path
     d="m 7.480711,7.8409266 0.957368,-0.357929 0.110846,1.067388 z"
     id="path4859"
     style="fill:#3338bc;stroke-width:0.206418" />
  <path
     d="M 6.904392,9.646879 8.299366,9.4489236 7.613025,8.8899436 Z"
     id="path4861"
     style="fill:#362896;stroke-width:0.206418" />
  <path
     d="M 6.904392,9.646879 6.255826,9.3170226 7.613025,8.8899436 Z"
     id="path4863"
     style="fill:#35268f;stroke-width:0.206418" />
  <path
     d="m 6.813155,5.9377516 0.831246,0.08793 -0.34637,-1.0742 z"
     id="path4865"
     style="fill:#2648d3;stroke-width:0.206418" />
  <path
     d="m 8.072719,5.2656536 -0.774688,-0.314168 0.34637,1.0742 z"
     id="path4867"
     style="fill:#1057dc;stroke-width:0.206418" />
  <path
     d="m 8.072719,5.2656536 0.825053,0.565379 -1.253371,0.194653 z"
     id="path4869"
     style="fill:#1653da;stroke-width:0.206418" />
  <path
     d="m 7.644401,6.0256856 1.229426,0.652075 -0.435748,0.805237 z"
     id="path4871"
     style="fill:#2b46d5;stroke-width:0.206418" />
  <path
     d="m 8.873827,6.6777606 0.02394,-0.846728 -1.253371,0.194653 z"
     id="path4873"
     style="fill:#244ad7;stroke-width:0.206418" />
  <path
     d="m 8.873827,6.6777606 0.02394,-0.846728 0.868401,0.425222 z"
     id="path4875"
     style="fill:#2547cf;stroke-width:0.206418" />
  <path
     d="M 7.644401,6.0256856 8.438079,7.4829976 7.046201,6.7857166 Z"
     id="path4877"
     style="fill:#333cc5;stroke-width:0.206418" />
  <path
     d="M 7.480711,7.8409266 8.438079,7.4829976 7.046201,6.7857166 Z"
     id="path4879"
     style="fill:#3833b6;stroke-width:0.206418" />
  <path
     d="M 8.438079,7.4829976 9.665648,7.2586206 8.873827,6.6777606 Z"
     id="path4881"
     style="fill:#2a41c6;stroke-width:0.206418" />
  <path
     d="M 9.766173,6.2562546 9.665648,7.2586206 8.873827,6.6777606 Z"
     id="path4883"
     style="fill:#2045c1;stroke-width:0.206418" />
  <path
     d="m 9.766173,6.2562546 0.579416,0.787072 -0.679941,0.215294 z"
     id="path4885"
     style="fill:#1b43b7;stroke-width:0.206418" />
  <path
     d="m 10.727256,6.4151966 -0.961083,-0.158942 0.579416,0.787072 z"
     id="path4887"
     style="fill:#1742af;stroke-width:0.206418" />
  <path
     d="M 5.830605,5.2947586 6.202157,4.4897276 5.49662,4.9725396 Z m 4.897683,1.120438 -0.381667,0.62813 0.609346,0.344306 z"
     id="path4889"
     style="fill:#1740a9;stroke-width:0.206418" />
  <path
     d="m 10.377584,8.1862646 0.577351,-0.798632 -0.609346,-0.344306 z"
     id="path4891"
     style="fill:#1b3ca4;stroke-width:0.206418" />
  <path
     d="m 10.377584,8.1862646 -0.032,-1.142938 -0.679941,0.215294 z"
     id="path4893"
     style="fill:#1f3dad;stroke-width:0.206418" />
  <path
     d="M 5.584967,6.2956806 6.813155,5.9377516 6.41002,5.3911556 Z m 2.853112,1.187317 1.032091,0.814113 0.195684,-1.03849 z"
     id="path4895"
     style="fill:#2543c3;stroke-width:0.206418" />
  <path
     d="M 8.548925,8.5503856 9.469963,8.2971106 8.438079,7.4829976 Z"
     id="path4897"
     style="fill:#2e37b2;stroke-width:0.206418" />
  <path
     d="m 6.813155,5.9377516 0.233046,0.847965 0.5982,-0.760031 z"
     id="path4899"
     style="fill:#2d40c7;stroke-width:0.206418" />
  <path
     d="M 6.813155,5.9377516 6.164383,7.2631626 7.046201,6.7857166 Z"
     id="path4901"
     style="fill:#3537b8;stroke-width:0.206418" />
  <path
     d="m 7.046201,6.7857166 -0.699138,1.17452 1.133648,-0.11931 z"
     id="path4903"
     style="fill:#3931b0;stroke-width:0.206418" />
  <path
     d="m 7.480711,7.8409266 0.132314,1.049017 0.9359,-0.339558 z m -1.134061,0.11931 0.699138,-1.17452 -0.881818,0.477446 z"
     id="path4905"
     style="fill:#3735b8;stroke-width:0.206418" />
  <path
     d="m 5.572376,8.1955526 0.592007,-0.93239 0.18268,0.697074 z"
     id="path4907"
     style="fill:#342892;stroke-width:0.206418" />
  <path
     d="m 6.156126,11.264991 0.626892,0.196098 -0.957987,-0.618223 z m -0.04521,-0.69728 0.687992,0.529669 0.330269,-0.691088 -1.022595,-0.317884 z m 1.883153,0.637213 0.0869,-0.787898 -0.951794,-0.01073 z M 9.00944,10.93142 8.730776,11.587416 9.858232,11.166943 Z"
     id="path4909"
     style="fill:#232372;stroke-width:0.206418" />
  <path
     d="m 5.009267,7.9490896 0.279696,-0.893378 0.283413,1.139841 z"
     id="path4911"
     style="fill:#2a2f96;stroke-width:0.206418" />
  <path
     d="m 5.288963,7.0557116 0.296004,-0.760031 -0.613268,0.262976 z m 4.376065,0.202909 -0.195684,1.03849 0.90824,-0.110846 z"
     id="path4913"
     style="fill:#2636a5;stroke-width:0.206418" />
  <path
     d="m 11.935215,8.2473636 v -0.0017 l -0.03592,-1.183602 v -0.0041 l -0.177932,-0.590562 v -0.0012 l -0.509027,-0.96067 -0.586641,-0.62008 h -0.0012 l -0.618016,-0.441116 h -0.0025 L 9.46728,4.2337696 H 9.46358 L 8.81954,4.0046456 h -0.0043 l -1.06037,-0.0675 h -0.0045 l -0.668794,0.120754 h -0.0025 l -0.545151,0.167612 h -0.0035 L 5.562324,4.7886206 4.957519,5.4634016 4.40019,6.3693706 v 0.0023 l -0.219629,0.771178 v 0.0029 l -0.04128,1.170184 v 0.0056 l 0.209102,0.797187 v 0.0027 L 4.809727,10.02966 v 0.0014 l 0.319123,0.449578 v 10e-4 l 0.449991,0.412837 h 0.0012 l 0.562077,0.380222 h 0.0012 l 0.693152,0.30137 h 0.0043 l 1.159864,0.13603 h 0.0017 l 0.605631,0.01693 h 0.0047 l 0.896267,-0.252655 h 0.0031 l 0.800903,-0.439671 0.0014,-0.001 h 10e-4 l 0.516045,-0.439671 0.399626,-0.477032 0.0014,-0.0021 0.565173,-1.1064024 v -0.0043 l 0.123851,-0.756522 v -0.0019 z M 5.60499,10.870113 5.488363,10.763189 5.750514,10.968575 Z m 1.701298,0.444419 -0.40974,-0.191556 0.970165,0.08731 z M 7.455528,7.8260646 6.38009,7.9391816 7.043311,6.8245236 Z M 7.08026,6.8222526 8.394318,7.4805206 7.490413,7.8178076 Z m 0.385176,1.037871 0.12509,0.990807 -1.197225,-0.878722 z m 0.109402,1.023421 -1.300434,0.409121 0.08731,-1.300435 z m -0.07225,-1.006908 1.007527,0.669002 -0.882644,0.320361 z m 0.0161,-0.03138 0.904112,-0.338113 0.104654,1.008146 z m 1.388988,-1.164405 0.837851,-0.395497 -0.09454,0.94106 z m 0.71462,0.567856 -1.151814,0.210547 0.409121,-0.75611 z M 8.437662,7.4462496 7.688364,6.0684086 8.850705,6.6847736 Z M 8.396382,7.4423496 7.073655,6.7797466 7.64213,6.0572836 Z M 6.353875,7.9154596 6.185231,7.2718476 6.999138,6.8313516 Z M 6.242409,9.2608926 5.59921,8.2058896 6.327866,7.9844036 Z M 7.555022,8.9267016 6.901089,9.625222 6.302477,9.3209606 Z M 8.523329,8.5784746 8.290077,9.4185966 7.647084,8.8959456 Z m -0.06316,-1.056035 0.97223,0.766843 -0.866956,0.238826 z m 0.0194,-0.02931 1.164405,-0.21261 -0.185777,0.984821 z m 1.206514,-0.259054 0.0933,-0.93074 0.537926,0.73072 z m 0.642992,-0.167199 0.02972,1.065737 -0.663841,-0.864686 z m -1.436463,-0.417171 0.02229,-0.790995 0.811429,0.397355 z m -0.03509,0 -1.158005,-0.614301 1.180505,-0.183299 z m -1.803269,0.09846 -0.216945,-0.789756 0.774274,0.08257 z m -0.02828,0.02952 -0.821751,0.444006 0.604393,-1.234587 z m -0.699964,1.170804 -0.713175,0.216739 0.545151,-0.858906 z m -0.129011,1.305182 -0.890901,-0.630814 0.26566,-0.394465 z m 0.07183,0.08958 0.598613,0.3042614 -0.736087,0.406643 z M 7.614881,8.9139026 8.257667,9.4373786 6.951453,9.623155 Z M 8.558212,8.5836326 9.507736,9.500956 8.323102,9.433046 Z m 0.02518,-0.02436 0.870672,-0.239445 0.07823,1.15718 z m 1.092365,-1.259151 0.669414,0.872117 -0.853333,0.103209 z m 0.688405,-0.22706 0.564966,0.320155 -0.536687,0.740835 z m 0.006,-0.03674 0.350911,-0.576113 0.208069,0.892552 z m -0.0258,-0.02518 -0.538338,-0.731133 0.893171,0.147589 z m -1.415409,-1.185253 0.632259,-0.572398 0.181441,0.971198 z m -1.251307,0.176281 0.401277,-0.711936 0.77283,0.529669 z m -0.837645,-0.07927 0.45412,-0.924753 0.324903,1.007321 z M 6.16295,7.2264306 5.611813,6.3062186 6.779934,5.9656286 Z M 5.579612,8.1518036 5.31292,7.0794606 6.136528,7.2745266 Z M 5.285879,8.5898226 5.04148,7.9829536 5.546172,8.2038206 Z M 6.236435,9.3246716 6.09896,10.037434 5.335213,8.6866326 Z m 0.657442,0.3478144 0.209101,0.706363 -0.952,-0.296003 z M 8.276878,9.4695766 8.069428,10.387725 6.952912,9.657418 Z M 9.51002,9.535837 8.973333,10.021952 8.348918,9.4691636 Z m -0.0194,-1.1933034 0.825673,0.835168 -0.748679,0.317471 z m 0.01693,-0.03261 0.851888,-0.103209 -0.0289,0.9359 z m 1.440799,-0.883263 0.340177,1.145827 -0.884295,-0.393433 z m -0.193001,-0.968514 0.555058,0.420886 -0.346989,0.467744 z m -0.955303,-0.214056 0.516045,-0.590149 0.380429,0.738151 z m -0.02333,-0.02663 -0.180203,-0.964592 0.694804,0.375062 z m -0.880373,-0.408708 -0.769527,-0.527192 1.39869,-0.04252 z m -1.247385,0.173391 -0.322631,-1.000302 0.721431,0.292495 z m -0.838883,-0.07803 -0.373411,-0.50655 0.82299,-0.407676 z m -0.0258,0.02394 -1.144383,0.333572 0.768701,-0.842806 z M 6.12807,7.2365386 5.312718,7.0433306 5.588493,6.3355226 Z M 5.546797,8.1654196 5.030751,7.9393916 5.287329,7.1205316 Z M 5.25905,8.6168566 4.815044,8.7793076 5.012999,8.0052396 Z M 6.057682,10.036601 5.080911,9.4311756 5.287329,8.6727956 Z m 0.994729,0.363296 -0.924134,0.146557 -0.0039,-0.43513 z M 6.934752,9.687548 8.021337,10.398039 7.142203,10.388139 Z M 8.310116,9.4811296 8.940724,10.039697 8.105556,10.38648 Z m 1.236032,0.07059 0.333366,0.9239274 -0.874388,-0.433478 z m 0.02972,-0.02064 0.743105,-0.3154078 -0.409946,1.2416062 z m 0.81948,-1.3177748 0.884089,0.393433 -0.912162,0.546183 z m 0.591801,-0.781499 0.57797,0.411392 -0.247701,0.704505 z m -0.0064,-0.04768 0.347401,-0.468157 0.228918,0.878516 z m -0.232014,-0.97512 0.159767,-0.500564 0.384144,0.91402 z m -0.02415,-0.03901 -0.368663,-0.713381 0.529256,0.211579 z m -1.089269,-1.1353 0.769733,-0.05037 -0.09702,0.412837 z m -1.523985,0.01342 0.541847,-0.672304 0.868608,0.629369 z m -0.032,-0.0161 -0.279077,-0.730927 0.815351,0.06564 z m -0.03633,0.0033 -0.712761,-0.288986 0.436987,-0.433478 z m -1.601392,0.122406 0.306531,-0.884296 0.52038,0.474762 z m -0.822163,0.876657 0.224376,-0.918767 0.532766,0.08855 z M 5.286287,7.0187686 4.99854,6.5669196 5.554631,6.3295386 Z m -0.01528,0.04128 -0.24605,0.784389 -0.03303,-1.223234 z M 4.987595,7.9682886 4.786956,8.7526776 4.472169,7.9682886 Z M 4.464118,7.9340186 4.480838,7.1642846 4.9781,7.9333986 Z M 5.257177,8.6564816 5.056745,9.3865826 4.813172,8.8174876 Z M 6.057254,10.07829 5.451829,10.16395 5.105872,9.4885496 Z m 0.03303,0.03055 0.0039,0.428937 -0.598613,-0.344512 z M 7.099875,10.429201 6.792518,11.06951 6.15386,10.577822 Z m 0.03592,0.0064 0.808746,0.746821 -1.118993,-0.100732 z m 0.03963,-0.01094 0.887598,0.01011 L 7.982103,11.169 Z M 8.957846,10.07375 8.991696,10.903138 8.12185,10.418675 Z m 0.0353,0.0031 0.877277,0.435543 -0.843424,0.394258 z M 10.353855,9.2268196 10.789397,9.908 9.943083,10.470283 Z m 0.03034,-0.01775 0.838471,0.12385 -0.409328,0.5470094 z m 0.01548,-0.03303 0.897094,-0.536688 -0.05842,0.660538 z m 1.184841,-1.279793 0.158322,0.554233 -0.397355,0.128392 z m -0.211785,-0.945395 0.45412,0.572191 -0.233253,0.275362 z m -0.425222,-1.042205 0.59015,0.432239 -0.202909,0.488592 z m -0.608108,-0.297036 0.09516,-0.405612 0.424809,0.613475 z M 9.58742,5.2016636 9.484211,4.5824096 l 0.887598,0.568476 z m -0.03901,-0.02064 -0.846314,-0.612856 0.743105,-0.0047 z m -1.720495,-0.713794 0.552168,-0.338939 0.237175,0.402515 z m -0.530289,0.460725 -0.511297,-0.466505 0.945601,0.0355 z M 6.398263,5.3715476 5.867355,5.2831976 6.699427,4.5029366 Z M 5.574654,6.2647186 5.031362,5.8236026 5.802333,5.3327406 Z m -0.02312,0.02642 -0.561251,0.239446 0.02725,-0.67313 z M 4.990077,7.8871646 4.485797,7.1071096 4.955192,6.6009726 Z M 4.77148,8.8086146 4.67591,9.2858536 4.487038,8.1008066 Z m 0.02436,0.05697 0.236349,0.551755 -0.336874,-0.04706 z m 0.613062,1.2919714 -0.356277,-0.06915 0.02271,-0.582512 z m 0.67313,0.412836 -0.253069,0.243367 -0.33997,-0.58437 z m 0.03014,0.0194 0.607901,0.468775 -0.860557,-0.224996 z M 8.095438,10.44406 8.962394,10.925427 8.01287,11.180354 Z m 1.794393,0.09475 -0.04748,0.605425 -0.782531,-0.217359 z m 0.870671,-0.57281 -0.48178,0.844869 -0.340383,-0.29848 z m 0.474762,-0.5965494 0.0025,0.4417354 -0.385383,0.07369 z m 0.0966,-0.752394 0.392194,-0.126741 -0.446689,0.751775 z m 0.271853,-0.776958 0.222518,-0.262357 -0.07142,0.787072 z m -0.24956,-0.967275 0.199813,-0.481161 0.258848,1.058719 z m -0.425015,-1.019706 0.140364,-0.245018 0.422951,0.657648 z m -0.02436,-0.02787 -0.415314,-0.598613 0.555678,0.354214 z m -1.393116,-1.267201 0.420267,-0.04479 0.425221,0.586434 z m -0.853539,-0.02477 -0.231395,-0.393226 0.946221,0.388892 z m -0.879755,-0.0772 -0.185776,-0.326553 0.730307,-0.0074 z m -0.03716,0.0056 -0.919799,-0.03447 0.732991,-0.292908 z m -1.857763,0.758794 0.330269,-0.713175 0.477651,-0.04355 z m -0.05924,0.04459 -0.300958,-0.288986 0.635355,-0.434716 z m -0.0225,0.02683 -0.748679,0.47662 0.447309,-0.766844 z M 4.955395,6.5289546 4.579714,6.3268716 4.982229,5.8704806 Z m -0.01177,0.03323 -0.456597,0.491894 0.07926,-0.694597 z M 4.42696,7.9416766 4.233959,8.0993806 4.441822,7.2623546 Z m 0.0047,0.04128 0.196923,1.235619 -0.403548,-1.066356 z m 0.609759,1.471555 -0.0225,0.5806544 -0.314581,-0.6279244 z m 0.387447,0.7431054 0.321187,0.551343 -0.6593,-0.615952 z m 1.351213,0.912368 -0.01383,0.318916 -0.840535,-0.54226 z m 0.03447,0.01362 0.436368,0.203941 -0.449992,0.110021 z m 1.161928,0.101558 0.01362,0.447308 -0.63391,-0.331714 z M 8.978637,10.956819 8.72144,11.562243 8.041498,11.208649 Z m 0.04128,-0.0054 0.782118,0.217152 -1.038696,0.387447 z m 0.904937,-0.405612 0.331301,0.288986 -0.377539,0.293939 z m 0.899157,-0.620286 0.381874,-0.07307 -0.837232,0.870259 z m 0.449785,-0.16885 -0.0027,-0.4307954 0.352356,-0.215294 z m 0.03096,-0.4923074 0.427286,-0.717923 -0.07865,0.505518 z m 0.545357,-1.552265 0.04995,0.528431 -0.113117,0.156258 z m -0.2605,-1.323347 0.09764,0.09165 0.09784,0.708014 z m -0.495403,-0.807508 0.09186,-0.04624 0.265866,0.602534 z m -0.643406,-0.421918 0.161419,-0.230982 0.395085,0.586021 z m -0.02518,-0.02518 -0.42068,-0.580448 0.582512,0.349053 z m -0.947666,-0.607695 -0.0027,-0.252243 0.405405,0.209308 z m -0.03509,-0.0068 -0.926611,-0.380635 0.923928,0.12158 z m -1.832786,-0.425428 0.147589,-0.126534 0.489004,0.120342 z m -0.805031,0.302196 0.286715,-0.309627 0.396735,0.03571 z m -0.0741,0.02849 -0.433479,0.03943 0.713175,-0.339764 z m -1.194336,0.499119 0.04789,-0.107544 0.398594,-0.197955 z m -0.52327,0.842599 -0.02911,-0.281348 0.433478,-0.412836 z m -0.03014,0.04954 -0.35958,0.407676 0.331301,-0.68118 z m -0.535655,1.274013 -0.229537,0.04273 0.303228,-0.688405 z m -0.0076,0.03715 -0.219423,0.884502 -0.01404,-0.841154 z M 4.633363,9.3296056 4.372451,9.1149306 4.247361,8.3098996 Z M 4.999136,10.072711 4.832557,10.018011 4.721091,9.518686 Z m 0.712349,0.68696 -0.552787,-0.299719 -0.08897,-0.298894 z m 0.101145,0.09495 0.239652,0.305499 -0.732785,-0.574049 z m 0.08959,0.05759 0.762302,0.491894 -0.498913,-0.156052 z m 1.398483,0.438019 0.59242,0.309627 -1.02982,-0.202909 z m 0.71111,-0.117865 0.663015,0.344925 -0.649598,0.103209 z m 1.760334,-0.0161 -0.268343,0.232426 -0.605838,0.09392 z m 0.497468,-0.348021 0.0225,0.144492 -0.348021,0.107544 z m 0.903079,-0.932185 -0.357103,0.637007 -0.455565,0.209514 z M 11.272604,9.82996 11.512255,9.3871926 11.25609,9.994682 Z m 0.50655,-1.3644244 0.09041,-0.125089 -0.144493,0.478477 z m 0.08711,-0.943743 -0.0012,-0.0093 0.0091,-0.118484 0.0091,0.306943 z m -0.02415,-0.174424 -0.09041,-0.655997 0.112085,0.371553 z m -0.268344,-1.023008 -0.165135,-0.374649 0.231189,0.436574 z m -0.498293,-0.773655 -0.33027,-0.489418 0.421094,0.443799 z m -1.102686,-1.056242 0.02209,-0.01589 0.253069,0.181028 z m -0.03344,-0.0192 -0.171533,-0.08855 0.19073,0.07493 z m -1.44823,-0.375062 0.3216,-0.06605 0.483844,0.172153 z m -0.10486,-0.01404 -0.437813,-0.107751 0.734023,0.04665 z m -0.829388,0.008 -0.341416,-0.03076 0.477858,-0.08628 z m -1.204863,0.305086 0.195271,-0.14635 0.314995,-0.09702 z m -0.160387,0.07637 -0.169469,0.08422 0.260499,-0.152336 z m -0.710904,0.487559 -0.201051,0.191969 0.229743,-0.256371 z m -0.94168,1.354723 -0.08938,0.03303 0.347402,-0.564141 z m -0.11642,0.0803 0.0964,-0.03571 -0.24378,0.55382 z m -0.240064,1.43729 0.005,0.308182 -0.01775,0.05615 z m 0.01672,0.387034 0.08793,0.566618 -0.121167,-0.462377 z M 4.658143,9.3945656 4.771053,9.900291 4.410441,9.1908316 Z m 0.362263,0.7224644 0.07844,0.263802 -0.233459,-0.314787 z m 1.751252,1.357612 0.03261,0.05222 -0.342654,-0.149034 z m 0.08793,0.07431 -0.04128,-0.06399 0.745376,0.146763 z m 1.825975,0.06193 -0.07844,0.08876 -0.409121,-0.01135 z m 0.05429,-0.0085 0.487766,-0.07576 -0.560219,0.157703 z m 1.127043,-0.421299 0.286096,-0.08835 -0.503661,0.278045 z m 0.458249,-0.189699 -0.0225,-0.144492 0.417997,-0.192176 z m 0.90535,-1.085346 -0.01961,0.195065 -0.274949,0.327998 z m 0.452675,-0.8318664 0.07059,-0.03406 -0.323458,0.6353564 z m 0.09392,-0.08422 -0.07926,0.03839 0.159355,-0.524302 z"
     id="path4915"
     style="fill:url(#a);stroke-width:0.206418" />
  <path
     d="m 11.935215,8.2473636 v -0.0017 l -0.03592,-1.183602 v -0.0041 l -0.177932,-0.590562 v -0.0012 l -0.509027,-0.96067 -0.586641,-0.62008 h -0.0012 l -0.618016,-0.441116 h -0.0025 L 9.46728,4.2337696 H 9.46358 L 8.81954,4.0046456 h -0.0043 l -1.06037,-0.0675 h -0.0045 l -0.668794,0.120754 h -0.0025 l -0.545151,0.167612 h -0.0035 L 5.562324,4.7886206 4.957519,5.4634016 4.40019,6.3693706 v 0.0023 l -0.219629,0.771178 v 0.0029 l -0.04128,1.170184 v 0.0056 l 0.209102,0.797187 v 0.0027 L 4.809727,10.02966 v 0.0014 l 0.319123,0.449578 v 10e-4 l 0.449991,0.412837 h 0.0012 l 0.562077,0.380222 h 0.0012 l 0.693152,0.30137 h 0.0043 l 1.159864,0.13603 h 0.0017 l 0.605631,0.01693 h 0.0047 l 0.896267,-0.252655 h 0.0031 l 0.800903,-0.439671 0.0014,-0.001 h 10e-4 l 0.516045,-0.439671 0.399626,-0.477032 0.0014,-0.0021 0.565173,-1.1064024 v -0.0043 l 0.123851,-0.756522 v -0.0019 z M 5.60499,10.870113 5.488363,10.763189 5.750514,10.968575 Z m 1.701298,0.444419 -0.40974,-0.191556 0.970165,0.08731 z M 7.455528,7.8260646 6.38009,7.9391816 7.043311,6.8245236 Z M 7.08026,6.8222526 8.394318,7.4805206 7.490413,7.8178076 Z m 0.385176,1.037871 0.12509,0.990807 -1.197225,-0.878722 z m 0.109402,1.023421 -1.300434,0.409121 0.08731,-1.300435 z m -0.07225,-1.006908 1.007527,0.669002 -0.882644,0.320361 z m 0.0161,-0.03138 0.904112,-0.338113 0.104654,1.008146 z m 1.388988,-1.164405 0.837851,-0.395497 -0.09454,0.94106 z m 0.71462,0.567856 -1.151814,0.210547 0.409121,-0.75611 z M 8.437662,7.4462496 7.688364,6.0684086 8.850705,6.6847736 Z M 8.396382,7.4423496 7.073655,6.7797466 7.64213,6.0572836 Z M 6.353875,7.9154596 6.185231,7.2718476 6.999138,6.8313516 Z M 6.242409,9.2608926 5.59921,8.2058896 6.327866,7.9844036 Z M 7.555022,8.9267016 6.901089,9.625222 6.302477,9.3209606 Z M 8.523329,8.5784746 8.290077,9.4185966 7.647084,8.8959456 Z m -0.06316,-1.056035 0.97223,0.766843 -0.866956,0.238826 z m 0.0194,-0.02931 1.164405,-0.21261 -0.185777,0.984821 z m 1.206514,-0.259054 0.0933,-0.93074 0.537926,0.73072 z m 0.642992,-0.167199 0.02972,1.065737 -0.663841,-0.864686 z m -1.436463,-0.417171 0.02229,-0.790995 0.811429,0.397355 z m -0.03509,0 -1.158005,-0.614301 1.180505,-0.183299 z m -1.803269,0.09846 -0.216945,-0.789756 0.774274,0.08257 z m -0.02828,0.02952 -0.821751,0.444006 0.604393,-1.234587 z m -0.699964,1.170804 -0.713175,0.216739 0.545151,-0.858906 z m -0.129011,1.305182 -0.890901,-0.630814 0.26566,-0.394465 z m 0.07183,0.08958 0.598613,0.3042614 -0.736087,0.406643 z M 7.614881,8.9139026 8.257667,9.4373786 6.951453,9.623155 Z M 8.558212,8.5836326 9.507736,9.500956 8.323102,9.433046 Z m 0.02518,-0.02436 0.870672,-0.239445 0.07823,1.15718 z m 1.092365,-1.259151 0.669414,0.872117 -0.853333,0.103209 z m 0.688405,-0.22706 0.564966,0.320155 -0.536687,0.740835 z m 0.006,-0.03674 0.350911,-0.576113 0.208069,0.892552 z m -0.0258,-0.02518 -0.538338,-0.731133 0.893171,0.147589 z m -1.415409,-1.185253 0.632259,-0.572398 0.181441,0.971198 z m -1.251307,0.176281 0.401277,-0.711936 0.77283,0.529669 z m -0.837645,-0.07927 0.45412,-0.924753 0.324903,1.007321 z M 6.16295,7.2264306 5.611813,6.3062186 6.779934,5.9656286 Z M 5.579612,8.1518036 5.31292,7.0794606 6.136528,7.2745266 Z M 5.285879,8.5898226 5.04148,7.9829536 5.546172,8.2038206 Z M 6.236435,9.3246716 6.09896,10.037434 5.335213,8.6866326 Z m 0.657442,0.3478144 0.209101,0.706363 -0.952,-0.296003 z M 8.276878,9.4695766 8.069428,10.387725 6.952912,9.657418 Z M 9.51002,9.535837 8.973333,10.021952 8.348918,9.4691636 Z m -0.0194,-1.1933034 0.825673,0.835168 -0.748679,0.317471 z m 0.01693,-0.03261 0.851888,-0.103209 -0.0289,0.9359 z m 1.440799,-0.883263 0.340177,1.145827 -0.884295,-0.393433 z m -0.193001,-0.968514 0.555058,0.420886 -0.346989,0.467744 z m -0.955303,-0.214056 0.516045,-0.590149 0.380429,0.738151 z m -0.02333,-0.02663 -0.180203,-0.964592 0.694804,0.375062 z m -0.880373,-0.408708 -0.769527,-0.527192 1.39869,-0.04252 z m -1.247385,0.173391 -0.322631,-1.000302 0.721431,0.292495 z m -0.838883,-0.07803 -0.373411,-0.50655 0.82299,-0.407676 z m -0.0258,0.02394 -1.144383,0.333572 0.768701,-0.842806 z M 6.12807,7.2365386 5.312718,7.0433306 5.588493,6.3355226 Z M 5.546797,8.1654196 5.030751,7.9393916 5.287329,7.1205316 Z M 5.25905,8.6168566 4.815044,8.7793076 5.012999,8.0052396 Z M 6.057682,10.036601 5.080911,9.4311756 5.287329,8.6727956 Z m 0.994729,0.363296 -0.924134,0.146557 -0.0039,-0.43513 z M 6.934752,9.687548 8.021337,10.398039 7.142203,10.388139 Z M 8.310116,9.4811296 8.940724,10.039697 8.105556,10.38648 Z m 1.236032,0.07059 0.333366,0.9239274 -0.874388,-0.433478 z m 0.02972,-0.02064 0.743105,-0.3154078 -0.409946,1.2416062 z m 0.81948,-1.3177748 0.884089,0.393433 -0.912162,0.546183 z m 0.591801,-0.781499 0.57797,0.411392 -0.247701,0.704505 z m -0.0064,-0.04768 0.347401,-0.468157 0.228918,0.878516 z m -0.232014,-0.97512 0.159767,-0.500564 0.384144,0.91402 z m -0.02415,-0.03901 -0.368663,-0.713381 0.529256,0.211579 z m -1.089269,-1.1353 0.769733,-0.05037 -0.09702,0.412837 z m -1.523985,0.01342 0.541847,-0.672304 0.868608,0.629369 z m -0.032,-0.0161 -0.279077,-0.730927 0.815351,0.06564 z m -0.03633,0.0033 -0.712761,-0.288986 0.436987,-0.433478 z m -1.601392,0.122406 0.306531,-0.884296 0.52038,0.474762 z m -0.822163,0.876657 0.224376,-0.918767 0.532766,0.08855 z M 5.286287,7.0187686 4.99854,6.5669196 5.554631,6.3295386 Z m -0.01528,0.04128 -0.24605,0.784389 -0.03303,-1.223234 z M 4.987595,7.9682886 4.786956,8.7526776 4.472169,7.9682886 Z M 4.464118,7.9340186 4.480838,7.1642846 4.9781,7.9333986 Z M 5.257177,8.6564816 5.056745,9.3865826 4.813172,8.8174876 Z M 6.057254,10.07829 5.451829,10.16395 5.105872,9.4885496 Z m 0.03303,0.03055 0.0039,0.428937 -0.598613,-0.344512 z M 7.099875,10.429201 6.792518,11.06951 6.15386,10.577822 Z m 0.03592,0.0064 0.808746,0.746821 -1.118993,-0.100732 z m 0.03963,-0.01094 0.887598,0.01011 L 7.982103,11.169 Z M 8.957846,10.07375 8.991696,10.903138 8.12185,10.418675 Z m 0.0353,0.0031 0.877277,0.435543 -0.843424,0.394258 z M 10.353855,9.2268196 10.789397,9.908 9.943083,10.470283 Z m 0.03034,-0.01775 0.838471,0.12385 -0.409328,0.5470094 z m 0.01548,-0.03303 0.897094,-0.536688 -0.05842,0.660538 z m 1.184841,-1.279793 0.158322,0.554233 -0.397355,0.128392 z m -0.211785,-0.945395 0.45412,0.572191 -0.233253,0.275362 z m -0.425222,-1.042205 0.59015,0.432239 -0.202909,0.488592 z m -0.608108,-0.297036 0.09516,-0.405612 0.424809,0.613475 z M 9.58742,5.2016636 9.484211,4.5824096 l 0.887598,0.568476 z m -0.03901,-0.02064 -0.846314,-0.612856 0.743105,-0.0047 z m -1.720495,-0.713794 0.552168,-0.338939 0.237175,0.402515 z m -0.530289,0.460725 -0.511297,-0.466505 0.945601,0.0355 z M 6.398263,5.3715476 5.867355,5.2831976 6.699427,4.5029366 Z M 5.574654,6.2647186 5.031362,5.8236026 5.802333,5.3327406 Z m -0.02312,0.02642 -0.561251,0.239446 0.02725,-0.67313 z M 4.990077,7.8871646 4.485797,7.1071096 4.955192,6.6009726 Z M 4.77148,8.8086146 4.67591,9.2858536 4.487038,8.1008066 Z m 0.02436,0.05697 0.236349,0.551755 -0.336874,-0.04706 z m 0.613062,1.2919714 -0.356277,-0.06915 0.02271,-0.582512 z m 0.67313,0.412836 -0.253069,0.243367 -0.33997,-0.58437 z m 0.03014,0.0194 0.607901,0.468775 -0.860557,-0.224996 z M 8.095438,10.44406 8.962394,10.925427 8.01287,11.180354 Z m 1.794393,0.09475 -0.04748,0.605425 -0.782531,-0.217359 z m 0.870671,-0.57281 -0.48178,0.844869 -0.340383,-0.29848 z m 0.474762,-0.5965494 0.0025,0.4417354 -0.385383,0.07369 z m 0.0966,-0.752394 0.392194,-0.126741 -0.446689,0.751775 z m 0.271853,-0.776958 0.222518,-0.262357 -0.07142,0.787072 z m -0.24956,-0.967275 0.199813,-0.481161 0.258848,1.058719 z m -0.425015,-1.019706 0.140364,-0.245018 0.422951,0.657648 z m -0.02436,-0.02787 -0.415314,-0.598613 0.555678,0.354214 z m -1.393116,-1.267201 0.420267,-0.04479 0.425221,0.586434 z m -0.853539,-0.02477 -0.231395,-0.393226 0.946221,0.388892 z m -0.879755,-0.0772 -0.185776,-0.326553 0.730307,-0.0074 z m -0.03716,0.0056 -0.919799,-0.03447 0.732991,-0.292908 z m -1.857763,0.758794 0.330269,-0.713175 0.477651,-0.04355 z m -0.05924,0.04459 -0.300958,-0.288986 0.635355,-0.434716 z m -0.0225,0.02683 -0.748679,0.47662 0.447309,-0.766844 z M 4.955395,6.5289546 4.579714,6.3268716 4.982229,5.8704806 Z m -0.01177,0.03323 -0.456597,0.491894 0.07926,-0.694597 z M 4.42696,7.9416766 4.233959,8.0993806 4.441822,7.2623546 Z m 0.0047,0.04128 0.196923,1.235619 -0.403548,-1.066356 z m 0.609759,1.471555 -0.0225,0.5806544 -0.314581,-0.6279244 z m 0.387447,0.7431054 0.321187,0.551343 -0.6593,-0.615952 z m 1.351213,0.912368 -0.01383,0.318916 -0.840535,-0.54226 z m 0.03447,0.01362 0.436368,0.203941 -0.449992,0.110021 z m 1.161928,0.101558 0.01362,0.447308 -0.63391,-0.331714 z M 8.978637,10.956819 8.72144,11.562243 8.041498,11.208649 Z m 0.04128,-0.0054 0.782118,0.217152 -1.038696,0.387447 z m 0.904937,-0.405612 0.331301,0.288986 -0.377539,0.293939 z m 0.899157,-0.620286 0.381874,-0.07307 -0.837232,0.870259 z m 0.449785,-0.16885 -0.0027,-0.4307954 0.352356,-0.215294 z m 0.03096,-0.4923074 0.427286,-0.717923 -0.07865,0.505518 z m 0.545357,-1.552265 0.04995,0.528431 -0.113117,0.156258 z m -0.2605,-1.323347 0.09764,0.09165 0.09784,0.708014 z m -0.495403,-0.807508 0.09186,-0.04624 0.265866,0.602534 z m -0.643406,-0.421918 0.161419,-0.230982 0.395085,0.586021 z m -0.02518,-0.02518 -0.42068,-0.580448 0.582512,0.349053 z m -0.947666,-0.607695 -0.0027,-0.252243 0.405405,0.209308 z m -0.03509,-0.0068 -0.926611,-0.380635 0.923928,0.12158 z m -1.832786,-0.425428 0.147589,-0.126534 0.489004,0.120342 z m -0.805031,0.302196 0.286715,-0.309627 0.396735,0.03571 z m -0.0741,0.02849 -0.433479,0.03943 0.713175,-0.339764 z m -1.194336,0.499119 0.04789,-0.107544 0.398594,-0.197955 z m -0.52327,0.842599 -0.02911,-0.281348 0.433478,-0.412836 z m -0.03014,0.04954 -0.35958,0.407676 0.331301,-0.68118 z m -0.535655,1.274013 -0.229537,0.04273 0.303228,-0.688405 z m -0.0076,0.03715 -0.219423,0.884502 -0.01404,-0.841154 z M 4.633363,9.3296056 4.372451,9.1149306 4.247361,8.3098996 Z M 4.999136,10.072711 4.832557,10.018011 4.721091,9.518686 Z m 0.712349,0.68696 -0.552787,-0.299719 -0.08897,-0.298894 z m 0.101145,0.09495 0.239652,0.305499 -0.732785,-0.574049 z m 0.08959,0.05759 0.762302,0.491894 -0.498913,-0.156052 z m 1.398483,0.438019 0.59242,0.309627 -1.02982,-0.202909 z m 0.71111,-0.117865 0.663015,0.344925 -0.649598,0.103209 z m 1.760334,-0.0161 -0.268343,0.232426 -0.605838,0.09392 z m 0.497468,-0.348021 0.0225,0.144492 -0.348021,0.107544 z m 0.903079,-0.932185 -0.357103,0.637007 -0.455565,0.209514 z M 11.272604,9.82996 11.512255,9.3871926 11.25609,9.994682 Z m 0.50655,-1.3644244 0.09041,-0.125089 -0.144493,0.478477 z m 0.08711,-0.943743 -0.0012,-0.0093 0.0091,-0.118484 0.0091,0.306943 z m -0.02415,-0.174424 -0.09041,-0.655997 0.112085,0.371553 z m -0.268344,-1.023008 -0.165135,-0.374649 0.231189,0.436574 z m -0.498293,-0.773655 -0.33027,-0.489418 0.421094,0.443799 z m -1.102686,-1.056242 0.02209,-0.01589 0.253069,0.181028 z m -0.03344,-0.0192 -0.171533,-0.08855 0.19073,0.07493 z m -1.44823,-0.375062 0.3216,-0.06605 0.483844,0.172153 z m -0.10486,-0.01404 -0.437813,-0.107751 0.734023,0.04665 z m -0.829388,0.008 -0.341416,-0.03076 0.477858,-0.08628 z m -1.204863,0.305086 0.195271,-0.14635 0.314995,-0.09702 z m -0.160387,0.07637 -0.169469,0.08422 0.260499,-0.152336 z m -0.710904,0.487559 -0.201051,0.191969 0.229743,-0.256371 z m -0.94168,1.354723 -0.08938,0.03303 0.347402,-0.564141 z m -0.11642,0.0803 0.0964,-0.03571 -0.24378,0.55382 z m -0.240064,1.43729 0.005,0.308182 -0.01775,0.05615 z m 0.01672,0.387034 0.08793,0.566618 -0.121167,-0.462377 z M 4.658143,9.3945656 4.771053,9.900291 4.410441,9.1908316 Z m 0.362263,0.7224644 0.07844,0.263802 -0.233459,-0.314787 z m 1.751252,1.357612 0.03261,0.05222 -0.342654,-0.149034 z m 0.08793,0.07431 -0.04128,-0.06399 0.745376,0.146763 z m 1.825975,0.06193 -0.07844,0.08876 -0.409121,-0.01135 z m 0.05429,-0.0085 0.487766,-0.07576 -0.560219,0.157703 z m 1.127043,-0.421299 0.286096,-0.08835 -0.503661,0.278045 z m 0.458249,-0.189699 -0.0225,-0.144492 0.417997,-0.192176 z m 0.90535,-1.085346 -0.01961,0.195065 -0.274949,0.327998 z m 0.452675,-0.8318664 0.07059,-0.03406 -0.323458,0.6353564 z m 0.09392,-0.08422 -0.07926,0.03839 0.159355,-0.524302 z"
     id="path4917"
     style="fill:url(#b);stroke-width:0.206418" />
  <path
     d="m 15.420586,5.0377676 c -0.348021,-0.836406 -1.052733,-1.739485 -1.606759,-2.024755 a 8.2907852,8.2907852 0 0 1 0.810191,2.428097 c 0,-0.0019 0,0.0017 0.0012,0.0076 l 0.0014,0.0085 A 7.2355756,7.2355756 0 0 1 14.377265,10.85649 C 13.45953,12.824068 11.237439,14.84036 7.759293,14.742312 4.00207,14.636006 0.691742,11.8506 0.073726,8.2025716 c -0.112498,-0.575288 0,-0.866957 0.05656,-1.334494 a 5.9601178,5.9601178 0 0 0 -0.12963,1.103718 v 0.04128 a 8.0106757,8.0106757 0 0 0 15.903155,1.352868 c 0.01342,-0.103209 0.02436,-0.205386 0.03633,-0.308595 a 8.2154425,8.2154425 0 0 0 -0.519555,-4.019581 z"
     id="path4919"
     style="fill:url(#c);stroke-width:0.206418" />
  <path
     d="m 15.420586,5.0377676 c -0.348021,-0.836406 -1.052733,-1.739485 -1.606759,-2.024755 a 8.2907852,8.2907852 0 0 1 0.810191,2.428097 c 0,-0.0019 0,0.0017 0.0012,0.0076 l 0.0014,0.0085 A 7.2355756,7.2355756 0 0 1 14.377265,10.85649 C 13.45953,12.824068 11.237439,14.84036 7.759293,14.742312 4.00207,14.636006 0.691742,11.8506 0.073726,8.2025716 c -0.112498,-0.575288 0,-0.866957 0.05656,-1.334494 a 5.9601178,5.9601178 0 0 0 -0.12963,1.103718 v 0.04128 a 8.0106757,8.0106757 0 0 0 15.903155,1.352868 c 0.01342,-0.103209 0.02436,-0.205386 0.03633,-0.308595 a 8.2154425,8.2154425 0 0 0 -0.519555,-4.019581 z"
     id="path4921"
     style="fill:url(#d);stroke-width:0.206418" />
  <path
     d="m 0.073809,8.2025716 c 0.618016,3.6480284 3.928344,6.4334344 7.686393,6.5397404 3.478145,0.09826 5.700237,-1.918244 6.617972,-3.885822 a 7.2355756,7.2355756 0 0 0 0.249353,-5.3992804 v -0.0076 c 0,-0.006 -0.0012,-0.0095 -0.0012,-0.0076 l 0.0017,0.01342 c 0.284031,1.853016 -0.659506,3.648235 -2.13457,4.8621804 l -0.0045,0.01032 C 9.613139,12.664996 6.862823,11.737559 6.305494,11.358163 A 5.1109135,5.1109135 0 0 1 6.188868,11.299953 C 4.513166,10.500083 3.820839,8.9748586 3.969254,7.6669926 a 2.0567505,2.0567505 0 0 1 -1.897396,-1.192271 3.0242324,3.0242324 0 0 1 2.944761,-0.117865 3.9915079,3.9915079 0 0 0 3.0071,0.118072 C 8.020719,6.4098286 6.626759,5.8555966 6.08326,5.3209736 5.79283,5.0350846 5.654943,4.8974036 5.53295,4.7939886 A 2.4278903,2.4278903 0 0 0 5.326531,4.6375236 C 5.278851,4.6051136 5.225387,4.5700236 5.161397,4.5279156 4.577234,4.1485186 3.415512,4.1695736 3.377118,4.1703986 h -0.0037 C 3.05574,3.7685026 3.07824,2.4432986 3.096405,2.1666976 a 1.4354318,1.4354318 0 0 0 -0.268344,0.141603 5.8364733,5.8364733 0 0 0 -0.782737,0.669827 7.0182173,7.0182173 0 0 0 -0.748679,0.897093 v 0.0012 -0.0012 a 6.747603,6.747603 0 0 0 -1.074819,2.422937 c -0.0037,0.01734 -0.28816,1.259976 -0.148002,1.904414 z"
     id="path4923"
     style="fill:url(#e);stroke-width:0.206418" />
  <path
     d="m 10.834594,5.0456116 a 4.3473728,4.3473728 0 0 1 0.743105,0.970166 1.6257494,1.6257494 0 0 1 0.120342,0.09825 c 1.816479,1.671987 0.864272,4.0352684 0.793471,4.2037054 1.475064,-1.2139454 2.418602,-3.0091634 2.13457,-4.8621794 -0.905763,-2.255119 -2.441307,-3.164391 -3.694885,-5.14414692 a 9.8861911,9.8861911 0 0 1 -0.188666,-0.306531 2.4247941,2.4247941 0 0 1 -0.08814,-0.165135 1.4515325,1.4515325 0 0 1 -0.119722,-0.31767704 0.02064182,0.02064182 0 0 0 -0.01817,-0.02064 0.02662794,0.02662794 0 0 0 -0.01507,0 l -0.0039,0.0021 -0.006,0.0025 C 10.181901,-0.34638732 8.344986,2.5589486 10.834596,5.0456676 Z"
     id="path4925"
     style="fill:url(#f);stroke-width:0.206418" />
  <path
     d="m 7.753596,3.9487056 1.06037,0.0675 0.644025,0.229124 0.536687,0.210547 0.618222,0.441528 0.582306,0.613888 0.20229,0.381667 a 4.8425699,4.8425699 0 0 1 0.130869,0.08525 c 0.01755,0.01218 0.03344,0.02436 0.04975,0.03654 A 4.3473728,4.3473728 0 0 0 10.835009,5.0456156 C 8.344987,2.5588966 10.181902,-0.34643932 10.49153,-0.49402836 l 0.0041,-0.0045 C 8.483672,0.6780546 7.801047,2.8559736 7.738503,3.9454486 v 0.0062 z"
     id="path4927"
     style="fill:url(#g);stroke-width:0.206418" />
  <path
     d="m 5.159746,4.5279156 a 4.7096366,4.7096366 0 0 1 0.165134,0.109608 3.7004583,3.7004583 0 0 1 -0.0225,-1.955193 5.9316321,5.9316321 0 0 0 -1.927946,1.488068 c 0.03943,-8.25e-4 1.201147,-0.02188 1.785312,0.357517 z"
     id="path4929"
     style="fill:url(#h);stroke-width:0.206418" />
  <path
     d="m 4.413544,8.7363686 c 0,0 0.369695,-1.37619 2.647313,-1.37619 0.246257,0 0.949523,-0.68634 0.963147,-0.885327 a 3.9915079,3.9915079 0 0 1 -3.0071,-0.118072 3.0242324,3.0242324 0 0 0 -2.944761,0.117865 2.0567505,2.0567505 0 0 0 1.897396,1.192271 c -0.148415,1.307866 0.543911,2.8330904 2.219614,3.6329604 0.03757,0.01796 0.07266,0.03757 0.111053,0.0547 C 5.322197,10.849471 4.514482,9.895199 4.413544,8.7363686 Z"
     id="path4931"
     style="fill:url(#i);stroke-width:0.206418" />
  <path
     d="m 11.698454,6.1130006 a 1.6257494,1.6257494 0 0 0 -0.120342,-0.09826 c -0.01631,-0.01218 -0.0322,-0.02436 -0.04975,-0.03654 A 2.7672418,2.7672418 0 0 0 9.597114,5.5098376 C 12.478092,6.9485716 11.704643,11.902814 7.712722,11.7158 A 3.5588554,3.5588554 0 0 1 6.67052,11.514964 4.6939488,4.6939488 0 0 1 6.435203,11.418979 c -0.045,-0.02064 -0.0902,-0.04128 -0.134997,-0.0644 l 0.0056,0.0035 c 0.557329,0.379396 3.307232,1.306833 6.181605,-1.031059 l 0.0045,-0.01032 c 0.0708,-0.168437 1.022183,-2.5323384 -0.793471,-4.2037054 z"
     id="path4933"
     style="fill:url(#j);stroke-width:0.206418" />
  <path
     d="m 15.419966,5.0375616 c -0.348021,-0.836613 -1.052732,-1.739486 -1.606759,-2.024962 a 8.2959456,8.2959456 0 0 1 0.810811,2.428303 l 0.0017,0.01321 C 13.720162,3.1992006 12.184411,2.2899286 10.930421,0.30996568 a 9.3532194,9.3532194 0 0 1 -0.188667,-0.306325 2.6413267,2.6413267 0 0 1 -0.08835,-0.165134 1.4558672,1.4558672 0 0 1 -0.119309,-0.31685204 0.02064182,0.02064182 0 0 0 -0.01817,-0.02064 0.02848571,0.02848571 0 0 0 -0.01507,0 c -0.0012,0 -0.0029,0.0019 -0.0041,0.0023 -0.0012,4.13e-4 -0.0039,0.0023 -0.0058,0.0031 l 0.0033,-0.0045 C 8.482297,0.6784976 7.800085,2.8630216 7.737334,3.9524966 l 0.01631,-0.0029 1.06037,0.0675 0.596755,0.212198 0.583957,0.227059 0.618222,0.441529 0.581687,0.613475 c 0,0 0.200225,0.375681 0.202909,0.38208 A 2.7410267,2.7410267 0 0 0 9.596545,5.5099126 c 2.880772,1.438734 2.10753,6.3929764 -1.884391,6.2059624 A 3.5652544,3.5652544 0 0 1 6.669949,11.515236 q -0.116833,-0.04376 -0.235317,-0.0966 a 2.9806781,2.9806781 0 0 1 -0.134997,-0.0644 l 0.0056,0.0035 a 4.7096366,4.7096366 0 0 1 -0.116626,-0.058 c 0.03736,0.01775 0.07266,0.03736 0.111053,0.05449 C 5.321652,10.849327 4.513938,9.89485 4.413,8.7360176 c 0,0 0.369695,-1.37619 2.647313,-1.37619 0.246256,0 0.949523,-0.68634 0.963147,-0.885327 -0.0029,-0.06502 -1.397038,-0.619255 -1.940331,-1.153878 -0.29043,-0.285682 -0.428318,-0.42357 -0.550517,-0.526985 a 2.353167,2.353167 0 0 0 -0.20745,-0.156259 3.7037609,3.7037609 0 0 1 -0.0225,-1.955399 5.9334898,5.9334898 0 0 0 -1.927946,1.488275 h -0.0037 C 3.053545,3.7685646 3.076044,2.4433606 3.094003,2.1665536 a 1.4535966,1.4535966 0 0 0 -0.268344,0.141603 5.8255332,5.8255332 0 0 0 -0.782738,0.670033 6.9992268,6.9992268 0 0 0 -0.748059,0.895855 6.7521442,6.7521442 0 0 0 -1.073581,2.423968 c -0.0039,0.01734 -0.007,0.0353 -0.01073,0.05264 -0.01507,0.07059 -0.08257,0.427905 -0.09248,0.504692 0,0.0058 0,-0.006 0,0 A 9.307601,9.307601 0 0 0 0,7.9716546 v 0.04128 a 8.0104693,8.0104693 0 0 0 15.9039,1.353071 c 0.01362,-0.103209 0.02456,-0.206418 0.03654,-0.309627 a 8.2168875,8.2168875 0 0 0 -0.520381,-4.018755 z m -0.794503,0.410772 0.0012,0.0087 z"
     id="path4935"
     style="fill:url(#k);stroke-width:0.206418" />
  <path
     d="m 8.024004,6.4748516 c 0,0 -0.03385,0.01404 -0.0966,0.0355 -0.156465,0.264421 -0.712762,0.76932 -0.925372,0.768288 -2.277618,-0.0099 -2.653299,1.351213 -2.653299,1.351213 A 2.9090511,2.9090511 0 0 0 4.795009,9.937099 2.9298993,2.9298993 0 0 1 4.413548,8.7363646 c 0,0 0.369695,-1.37619 2.647313,-1.37619 0.246257,0 0.949523,-0.68634 0.963147,-0.885327 z"
     id="path4937"
     style="fill:url(#l);stroke-width:0.206418" />
  <path
     d="m 14.627527,5.4572096 v -0.0076 c 0,-0.006 -0.0012,-0.0095 0,-0.0076 0.0012,0.0019 0,0.0045 0.0014,0.01342 a 7.99602,7.99602 0 0 0 -0.172153,-0.396322 c -0.02064,-0.04376 -0.04128,-0.08463 -0.06296,-0.12736 -0.04025,-0.08257 -0.08009,-0.165135 -0.121787,-0.242748 -0.0258,-0.04851 -0.05284,-0.09454 -0.07926,-0.141603 -0.03881,-0.06915 -0.0772,-0.138713 -0.117039,-0.206418 -0.02931,-0.04872 -0.05945,-0.09537 -0.08917,-0.142842 -0.03901,-0.06193 -0.07782,-0.123851 -0.117659,-0.184125 -0.03158,-0.04768 -0.06399,-0.09371 -0.09598,-0.140158 -0.03984,-0.05738 -0.07947,-0.114768 -0.120135,-0.170707 -0.03344,-0.04624 -0.0675,-0.09144 -0.101558,-0.136649 -0.04128,-0.05387 -0.08112,-0.10775 -0.1222,-0.160593 a 13.839305,13.839305 0 0 0 -0.106511,-0.134379 c -0.04128,-0.0514 -0.08257,-0.103209 -0.124883,-0.153781 q -0.0547,-0.06626 -0.110021,-0.131901 c -0.02064,-0.02374 -0.03984,-0.0481 -0.06007,-0.07183 l 0.0256,0.03138 C 12.356686,2.1267386 11.603466,1.3722806 10.930956,0.31046568 a 9.7357123,9.7357123 0 0 1 -0.188666,-0.306531 2.4247941,2.4247941 0 0 1 -0.08814,-0.165135 1.6408179,1.6408179 0 0 1 -0.110227,-0.28114104 c -0.0014,-0.0052 -0.0039,-0.013 -0.0047,-0.01713 a 0.93301006,0.93301006 0 0 1 -0.0045,-0.01858 0.02064182,0.02064182 0 0 0 -0.01817,-0.02064 0.02662794,0.02662794 0 0 0 -0.01507,0 l -0.0039,0.0023 a 0.0557329,0.0557329 0 0 0 -0.006,0.0031 0.23490386,0.23490386 0 0 0 -0.04851,0.03571 0.26008687,0.26008687 0 0 0 -0.01156,0.01032 0.76828837,0.76828837 0 0 0 -0.06337,0.06709 l -0.0023,0.0023 C 9.886746,0.18523768 8.661242,2.6368656 10.636044,4.8360446 8.787157,2.6603976 9.952387,0.30929468 10.458731,-0.30665732 a 1.7772603,1.7772603 0 0 0 0.09887,0.241923 2.3713318,2.3713318 0 0 0 0.08814,0.16513405 c 0.06193,0.10589295 0.125296,0.20641795 0.188666,0.30632495 1.254197,1.97996292 2.789948,2.88985392 3.694885,5.14414692 0,-0.0087 -0.0014,-0.01197 -0.0014,-0.01321 0,-0.0012 0,0.0017 0.001,0.0076 l 0.0012,0.0076 a 7.235782,7.235782 0 0 1 -0.248528,5.4005184 6.6369629,6.6369629 0 0 1 -1.272361,1.824324 6.6495544,6.6495544 0 0 0 1.368965,-1.921134 7.2366077,7.2366077 0 0 0 0.249353,-5.3992804 z"
     id="path4939"
     style="fill:url(#m);stroke-width:0.206418" />
  <path
     d="m 10.491527,-0.49403236 0.0041,-0.0045 C 8.683276,0.5618376 7.949665,2.4338436 7.776274,3.5910246 a 5.9184213,5.9184213 0 0 1 2.419427,-3.73369192 1.1220891,1.1220891 0 0 1 0.295798,-0.35132404 z"
     id="path4941"
     style="fill:url(#n);stroke-width:0.206418" />
  <path
     d="m 12.487384,10.327027 0.0045,-0.01032 c 0.0708,-0.168437 1.022183,-2.5323384 -0.793471,-4.2037054 a 1.6257494,1.6257494 0 0 0 -0.120342,-0.09826 c -0.01631,-0.01218 -0.0322,-0.02436 -0.04975,-0.03654 A 2.7955211,2.7955211 0 0 0 9.670558,5.4982786 h -6.2e-4 a 1.7776731,1.7776731 0 0 0 -0.07287,0.01135 c 2.848364,1.422634 2.124455,6.2817184 -1.750633,6.2094714 l 0.03158,0.0019 c 3.928344,0.154401 4.702412,-4.6631934 1.972945,-6.1737614 a 2.9001751,2.9001751 0 0 1 1.516967,0.43802 1.6891198,1.6891198 0 0 1 0.05099,0.03488 1.5274943,1.5274943 0 0 1 0.123851,0.0933 c 1.87985,1.599122 1.02177,3.9983204 0.957368,4.1696474 l -0.0041,0.01073"
     id="path4943"
     style="fill:url(#o);stroke-width:0.206418" />
  <path
     d="m 5.038372,6.4368706 a 4.0014159,4.0014159 0 0 0 2.89584,0.07121 4.0020352,4.0020352 0 0 1 -2.917308,-0.151305 3.0432229,3.0432229 0 0 0 -2.906574,0.09289 l -0.01053,0.0068 h -10e-4 l -0.0087,0.0058 -0.0066,0.0045 -0.0041,0.0029 H 2.0782 l -0.0029,0.0021 h -10e-4 l 0.0037,0.0089 v 0.0012 l 0.0045,0.01032 v 0.0021 l 0.0068,0.01486 v 0.0012 a 1.6513452,1.6513452 0 0 0 0.05264,0.100525 2.0487002,2.0487002 0 0 0 1.827214,1.052733 C 3.824661,8.9322496 4.472401,10.40525 6.040766,11.222666 4.541758,10.358806 3.911976,8.7910596 4.087018,7.5440876 2.929632,7.5135376 2.412142,6.8197656 2.26414,6.5256196 a 3.1650096,3.1650096 0 0 1 2.77426,-0.08876 z"
     id="path4945"
     style="fill:url(#p);stroke-width:0.206418" />
  <path
     d="m 5.324674,4.6331886 -0.03922,-0.02291 0.04128,0.02725 z m -0.0083,-0.02931 a 3.7066508,3.7066508 0 0 1 -0.013,-1.921546 5.8385375,5.8385375 0 0 0 -1.853635,1.405914 6.0464006,6.0464006 0 0 1 1.690358,-1.193923 3.7524756,3.7524756 0 0 0 0.176281,1.709555 z"
     id="path4947"
     style="fill:url(#q);stroke-width:0.206418" />
  <path
     d="m 0.267016,9.0410416 -0.0064,-0.02291 a 7.4075219,7.4075219 0 0 1 -0.185776,-0.815558 3.4606004,3.4606004 0 0 1 0,-1.032091 6.8093221,6.8093221 0 0 0 -0.07328,0.800902 v 0.04128 A 8.0036575,8.0036575 0 0 0 5.376689,15.569221 8.0965457,8.0965457 0 0 1 0.267014,9.0410396 Z"
     id="path4949"
     style="fill:url(#r);stroke-width:0.206418" />
  <path
     d="M 0.20282,8.2347726 C 0.062662,7.5903346 0.347313,6.3479036 0.350822,6.3303586 a 6.747603,6.747603 0 0 1 1.074819,-2.423762 v 0.0012 -0.0012 a 7.0182173,7.0182173 0 0 1 0.747853,-0.896061 5.8364733,5.8364733 0 0 1 0.782738,-0.669827 0.6890238,0.6890238 0 0 1 0.03385,-0.02064 c -0.0029,0.608521 0.03179,1.635451 0.31355,1.972119 h 0.0037 c 0.0386,-0.0021 1.20445,-0.05346 1.800792,0.309627 0.06626,0.04128 0.120755,0.0741 0.169469,0.105274 a 2.4619493,2.4619493 0 0 1 0.212405,0.150891 c 0.125089,0.100319 0.267105,0.234285 0.566205,0.51233 0.433478,0.402722 1.376602,0.803173 1.784278,0.993904 C 7.443333,6.1641936 6.506194,5.7367016 6.083656,5.3207696 5.793226,5.0348806 5.655339,4.8971996 5.533345,4.7937836 A 2.4278903,2.4278903 0 0 0 5.326927,4.6373186 C 5.279247,4.6049086 5.225782,4.5698186 5.161793,4.5277106 4.577629,4.1483146 3.415908,4.1693686 3.377514,4.1701946 h -0.0037 C 3.08359,3.8029766 3.077397,2.6647866 3.092259,2.2604136 c 0,-0.01569 0,-0.02993 0.0017,-0.04335 v -0.02622 c 0,-0.0087 0,-0.01713 0.0014,-0.02436 0,0 -0.0014,-0.0014 -0.0033,-0.0014 h -0.0072 l -0.0045,0.0017 -0.0066,0.0025 -0.0064,0.0027 -0.0076,0.0035 -0.0083,0.0039 -0.0083,0.0041 -0.01011,0.005 -0.008,0.0043 -0.01197,0.0062 -0.0068,0.0037 a 3.982219,3.982219 0 0 0 -0.178439,0.10314 5.8364733,5.8364733 0 0 0 -0.782738,0.669827 7.0182173,7.0182173 0 0 0 -0.748472,0.89957 v 0.0012 -0.0012 a 6.747603,6.747603 0 0 0 -1.074819,2.422937 c -0.0037,0.01734 -0.288986,1.25915 -0.148002,1.904414 0.525953,3.1037034 3.001939,5.5838174 6.04413,6.3192854 C 3.13499,13.748408 0.721342,11.295335 0.20282,8.2347726 Z"
     id="path4951"
     style="fill:url(#s);stroke-width:0.206418" />
  <path
     d="m 15.420586,5.0377676 a 4.9055274,4.9055274 0 0 0 -1.405708,-1.899047 l -0.01424,-0.01011 a 2.8099703,2.8099703 0 0 0 -0.04748,-0.03261 q -0.0089,-0.0062 -0.01796,-0.01177 -0.02271,-0.01445 -0.04459,-0.02787 l -0.01734,-0.01032 a 1.6230659,1.6230659 0 0 0 -0.05945,-0.03282 7.2529147,7.2529147 0 0 1 0.06316,0.126947 6.9333794,6.9333794 0 0 1 0.03839,0.07906 8.2020254,8.2020254 0 0 1 0.708634,2.221885 l 0.0017,0.01342 c 0.284032,1.853015 -0.659506,3.648234 -2.13457,4.8621794 l -0.0045,0.01032 c -1.833612,1.491371 -3.616446,1.654029 -4.81202,1.477748 1.191239,0.222519 3.070264,0.128598 5.00564,-1.444927 l 0.0043,-0.01032 C 14.159616,9.1355876 15.10336,7.3403686 14.819329,5.4873526 l -0.0017,-0.01342 a 8.0377165,8.0377165 0 0 0 -0.583957,-1.949619 5.2971027,5.2971027 0 0 1 0.875833,1.24821 7.9710435,7.9710435 0 0 1 0.740215,3.921945 c -0.0062,0.102177 -0.01135,0.204148 -0.0192,0.305499 a 7.9739333,7.9739333 0 0 1 -7.516098,6.9754894 8.1842734,8.1842734 0 0 1 -1.581369,-0.0644 8.0166619,8.0166619 0 0 0 9.170746,-6.5451074 c 0.01342,-0.103209 0.02436,-0.205386 0.03633,-0.308595 a 8.2154425,8.2154425 0 0 0 -0.519554,-4.019581 z m -0.793059,0.419442 v -0.0076 z"
     id="path4953"
     style="fill:url(#t);stroke-width:0.206418" />
</svg>
