<?xml version="1.0" encoding="UTF-8" standalone="no"?>
<svg
   xmlns:dc="http://purl.org/dc/elements/1.1/"
   xmlns:cc="http://creativecommons.org/ns#"
   xmlns:rdf="http://www.w3.org/1999/02/22-rdf-syntax-ns#"
   xmlns:svg="http://www.w3.org/2000/svg"
   xmlns="http://www.w3.org/2000/svg"
   xmlns:sodipodi="http://sodipodi.sourceforge.net/DTD/sodipodi-0.dtd"
   xmlns:inkscape="http://www.inkscape.org/namespaces/inkscape"
   inkscape:version="1.0 (4035a4fb49, 2020-05-01)"
   sodipodi:docname="firefox64.svg"
   viewBox="0 0 64 64"
   version="1.1"
   id="svg4959"
   width="64"
   height="64">
  <sodipodi:namedview
     inkscape:current-layer="svg4959"
     inkscape:window-maximized="1"
     inkscape:window-y="27"
     inkscape:window-x="0"
     inkscape:cy="41.051546"
     inkscape:cx="43.944189"
     inkscape:zoom="9.7757794"
     showgrid="true"
     id="namedview233"
     inkscape:window-height="1022"
     inkscape:window-width="1920"
     inkscape:pageshadow="2"
     inkscape:pageopacity="0"
     guidetolerance="10"
     gridtolerance="10"
     objecttolerance="10"
     borderopacity="1"
     bordercolor="#666666"
     pagecolor="#ffffff">
    <inkscape:grid
       id="grid1058"
       type="xygrid" />
  </sodipodi:namedview>
  <metadata
     id="metadata4963">
    <rdf:RDF>
      <cc:Work
         rdf:about="">
        <dc:format>image/svg+xml</dc:format>
        <dc:type
           rdf:resource="http://purl.org/dc/dcmitype/StillImage" />
        <dc:title></dc:title>
      </cc:Work>
    </rdf:RDF>
  </metadata>
  <defs
     id="defs4647">
    <linearGradient
       x1="84.162506"
       y1="-3.6041653"
       x2="91.017914"
       y2="41.136391"
       id="f"
       gradientTransform="matrix(0.51518193,0,0,1.0868039,2.0624239,1.0969455)"
       gradientUnits="userSpaceOnUse">
      <stop
         stop-color="#AAF2FF"
         offset="0%"
         id="stop4518" />
      <stop
         stop-color="#0DF"
         offset="29%"
         id="stop4520" />
      <stop
         stop-color="#0090ED"
         offset="61%"
         id="stop4522" />
      <stop
         stop-color="#0250BB"
         offset="89%"
         id="stop4524" />
    </linearGradient>
    <linearGradient
       x1="59.666759"
       y1="0.0084456606"
       x2="65.72345"
       y2="30.049629"
       id="g"
       gradientTransform="matrix(0.574509,0,0,0.9745743,2.0624239,1.0969455)"
       gradientUnits="userSpaceOnUse">
      <stop
         stop-color="#AAF2FF"
         offset="0%"
         id="stop4527" />
      <stop
         stop-color="#0DF"
         offset="29%"
         id="stop4529" />
      <stop
         stop-color="#0090ED"
         offset="74%"
         id="stop4531" />
      <stop
         stop-color="#0250BB"
         offset="100%"
         id="stop4533" />
    </linearGradient>
    <linearGradient
       x1="68.991951"
       y1="11.815484"
       x2="17.021517"
       y2="66.148209"
       id="k"
       gradientTransform="matrix(0.73656817,0,0,0.76014924,2.0624239,1.0969455)"
       gradientUnits="userSpaceOnUse">
      <stop
         stop-color="#80EBFF"
         stop-opacity=".5"
         offset="24%"
         id="stop4536" />
      <stop
         stop-color="#0DF"
         stop-opacity="0"
         offset="70%"
         id="stop4538" />
    </linearGradient>
    <linearGradient
       x1="32.206059"
       y1="33.089981"
       x2="25.120728"
       y2="60.567245"
       id="l"
       gradientTransform="matrix(0.77094164,0,0,0.72625693,2.0624239,1.0969455)"
       gradientUnits="userSpaceOnUse">
      <stop
         stop-color="#BFF3FF"
         stop-opacity=".9"
         offset="0%"
         id="stop4541" />
      <stop
         stop-color="#80EBFF"
         stop-opacity=".5"
         offset="100%"
         id="stop4543" />
    </linearGradient>
    <linearGradient
       x1="95.009483"
       y1="-0.82379484"
       x2="93.769226"
       y2="57.467999"
       id="m"
       gradientTransform="matrix(0.48092361,0,0,1.1642217,2.0624239,1.0969455)"
       gradientUnits="userSpaceOnUse">
      <stop
         stop-color="#BFF3FF"
         offset="0%"
         id="stop4546" />
      <stop
         stop-color="#0DF"
         stop-opacity="0"
         offset="100%"
         id="stop4548" />
    </linearGradient>
    <linearGradient
       x1="56.13681"
       y1="-0.63725394"
       x2="55.329029"
       y2="23.111471"
       id="n"
       gradientTransform="matrix(0.6101696,0,0,0.91761654,2.0624239,1.0969455)"
       gradientUnits="userSpaceOnUse">
      <stop
         stop-color="#BFF3FF"
         offset="0%"
         id="stop4551" />
      <stop
         stop-color="#AAF2FF"
         stop-opacity=".5"
         offset="100%"
         id="stop4553" />
    </linearGradient>
    <linearGradient
       x1="58.332546"
       y1="25.308983"
       x2="56.715939"
       y2="64.10762"
       id="o"
       gradientTransform="matrix(0.66696352,0,0,0.83947874,2.0624239,1.0969455)"
       gradientUnits="userSpaceOnUse">
      <stop
         stop-color="#BFF3FF"
         offset="0%"
         id="stop4556" />
      <stop
         stop-color="#0DF"
         stop-opacity="0"
         offset="100%"
         id="stop4558" />
    </linearGradient>
    <linearGradient
       x1="23.729013"
       y1="33.093102"
       x2="25.866491"
       y2="66.491219"
       id="p"
       gradientTransform="matrix(0.79504926,0,0,0.70423527,2.0624239,1.0969455)"
       gradientUnits="userSpaceOnUse">
      <stop
         stop-color="#BFF3FF"
         stop-opacity=".8"
         offset="0%"
         id="stop4561" />
      <stop
         stop-color="#80EBFF"
         stop-opacity=".2"
         offset="100%"
         id="stop4563" />
    </linearGradient>
    <linearGradient
       x1="29.194855"
       y1="12.974803"
       x2="20.563929"
       y2="26.988457"
       id="q"
       gradientTransform="matrix(0.73314293,0,0,0.76370066,2.0624239,1.0969455)"
       gradientUnits="userSpaceOnUse">
      <stop
         stop-color="#BFF3FF"
         stop-opacity=".8"
         offset="0%"
         id="stop4566" />
      <stop
         stop-color="#80EBFF"
         stop-opacity=".2"
         offset="100%"
         id="stop4568" />
    </linearGradient>
    <linearGradient
       x1="18.502363"
       y1="29.405516"
       x2="16.874853"
       y2="74.324791"
       id="r"
       gradientTransform="matrix(0.59860897,0,0,0.93533802,2.0624239,1.0969455)"
       gradientUnits="userSpaceOnUse">
      <stop
         stop-color="#0DF"
         stop-opacity=".4"
         offset="0%"
         id="stop4571" />
      <stop
         stop-color="#0DF"
         stop-opacity="0"
         offset="100%"
         id="stop4573" />
    </linearGradient>
    <linearGradient
       x1="25.577993"
       y1="4.5553231"
       x2="25.577993"
       y2="57.36784"
       id="s"
       gradientTransform="matrix(0.5947183,0,0,0.94145704,2.0624239,1.0969455)"
       gradientUnits="userSpaceOnUse">
      <stop
         stop-color="#BFF3FF"
         offset="0%"
         id="stop4576" />
      <stop
         stop-color="#0DF"
         stop-opacity="0"
         offset="100%"
         id="stop4578" />
    </linearGradient>
    <linearGradient
       x1="68.298668"
       y1="12.77847"
       x2="65.108376"
       y2="89.877266"
       id="t"
       gradientTransform="matrix(0.631772,0,0,0.88624019,2.0624239,1.0969455)"
       gradientUnits="userSpaceOnUse">
      <stop
         stop-color="#BFF3FF"
         stop-opacity=".8"
         offset="0%"
         id="stop4581" />
      <stop
         stop-color="#0DF"
         stop-opacity="0"
         offset="100%"
         id="stop4583" />
    </linearGradient>
    <linearGradient
       x1="-0.1"
       y1="0.66000003"
       x2="1.1"
       y2="0.33000001"
       id="u">
      <stop
         offset="0"
         stop-color="#0250bb"
         id="stop4586" />
      <stop
         offset=".123"
         stop-color="#024eb6"
         id="stop4588" />
      <stop
         offset="1"
         stop-color="#054096"
         id="stop4590" />
    </linearGradient>
    <radialGradient
       cx="42.067257"
       cy="30.945194"
       r="22.6548"
       id="a"
       gradientTransform="matrix(0.74846402,0,0,0.74806767,2.0624239,1.0969455)"
       fx="42.067257"
       fy="30.945194"
       gradientUnits="userSpaceOnUse">
      <stop
         stop-color="#0DF"
         stop-opacity=".4"
         offset="10%"
         id="stop4593" />
      <stop
         stop-color="#7542E5"
         stop-opacity=".25"
         offset="90%"
         id="stop4595" />
    </radialGradient>
    <radialGradient
       cx="39.89164"
       cy="41.40416"
       fx="39.801777"
       fy="41.40416"
       r="19.256578"
       id="b"
       gradientTransform="matrix(0.74846402,0,0,0.74806767,2.0624239,1.0969455)"
       gradientUnits="userSpaceOnUse">
      <stop
         stop-color="#7542E5"
         stop-opacity="0"
         offset="91%"
         id="stop4598" />
      <stop
         stop-color="#0DF"
         stop-opacity=".4"
         offset="100%"
         id="stop4600" />
    </radialGradient>
    <radialGradient
       cx="61.200493"
       cy="9.810463"
       fx="61.200493"
       fy="9.810463"
       r="89.403168"
       gradientTransform="matrix(0.83035274,0,0,0.67429383,2.0624239,1.0969455)"
       id="c"
       gradientUnits="userSpaceOnUse">
      <stop
         stop-color="#80EBFF"
         offset="0%"
         id="stop4603" />
      <stop
         stop-color="#0DF"
         offset="26%"
         id="stop4605" />
      <stop
         stop-color="#0090ED"
         offset="53%"
         id="stop4607" />
      <stop
         stop-color="#0060DF"
         offset="86%"
         id="stop4609" />
    </radialGradient>
    <radialGradient
       cx="34.469643"
       cy="46.828964"
       fx="34.658924"
       fy="46.828964"
       r="89.403168"
       gradientTransform="matrix(0.83035274,0,0,0.67429383,2.0624239,1.0969455)"
       id="d"
       gradientUnits="userSpaceOnUse">
      <stop
         stop-color="#321C64"
         stop-opacity=".8"
         offset="30%"
         id="stop4612" />
      <stop
         stop-color="#212F83"
         stop-opacity=".5"
         offset="37%"
         id="stop4614" />
      <stop
         stop-color="#0A47AC"
         stop-opacity=".14"
         offset="48%"
         id="stop4616" />
      <stop
         stop-color="#0250BB"
         stop-opacity="0"
         offset="53%"
         id="stop4618" />
    </radialGradient>
    <radialGradient
       cx="61.191902"
       cy="-19.160242"
       r="139.74019"
       gradientTransform="matrix(0.81706668,0,0,0.68525832,2.0624239,1.0969455)"
       id="e"
       fx="61.191902"
       fy="-19.160242"
       gradientUnits="userSpaceOnUse">
      <stop
         stop-color="#80EBFF"
         offset="0%"
         id="stop4621" />
      <stop
         stop-color="#00B3F4"
         offset="47%"
         id="stop4623" />
      <stop
         stop-color="#0060DF"
         offset="84%"
         id="stop4625" />
      <stop
         stop-color="#592ACB"
         offset="100%"
         id="stop4627" />
    </radialGradient>
    <radialGradient
       cx="37.300232"
       cy="5.5633535"
       fx="37.300232"
       fy="5.5633535"
       r="28.381479"
       gradientTransform="matrix(0.74735678,0,0,0.74917593,2.0624239,1.0969455)"
       id="h"
       gradientUnits="userSpaceOnUse">
      <stop
         stop-color="#0DF"
         offset="0%"
         id="stop4630" />
      <stop
         stop-color="#0090ED"
         offset="82%"
         id="stop4632" />
    </radialGradient>
    <radialGradient
       cx="52.950813"
       cy="21.181152"
       fx="52.950813"
       fy="21.181152"
       r="85.359634"
       gradientTransform="matrix(0.79113867,0,0,0.70771633,2.0624239,1.0969455)"
       id="i"
       gradientUnits="userSpaceOnUse">
      <stop
         stop-color="#80EBFF"
         offset="29%"
         id="stop4635" />
      <stop
         stop-color="#00B3F4"
         offset="100%"
         id="stop4637" />
    </radialGradient>
    <radialGradient
       cx="36.138844"
       cy="15.884185"
       fx="36.138844"
       fy="15.884185"
       r="71.746956"
       gradientTransform="matrix(0.7557653,0,0,0.74084074,2.0624239,1.0969455)"
       id="j"
       gradientUnits="userSpaceOnUse">
      <stop
         stop-color="#AAF2FF"
         offset="18%"
         id="stop4640" />
      <stop
         stop-color="#0DF"
         offset="43%"
         id="stop4642" />
      <stop
         stop-color="#0060DF"
         offset="69%"
         id="stop4644" />
    </radialGradient>
  </defs>
  <path
     d="m 18.794395,35.987832 1.827265,5.06576 2.745387,3.704663 6.445561,1.230149 3.083604,0.261893 5.264798,-1.315451 2.267994,-2.173712 z"
     id="path4649"
     style="fill:#09204d;stroke-width:0.748266" />
  <path
     d="m 46.073921,28.514902 -0.645753,-2.141536 -1.845223,-3.48243 -2.110859,-2.225342 -2.241055,-1.600541 -1.945492,-0.763232 -2.33459,-0.830574 -3.843841,-0.244683 -2.42438,0.436987 -1.977667,0.60834 -3.509366,2.05399 -2.193168,2.447577 -2.022562,3.284886 -0.795406,2.795522 -0.148906,4.241918 0.758742,2.892048 1.673122,3.292369 1.179267,1.590065 1.631968,1.496531 2.037528,1.378306 2.512676,1.093216 4.204506,0.493108 2.19616,0.06136 3.248969,-0.915129 2.904769,-1.594555 1.868419,-1.594555 1.449391,-1.728493 2.048752,-4.010705 0.451952,-2.74389 z"
     id="path4651"
     style="fill:#09204d;stroke-width:0.748266" />
  <path
     d="m 31.177446,19.154096 -1.72176,1.707543 2.808241,1.138861 2.089158,-2.591245 z"
     id="path4653"
     style="fill:#0e56d7;stroke-width:0.748266" />
  <path
     d="m 32.263927,22.0005 5.4369,-0.165368 -3.347742,-2.425877 z"
     id="path4655"
     style="fill:#1053d1;stroke-width:0.748266" />
  <path
     d="m 37.296762,19.391296 -2.943677,0.01796 3.347742,2.425877 3.095575,-0.202031 z"
     id="path4657"
     style="fill:#0b4fbf;stroke-width:0.748266" />
  <path
     d="m 40.796402,21.633101 -1.759921,-2.426626 2.435605,1.459119 z"
     id="path4659"
     style="fill:#0b48b0;stroke-width:0.748266" />
  <path
     d="m 43.126502,23.119157 -2.3301,-1.486056 0.675684,-0.967507 z"
     id="path4661"
     style="fill:#0c45a7;stroke-width:0.748266" />
  <path
     d="m 40.796402,21.633101 -0.389846,1.662646 2.131061,0.852276 z"
     id="path4663"
     style="fill:#0f46af;stroke-width:0.748266" />
  <path
     d="m 40.796402,21.633101 2.3301,1.486056 -0.588885,1.028866 z"
     id="path4665"
     style="fill:#0c47ad;stroke-width:0.748266" />
  <path
     d="m 37.700827,21.835132 3.095575,-0.202031 -0.389846,1.662646 z"
     id="path4667"
     style="fill:#0e4fc3;stroke-width:0.748266" />
  <path
     d="m 37.700827,21.835132 -2.446082,2.214867 3.147955,1.541428 z"
     id="path4669"
     style="fill:#174dca;stroke-width:0.748266" />
  <path
     d="m 32.263927,22.0005 5.4369,-0.165368 -2.446082,2.214867 z"
     id="path4671"
     style="fill:#1650d4;stroke-width:0.748266" />
  <path
     d="m 40.406556,23.295747 1.48007,2.871845 0.650991,-2.019569 z"
     id="path4673"
     style="fill:#1246b2;stroke-width:0.748266" />
  <path
     d="m 41.886626,26.167592 0.650991,-2.019569 1.551155,3.688949 z"
     id="path4675"
     style="fill:#133ea1;stroke-width:0.748266" />
  <path
     d="m 42.537617,24.148023 2.363771,1.731487 -0.812616,1.957462 z"
     id="path4677"
     style="fill:#103d98;stroke-width:0.748266" />
  <path
     d="m 43.126502,23.119157 0.456443,-0.228221 1.318443,2.988574 z"
     id="path4679"
     style="fill:#0b3785;stroke-width:0.748266" />
  <path
     d="m 44.901388,25.87951 0.52678,0.493856 -1.845223,-3.48243 z"
     id="path4681"
     style="fill:#0b3685;stroke-width:0.748266" />
  <path
     d="m 44.901388,25.87951 -1.774886,-2.760353 -0.588885,1.028866 z m -3.429302,-5.213916 1.654416,2.453563 0.456443,-0.22448 z"
     id="path4683"
     style="fill:#0c3b91;stroke-width:0.748266" />
  <path
     d="m 45.954947,30.188025 -0.526779,-3.814659 0.645753,2.141536 -0.127205,1.673123 z"
     id="path4685"
     style="fill:#0b3279;stroke-width:0.748266" />
  <path
     d="m 44.901388,25.87951 1.053559,4.308515 -0.526779,-3.814659 z"
     id="path4687"
     style="fill:#0f388d;stroke-width:0.748266" />
  <path
     d="m 44.088772,27.836972 1.866175,2.351053 -1.053559,-4.308515 z"
     id="path4689"
     style="fill:#0d3481;stroke-width:0.748266" />
  <path
     d="m 45.946716,30.188025 0.127205,-1.673123 0.127953,4.290556 -0.246927,-2.617433 z"
     id="path4691"
     style="fill:#0b2e71;stroke-width:0.748266" />
  <path
     d="m 45.642171,33.579164 0.559703,-0.773706 -0.246927,-2.617433 z"
     id="path4693"
     style="fill:#0e2f77;stroke-width:0.748266" />
  <path
     d="m 45.749922,35.549348 -0.447463,0.215502 0.899415,-2.959392 z"
     id="path4695"
     style="fill:#0e2969;stroke-width:0.748266" />
  <path
     d="m 45.302459,35.76485 0.899415,-2.959392 -0.559703,0.773706 z"
     id="path4697"
     style="fill:#0c2a69;stroke-width:0.748266" />
  <path
     d="m 45.642171,33.579164 0.312776,-3.391139 -0.958529,1.130628 z"
     id="path4699"
     style="fill:#123180;stroke-width:0.748266" />
  <path
     d="m 45.302459,35.76485 0.339712,-2.185686 -1.848964,3.107549 z"
     id="path4701"
     style="fill:#112b70;stroke-width:0.748266" />
  <path
     d="m 44.088772,27.836972 1.866175,2.351053 -0.958529,1.130628 z"
     id="path4703"
     style="fill:#12378c;stroke-width:0.748266" />
  <path
     d="m 45.642171,33.579164 -0.645753,-2.260511 -0.97499,2.783549 z"
     id="path4705"
     style="fill:#122e7b;stroke-width:0.748266" />
  <path
     d="m 43.70117,39.560053 1.601289,-3.795203 -1.498028,2.766337 z"
     id="path4707"
     style="fill:#11296c;stroke-width:0.748266" />
  <path
     d="m 43.804431,38.531187 1.498028,-2.766337 -1.509252,0.921863 z"
     id="path4709"
     style="fill:#142a72;stroke-width:0.748266" />
  <path
     d="m 45.302459,35.76485 -1.601289,3.792958 2.048752,-4.010705 z m -3.049932,5.523696 1.448643,-1.728493 0.103261,-1.028866 z m -1.870663,1.594555 1.870663,-1.594555 -1.975421,0.908395 z"
     id="path4711"
     style="fill:#112768;stroke-width:0.748266" />
  <path
     d="m 29.476638,43.993527 -1.887876,0.462429 0.05761,-1.318444 z"
     id="path4713"
     style="fill:#1c226a;stroke-width:0.748266" />
  <path
     d="m 18.979965,26.058344 0.520793,-0.193051 -1.316199,2.988573 z"
     id="path4715"
     style="fill:#182b7a;stroke-width:0.748266" />
  <path
     d="m 18.184559,28.853866 0.996689,-0.185571 0.31951,-2.803002 z"
     id="path4717"
     style="fill:#1f308d;stroke-width:0.748266" />
  <path
     d="m 18.24442,32.443297 -0.05986,-3.589431 0.996689,-0.185571 z"
     id="path4719"
     style="fill:#1e2b7f;stroke-width:0.748266" />
  <path
     d="m 40.406556,23.295747 -2.003856,2.29568 3.483926,0.576165 z m -17.485475,-2.354043 2.557572,-1.750194 -2.282958,1.135867 z"
     id="path4721"
     style="fill:#1346b5;stroke-width:0.748266" />
  <path
     d="m 23.195695,20.325881 3.509366,-2.05399 -1.226408,0.919619 -2.282958,1.134371"
     id="path4723"
     style="fill:#1244ac;stroke-width:0.748266" />
  <path
     d="m 25.478653,19.19151 3.204075,-1.527959 -1.977667,0.60834 z"
     id="path4725"
     style="fill:#0e4ab6;stroke-width:0.748266" />
  <path
     d="m 37.700827,21.835132 0.701873,3.756295 2.003856,-2.29568 z m -10.272194,-2.82171 2.985582,-1.197224 -1.732984,-0.15564 z"
     id="path4727"
     style="fill:#0e4bba;stroke-width:0.748266" />
  <path
     d="m 31.107108,17.226564 -2.42438,0.436987 1.732984,0.155639 z"
     id="path4729"
     style="fill:#0a4ebc;stroke-width:0.748266" />
  <path
     d="m 33.399794,17.790008 -2.984082,0.02918 0.691396,-0.592626"
     id="path4731"
     style="fill:#0c54cc;stroke-width:0.748266" />
  <path
     d="m 39.036481,19.204979 -1.739719,0.184821 3.49964,2.244798 z m -5.636687,-1.414971 3.885745,0.511813 -2.33459,-0.830574 z"
     id="path4733"
     style="fill:#0b4bb4;stroke-width:0.748266" />
  <path
     d="m 39.036481,19.206475 -1.750942,-0.904654 1.945492,0.763232 z"
     id="path4735"
     style="fill:#0c3889;stroke-width:0.748266" />
  <path
     d="m 18.794395,35.987832 1.151581,0.945059 -1.698563,-4.489594 z m 15.855003,8.929055 1.01016,-2.377988 -3.68072,0.988459 z m 1.01016,-2.377988 3.076868,0.853771 0.186319,-2.379485 z"
     id="path4737"
     style="fill:#202575;stroke-width:0.748266" />
  <path
     d="m 40.277106,42.196941 -1.354361,-1.183756 3.272166,-2.17446 z"
     id="path4739"
     style="fill:#1b2773;stroke-width:0.748266" />
  <path
     d="m 42.194911,38.838725 -1.917805,3.358216 1.975421,-0.908395 1.551904,-2.757359 z"
     id="path4741"
     style="fill:#15276d;stroke-width:0.748266" />
  <path
     d="m 39.231031,19.065053 -0.19455,0.141422 2.435605,1.459119 z m -1.934269,0.326243 1.739719,-0.184821 -1.750942,-0.904654 z"
     id="path4743"
     style="fill:#0c409d;stroke-width:0.748266" />
  <path
     d="m 31.107108,17.226564 2.292686,0.563444 1.551155,-0.318761 z m 6.178431,1.075257 -3.885745,-0.511813 3.896968,1.601288 z"
     id="path4745"
     style="fill:#0b4cb7;stroke-width:0.748266" />
  <path
     d="m 33.399794,17.790008 0.953291,1.619247 2.943677,-0.01796 z"
     id="path4747"
     style="fill:#0b55ce;stroke-width:0.748266" />
  <path
     d="m 33.399794,17.790008 0.953291,1.619247 -3.175639,-0.255159 z"
     id="path4749"
     style="fill:#0a52c5;stroke-width:0.748266" />
  <path
     d="m 30.415712,17.81919 0.761734,1.334906 2.222348,-1.364088 z"
     id="path4751"
     style="fill:#0951c4;stroke-width:0.748266" />
  <path
     d="m 27.43013,19.013422 2.985582,-1.194232 0.761734,1.334906 z"
     id="path4753"
     style="fill:#0b50c4;stroke-width:0.748266" />
  <path
     d="m 25.478653,19.19151 1.951477,-0.178088 1.252598,-1.346878 z m 1.951477,-0.178088 2.025556,1.848217 1.721011,-1.707543 z"
     id="path4755"
     style="fill:#0f4dbf;stroke-width:0.748266" />
  <path
     d="m 27.43013,19.013422 -3.297607,3.092583 1.34613,-2.914495 z"
     id="path4757"
     style="fill:#1546b6;stroke-width:0.748266" />
  <path
     d="m 24.132523,22.106005 2.104124,0.349441 1.193483,-3.442024 z"
     id="path4759"
     style="fill:#1549bd;stroke-width:0.748266" />
  <path
     d="m 26.236647,22.455446 1.193483,-3.442024 2.025556,1.848217 z"
     id="path4761"
     style="fill:#144bc3;stroke-width:0.748266" />
  <path
     d="m 21.002527,22.773458 0.127954,1.243618 1.7906,-3.075372 z"
     id="path4763"
     style="fill:#173794;stroke-width:0.748266" />
  <path
     d="m 19.500758,25.865293 1.501769,-3.091835 0.127954,1.243618 z"
     id="path4765"
     style="fill:#192f84;stroke-width:0.748266" />
  <path
     d="m 21.130481,24.017076 1.7906,-3.075372 1.211442,1.164301 z"
     id="path4767"
     style="fill:#1a389b;stroke-width:0.748266" />
  <path
     d="m 21.021982,26.683895 0.108499,-2.666819 -1.629723,1.848217 z"
     id="path4769"
     style="fill:#1d3089;stroke-width:0.748266" />
  <path
     d="m 21.021982,26.683895 0.108499,-2.666819 2.115347,1.71727 z"
     id="path4771"
     style="fill:#1e389f;stroke-width:0.748266" />
  <path
     d="m 23.245828,25.734346 0.886695,-3.628341 -3.002042,1.911071 z"
     id="path4773"
     style="fill:#1c40af;stroke-width:0.748266" />
  <path
     d="m 23.245828,25.734346 0.886695,-3.628341 2.104124,0.349441 z"
     id="path4775"
     style="fill:#1e41b7;stroke-width:0.748266" />
  <path
     d="m 19.181248,28.668295 0.31951,-2.803002 1.521224,0.818602 z"
     id="path4777"
     style="fill:#192c7d;stroke-width:0.748266" />
  <path
     d="m 34.649398,44.916887 2.829193,-0.439231 1.257835,-1.084986 z m -16.611499,-11.822599 0.208765,-0.652487 -0.05986,-3.591677 z m 1.145594,-4.427489 -0.936829,3.775002 1.698564,4.489594 -0.831324,-5.200446 z"
     id="path4779"
     style="fill:#162467;stroke-width:0.748266" />
  <path
     d="m 19.942983,36.932891 1.401502,0.196794 -0.981725,-2.291189 z"
     id="path4781"
     style="fill:#1a236a;stroke-width:0.748266" />
  <path
     d="m 40.277106,42.196941 -1.54068,1.197226 -1.257835,1.084985 2.904769,-1.594554 z m -8.243644,3.134486 2.19616,0.06136 3.248969,-0.915129 -2.829193,0.439231 z m -10.78251,-5.793074 1.472586,0.282844 -1.379053,-2.693756 z"
     id="path4783"
     style="fill:#132668;stroke-width:0.748266" />
  <path
     d="m 27.64638,43.137512 -2.493971,-1.920051 -1.036348,0.997438 3.472701,2.241057 z m -8.851985,-7.14968 1.673122,3.292369 -0.523786,-2.34731 z m -0.758742,-2.892048 0.758742,2.892048 -0.549975,-3.544535 z m 13.943185,10.431574 -4.332458,-0.389846 1.830258,0.856015 -1.887876,0.462429 -2.272482,-0.70786 2.512676,1.093216 4.204506,0.493108 2.61893,-0.414539 z m -10.634353,-6.397673 -1.398509,-0.196794 1.307969,2.605462 z m -2.230581,-5.398736 0.832072,5.201942 0.419777,-2.095144 z m 3.609634,8.090248 -1.472586,-0.282844 -0.78119,-0.258152 1.179267,1.590065 1.631968,1.496531 2.035283,1.381299 -1.197225,-1.530203 z"
     id="path4785"
     style="fill:#1b2268;stroke-width:0.748266" />
  <path
     d="m 19.181248,28.668295 1.977667,3.05966 -0.136933,-5.04406 z"
     id="path4787"
     style="fill:#212a81;stroke-width:0.748266" />
  <path
     d="m 19.113904,31.730949 1.248856,3.107547 0.796155,-3.110541 z"
     id="path4789"
     style="fill:#21267a;stroke-width:0.748266" />
  <path
     d="m 20.36276,34.838496 0.796155,-3.110541 0.988459,2.458052 z"
     id="path4791"
     style="fill:#262781;stroke-width:0.748266" />
  <path
     d="m 21.344485,37.129685 3.79221,2.350303 -2.989321,-5.293981 z"
     id="path4793"
     style="fill:#272379;stroke-width:0.748266" />
  <path
     d="m 20.469762,39.280201 0.783435,0.258152 -1.307221,-2.605462 z m 8.376087,1.352117 -1.197225,2.505194 4.332459,0.389846 z m -7.501364,-3.502633 1.379053,2.693757 1.392523,2.394451 1.036348,-0.997439 -0.01571,-1.737473 z"
     id="path4795"
     style="fill:#1e226d;stroke-width:0.748266" />
  <path
     d="m 38.922745,41.013185 -0.186319,2.379485 1.54068,-1.197225 z m -6.630383,-0.341958 -0.315021,2.856131 3.682217,-0.988459 -0.130947,-3.210808 z"
     id="path4797"
     style="fill:#222475;stroke-width:0.748266" />
  <path
     d="m 19.113904,31.730949 h 2.045011 l -1.977667,-3.05966 z m 16.414707,7.597142 0.130947,3.210808 3.263187,-1.525714 z"
     id="path4799"
     style="fill:#23277d;stroke-width:0.748266" />
  <path
     d="m 35.528611,39.328091 2.100382,-1.902092 1.293752,3.587186 z"
     id="path4801"
     style="fill:#1e2776;stroke-width:0.748266" />
  <path
     d="m 38.922745,41.013185 1.58782,-4.809104 -2.881572,1.221918 z"
     id="path4803"
     style="fill:#222b86;stroke-width:0.748266" />
  <path
     d="m 42.194911,38.838725 -3.272166,2.17446 1.58782,-4.809104 z"
     id="path4805"
     style="fill:#192974;stroke-width:0.748266" />
  <path
     d="m 43.793207,36.686713 -3.282642,-0.482632 1.684346,2.634644 1.60952,-0.307538 z"
     id="path4807"
     style="fill:#172a75;stroke-width:0.748266" />
  <path
     d="m 44.021428,34.102202 -3.510863,2.101879 3.282642,0.482632 1.848964,-3.108297 z"
     id="path4809"
     style="fill:#172d7d;stroke-width:0.748266" />
  <path
     d="m 19.500758,25.864544 1.501769,-3.091834 -2.020317,3.284886 z m 23.211205,3.827379 1.309465,4.40953 0.972746,-2.783548 z"
     id="path4811"
     style="fill:#18338a;stroke-width:0.748266" />
  <path
     d="m 44.996418,31.318653 -0.907646,-3.481681 -1.376809,1.8557 z"
     id="path4813"
     style="fill:#153791;stroke-width:0.748266" />
  <path
     d="m 40.510565,36.204081 3.510863,-2.101879 -3.402364,-1.514491 z"
     id="path4815"
     style="fill:#1b318b;stroke-width:0.748266" />
  <path
     d="m 40.510565,36.204081 -3.181627,-3.214551 0.300055,4.436469 z"
     id="path4817"
     style="fill:#242d8d;stroke-width:0.748266" />
  <path
     d="m 35.528611,39.328091 -2.443087,-2.163237 4.543469,0.261145 z"
     id="path4819"
     style="fill:#2a2b8f;stroke-width:0.748266" />
  <path
     d="m 21.344485,37.129685 0.802889,-2.943678 -1.784614,0.652489 z m 11.741039,0.03367 -0.793162,3.507869 3.234752,-1.343136 z"
     id="path4821"
     style="fill:#27267f;stroke-width:0.748266" />
  <path
     d="m 28.028743,37.882441 -2.35105,-1.195728 -0.540998,2.793275 3.706909,1.15233 3.450253,0.03891 z"
     id="path4823"
     style="fill:#2d2381;stroke-width:0.748266" />
  <path
     d="m 32.293857,40.671227 0.791667,-3.506373 -5.056781,0.717587 z"
     id="path4825"
     style="fill:#2f2485;stroke-width:0.748266" />
  <path
     d="m 21.158915,31.727955 1.0139,-3.238494 -1.150833,-1.805566 z"
     id="path4827"
     style="fill:#233196;stroke-width:0.748266" />
  <path
     d="m 23.245828,25.734346 4.452182,-1.297493 -2.3518,4.804615 z"
     id="path4829"
     style="fill:#293cb7;stroke-width:0.748266" />
  <path
     d="M 40.510565,36.204081 37.328938,32.98953 40.619064,32.587711 Z"
     id="path4831"
     style="fill:#25339c;stroke-width:0.748266" />
  <path
     d="m 44.021428,34.102202 -1.309465,-4.40953 -2.092899,2.895039 z"
     id="path4833"
     style="fill:#19348f;stroke-width:0.748266" />
  <path
     d="M 37.628993,37.425999 33.990176,33.907653 37.328938,32.98953 Z"
     id="path4835"
     style="fill:#2a309a;stroke-width:0.748266" />
  <path
     d="m 33.085524,37.164854 4.543469,0.261145 -3.638817,-3.518346 z"
     id="path4837"
     style="fill:#302b96;stroke-width:0.748266" />
  <path
     d="M 33.085524,37.164854 30.59754,35.13855 33.990176,33.907653 Z"
     id="path4839"
     style="fill:#3630a7;stroke-width:0.748266" />
  <path
     d="m 22.921081,20.941704 0.274614,-0.615823 -2.193168,2.447577 z m 18.965545,5.225888 0.823092,3.52508 1.376809,-1.8557 z"
     id="path4841"
     style="fill:#173da2;stroke-width:0.748266" />
  <path
     d="m 23.245828,25.734346 2.100382,3.507122 -3.173395,-0.752007 z"
     id="path4843"
     style="fill:#2a36a8;stroke-width:0.748266" />
  <path
     d="m 22.172815,28.489461 3.173395,0.752007 -2.146026,3.379916 z"
     id="path4845"
     style="fill:#312e9f;stroke-width:0.748266" />
  <path
     d="m 27.69801,24.436853 1.757676,-3.575214 -3.219039,1.593807 z"
     id="path4847"
     style="fill:#184dcd;stroke-width:0.748266" />
  <path
     d="m 21.158915,31.727955 2.041269,0.893429 -1.05281,1.564623 z"
     id="path4849"
     style="fill:#272986;stroke-width:0.748266" />
  <path
     d="m 23.200184,32.621384 -1.05281,1.564623 2.989321,5.293981 0.540998,-2.793275 z"
     id="path4851"
     style="fill:#2c2584;stroke-width:0.748266" />
  <path
     d="m 25.677693,36.686713 0.330732,-4.918351 -2.808241,0.853022 z"
     id="path4853"
     style="fill:#32268b;stroke-width:0.748266" />
  <path
     d="M 25.677693,36.686713 30.59754,35.13855 26.008425,31.768362 Z"
     id="path4855"
     style="fill:#372999;stroke-width:0.748266" />
  <path
     d="m 30.59754,35.13855 -0.479639,-3.802686 -4.109476,0.432498 z"
     id="path4857"
     style="fill:#392da5;stroke-width:0.748266" />
  <path
     d="m 30.117901,31.335864 3.470456,-1.297494 0.401819,3.869283 z"
     id="path4859"
     style="fill:#3338bc;stroke-width:0.748266" />
  <path
     d="M 28.028743,37.882441 33.085524,37.164854 30.59754,35.13855 Z"
     id="path4861"
     style="fill:#362896;stroke-width:0.748266" />
  <path
     d="M 28.028743,37.882441 25.677693,36.686713 30.59754,35.13855 Z"
     id="path4863"
     style="fill:#35268f;stroke-width:0.748266" />
  <path
     d="m 27.69801,24.436853 3.013267,0.31876 -1.255591,-3.893974 z"
     id="path4865"
     style="fill:#2648d3;stroke-width:0.748266" />
  <path
     d="m 32.263927,22.0005 -2.808241,-1.138861 1.255591,3.893974 z"
     id="path4867"
     style="fill:#1057dc;stroke-width:0.748266" />
  <path
     d="m 32.263927,22.0005 2.990818,2.049499 -4.543468,0.705614 z"
     id="path4869"
     style="fill:#1653da;stroke-width:0.748266" />
  <path
     d="m 30.711277,24.755613 4.456671,2.363773 -1.579591,2.918984 z"
     id="path4871"
     style="fill:#2b46d5;stroke-width:0.748266" />
  <path
     d="m 35.167948,27.119386 0.08681,-3.069387 -4.543468,0.705614 z"
     id="path4873"
     style="fill:#244ad7;stroke-width:0.748266" />
  <path
     d="m 35.167948,27.119386 0.08681,-3.069387 3.147956,1.541428 z"
     id="path4875"
     style="fill:#2547cf;stroke-width:0.748266" />
  <path
     d="m 30.711277,24.755613 2.87708,5.282757 -5.045556,-2.527642 z"
     id="path4877"
     style="fill:#333cc5;stroke-width:0.748266" />
  <path
     d="M 30.117901,31.335864 33.588357,30.03837 28.542801,27.510728 Z"
     id="path4879"
     style="fill:#3833b6;stroke-width:0.748266" />
  <path
     d="m 33.588357,30.03837 4.449938,-0.813364 -2.870347,-2.10562 z"
     id="path4881"
     style="fill:#2a41c6;stroke-width:0.748266" />
  <path
     d="m 38.4027,25.591427 -0.364405,3.633579 -2.870347,-2.10562 z"
     id="path4883"
     style="fill:#2045c1;stroke-width:0.748266" />
  <path
     d="m 38.4027,25.591427 2.100383,2.853138 -2.464788,0.780441 z"
     id="path4885"
     style="fill:#1b43b7;stroke-width:0.748266" />
  <path
     d="M 41.886626,26.167592 38.4027,25.591427 40.503083,28.444565 Z"
     id="path4887"
     style="fill:#1742af;stroke-width:0.748266" />
  <path
     d="m 24.136265,22.106005 1.346878,-2.918237 -2.557572,1.750194 z m 17.754102,4.061587 -1.383544,2.276973 2.208881,1.248107 z"
     id="path4889"
     style="fill:#1740a9;stroke-width:0.748266" />
  <path
     d="m 40.619064,32.587711 2.092899,-2.895039 -2.20888,-1.248107 z"
     id="path4891"
     style="fill:#1b3ca4;stroke-width:0.748266" />
  <path
     d="m 40.619064,32.587711 -0.115981,-4.143146 -2.464788,0.780441 z"
     id="path4893"
     style="fill:#1f3dad;stroke-width:0.748266" />
  <path
     d="m 23.245828,25.734346 4.452182,-1.297493 -1.461363,-1.981407 z m 10.342529,4.304024 3.74133,2.95116 0.709355,-3.764524 z"
     id="path4895"
     style="fill:#2543c3;stroke-width:0.748266" />
  <path
     d="M 33.990176,33.907653 37.328938,32.98953 33.588357,30.03837 Z"
     id="path4897"
     style="fill:#2e37b2;stroke-width:0.748266" />
  <path
     d="m 27.69801,24.436853 0.844791,3.073875 2.168476,-2.755115 z"
     id="path4899"
     style="fill:#2d40c7;stroke-width:0.748266" />
  <path
     d="m 27.69801,24.436853 -2.3518,4.804615 3.196591,-1.73074 z"
     id="path4901"
     style="fill:#3537b8;stroke-width:0.748266" />
  <path
     d="m 28.542801,27.510728 -2.534376,4.257634 4.109476,-0.432498 z"
     id="path4903"
     style="fill:#3931b0;stroke-width:0.748266" />
  <path
     d="m 30.117901,31.335864 0.479639,3.802686 3.392636,-1.230897 z m -4.110973,0.432498 2.534377,-4.257634 -3.196591,1.73074 z"
     id="path4905"
     style="fill:#3735b8;stroke-width:0.748266" />
  <path
     d="m 23.200184,32.621384 2.146026,-3.379916 0.662215,2.526894 z"
     id="path4907"
     style="fill:#342892;stroke-width:0.748266" />
  <path
     d="m 25.31628,43.748096 2.272482,0.710852 -3.472701,-2.241055 z m -0.163871,-2.527642 2.493971,1.920051 1.197224,-2.505194 -3.706909,-1.15233 z m 6.826429,2.309897 0.315019,-2.85613 -3.450253,-0.03891 z m 3.68072,-0.991452 -1.01016,2.377988 4.087028,-1.524217 z"
     id="path4909"
     style="fill:#232372;stroke-width:0.748266" />
  <path
     d="m 21.158915,31.727955 1.0139,-3.238494 1.027369,4.131923 z"
     id="path4911"
     style="fill:#2a2f96;stroke-width:0.748266" />
  <path
     d="m 22.172815,28.489461 1.073013,-2.755115 -2.223097,0.95329 z m 15.863235,0.735545 -0.709356,3.764524 3.29237,-0.401819 z"
     id="path4913"
     style="fill:#2636a5;stroke-width:0.748266" />
  <path
     d="m 46.265477,32.809199 v -0.006 L 46.135279,28.51264 v -0.01497 l -0.645006,-2.14079 v -0.0045 L 43.64505,22.86995 41.518479,20.62216 h -0.0045 l -2.240345,-1.599058 h -0.0091 l -1.945492,-0.763231 h -0.01346 l -2.33459,-0.830574 h -0.01571 l -3.843774,-0.244659 h -0.01645 l -2.424382,0.437736 h -0.0091 l -1.97617,0.607591 h -0.01272 l -3.509367,2.041269 -2.192418,2.446082 -2.020318,3.284138 v 0.0081 l -0.796155,2.795521 v 0.01047 l -0.149653,4.241918 v 0.02021 l 0.757994,2.889802 v 0.0098 l 1.672374,3.29237 v 0.0053 l 1.156819,1.629723 v 0.0038 l 1.631218,1.496531 h 0.0045 l 2.037528,1.378306 h 0.0045 l 2.512676,1.092467 h 0.01571 l 4.204507,0.493107 h 0.006 l 2.195412,0.06136 h 0.01722 l 3.248971,-0.915877 h 0.01122 l 2.903271,-1.593806 0.0053,-0.0038 h 0.0038 l 1.870665,-1.593806 1.448641,-1.729243 0.0053,-0.0074 2.048751,-4.010705 v -0.01571 l 0.44896,-2.742395 v -0.0067 z m -22.947067,9.507465 -0.42277,-0.387602 0.950298,0.744524 z m 6.167207,1.611016 -1.485308,-0.694391 3.516849,0.316517 z m 0.540996,-12.645692 -3.898465,0.41005 2.404178,-4.040635 z m -1.360347,-3.638816 4.763459,2.386218 -3.276656,1.222668 z m 1.396263,3.762281 0.453449,3.591675 -4.339941,-3.185367 z m 0.396582,3.7099 -4.714075,1.483064 0.316516,-4.714075 z m -0.261893,-3.650039 3.652285,2.425128 -3.199584,1.16131 z m 0.05837,-0.113736 3.277405,-1.22566 0.379371,3.65453 z m 5.035081,-4.220968 3.03721,-1.433677 -0.342705,3.411343 z m 2.590495,2.058479 -4.175322,0.763232 1.483063,-2.740898 z m -4.294296,0.716091 -2.716204,-4.994675 4.213484,2.234323 z m -0.149655,-0.01422 -4.794886,-2.401934 2.060725,-2.618931 z m -7.404092,1.715019 -0.611334,-2.333093 2.950413,-1.596799 z m -0.404069,4.877203 -2.331596,-3.824388 2.641378,-0.802889 z m 4.758222,-1.211443 -2.370504,2.532131 -2.169972,-1.102944 z m 3.510117,-1.262325 -0.845542,3.045442 -2.330848,-1.894609 z m -0.22897,-3.828128 3.524331,2.779808 -3.142717,0.865744 z m 0.07033,-0.106254 4.220968,-0.770714 -0.673439,3.569977 z m 4.373614,-0.939073 0.338216,-3.373931 1.94998,2.648861 z m 2.330848,-0.606094 0.107749,3.863295 -2.406422,-3.134486 z m -5.207181,-1.512246 0.08081,-2.867356 2.941432,1.440413 z m -0.127207,0 -4.19777,-2.226839 4.279333,-0.66446 z m -6.536849,0.356922 -0.786428,-2.862865 2.806745,0.299307 z m -0.102514,0.107002 -2.978846,1.609519 2.190922,-4.475376 z m -2.53737,4.244163 -2.585258,0.785679 1.97617,-3.113533 z m -0.467666,4.731285 -3.229515,-2.2867 0.963018,-1.429936 z m 0.260397,0.324747 2.169971,1.102945 -2.668317,1.474083 z m 4.879441,-1.556392 2.3301,1.897602 -4.735026,0.673439 z m 3.419575,-1.197225 3.442022,3.325293 -4.294298,-0.24618 z m 0.09128,-0.08829 3.156186,-0.86799 0.283591,4.194779 z m 3.959821,-4.564422 2.426628,3.161423 -3.093332,0.374134 z m 2.495468,-0.823092 2.048003,1.160559 -1.945491,2.685526 z m 0.02169,-0.133192 1.272052,-2.08841 0.754251,3.235503 z m -0.09353,-0.09128 -1.951477,-2.650355 3.237746,0.535009 z m -5.130859,-4.296541 2.291938,-2.074942 0.657726,3.520591 z m -4.535987,0.63902 1.454629,-2.580769 2.801507,1.920049 z m -3.036462,-0.287334 1.646184,-3.352232 1.177771,3.651537 z m -2.454312,4.725297 -1.99787,-3.335769 4.234436,-1.234638 z m -2.114599,3.354476 -0.96676,-3.88724 2.985582,0.70711 z m -1.064783,1.58782 -0.885945,-2.199901 1.829509,0.800644 z m 3.445765,2.663826 -0.498346,2.583762 -2.768583,-4.896651 z m 2.383226,1.260828 0.757994,2.560565 -3.451002,-1.073013 z m 5.01338,-0.735545 -0.752006,3.328286 -4.047369,-2.647364 z m 4.470141,0.240193 -1.945491,1.762166 -2.263504,-2.003856 z m -0.07033,-4.325724 2.993063,3.027483 -2.71396,1.150833 z m 0.06136,-0.118227 3.088093,-0.374132 -0.104757,3.392637 z m 5.222895,-3.201829 1.233142,4.153624 -3.205571,-1.426195 z m -0.699629,-3.510863 2.012087,1.525715 -1.257835,1.69557 z m -3.462973,-0.775951 1.870663,-2.139292 1.379055,2.675798 z m -0.08456,-0.09652 -0.653237,-3.496646 2.518664,1.359598 z m -3.191353,-1.481568 -2.789536,-1.91107 5.070249,-0.154143 z m -4.521771,0.628544 -1.169539,-3.626096 2.615189,1.060292 z m -3.040952,-0.282844 -1.353612,-1.836245 2.983336,-1.477825 z m -0.09353,0.08681 -4.148385,1.209197 2.786542,-3.055168 z M 25.2145,29.144971 22.25885,28.444594 23.258532,25.87879 Z m -2.107118,3.367196 -1.870664,-0.819351 0.930095,-2.968371 z m -1.043082,1.636456 -1.60952,0.588886 0.717588,-2.805997 z m 2.895041,5.146574 -3.540794,-2.194665 0.748266,-2.749128 z m 3.605892,1.316947 -3.349986,0.531268 -0.01422,-1.577344 z m -0.426512,-2.582265 3.938872,2.57553 -3.186864,-0.03592 z m 4.985696,-0.748266 2.285951,2.024806 -3.027484,1.257087 z m 4.480615,0.255907 1.20845,3.349237 -3.169654,-1.571358 z m 0.10775,-0.07483 2.693757,-1.14335 -1.486056,4.500818 z m 2.970615,-4.776929 3.204823,1.426195 -3.306587,1.979911 z m 2.145278,-2.832934 2.095145,1.491294 -0.897919,2.553831 z m -0.0232,-0.172849 1.259332,-1.697067 0.829826,3.184619 z m -0.841051,-3.534808 0.579159,-1.814544 1.392522,3.313321 z m -0.08755,-0.141421 -1.336403,-2.586008 1.918553,0.766973 z m -3.948599,-4.115464 2.790283,-0.182576 -0.351686,1.496532 z m -5.524446,0.04864 1.964197,-2.437101 3.148703,2.281462 z m -0.115982,-0.05837 -1.011654,-2.649609 2.955649,0.237947 z m -0.131695,0.01198 -2.583761,-1.047572 1.584078,-1.571359 z m -5.805045,0.443721 1.111174,-3.20557 1.886378,1.721012 z m -2.980344,3.177886 0.813366,-3.330531 1.931274,0.321005 z m -1.2077,2.84341 -1.043083,-1.637955 2.015829,-0.860505 z m -0.05537,0.149652 -0.891933,2.84341 -0.119722,-4.434223 z m -1.027368,3.29237 -0.727315,2.843409 -1.141105,-2.843409 z m -1.897585,-0.124212 0.0606,-2.790284 1.802572,2.788039 z m 2.874837,2.618929 -0.726566,2.646617 -0.882953,-2.062969 z m 2.900287,5.154041 -2.194664,0.310531 -1.254094,-2.448327 z m 0.119722,0.110743 0.01422,1.554896 -2.169971,-1.248856 z m 3.659768,1.161308 -1.114167,2.321121 -2.315134,-1.782369 z m 0.130198,0.0232 2.931706,2.707226 -4.056349,-0.365155 z m 0.143667,-0.03965 3.217543,0.03666 -0.29332,2.66158 z m 6.461275,-1.272052 0.122715,3.006532 -3.153191,-1.756179 z m 0.127954,0.01122 3.18013,1.578841 -3.057415,1.429187 z m 4.932568,-3.081359 1.57884,2.469278 -3.067889,2.038275 z m 0.109994,-0.06435 3.039456,0.448959 -1.483811,1.982905 z m 0.05613,-0.119723 3.251964,-1.945491 -0.211761,2.39445 z m 4.295046,-4.639248 0.573919,2.009094 -1.440411,0.465421 z m -0.767721,-3.427057 1.646185,2.074192 -0.845541,0.998187 z m -1.541428,-3.777993 2.139293,1.566868 -0.735546,1.771145 z m -2.20439,-1.076755 0.344949,-1.470343 1.539931,2.223845 z m -2.725933,-1.486057 -0.374133,-2.244797 3.217544,2.060725 z m -0.141422,-0.07483 -3.06789,-2.221601 2.693757,-0.01722 z m -6.236795,-2.587503 2.00161,-1.228652 0.859758,1.459118 z m -1.922295,1.670128 -1.853454,-1.691079 3.427805,0.128701 z m -3.260194,1.608024 -1.92454,-0.320258 3.016259,-2.828444 z m -2.985581,3.237746 -1.969435,-1.599044 2.794772,-1.779376 z m -0.0838,0.09578 -2.034534,0.867989 0.09876,-2.440095 z m -2.035283,5.785592 -1.828012,-2.827696 1.701556,-1.834749 z m -0.792413,3.340258 -0.346446,1.729991 -0.684665,-4.295795 z m 0.08829,0.206521 0.856765,2.000115 -1.22117,-0.170605 z m 2.22235,4.683396 -1.291507,-0.250669 0.08231,-2.111606 z m 2.440094,1.496531 -0.917374,0.882206 -1.232394,-2.118341 z m 0.109248,0.07033 2.203641,1.69931 -3.119518,-0.815609 z m 7.189338,-0.528276 3.142714,1.744956 -3.442022,0.924108 z m 6.504673,0.343453 -0.1721,2.194664 -2.836676,-0.787923 z m 3.156185,-2.076437 -1.746452,3.062652 -1.23389,-1.081992 z m 1.721012,-2.162488 0.0091,1.601288 -1.397012,0.267132 z m 0.350188,-2.727429 1.421705,-0.459435 -1.619247,2.725184 z m 0.985466,-2.816472 0.806631,-0.951046 -0.258901,2.853137 z m -0.904653,-3.506373 0.724321,-1.744209 0.938326,3.837856 z m -1.540679,-3.696434 0.50882,-0.88819 1.533197,2.383975 z m -0.08829,-0.101011 -1.50551,-2.169972 2.014331,1.284026 z m -5.050046,-4.593603 1.52347,-0.162375 1.541428,2.125823 z m -3.094079,-0.0898 -0.838805,-1.425446 3.43005,1.409732 z m -3.189108,-0.279851 -0.67344,-1.183757 2.647365,-0.02693 z m -0.134689,0.02021 -3.334271,-0.12496 2.657092,-1.06179 z m -6.734392,2.750624 1.197226,-2.585257 1.731487,-0.157884 z m -0.214751,0.161626 -1.090972,-1.047572 2.303161,-1.575847 z m -0.08157,0.09728 -2.71396,1.727746 1.621493,-2.779808 z m -3.067889,4.484358 -1.361843,-0.732554 1.459117,-1.654415 z m -0.04265,0.12047 -1.655165,1.783117 0.287334,-2.517914 z m -1.872909,5.00066 -0.699629,0.571674 0.753504,-3.034217 z m 0.01722,0.149653 0.713845,4.479118 -1.462859,-3.86554 z m 2.210378,5.334386 -0.08157,2.104872 -1.140357,-2.276224 z m 1.404494,2.693758 1.164301,1.998617 -2.389961,-2.232825 z m 4.898148,3.307335 -0.05014,1.15607 -3.046938,-1.965694 z m 0.124959,0.04938 1.581834,0.739286 -1.631218,0.398827 z m 4.21199,0.368147 0.04938,1.621491 -2.297923,-1.202463 z m 3.632826,-0.972752 -0.932338,2.194664 -2.464788,-1.281781 z m 0.149654,-0.01945 2.835178,0.787176 -3.765272,1.404495 z m 3.280397,-1.470342 1.200966,1.047572 -1.368578,1.065531 z m 3.259445,-2.248539 1.384292,-0.264886 -3.034966,3.154688 z m 1.630472,-0.612081 -0.0098,-1.561631 1.277289,-0.780441 z m 0.11224,-1.784615 1.548909,-2.602468 -0.285088,1.832503 z m 1.976918,-5.626957 0.181081,1.915559 -0.41005,0.566438 z m -0.944312,-4.797132 0.353931,0.33223 0.354677,2.566552 z m -1.795837,-2.927218 0.332978,-0.167609 0.963765,2.184187 z m -2.332345,-1.529453 0.585144,-0.837311 1.43218,2.124328 z m -0.09128,-0.09128 -1.524966,-2.104123 2.111606,1.265318 z m -3.435289,-2.202894 -0.0098,-0.914381 1.469595,0.75874 z m -0.127204,-0.0247 -3.358966,-1.379801 3.349238,0.440728 z m -6.643853,-1.542175 0.53501,-0.458687 1.772641,0.436239 z m -2.918236,1.095461 1.039341,-1.122399 1.438167,0.12945 z m -0.268628,0.103261 -1.571358,0.142918 2.585258,-1.231646 z m -4.329466,1.809306 0.173597,-0.389846 1.444903,-0.717587 z m -1.896854,3.054422 -0.105505,-1.019886 1.571358,-1.496533 z m -0.109246,0.179583 -1.303479,1.477825 1.200966,-2.469277 z m -1.94175,4.618297 -0.832072,0.15489 1.099203,-2.495466 z m -0.02769,0.134687 -0.795407,3.206319 -0.05089,-3.049183 z m 0.701124,7.983248 -0.945808,-0.778196 -0.453449,-2.918237 z m 1.325928,2.693757 -0.603851,-0.19829 -0.404064,-1.810056 z m 2.582265,2.490228 -2.003856,-1.086482 -0.322503,-1.083489 z m 0.366649,0.344203 0.868736,1.107434 -2.656343,-2.080928 z m 0.324747,0.208766 2.763346,1.783117 -1.808558,-0.565689 z m 5.069501,1.58782 2.147523,1.122398 -3.733097,-0.735545 z m 2.577777,-0.42726 2.403429,1.250352 -2.354793,0.374132 z m 6.38121,-0.05837 -0.972746,0.842547 -2.196159,0.34046 z m 1.803321,-1.261577 0.08157,0.523786 -1.261576,0.389847 z m 3.273662,-3.379168 -1.2945,2.309148 -1.651422,0.75949 z m 0.36216,-0.384608 0.868738,-1.605031 -0.928599,2.202146 z m 1.836246,-4.946037 0.327739,-0.453449 -0.523785,1.734479 z m 0.315768,-3.421072 -0.0045,-0.03367 0.03293,-0.429505 0.03293,1.112672 z m -0.08755,-0.632284 -0.32774,-2.377989 0.406308,1.346879 z m -0.972745,-3.708405 -0.598613,-1.358103 0.838057,1.582582 z m -1.806313,-2.804501 -1.197226,-1.774137 1.526462,1.60877 z m -3.997236,-3.828876 0.08006,-0.05761 0.917373,0.656229 z m -0.12122,-0.06959 -0.621809,-0.321005 0.691399,0.27162 z m -5.249833,-1.359598 1.165798,-0.239446 1.753936,0.624054 z m -0.380118,-0.05089 -1.587072,-0.390595 2.660833,0.169109 z m -3.006532,0.02918 -1.237632,-0.111492 1.732235,-0.312775 z m -4.367627,1.105936 0.707858,-0.530519 1.141853,-0.351686 z m -0.581403,0.276859 -0.614326,0.305293 0.944311,-0.55222 z m -2.577028,1.767404 -0.728811,0.695887 0.832819,-0.929346 z m -3.413589,4.910869 -0.323998,0.119722 1.259332,-2.045011 z m -0.422021,0.291074 0.34944,-0.12945 -0.883701,2.007598 z m -0.870233,5.210176 0.01796,1.11716 -0.06435,0.203528 z m 0.06061,1.402997 0.318762,2.05399 -0.439232,-1.676116 z m 1.663395,4.248654 0.409301,1.833251 -1.30722,-2.57179 z m 1.313207,2.61893 0.28434,0.956284 -0.846288,-1.141106 z m 6.348287,4.921344 0.118225,0.189311 -1.242121,-0.540247 z m 0.318761,0.269376 -0.149653,-0.231963 2.701988,0.532018 z m 6.619159,0.22448 -0.284341,0.321753 -1.483063,-0.04116 z m 0.196794,-0.03068 1.768152,-0.274614 -2.030793,0.571675 z m 4.085532,-1.527211 1.037095,-0.320258 -1.825768,1.007915 z m 1.661149,-0.687656 -0.08157,-0.523787 1.515239,-0.696635 z m 3.281894,-3.934381 -0.07108,0.707111 -0.99669,1.188994 z m 1.640947,-3.015513 0.255907,-0.123463 -1.172532,2.303162 z m 0.340461,-0.305292 -0.287334,0.139178 0.57766,-1.900595 z"
     id="path4915"
     style="fill:url(#a);stroke-width:0.748266" />
  <path
     d="m 46.265477,32.809199 v -0.006 L 46.135279,28.51264 v -0.01497 l -0.645006,-2.14079 v -0.0045 L 43.64505,22.86995 41.518479,20.62216 h -0.0045 l -2.240345,-1.599058 h -0.0091 l -1.945492,-0.763231 h -0.01346 l -2.33459,-0.830574 h -0.01571 l -3.843774,-0.244659 h -0.01645 l -2.424382,0.437736 h -0.0091 l -1.97617,0.607591 h -0.01272 l -3.509367,2.041269 -2.192418,2.446082 -2.020318,3.284138 v 0.0081 l -0.796155,2.795521 v 0.01047 l -0.149653,4.241918 v 0.02021 l 0.757994,2.889802 v 0.0098 l 1.672374,3.29237 v 0.0053 l 1.156819,1.629723 v 0.0038 l 1.631218,1.496531 h 0.0045 l 2.037528,1.378306 h 0.0045 l 2.512676,1.092467 h 0.01571 l 4.204507,0.493107 h 0.006 l 2.195412,0.06136 h 0.01722 l 3.248971,-0.915877 h 0.01122 l 2.903271,-1.593806 0.0053,-0.0038 h 0.0038 l 1.870665,-1.593806 1.448641,-1.729243 0.0053,-0.0074 2.048751,-4.010705 v -0.01571 l 0.44896,-2.742395 v -0.0067 z m -22.947067,9.507465 -0.42277,-0.387602 0.950298,0.744524 z m 6.167207,1.611016 -1.485308,-0.694391 3.516849,0.316517 z m 0.540996,-12.645692 -3.898465,0.41005 2.404178,-4.040635 z m -1.360347,-3.638816 4.763459,2.386218 -3.276656,1.222668 z m 1.396263,3.762281 0.453449,3.591675 -4.339941,-3.185367 z m 0.396582,3.7099 -4.714075,1.483064 0.316516,-4.714075 z m -0.261893,-3.650039 3.652285,2.425128 -3.199584,1.16131 z m 0.05837,-0.113736 3.277405,-1.22566 0.379371,3.65453 z m 5.035081,-4.220968 3.03721,-1.433677 -0.342705,3.411343 z m 2.590495,2.058479 -4.175322,0.763232 1.483063,-2.740898 z m -4.294296,0.716091 -2.716204,-4.994675 4.213484,2.234323 z m -0.149655,-0.01422 -4.794886,-2.401934 2.060725,-2.618931 z m -7.404092,1.715019 -0.611334,-2.333093 2.950413,-1.596799 z m -0.404069,4.877203 -2.331596,-3.824388 2.641378,-0.802889 z m 4.758222,-1.211443 -2.370504,2.532131 -2.169972,-1.102944 z m 3.510117,-1.262325 -0.845542,3.045442 -2.330848,-1.894609 z m -0.22897,-3.828128 3.524331,2.779808 -3.142717,0.865744 z m 0.07033,-0.106254 4.220968,-0.770714 -0.673439,3.569977 z m 4.373614,-0.939073 0.338216,-3.373931 1.94998,2.648861 z m 2.330848,-0.606094 0.107749,3.863295 -2.406422,-3.134486 z m -5.207181,-1.512246 0.08081,-2.867356 2.941432,1.440413 z m -0.127207,0 -4.19777,-2.226839 4.279333,-0.66446 z m -6.536849,0.356922 -0.786428,-2.862865 2.806745,0.299307 z m -0.102514,0.107002 -2.978846,1.609519 2.190922,-4.475376 z m -2.53737,4.244163 -2.585258,0.785679 1.97617,-3.113533 z m -0.467666,4.731285 -3.229515,-2.2867 0.963018,-1.429936 z m 0.260397,0.324747 2.169971,1.102945 -2.668317,1.474083 z m 4.879441,-1.556392 2.3301,1.897602 -4.735026,0.673439 z m 3.419575,-1.197225 3.442022,3.325293 -4.294298,-0.24618 z m 0.09128,-0.08829 3.156186,-0.86799 0.283591,4.194779 z m 3.959821,-4.564422 2.426628,3.161423 -3.093332,0.374134 z m 2.495468,-0.823092 2.048003,1.160559 -1.945491,2.685526 z m 0.02169,-0.133192 1.272052,-2.08841 0.754251,3.235503 z m -0.09353,-0.09128 -1.951477,-2.650355 3.237746,0.535009 z m -5.130859,-4.296541 2.291938,-2.074942 0.657726,3.520591 z m -4.535987,0.63902 1.454629,-2.580769 2.801507,1.920049 z m -3.036462,-0.287334 1.646184,-3.352232 1.177771,3.651537 z m -2.454312,4.725297 -1.99787,-3.335769 4.234436,-1.234638 z m -2.114599,3.354476 -0.96676,-3.88724 2.985582,0.70711 z m -1.064783,1.58782 -0.885945,-2.199901 1.829509,0.800644 z m 3.445765,2.663826 -0.498346,2.583762 -2.768583,-4.896651 z m 2.383226,1.260828 0.757994,2.560565 -3.451002,-1.073013 z m 5.01338,-0.735545 -0.752006,3.328286 -4.047369,-2.647364 z m 4.470141,0.240193 -1.945491,1.762166 -2.263504,-2.003856 z m -0.07033,-4.325724 2.993063,3.027483 -2.71396,1.150833 z m 0.06136,-0.118227 3.088093,-0.374132 -0.104757,3.392637 z m 5.222895,-3.201829 1.233142,4.153624 -3.205571,-1.426195 z m -0.699629,-3.510863 2.012087,1.525715 -1.257835,1.69557 z m -3.462973,-0.775951 1.870663,-2.139292 1.379055,2.675798 z m -0.08456,-0.09652 -0.653237,-3.496646 2.518664,1.359598 z m -3.191353,-1.481568 -2.789536,-1.91107 5.070249,-0.154143 z m -4.521771,0.628544 -1.169539,-3.626096 2.615189,1.060292 z m -3.040952,-0.282844 -1.353612,-1.836245 2.983336,-1.477825 z m -0.09353,0.08681 -4.148385,1.209197 2.786542,-3.055168 z M 25.2145,29.144971 22.25885,28.444594 23.258532,25.87879 Z m -2.107118,3.367196 -1.870664,-0.819351 0.930095,-2.968371 z m -1.043082,1.636456 -1.60952,0.588886 0.717588,-2.805997 z m 2.895041,5.146574 -3.540794,-2.194665 0.748266,-2.749128 z m 3.605892,1.316947 -3.349986,0.531268 -0.01422,-1.577344 z m -0.426512,-2.582265 3.938872,2.57553 -3.186864,-0.03592 z m 4.985696,-0.748266 2.285951,2.024806 -3.027484,1.257087 z m 4.480615,0.255907 1.20845,3.349237 -3.169654,-1.571358 z m 0.10775,-0.07483 2.693757,-1.14335 -1.486056,4.500818 z m 2.970615,-4.776929 3.204823,1.426195 -3.306587,1.979911 z m 2.145278,-2.832934 2.095145,1.491294 -0.897919,2.553831 z m -0.0232,-0.172849 1.259332,-1.697067 0.829826,3.184619 z m -0.841051,-3.534808 0.579159,-1.814544 1.392522,3.313321 z m -0.08755,-0.141421 -1.336403,-2.586008 1.918553,0.766973 z m -3.948599,-4.115464 2.790283,-0.182576 -0.351686,1.496532 z m -5.524446,0.04864 1.964197,-2.437101 3.148703,2.281462 z m -0.115982,-0.05837 -1.011654,-2.649609 2.955649,0.237947 z m -0.131695,0.01198 -2.583761,-1.047572 1.584078,-1.571359 z m -5.805045,0.443721 1.111174,-3.20557 1.886378,1.721012 z m -2.980344,3.177886 0.813366,-3.330531 1.931274,0.321005 z m -1.2077,2.84341 -1.043083,-1.637955 2.015829,-0.860505 z m -0.05537,0.149652 -0.891933,2.84341 -0.119722,-4.434223 z m -1.027368,3.29237 -0.727315,2.843409 -1.141105,-2.843409 z m -1.897585,-0.124212 0.0606,-2.790284 1.802572,2.788039 z m 2.874837,2.618929 -0.726566,2.646617 -0.882953,-2.062969 z m 2.900287,5.154041 -2.194664,0.310531 -1.254094,-2.448327 z m 0.119722,0.110743 0.01422,1.554896 -2.169971,-1.248856 z m 3.659768,1.161308 -1.114167,2.321121 -2.315134,-1.782369 z m 0.130198,0.0232 2.931706,2.707226 -4.056349,-0.365155 z m 0.143667,-0.03965 3.217543,0.03666 -0.29332,2.66158 z m 6.461275,-1.272052 0.122715,3.006532 -3.153191,-1.756179 z m 0.127954,0.01122 3.18013,1.578841 -3.057415,1.429187 z m 4.932568,-3.081359 1.57884,2.469278 -3.067889,2.038275 z m 0.109994,-0.06435 3.039456,0.448959 -1.483811,1.982905 z m 0.05613,-0.119723 3.251964,-1.945491 -0.211761,2.39445 z m 4.295046,-4.639248 0.573919,2.009094 -1.440411,0.465421 z m -0.767721,-3.427057 1.646185,2.074192 -0.845541,0.998187 z m -1.541428,-3.777993 2.139293,1.566868 -0.735546,1.771145 z m -2.20439,-1.076755 0.344949,-1.470343 1.539931,2.223845 z m -2.725933,-1.486057 -0.374133,-2.244797 3.217544,2.060725 z m -0.141422,-0.07483 -3.06789,-2.221601 2.693757,-0.01722 z m -6.236795,-2.587503 2.00161,-1.228652 0.859758,1.459118 z m -1.922295,1.670128 -1.853454,-1.691079 3.427805,0.128701 z m -3.260194,1.608024 -1.92454,-0.320258 3.016259,-2.828444 z m -2.985581,3.237746 -1.969435,-1.599044 2.794772,-1.779376 z m -0.0838,0.09578 -2.034534,0.867989 0.09876,-2.440095 z m -2.035283,5.785592 -1.828012,-2.827696 1.701556,-1.834749 z m -0.792413,3.340258 -0.346446,1.729991 -0.684665,-4.295795 z m 0.08829,0.206521 0.856765,2.000115 -1.22117,-0.170605 z m 2.22235,4.683396 -1.291507,-0.250669 0.08231,-2.111606 z m 2.440094,1.496531 -0.917374,0.882206 -1.232394,-2.118341 z m 0.109248,0.07033 2.203641,1.69931 -3.119518,-0.815609 z m 7.189338,-0.528276 3.142714,1.744956 -3.442022,0.924108 z m 6.504673,0.343453 -0.1721,2.194664 -2.836676,-0.787923 z m 3.156185,-2.076437 -1.746452,3.062652 -1.23389,-1.081992 z m 1.721012,-2.162488 0.0091,1.601288 -1.397012,0.267132 z m 0.350188,-2.727429 1.421705,-0.459435 -1.619247,2.725184 z m 0.985466,-2.816472 0.806631,-0.951046 -0.258901,2.853137 z m -0.904653,-3.506373 0.724321,-1.744209 0.938326,3.837856 z m -1.540679,-3.696434 0.50882,-0.88819 1.533197,2.383975 z m -0.08829,-0.101011 -1.50551,-2.169972 2.014331,1.284026 z m -5.050046,-4.593603 1.52347,-0.162375 1.541428,2.125823 z m -3.094079,-0.0898 -0.838805,-1.425446 3.43005,1.409732 z m -3.189108,-0.279851 -0.67344,-1.183757 2.647365,-0.02693 z m -0.134689,0.02021 -3.334271,-0.12496 2.657092,-1.06179 z m -6.734392,2.750624 1.197226,-2.585257 1.731487,-0.157884 z m -0.214751,0.161626 -1.090972,-1.047572 2.303161,-1.575847 z m -0.08157,0.09728 -2.71396,1.727746 1.621493,-2.779808 z m -3.067889,4.484358 -1.361843,-0.732554 1.459117,-1.654415 z m -0.04265,0.12047 -1.655165,1.783117 0.287334,-2.517914 z m -1.872909,5.00066 -0.699629,0.571674 0.753504,-3.034217 z m 0.01722,0.149653 0.713845,4.479118 -1.462859,-3.86554 z m 2.210378,5.334386 -0.08157,2.104872 -1.140357,-2.276224 z m 1.404494,2.693758 1.164301,1.998617 -2.389961,-2.232825 z m 4.898148,3.307335 -0.05014,1.15607 -3.046938,-1.965694 z m 0.124959,0.04938 1.581834,0.739286 -1.631218,0.398827 z m 4.21199,0.368147 0.04938,1.621491 -2.297923,-1.202463 z m 3.632826,-0.972752 -0.932338,2.194664 -2.464788,-1.281781 z m 0.149654,-0.01945 2.835178,0.787176 -3.765272,1.404495 z m 3.280397,-1.470342 1.200966,1.047572 -1.368578,1.065531 z m 3.259445,-2.248539 1.384292,-0.264886 -3.034966,3.154688 z m 1.630472,-0.612081 -0.0098,-1.561631 1.277289,-0.780441 z m 0.11224,-1.784615 1.548909,-2.602468 -0.285088,1.832503 z m 1.976918,-5.626957 0.181081,1.915559 -0.41005,0.566438 z m -0.944312,-4.797132 0.353931,0.33223 0.354677,2.566552 z m -1.795837,-2.927218 0.332978,-0.167609 0.963765,2.184187 z m -2.332345,-1.529453 0.585144,-0.837311 1.43218,2.124328 z m -0.09128,-0.09128 -1.524966,-2.104123 2.111606,1.265318 z m -3.435289,-2.202894 -0.0098,-0.914381 1.469595,0.75874 z m -0.127204,-0.0247 -3.358966,-1.379801 3.349238,0.440728 z m -6.643853,-1.542175 0.53501,-0.458687 1.772641,0.436239 z m -2.918236,1.095461 1.039341,-1.122399 1.438167,0.12945 z m -0.268628,0.103261 -1.571358,0.142918 2.585258,-1.231646 z m -4.329466,1.809306 0.173597,-0.389846 1.444903,-0.717587 z m -1.896854,3.054422 -0.105505,-1.019886 1.571358,-1.496533 z m -0.109246,0.179583 -1.303479,1.477825 1.200966,-2.469277 z m -1.94175,4.618297 -0.832072,0.15489 1.099203,-2.495466 z m -0.02769,0.134687 -0.795407,3.206319 -0.05089,-3.049183 z m 0.701124,7.983248 -0.945808,-0.778196 -0.453449,-2.918237 z m 1.325928,2.693757 -0.603851,-0.19829 -0.404064,-1.810056 z m 2.582265,2.490228 -2.003856,-1.086482 -0.322503,-1.083489 z m 0.366649,0.344203 0.868736,1.107434 -2.656343,-2.080928 z m 0.324747,0.208766 2.763346,1.783117 -1.808558,-0.565689 z m 5.069501,1.58782 2.147523,1.122398 -3.733097,-0.735545 z m 2.577777,-0.42726 2.403429,1.250352 -2.354793,0.374132 z m 6.38121,-0.05837 -0.972746,0.842547 -2.196159,0.34046 z m 1.803321,-1.261577 0.08157,0.523786 -1.261576,0.389847 z m 3.273662,-3.379168 -1.2945,2.309148 -1.651422,0.75949 z m 0.36216,-0.384608 0.868738,-1.605031 -0.928599,2.202146 z m 1.836246,-4.946037 0.327739,-0.453449 -0.523785,1.734479 z m 0.315768,-3.421072 -0.0045,-0.03367 0.03293,-0.429505 0.03293,1.112672 z m -0.08755,-0.632284 -0.32774,-2.377989 0.406308,1.346879 z m -0.972745,-3.708405 -0.598613,-1.358103 0.838057,1.582582 z m -1.806313,-2.804501 -1.197226,-1.774137 1.526462,1.60877 z m -3.997236,-3.828876 0.08006,-0.05761 0.917373,0.656229 z m -0.12122,-0.06959 -0.621809,-0.321005 0.691399,0.27162 z m -5.249833,-1.359598 1.165798,-0.239446 1.753936,0.624054 z m -0.380118,-0.05089 -1.587072,-0.390595 2.660833,0.169109 z m -3.006532,0.02918 -1.237632,-0.111492 1.732235,-0.312775 z m -4.367627,1.105936 0.707858,-0.530519 1.141853,-0.351686 z m -0.581403,0.276859 -0.614326,0.305293 0.944311,-0.55222 z m -2.577028,1.767404 -0.728811,0.695887 0.832819,-0.929346 z m -3.413589,4.910869 -0.323998,0.119722 1.259332,-2.045011 z m -0.422021,0.291074 0.34944,-0.12945 -0.883701,2.007598 z m -0.870233,5.210176 0.01796,1.11716 -0.06435,0.203528 z m 0.06061,1.402997 0.318762,2.05399 -0.439232,-1.676116 z m 1.663395,4.248654 0.409301,1.833251 -1.30722,-2.57179 z m 1.313207,2.61893 0.28434,0.956284 -0.846288,-1.141106 z m 6.348287,4.921344 0.118225,0.189311 -1.242121,-0.540247 z m 0.318761,0.269376 -0.149653,-0.231963 2.701988,0.532018 z m 6.619159,0.22448 -0.284341,0.321753 -1.483063,-0.04116 z m 0.196794,-0.03068 1.768152,-0.274614 -2.030793,0.571675 z m 4.085532,-1.527211 1.037095,-0.320258 -1.825768,1.007915 z m 1.661149,-0.687656 -0.08157,-0.523787 1.515239,-0.696635 z m 3.281894,-3.934381 -0.07108,0.707111 -0.99669,1.188994 z m 1.640947,-3.015513 0.255907,-0.123463 -1.172532,2.303162 z m 0.340461,-0.305292 -0.287334,0.139178 0.57766,-1.900595 z"
     id="path4917"
     style="fill:url(#b);stroke-width:0.748266" />
  <path
     d="m 58.899944,21.174414 c -1.261575,-3.031972 -3.816155,-6.305635 -5.8245,-7.339739 a 30.054095,30.054095 0 0 1 2.936943,8.801851 c 0,-0.0067 0,0.006 0.0045,0.02769 l 0.0053,0.03068 A 26.228961,26.228961 0 0 1 55.11821,42.267279 C 51.79142,49.399747 43.736339,56.708808 31.128061,56.353381 17.508127,55.968024 5.5081881,45.870926 3.2678801,32.646826 c -0.4078052,-2.085418 0,-3.142717 0.2050248,-4.837539 a 21.605426,21.605426 0 0 0 -0.4699108,4.000977 v 0.149652 A 29.038698,29.038698 0 0 0 60.651635,36.86405 c 0.04864,-0.374131 0.08829,-0.744523 0.131694,-1.118657 A 29.780978,29.780978 0 0 0 58.899944,21.174414 Z"
     id="path4919"
     style="fill:url(#c);stroke-width:0.748266" />
  <path
     d="m 58.899944,21.174414 c -1.261575,-3.031972 -3.816155,-6.305635 -5.8245,-7.339739 a 30.054095,30.054095 0 0 1 2.936943,8.801851 c 0,-0.0067 0,0.006 0.0045,0.02769 l 0.0053,0.03068 A 26.228961,26.228961 0 0 1 55.11821,42.267279 C 51.79142,49.399747 43.736339,56.708808 31.128061,56.353381 17.508127,55.968024 5.5081881,45.870926 3.2678801,32.646826 c -0.4078052,-2.085418 0,-3.142717 0.2050248,-4.837539 a 21.605426,21.605426 0 0 0 -0.4699108,4.000977 v 0.149652 A 29.038698,29.038698 0 0 0 60.651635,36.86405 c 0.04864,-0.374131 0.08829,-0.744523 0.131694,-1.118657 A 29.780978,29.780978 0 0 0 58.899944,21.174414 Z"
     id="path4921"
     style="fill:url(#d);stroke-width:0.748266" />
  <path
     d="m 3.2678801,32.646826 c 2.240308,13.2241 14.2402469,23.321198 27.8631729,23.706555 12.608278,0.356174 20.663359,-6.953634 23.99015,-14.086102 a 26.228961,26.228961 0 0 0 0.903904,-19.572388 v -0.02769 c 0,-0.0217 -0.0045,-0.03441 -0.0045,-0.02769 l 0.006,0.04864 c 1.029614,6.717182 -2.390709,13.224849 -7.737815,17.6254 l -0.01645,0.03742 C 37.847464,48.822836 27.87757,45.460878 25.857253,44.085565 A 18.52706,18.52706 0 0 1 25.434506,43.874553 C 19.360084,40.975023 16.850401,35.446088 17.388403,30.705075 A 7.4557202,7.4557203 0 0 1 10.510345,26.383092 10.962842,10.962842 0 0 1 21.185104,25.955833 14.469215,14.469215 0 0 0 32.08584,26.38384 C 32.07537,26.148136 27.022326,24.139043 25.052142,22.201035 23.999332,21.164687 23.49949,20.665594 23.057265,20.290713 A 8.8011022,8.8011022 0 0 0 22.309,19.723527 c -0.172849,-0.117478 -0.36665,-0.244683 -0.598613,-0.397329 -2.117592,-1.375313 -6.328832,-1.29899 -6.46801,-1.295997 h -0.01346 c -1.151586,-1.456873 -1.070024,-6.260739 -1.004176,-7.263416 a 5.2034403,5.2034403 0 0 0 -0.972747,0.513311 21.157216,21.157216 0 0 0 -2.837424,2.428123 25.441037,25.441037 0 0 0 -2.7139594,3.251962 v 0.0045 -0.0045 a 24.46006,24.46006 0 0 0 -3.8962203,8.783144 c -0.013464,0.06285 -1.0445789,4.567414 -0.5365062,6.903501 z"
     id="path4923"
     style="fill:url(#e);stroke-width:0.748266" />
  <path
     d="m 42.275724,21.202849 a 15.759226,15.759226 0 0 1 2.693757,3.516848 5.8933413,5.8933413 0 0 1 0.436239,0.356175 c 6.584738,6.060953 3.132989,14.627848 2.876333,15.238433 C 53.629161,35.913754 57.049484,29.406086 56.01987,22.688904 52.73648,14.5141 47.17013,11.21799 42.625912,4.0413722 A 35.837442,35.837442 0 0 1 41.941997,2.930198 8.7898782,8.7898782 0 0 1 41.622488,2.3315851 5.261805,5.261805 0 0 1 41.188493,1.1800035 a 0.07482657,0.07482657 0 0 0 -0.06585,-0.07483 0.09652629,0.09652629 0 0 0 -0.05462,0 l -0.01422,0.00746 -0.02169,0.00902 C 39.909702,1.6566517 33.250885,12.188492 42.275719,21.202851 Z"
     id="path4925"
     style="fill:url(#f);stroke-width:0.748266" />
  <path
     d="m 31.107108,17.226564 3.843841,0.244683 2.33459,0.830574 1.945492,0.763232 2.241055,1.600541 2.110859,2.225342 0.7333,1.383543 a 17.554316,17.554316 0 0 1 0.4744,0.309034 c 0.06361,0.04415 0.121219,0.08829 0.180332,0.132443 A 15.759226,15.759226 0 0 0 42.27722,21.202849 C 33.25089,12.18849 39.909707,1.6566495 41.032106,1.1216389 l 0.01497,-0.016458 c -7.29335,4.2651152 -9.767865,12.1600671 -9.99459,16.1094151 v 0.02245 z"
     id="path4927"
     style="fill:url(#g);stroke-width:0.748266" />
  <path
     d="m 21.704401,19.326198 a 17.072432,17.072432 0 0 1 0.598613,0.397329 13.414161,13.414161 0 0 1 -0.08157,-7.087574 21.502165,21.502165 0 0 0 -6.988802,5.394248 c 0.142919,-0.0031 4.354158,-0.07932 6.471752,1.295997 z"
     id="path4929"
     style="fill:url(#h);stroke-width:0.748266" />
  <path
     d="m 18.99942,34.581841 c 0,0 1.340144,-4.988689 9.596508,-4.988689 0.892681,0 3.442023,-2.487983 3.491409,-3.209312 A 14.469215,14.469215 0 0 1 21.1866,25.955833 10.962842,10.962842 0 0 0 10.511841,26.383092 7.4557202,7.4557203 0 0 0 17.3899,30.705075 c -0.538003,4.741013 1.971681,10.269948 8.046103,13.169478 0.136184,0.06509 0.263389,0.136185 0.402566,0.19829 -3.545283,-1.831006 -6.473247,-5.290238 -6.839149,-9.491002 z"
     id="path4931"
     style="fill:url(#i);stroke-width:0.748266" />
  <path
     d="m 45.407216,25.072131 a 5.8933413,5.8933413 0 0 0 -0.436239,-0.356175 c -0.05911,-0.04415 -0.11673,-0.08829 -0.180332,-0.132443 A 10.031251,10.031251 0 0 0 37.78987,22.885698 c 10.443547,5.215412 7.639794,23.174539 -6.830918,22.49661 a 12.900851,12.900851 0 0 1 -3.777994,-0.728062 17.015564,17.015564 0 0 1 -0.853023,-0.347943 c -0.163122,-0.07483 -0.326992,-0.149654 -0.489366,-0.23346 l 0.02021,0.01272 c 2.020317,1.375313 11.988715,4.737271 22.408314,-3.737587 l 0.01646,-0.03741 C 48.540208,39.69998 51.988965,31.130841 45.40722,25.072133 Z"
     id="path4933"
     style="fill:url(#j);stroke-width:0.748266" />
  <path
     d="m 58.8977,21.173665 c -1.261577,-3.03272 -3.816155,-6.305635 -5.824501,-7.340487 a 30.072803,30.072803 0 0 1 2.939188,8.802599 l 0.006,0.04789 C 52.735732,14.509611 47.168634,11.213499 42.622919,4.0361346 A 33.905419,33.905419 0 0 1 41.939004,2.9257082 9.5748091,9.5748091 0 0 1 41.618746,2.3270953 5.2775186,5.2775186 0 0 1 41.186249,1.1785069 a 0.07482657,0.07482657 0 0 0 -0.06585,-0.07483 0.10326068,0.10326068 0 0 0 -0.05462,0 c -0.0045,0 -0.01047,0.00674 -0.01497,0.00818 -0.0045,0.00145 -0.01422,0.00818 -0.02095,0.011227 l 0.01198,-0.016458 C 33.748482,5.371743 31.275464,13.29064 31.047991,17.239987 l 0.05912,-0.01048 3.843841,0.244683 2.163237,0.769217 2.116845,0.823093 2.241055,1.600541 2.108613,2.223845 c 0,0 0.725818,1.361844 0.735546,1.38504 a 9.9362214,9.9362214 0 0 0 -6.52862,-1.390278 c 10.442798,5.215412 7.639794,23.17454 -6.830918,22.496611 a 12.924046,12.924046 0 0 1 -3.777996,-0.727315 q -0.423518,-0.158632 -0.853023,-0.350189 a 10.804958,10.804958 0 0 1 -0.489365,-0.233459 l 0.02021,0.01272 a 17.072432,17.072432 0 0 1 -0.422775,-0.21021 c 0.135436,0.06435 0.26339,0.135436 0.402568,0.197542 -3.545284,-1.830258 -6.473248,-5.290239 -6.83915,-9.491003 0,0 1.340144,-4.988689 9.596509,-4.988689 0.892681,0 3.442023,-2.487983 3.491408,-3.209311 -0.01047,-0.235704 -5.064263,-2.244797 -7.033698,-4.182806 -1.05281,-1.0356 -1.552651,-1.535441 -1.995626,-1.910322 a 8.53023,8.53023 0 0 0 -0.752007,-0.566437 13.426133,13.426133 0 0 1 -0.08157,-7.088322 21.508899,21.508899 0 0 0 -6.988804,5.394996 h -0.01346 C 14.069098,16.573329 14.15066,11.769463 14.215759,10.766038 a 5.2692877,5.2692877 0 0 0 -0.972746,0.513311 21.117557,21.117557 0 0 0 -2.837424,2.428871 25.372197,25.372197 0 0 0 -2.7117145,3.247473 24.476522,24.476522 0 0 0 -3.8917305,8.786885 c -0.01422,0.06285 -0.025438,0.127953 -0.038912,0.190808 -0.054624,0.255907 -0.2993069,1.551155 -0.3352234,1.829509 0,0.02095 0,-0.02169 0,0 a 33.740053,33.740053 0 0 0 -0.4280078,4.04662 v 0.149653 A 29.03795,29.03795 0 0 0 60.651635,36.86405 c 0.04938,-0.374131 0.08904,-0.748265 0.132442,-1.122397 A 29.786216,29.786216 0 0 0 58.8977,21.173665 Z m -2.880075,1.48905 0.0045,0.03142 z"
     id="path4935"
     style="fill:url(#k);stroke-width:0.748266" />
  <path
     d="m 32.087337,26.38384 c 0,0 -0.122716,0.05089 -0.350189,0.128702 -0.567185,0.958529 -2.583761,2.788787 -3.354476,2.785045 -8.256363,-0.03592 -9.618207,4.898148 -9.618207,4.898148 a 10.54531,10.54531 0 0 0 1.61775,4.738768 10.620884,10.620884 0 0 1 -1.382795,-4.352662 c 0,0 1.340144,-4.988689 9.596508,-4.988689 0.892681,0 3.442023,-2.487983 3.491409,-3.209312 z"
     id="path4937"
     style="fill:url(#l);stroke-width:0.748266" />
  <path
     d="m 56.025107,22.694891 v -0.02769 c 0,-0.0217 -0.0045,-0.03441 0,-0.02769 0.0045,0.0067 0,0.01645 0.0053,0.04864 a 28.985571,28.985571 0 0 0 -0.624053,-1.43667 C 55.331524,21.092848 55.2567,20.944692 55.178133,20.789801 55.03222,20.490494 54.887805,20.191188 54.736655,19.90984 54.643125,19.733998 54.545099,19.567134 54.449321,19.39653 54.308648,19.14586 54.16947,18.893695 54.025054,18.648264 53.9188,18.471673 53.809555,18.302565 53.701804,18.130464 53.560338,17.905982 53.419663,17.681502 53.27525,17.463009 53.160765,17.29016 53.043286,17.123296 52.927306,16.954936 52.782891,16.746918 52.639224,16.5389 52.491815,16.336121 52.370595,16.168509 52.247131,16.004638 52.123668,15.840769 51.974015,15.645472 51.8296,15.450174 51.680694,15.258618 A 50.16748,50.16748 0 0 0 51.294571,14.771503 C 51.144918,14.585186 50.995265,14.397371 50.84187,14.214046 q -0.19829,-0.240194 -0.398825,-0.478142 c -0.07483,-0.08604 -0.144415,-0.174346 -0.217746,-0.260396 l 0.09279,0.113736 C 47.793436,10.621622 45.063013,7.8867099 42.625164,4.0376312 A 35.291956,35.291956 0 0 1 41.941249,2.9264559 8.7898782,8.7898782 0 0 1 41.62174,2.3278431 5.9479647,5.9479647 0 0 1 41.222166,1.3087055 c -0.0053,-0.018705 -0.01423,-0.047136 -0.01722,-0.062102 a 3.3821613,3.3821613 0 0 1 -0.01645,-0.067342 0.07482657,0.07482657 0 0 0 -0.06585,-0.07483 0.09652629,0.09652629 0 0 0 -0.05462,0 l -0.01422,0.00818 a 0.20203177,0.20203177 0 0 0 -0.02169,0.011228 0.85152646,0.85152646 0 0 0 -0.175843,0.1294497 0.94281489,0.94281488 0 0 0 -0.0419,0.03741 2.7850452,2.7850452 0 0 0 -0.229717,0.2431867 l -0.0081,0.00818 C 38.839729,3.583338 34.397275,12.470491 41.555935,20.442515 34.853718,12.555793 39.077679,4.0330462 40.913174,1.8002213 a 6.4425684,6.4425685 0 0 0 0.35842,0.8769672 8.5960774,8.5960774 0 0 0 0.319509,0.5986128 c 0.22448,0.3838595 0.454197,0.7482653 0.683915,1.1104264 4.546463,7.1773653 10.11356,10.4757213 13.393958,18.6475313 0,-0.03142 -0.0053,-0.0434 -0.0053,-0.0479 0,-0.0045 0,0.006 0.0038,0.02769 l 0.0045,0.02769 a 26.229708,26.229708 0 0 1 -0.900913,19.576878 24.058989,24.058989 0 0 1 -4.61231,6.613174 24.104633,24.104633 0 0 0 4.962499,-6.96411 26.232702,26.232702 0 0 0 0.903904,-19.572388 z"
     id="path4939"
     style="fill:url(#m);stroke-width:0.748266" />
  <path
     d="m 41.032106,1.1216389 0.01497,-0.016458 C 34.477298,4.9490224 31.81796,11.735045 31.189417,15.929823 A 21.454277,21.454277 0 0 1 39.959841,2.3951915 4.0675728,4.0675728 0 0 1 41.032106,1.1216431 Z"
     id="path4941"
     style="fill:url(#n);stroke-width:0.748266" />
  <path
     d="m 48.267087,40.347977 0.01646,-0.0374 c 0.256655,-0.610586 3.705412,-9.179725 -2.876334,-15.238432 A 5.8933413,5.8933413 0 0 0 44.970974,24.71597 c -0.05911,-0.04415 -0.116729,-0.08829 -0.180332,-0.132444 a 10.133764,10.133763 0 0 0 -6.734388,-1.739723 h -0.0022 a 6.4440649,6.444065 0 0 0 -0.264137,0.04116 c 10.325318,5.157046 7.701151,22.771223 -6.346043,22.509331 l 0.114485,0.0067 c 14.240206,0.55972 17.046202,-16.904056 7.151884,-22.379864 a 10.513135,10.513135 0 0 1 5.499006,1.58782 6.123059,6.1230591 0 0 1 0.184821,0.126456 5.5371668,5.5371668 0 0 1 0.448959,0.338216 c 6.814458,5.796815 3.703917,14.493908 3.470457,15.114969 l -0.01497,0.03891"
     id="path4943"
     style="fill:url(#o);stroke-width:0.748266" />
  <path
     d="M 21.264421,26.24616 A 14.505133,14.505133 0 0 0 31.761842,26.504311 14.507377,14.507377 0 0 1 21.1866,25.955833 11.031682,11.031682 0 0 0 10.65027,26.292552 l -0.03816,0.0247 h -0.0038 l -0.03142,0.02095 -0.02394,0.01645 -0.01497,0.01047 h -0.0045 l -0.01047,0.0074 h -0.0038 l 0.01346,0.03219 v 0.0045 l 0.01646,0.0374 v 0.0074 l 0.02469,0.05388 v 0.0045 a 5.9861263,5.9861264 0 0 0 0.190807,0.364406 7.4265379,7.426538 0 0 0 6.623649,3.816155 c -0.523786,4.598842 1.824273,9.938465 7.509596,12.901598 -5.43398,-3.131363 -7.716939,-8.814441 -7.082409,-13.334716 -4.195527,-0.110743 -6.071429,-2.625664 -6.607935,-3.691943 A 11.473159,11.473159 0 0 1 21.26422,26.246138 Z"
     id="path4945"
     style="fill:url(#p);stroke-width:0.748266" />
  <path
     d="m 22.302266,19.707813 -0.142172,-0.08305 0.149654,0.09876 z m -0.02994,-0.106253 a 13.436609,13.436609 0 0 1 -0.04714,-6.965607 21.164698,21.164698 0 0 0 -6.719428,5.096439 21.918201,21.918201 0 0 1 6.127549,-4.327969 13.602724,13.602724 0 0 0 0.639019,6.197137 z"
     id="path4947"
     style="fill:url(#q);stroke-width:0.748266" />
  <path
     d="m 3.9682571,35.686281 -0.0232,-0.08305 a 26.852266,26.852266 0 0 1 -0.6734391,-2.956397 12.544676,12.544676 0 0 1 0,-3.74133 24.683792,24.683792 0 0 0 -0.2656338,2.903271 v 0.149654 A 29.013258,29.013258 0 0 0 22.490828,59.350934 29.349977,29.349977 0 0 1 3.9682571,35.686281 Z"
     id="path4949"
     style="fill:url(#r);stroke-width:0.748266" />
  <path
     d="M 3.7355465,32.763554 C 3.2274738,30.427469 4.2593321,25.923657 4.2720527,25.860055 A 24.46006,24.46006 0 0 1 8.168273,17.073918 v 0.0045 -0.0045 a 25.441037,25.441037 0 0 1 2.710967,-3.248222 21.157216,21.157216 0 0 1 2.837424,-2.428123 2.4977112,2.4977112 0 0 1 0.122715,-0.07483 c -0.01047,2.205886 0.115233,5.92851 1.136616,7.148931 h 0.01346 c 0.139926,-0.0074 4.366131,-0.1938 6.527871,1.122399 0.240193,0.149653 0.437735,0.268627 0.614326,0.381615 a 8.924566,8.924566 0 0 1 0.769966,0.546982 c 0.453449,0.363657 0.968256,0.849282 2.052492,1.857196 1.57136,1.459866 4.990186,2.911502 6.468011,3.6029 -1.439664,-0.72507 -4.83679,-2.274728 -6.368491,-3.782484 -1.05281,-1.036348 -1.552651,-1.535441 -1.994876,-1.910322 A 8.8011022,8.8011022 0 0 0 22.310493,19.722779 C 22.137643,19.605301 21.943841,19.478096 21.71188,19.32545 19.594287,17.950137 15.383047,18.02646 15.24387,18.029453 h -0.01346 c -1.052062,-1.331165 -1.07451,-5.457102 -1.020635,-6.922955 0,-0.05687 0,-0.108498 0.006,-0.157136 v -0.09503 c 0,-0.03142 0,-0.0621 0.0053,-0.08829 0,0 -0.0053,-0.0053 -0.01198,-0.0053 h -0.02619 l -0.01645,0.006 -0.02394,0.0091 -0.0232,0.0098 -0.02769,0.01272 -0.02994,0.01422 -0.02994,0.01497 -0.03666,0.01796 -0.02918,0.01571 -0.0434,0.02245 -0.0247,0.01346 a 14.435544,14.435544 0 0 0 -0.646501,0.374133 21.157216,21.157216 0 0 0 -2.837425,2.428123 25.441037,25.441037 0 0 0 -2.7132112,3.260942 v 0.0045 -0.0045 A 24.46006,24.46006 0 0 0 3.8044485,25.743412 C 3.7909853,25.806195 2.7568774,30.30776 3.2679433,32.646839 5.1744613,43.89775 14.149909,52.888162 25.177851,55.554234 14.364661,52.750483 5.6151898,43.858091 3.7355465,32.763554 Z"
     id="path4951"
     style="fill:url(#s);stroke-width:0.748266" />
  <path
     d="m 58.899944,21.174414 a 17.782537,17.782537 0 0 0 -5.095688,-6.884045 l -0.05163,-0.03666 a 10.186142,10.186142 0 0 0 -0.172101,-0.118227 q -0.03217,-0.02245 -0.06509,-0.04265 -0.08231,-0.05237 -0.161626,-0.101011 l -0.06285,-0.03741 a 5.8836138,5.8836138 0 0 0 -0.2155,-0.118974 26.291814,26.291814 0 0 1 0.22897,0.460183 25.133499,25.133499 0 0 1 0.139176,0.286586 29.732342,29.732342 0 0 1 2.568797,8.054333 l 0.006,0.04864 c 1.029614,6.717182 -2.390709,13.224849 -7.737815,17.625401 l -0.01645,0.0374 c -6.646845,5.40622 -13.109617,5.995853 -17.443572,5.356834 4.318242,0.806631 11.129705,0.46617 18.145445,-5.23786 l 0.01571,-0.03742 c 5.347109,-4.40055 8.76818,-10.908217 7.738566,-17.625399 l -0.006,-0.04864 a 29.136721,29.136721 0 0 0 -2.116843,-7.067371 19.201996,19.201996 0 0 1 3.174891,4.524763 28.895031,28.895031 0 0 1 2.683282,14.217051 c -0.02245,0.370391 -0.04116,0.740034 -0.06959,1.107434 A 28.905508,28.905508 0 0 1 33.140149,60.823529 29.66799,29.66799 0 0 1 27.407684,60.59007 29.060398,29.060398 0 0 0 60.651637,36.864058 c 0.04864,-0.374132 0.08829,-0.744524 0.131694,-1.118658 A 29.780978,29.780978 0 0 0 58.899944,21.174414 Z m -2.874837,1.520477 v -0.02769 z"
     id="path4953"
     style="fill:url(#t);stroke-width:0.748266" />
</svg>
