<?xml version="1.0" encoding="UTF-8" standalone="no"?>
<svg
   xmlns:dc="http://purl.org/dc/elements/1.1/"
   xmlns:cc="http://creativecommons.org/ns#"
   xmlns:rdf="http://www.w3.org/1999/02/22-rdf-syntax-ns#"
   xmlns:svg="http://www.w3.org/2000/svg"
   xmlns="http://www.w3.org/2000/svg"
   xmlns:sodipodi="http://sodipodi.sourceforge.net/DTD/sodipodi-0.dtd"
   xmlns:inkscape="http://www.inkscape.org/namespaces/inkscape"
   inkscape:version="1.0 (4035a4fb49, 2020-05-01)"
   sodipodi:docname="firefox48.svg"
   viewBox="0 0 48 48"
   version="1.1"
   id="svg4959"
   width="48"
   height="48">
  <sodipodi:namedview
     inkscape:current-layer="svg4959"
     inkscape:window-maximized="1"
     inkscape:window-y="27"
     inkscape:window-x="0"
     inkscape:cy="25.315696"
     inkscape:cx="24.027413"
     inkscape:zoom="13.82504"
     showgrid="true"
     id="namedview233"
     inkscape:window-height="1022"
     inkscape:window-width="1920"
     inkscape:pageshadow="2"
     inkscape:pageopacity="0"
     guidetolerance="10"
     gridtolerance="10"
     objecttolerance="10"
     borderopacity="1"
     bordercolor="#666666"
     pagecolor="#ffffff">
    <inkscape:grid
       id="grid1058"
       type="xygrid" />
  </sodipodi:namedview>
  <metadata
     id="metadata4963">
    <rdf:RDF>
      <cc:Work
         rdf:about="">
        <dc:format>image/svg+xml</dc:format>
        <dc:type
           rdf:resource="http://purl.org/dc/dcmitype/StillImage" />
        <dc:title></dc:title>
      </cc:Work>
    </rdf:RDF>
  </metadata>
  <defs
     id="defs4647">
    <linearGradient
       x1="84.162506"
       y1="-3.6041653"
       x2="91.017914"
       y2="41.136391"
       id="f"
       gradientTransform="matrix(0.37306283,0,0,0.78699608,2.3210553,1.6977785)"
       gradientUnits="userSpaceOnUse">
      <stop
         stop-color="#AAF2FF"
         offset="0%"
         id="stop4518" />
      <stop
         stop-color="#0DF"
         offset="29%"
         id="stop4520" />
      <stop
         stop-color="#0090ED"
         offset="61%"
         id="stop4522" />
      <stop
         stop-color="#0250BB"
         offset="89%"
         id="stop4524" />
    </linearGradient>
    <linearGradient
       x1="59.666759"
       y1="0.0084456606"
       x2="65.72345"
       y2="30.049629"
       id="g"
       gradientTransform="matrix(0.41602383,0,0,0.70572634,2.3210553,1.6977785)"
       gradientUnits="userSpaceOnUse">
      <stop
         stop-color="#AAF2FF"
         offset="0%"
         id="stop4527" />
      <stop
         stop-color="#0DF"
         offset="29%"
         id="stop4529" />
      <stop
         stop-color="#0090ED"
         offset="74%"
         id="stop4531" />
      <stop
         stop-color="#0250BB"
         offset="100%"
         id="stop4533" />
    </linearGradient>
    <linearGradient
       x1="68.991951"
       y1="11.815484"
       x2="17.021517"
       y2="66.148209"
       id="k"
       gradientTransform="matrix(0.53337704,0,0,0.55045299,2.3210553,1.6977785)"
       gradientUnits="userSpaceOnUse">
      <stop
         stop-color="#80EBFF"
         stop-opacity=".5"
         offset="24%"
         id="stop4536" />
      <stop
         stop-color="#0DF"
         stop-opacity="0"
         offset="70%"
         id="stop4538" />
    </linearGradient>
    <linearGradient
       x1="32.206059"
       y1="33.089981"
       x2="25.120728"
       y2="60.567245"
       id="l"
       gradientTransform="matrix(0.55826817,0,0,0.52591027,2.3210553,1.6977785)"
       gradientUnits="userSpaceOnUse">
      <stop
         stop-color="#BFF3FF"
         stop-opacity=".9"
         offset="0%"
         id="stop4541" />
      <stop
         stop-color="#80EBFF"
         stop-opacity=".5"
         offset="100%"
         id="stop4543" />
    </linearGradient>
    <linearGradient
       x1="95.009483"
       y1="-0.82379484"
       x2="93.769226"
       y2="57.467999"
       id="m"
       gradientTransform="matrix(0.34825507,0,0,0.84305727,2.3210553,1.6977785)"
       gradientUnits="userSpaceOnUse">
      <stop
         stop-color="#BFF3FF"
         offset="0%"
         id="stop4546" />
      <stop
         stop-color="#0DF"
         stop-opacity="0"
         offset="100%"
         id="stop4548" />
    </linearGradient>
    <linearGradient
       x1="56.13681"
       y1="-0.63725394"
       x2="55.329029"
       y2="23.111471"
       id="n"
       gradientTransform="matrix(0.44184703,0,0,0.66448105,2.3210553,1.6977785)"
       gradientUnits="userSpaceOnUse">
      <stop
         stop-color="#BFF3FF"
         offset="0%"
         id="stop4551" />
      <stop
         stop-color="#AAF2FF"
         stop-opacity=".5"
         offset="100%"
         id="stop4553" />
    </linearGradient>
    <linearGradient
       x1="58.332546"
       y1="25.308983"
       x2="56.715939"
       y2="64.10762"
       id="o"
       gradientTransform="matrix(0.48297366,0,0,0.6078985,2.3210553,1.6977785)"
       gradientUnits="userSpaceOnUse">
      <stop
         stop-color="#BFF3FF"
         offset="0%"
         id="stop4556" />
      <stop
         stop-color="#0DF"
         stop-opacity="0"
         offset="100%"
         id="stop4558" />
    </linearGradient>
    <linearGradient
       x1="23.729013"
       y1="33.093102"
       x2="25.866491"
       y2="66.491219"
       id="p"
       gradientTransform="matrix(0.57572542,0,0,0.50996355,2.3210553,1.6977785)"
       gradientUnits="userSpaceOnUse">
      <stop
         stop-color="#BFF3FF"
         stop-opacity=".8"
         offset="0%"
         id="stop4561" />
      <stop
         stop-color="#80EBFF"
         stop-opacity=".2"
         offset="100%"
         id="stop4563" />
    </linearGradient>
    <linearGradient
       x1="29.194855"
       y1="12.974803"
       x2="20.563929"
       y2="26.988457"
       id="q"
       gradientTransform="matrix(0.5308967,0,0,0.55302471,2.3210553,1.6977785)"
       gradientUnits="userSpaceOnUse">
      <stop
         stop-color="#BFF3FF"
         stop-opacity=".8"
         offset="0%"
         id="stop4566" />
      <stop
         stop-color="#80EBFF"
         stop-opacity=".2"
         offset="100%"
         id="stop4568" />
    </linearGradient>
    <linearGradient
       x1="18.502363"
       y1="29.405516"
       x2="16.874853"
       y2="74.324791"
       id="r"
       gradientTransform="matrix(0.43347553,0,0,0.67731385,2.3210553,1.6977785)"
       gradientUnits="userSpaceOnUse">
      <stop
         stop-color="#0DF"
         stop-opacity=".4"
         offset="0%"
         id="stop4571" />
      <stop
         stop-color="#0DF"
         stop-opacity="0"
         offset="100%"
         id="stop4573" />
    </linearGradient>
    <linearGradient
       x1="25.577993"
       y1="4.5553231"
       x2="25.577993"
       y2="57.36784"
       id="s"
       gradientTransform="matrix(0.43065815,0,0,0.68174486,2.3210553,1.6977785)"
       gradientUnits="userSpaceOnUse">
      <stop
         stop-color="#BFF3FF"
         offset="0%"
         id="stop4576" />
      <stop
         stop-color="#0DF"
         stop-opacity="0"
         offset="100%"
         id="stop4578" />
    </linearGradient>
    <linearGradient
       x1="68.298668"
       y1="12.77847"
       x2="65.108376"
       y2="89.877266"
       id="t"
       gradientTransform="matrix(0.45749014,0,0,0.64176024,2.3210553,1.6977785)"
       gradientUnits="userSpaceOnUse">
      <stop
         stop-color="#BFF3FF"
         stop-opacity=".8"
         offset="0%"
         id="stop4581" />
      <stop
         stop-color="#0DF"
         stop-opacity="0"
         offset="100%"
         id="stop4583" />
    </linearGradient>
    <linearGradient
       x1="-0.1"
       y1="0.66000003"
       x2="1.1"
       y2="0.33000001"
       id="u">
      <stop
         offset="0"
         stop-color="#0250bb"
         id="stop4586" />
      <stop
         offset=".123"
         stop-color="#024eb6"
         id="stop4588" />
      <stop
         offset="1"
         stop-color="#054096"
         id="stop4590" />
    </linearGradient>
    <radialGradient
       cx="42.067257"
       cy="30.945194"
       r="22.6548"
       id="a"
       gradientTransform="matrix(0.54199128,0,0,0.54170426,2.3210553,1.6977785)"
       fx="42.067257"
       fy="30.945194"
       gradientUnits="userSpaceOnUse">
      <stop
         stop-color="#0DF"
         stop-opacity=".4"
         offset="10%"
         id="stop4593" />
      <stop
         stop-color="#7542E5"
         stop-opacity=".25"
         offset="90%"
         id="stop4595" />
    </radialGradient>
    <radialGradient
       cx="39.89164"
       cy="41.40416"
       fx="39.801777"
       fy="41.40416"
       r="19.256578"
       id="b"
       gradientTransform="matrix(0.54199128,0,0,0.54170426,2.3210553,1.6977785)"
       gradientUnits="userSpaceOnUse">
      <stop
         stop-color="#7542E5"
         stop-opacity="0"
         offset="91%"
         id="stop4598" />
      <stop
         stop-color="#0DF"
         stop-opacity=".4"
         offset="100%"
         id="stop4600" />
    </radialGradient>
    <radialGradient
       cx="61.200493"
       cy="9.810463"
       fx="61.200493"
       fy="9.810463"
       r="89.403168"
       gradientTransform="matrix(0.60129001,0,0,0.48828182,2.3210553,1.6977785)"
       id="c"
       gradientUnits="userSpaceOnUse">
      <stop
         stop-color="#80EBFF"
         offset="0%"
         id="stop4603" />
      <stop
         stop-color="#0DF"
         offset="26%"
         id="stop4605" />
      <stop
         stop-color="#0090ED"
         offset="53%"
         id="stop4607" />
      <stop
         stop-color="#0060DF"
         offset="86%"
         id="stop4609" />
    </radialGradient>
    <radialGradient
       cx="34.469643"
       cy="46.828964"
       fx="34.658924"
       fy="46.828964"
       r="89.403168"
       gradientTransform="matrix(0.60129001,0,0,0.48828182,2.3210553,1.6977785)"
       id="d"
       gradientUnits="userSpaceOnUse">
      <stop
         stop-color="#321C64"
         stop-opacity=".8"
         offset="30%"
         id="stop4612" />
      <stop
         stop-color="#212F83"
         stop-opacity=".5"
         offset="37%"
         id="stop4614" />
      <stop
         stop-color="#0A47AC"
         stop-opacity=".14"
         offset="48%"
         id="stop4616" />
      <stop
         stop-color="#0250BB"
         stop-opacity="0"
         offset="53%"
         id="stop4618" />
    </radialGradient>
    <radialGradient
       cx="61.191902"
       cy="-19.160242"
       r="139.74019"
       gradientTransform="matrix(0.59166907,0,0,0.49622161,2.3210553,1.6977785)"
       id="e"
       fx="61.191902"
       fy="-19.160242"
       gradientUnits="userSpaceOnUse">
      <stop
         stop-color="#80EBFF"
         offset="0%"
         id="stop4621" />
      <stop
         stop-color="#00B3F4"
         offset="47%"
         id="stop4623" />
      <stop
         stop-color="#0060DF"
         offset="84%"
         id="stop4625" />
      <stop
         stop-color="#592ACB"
         offset="100%"
         id="stop4627" />
    </radialGradient>
    <radialGradient
       cx="37.300232"
       cy="5.5633535"
       fx="37.300232"
       fy="5.5633535"
       r="28.381479"
       gradientTransform="matrix(0.54118949,0,0,0.5425068,2.3210553,1.6977785)"
       id="h"
       gradientUnits="userSpaceOnUse">
      <stop
         stop-color="#0DF"
         offset="0%"
         id="stop4630" />
      <stop
         stop-color="#0090ED"
         offset="82%"
         id="stop4632" />
    </radialGradient>
    <radialGradient
       cx="52.950813"
       cy="21.181152"
       fx="52.950813"
       fy="21.181152"
       r="85.359634"
       gradientTransform="matrix(0.57289361,0,0,0.51248431,2.3210553,1.6977785)"
       id="i"
       gradientUnits="userSpaceOnUse">
      <stop
         stop-color="#80EBFF"
         offset="29%"
         id="stop4635" />
      <stop
         stop-color="#00B3F4"
         offset="100%"
         id="stop4637" />
    </radialGradient>
    <radialGradient
       cx="36.138844"
       cy="15.884185"
       fx="36.138844"
       fy="15.884185"
       r="71.746956"
       gradientTransform="matrix(0.54727841,0,0,0.53647097,2.3210553,1.6977785)"
       id="j"
       gradientUnits="userSpaceOnUse">
      <stop
         stop-color="#AAF2FF"
         offset="18%"
         id="stop4640" />
      <stop
         stop-color="#0DF"
         offset="43%"
         id="stop4642" />
      <stop
         stop-color="#0060DF"
         offset="69%"
         id="stop4644" />
    </radialGradient>
  </defs>
  <path
     d="m 14.437313,26.963598 1.323193,3.668309 1.988039,2.682688 4.667476,0.890799 2.232955,0.189646 3.812441,-0.952568 1.642341,-1.574068 z"
     id="path4649"
     style="fill:#09204d;stroke-width:0.541847" />
  <path
     d="m 34.191458,21.552164 -0.467616,-1.550768 -1.336195,-2.521759 -1.528553,-1.611455 -1.622834,-1.159013 -1.408804,-0.552685 -1.690566,-0.60145 -2.783472,-0.177185 -1.755586,0.316439 -1.432104,0.440522 -2.541266,1.487372 -1.588156,1.772385 -1.464614,2.378711 -0.575984,2.024343 -0.107829,3.071736 0.549434,2.094241 1.211572,2.38413 0.853952,1.151426 1.18177,1.083696 1.475451,0.998084 1.819525,0.79164 3.044643,0.357078 1.590323,0.04444 2.352702,-0.662681 2.103455,-1.154678 1.352993,-1.154677 1.049559,-1.251669 1.48358,-2.904304 0.327275,-1.986955 z"
     id="path4651"
     style="fill:#09204d;stroke-width:0.541847" />
  <path
     d="m 23.404352,14.773649 -1.246792,1.236497 2.033554,0.824692 1.51284,-1.876419 z"
     id="path4653"
     style="fill:#0e56d7;stroke-width:0.541847" />
  <path
     d="M 24.191114,16.834838 28.128181,16.71509 25.703954,14.958419 Z"
     id="path4655"
     style="fill:#1053d1;stroke-width:0.541847" />
  <path
     d="m 27.835582,14.945414 -2.131628,0.01301 2.424227,1.756671 2.241624,-0.146299 z"
     id="path4657"
     style="fill:#0b4fbf;stroke-width:0.541847" />
  <path
     d="m 30.369805,16.56879 -1.274425,-1.757212 1.763714,1.056604 z"
     id="path4659"
     style="fill:#0b48b0;stroke-width:0.541847" />
  <path
     d="m 32.057119,17.6449 -1.687314,-1.07611 0.489289,-0.700608 z"
     id="path4661"
     style="fill:#0c45a7;stroke-width:0.541847" />
  <path
     d="m 30.369805,16.56879 -0.282302,1.203986 1.543181,0.617165 z"
     id="path4663"
     style="fill:#0f46af;stroke-width:0.541847" />
  <path
     d="m 30.369805,16.56879 1.687314,1.07611 -0.426435,0.745041 z"
     id="path4665"
     style="fill:#0c47ad;stroke-width:0.541847" />
  <path
     d="m 28.128181,16.71509 2.241624,-0.1463 -0.282302,1.203986 z"
     id="path4667"
     style="fill:#0e4fc3;stroke-width:0.541847" />
  <path
     d="m 28.128181,16.71509 -1.771301,1.603868 2.279553,1.116207 z"
     id="path4669"
     style="fill:#174dca;stroke-width:0.541847" />
  <path
     d="M 24.191114,16.834838 28.128181,16.71509 26.35688,18.318958 Z"
     id="path4671"
     style="fill:#1650d4;stroke-width:0.541847" />
  <path
     d="m 30.087503,17.772776 1.071774,2.079612 0.471407,-1.462447 z"
     id="path4673"
     style="fill:#1246b2;stroke-width:0.541847" />
  <path
     d="m 31.159277,19.852388 0.471407,-1.462447 1.123251,2.67131 z"
     id="path4675"
     style="fill:#133ea1;stroke-width:0.541847" />
  <path
     d="m 31.630684,18.389941 1.711699,1.253836 -0.588448,1.417474 z"
     id="path4677"
     style="fill:#103d98;stroke-width:0.541847" />
  <path
     d="m 32.057119,17.6449 0.330528,-0.165263 0.954736,2.16414 z"
     id="path4679"
     style="fill:#0b3785;stroke-width:0.541847" />
  <path
     d="m 33.342383,19.643777 0.381459,0.357619 -1.336195,-2.521759 z"
     id="path4681"
     style="fill:#0b3685;stroke-width:0.541847" />
  <path
     d="M 33.342383,19.643777 32.057119,17.6449 31.630684,18.389941 Z m -2.483289,-3.775595 1.198025,1.776718 0.330528,-0.162554 z"
     id="path4683"
     style="fill:#0c3b91;stroke-width:0.541847" />
  <path
     d="m 34.105303,22.763735 -0.381461,-2.762339 0.467616,1.550768 -0.09211,1.211571 z"
     id="path4685"
     style="fill:#0b3279;stroke-width:0.541847" />
  <path
     d="m 33.342383,19.643777 0.76292,3.119958 -0.381461,-2.762339 z"
     id="path4687"
     style="fill:#0f388d;stroke-width:0.541847" />
  <path
     d="m 32.753935,21.061251 1.351368,1.702484 -0.76292,-3.119958 z"
     id="path4689"
     style="fill:#0d3481;stroke-width:0.541847" />
  <path
     d="m 34.099344,22.763735 0.09211,-1.211571 0.09266,3.106956 -0.17881,-1.895385 z"
     id="path4691"
     style="fill:#0b2e71;stroke-width:0.541847" />
  <path
     d="m 33.878811,25.21939 0.405302,-0.56027 -0.17881,-1.895385 z"
     id="path4693"
     style="fill:#0e2f77;stroke-width:0.541847" />
  <path
     d="m 33.956838,26.646075 -0.324025,0.156053 0.6513,-2.143008 z"
     id="path4695"
     style="fill:#0e2969;stroke-width:0.541847" />
  <path
     d="m 33.632813,26.802128 0.6513,-2.143008 -0.405302,0.56027 z"
     id="path4697"
     style="fill:#0c2a69;stroke-width:0.541847" />
  <path
     d="m 33.878811,25.21939 0.226492,-2.455655 -0.694107,0.818733 z"
     id="path4699"
     style="fill:#123180;stroke-width:0.541847" />
  <path
     d="m 33.632813,26.802128 0.245998,-1.582738 -1.338906,2.250294 z"
     id="path4701"
     style="fill:#112b70;stroke-width:0.541847" />
  <path
     d="m 32.753935,21.061251 1.351368,1.702484 -0.694107,0.818733 z"
     id="path4703"
     style="fill:#12378c;stroke-width:0.541847" />
  <path
     d="m 33.878811,25.21939 -0.467615,-1.636922 -0.706027,2.015674 z"
     id="path4705"
     style="fill:#122e7b;stroke-width:0.541847" />
  <path
     d="m 32.473258,29.550379 1.159555,-2.748251 -1.08478,2.00321 z"
     id="path4707"
     style="fill:#11296c;stroke-width:0.541847" />
  <path
     d="m 32.548033,28.805338 1.08478,-2.00321 -1.092908,0.667556 z"
     id="path4709"
     style="fill:#142a72;stroke-width:0.541847" />
  <path
     d="m 33.632813,26.802128 -1.159555,2.746627 1.48358,-2.904306 z m -2.208572,3.99992 1.049017,-1.251669 0.07477,-0.745041 z m -1.35462,1.154677 1.35462,-1.154677 -1.430478,0.657803 z"
     id="path4711"
     style="fill:#112768;stroke-width:0.541847" />
  <path
     d="m 22.172732,32.760827 -1.367082,0.334862 0.04172,-0.954735 z"
     id="path4713"
     style="fill:#1c226a;stroke-width:0.541847" />
  <path
     d="m 14.571692,19.773278 0.377126,-0.139796 -0.95311,2.164139 z"
     id="path4715"
     style="fill:#182b7a;stroke-width:0.541847" />
  <path
     d="m 13.995708,21.797621 0.72174,-0.134378 0.23137,-2.029761 z"
     id="path4717"
     style="fill:#1f308d;stroke-width:0.541847" />
  <path
     d="m 14.039056,24.396865 -0.04334,-2.599244 0.72174,-0.134378 z"
     id="path4719"
     style="fill:#1e2b7f;stroke-width:0.541847" />
  <path
     d="m 30.087503,17.772776 -1.45107,1.662389 2.522844,0.417223 z m -12.661899,-1.704653 1.852035,-1.267382 -1.653177,0.822525 z"
     id="path4721"
     style="fill:#1346b5;stroke-width:0.541847" />
  <path
     d="m 17.624462,15.622182 2.541266,-1.487372 -0.888089,0.665931 -1.653177,0.821441"
     id="path4723"
     style="fill:#1244ac;stroke-width:0.541847" />
  <path
     d="m 19.277639,14.800741 2.320193,-1.106453 -1.432104,0.440522 z"
     id="path4725"
     style="fill:#0e4ab6;stroke-width:0.541847" />
  <path
     d="m 28.128181,16.71509 0.508252,2.720075 1.45107,-1.662389 z m -7.438486,-2.043309 2.161973,-0.866956 -1.25492,-0.112704 z"
     id="path4727"
     style="fill:#0e4bba;stroke-width:0.541847" />
  <path
     d="m 23.353418,13.377849 -1.755586,0.316439 1.254919,0.112705 z"
     id="path4729"
     style="fill:#0a4ebc;stroke-width:0.541847" />
  <path
     d="m 25.01364,13.78586 -2.160889,0.02113 0.500667,-0.429144"
     id="path4731"
     style="fill:#0c54cc;stroke-width:0.541847" />
  <path
     d="m 29.09538,14.810495 -1.259798,0.133836 2.534223,1.625543 z m -4.08174,-1.024635 2.813816,0.370624 -1.690566,-0.60145 z"
     id="path4733"
     style="fill:#0b4bb4;stroke-width:0.541847" />
  <path
     d="m 29.09538,14.811578 -1.267924,-0.655094 1.408804,0.552685 z"
     id="path4735"
     style="fill:#0c3889;stroke-width:0.541847" />
  <path
     d="m 14.437313,26.963598 0.833904,0.684353 -1.229995,-3.251086 z m 11.481213,6.465869 0.731494,-1.721992 -2.665349,0.715781 z m 0.731494,-1.721992 2.228078,0.618248 0.134921,-1.723075 z"
     id="path4737"
     style="fill:#202575;stroke-width:0.541847" />
  <path
     d="m 29.993763,31.459851 -0.980744,-0.857203 2.369499,-1.574609 z"
     id="path4739"
     style="fill:#1b2773;stroke-width:0.541847" />
  <path
     d="m 31.382518,29.028039 -1.388755,2.431812 1.430478,-0.657803 1.123792,-1.99671 z"
     id="path4741"
     style="fill:#15276d;stroke-width:0.541847" />
  <path
     d="m 29.23626,14.709169 -0.14088,0.102408 1.763714,1.056604 z m -1.400678,0.236245 1.259798,-0.133836 -1.267924,-0.655094 z"
     id="path4743"
     style="fill:#0c409d;stroke-width:0.541847" />
  <path
     d="m 23.353418,13.377849 1.660222,0.408011 1.12325,-0.230826 z m 4.474038,0.778635 -2.813816,-0.370624 2.821942,1.159554 z"
     id="path4745"
     style="fill:#0b4cb7;stroke-width:0.541847" />
  <path
     d="m 25.01364,13.78586 0.690314,1.172559 2.131628,-0.01301 z"
     id="path4747"
     style="fill:#0b55ce;stroke-width:0.541847" />
  <path
     d="m 25.01364,13.78586 0.690314,1.172559 -2.299602,-0.18477 z"
     id="path4749"
     style="fill:#0a52c5;stroke-width:0.541847" />
  <path
     d="m 22.852751,13.806993 0.551601,0.966656 1.609288,-0.987789 z"
     id="path4751"
     style="fill:#0951c4;stroke-width:0.541847" />
  <path
     d="m 20.690778,14.671781 2.161973,-0.864788 0.551601,0.966656 z"
     id="path4753"
     style="fill:#0b50c4;stroke-width:0.541847" />
  <path
     d="m 19.277639,14.800741 1.413139,-0.12896 0.907054,-0.975325 z m 1.413139,-0.12896 1.466782,1.338365 1.24625,-1.236497 z"
     id="path4755"
     style="fill:#0f4dbf;stroke-width:0.541847" />
  <path
     d="m 20.690778,14.671781 -2.387922,2.239457 0.974783,-2.110497 z"
     id="path4757"
     style="fill:#1546b6;stroke-width:0.541847" />
  <path
     d="m 18.302856,16.911238 1.523675,0.253043 0.864247,-2.4925 z"
     id="path4759"
     style="fill:#1549bd;stroke-width:0.541847" />
  <path
     d="m 19.826531,17.164281 0.864247,-2.4925 1.466782,1.338365 z"
     id="path4761"
     style="fill:#144bc3;stroke-width:0.541847" />
  <path
     d="m 16.036306,17.394567 0.09266,0.900551 1.296642,-2.226995 z"
     id="path4763"
     style="fill:#173794;stroke-width:0.541847" />
  <path
     d="m 14.948818,19.633482 1.087488,-2.238915 0.09266,0.900551 z"
     id="path4765"
     style="fill:#192f84;stroke-width:0.541847" />
  <path
     d="m 16.128962,18.295118 1.296642,-2.226995 0.877252,0.843115 z"
     id="path4767"
     style="fill:#1a389b;stroke-width:0.541847" />
  <path
     d="m 16.050394,20.226263 0.07857,-1.931145 -1.180144,1.338364 z"
     id="path4769"
     style="fill:#1d3089;stroke-width:0.541847" />
  <path
     d="m 16.050394,20.226263 0.07857,-1.931145 1.531804,1.24354 z"
     id="path4771"
     style="fill:#1e389f;stroke-width:0.541847" />
  <path
     d="m 17.660766,19.538658 0.64209,-2.62742 -2.173894,1.38388 z"
     id="path4773"
     style="fill:#1c40af;stroke-width:0.541847" />
  <path
     d="m 17.660766,19.538658 0.64209,-2.62742 1.523675,0.253043 z"
     id="path4775"
     style="fill:#1e41b7;stroke-width:0.541847" />
  <path
     d="m 14.717448,21.663243 0.23137,-2.029761 1.101576,0.592781 z"
     id="path4777"
     style="fill:#192c7d;stroke-width:0.541847" />
  <path
     d="m 25.918526,33.429467 2.048725,-0.318065 0.910847,-0.785679 z m -12.029021,-8.561194 0.151176,-0.472491 -0.04334,-2.60087 z m 0.82957,-3.206114 -0.678394,2.733623 1.229994,3.251085 -0.601993,-3.76584 z"
     id="path4779"
     style="fill:#162467;stroke-width:0.541847" />
  <path
     d="m 15.26905,27.647951 1.014881,0.142506 -0.710905,-1.659137 z"
     id="path4781"
     style="fill:#1a236a;stroke-width:0.541847" />
  <path
     d="m 29.993763,31.459851 -1.115665,0.866956 -0.910847,0.785679 2.103455,-1.154677 z m -5.969537,2.269801 1.590323,0.04444 2.352702,-0.662681 -2.048725,0.318065 z m -7.808027,-4.194987 1.066357,0.20482 -0.998625,-1.950653 z"
     id="path4783"
     style="fill:#132668;stroke-width:0.541847" />
  <path
     d="m 20.847373,32.140954 -1.805979,-1.390382 -0.750459,0.722283 2.514715,1.622834 z m -6.41006,-5.177356 1.211572,2.38413 -0.379293,-1.699777 z m -0.549434,-2.094241 0.549434,2.094241 -0.398257,-2.566733 z m 10.096792,7.553899 -3.137298,-0.282302 1.325359,0.619873 -1.367082,0.334862 -1.645592,-0.512587 1.819525,0.791638 3.044643,0.357078 1.896467,-0.300183 z m -7.70074,-4.632799 -1.012714,-0.142506 0.94715,1.886714 z m -1.615249,-3.90943 0.602535,3.766924 0.303976,-1.517173 z m 2.613874,5.858458 -1.066357,-0.20482 -0.565688,-0.186937 0.853952,1.151426 1.181769,1.083696 1.473826,1.000252 -0.866956,-1.108079 z"
     id="path4785"
     style="fill:#1b2268;stroke-width:0.541847" />
  <path
     d="m 14.717448,21.663243 1.432104,2.215616 -0.09916,-3.652596 z"
     id="path4787"
     style="fill:#212a81;stroke-width:0.541847" />
  <path
     d="m 14.668682,23.881027 0.904344,2.250293 0.576526,-2.252461 z"
     id="path4789"
     style="fill:#21267a;stroke-width:0.541847" />
  <path
     d="m 15.573026,26.13132 0.576526,-2.252461 0.715781,1.77997 z"
     id="path4791"
     style="fill:#262781;stroke-width:0.541847" />
  <path
     d="m 16.283931,27.790457 2.746084,1.701945 -2.164682,-3.833573 z"
     id="path4793"
     style="fill:#272379;stroke-width:0.541847" />
  <path
     d="m 15.650511,29.347728 0.567314,0.186937 -0.946608,-1.886714 z m 6.065444,0.97912 -0.866957,1.814106 3.137299,0.282302 z m -5.432024,-2.536391 0.998625,1.950653 1.008379,1.733913 0.750459,-0.722284 -0.01138,-1.25817 z"
     id="path4795"
     style="fill:#1e226d;stroke-width:0.541847" />
  <path
     d="m 29.013019,30.602648 -0.134921,1.723075 1.115665,-0.866955 z m -4.801313,-0.247625 -0.228119,2.068233 2.666433,-0.715781 -0.09483,-2.325068 z"
     id="path4797"
     style="fill:#222475;stroke-width:0.541847" />
  <path
     d="m 14.668682,23.881027 h 1.48087 l -1.432104,-2.215616 z m 11.886515,5.50138 0.09483,2.325068 2.362999,-1.104827 z"
     id="path4799"
     style="fill:#23277d;stroke-width:0.541847" />
  <path
     d="m 26.555197,29.382407 1.520966,-1.377378 0.936856,2.597619 z"
     id="path4801"
     style="fill:#1e2776;stroke-width:0.541847" />
  <path
     d="m 29.013019,30.602648 1.1498,-3.482456 -2.086656,0.884837 z"
     id="path4803"
     style="fill:#222b86;stroke-width:0.541847" />
  <path
     d="m 31.382518,29.028039 -2.369499,1.574609 1.1498,-3.482456 z"
     id="path4805"
     style="fill:#192974;stroke-width:0.541847" />
  <path
     d="m 32.539905,27.469684 -2.377086,-0.349492 1.219699,1.907847 1.165515,-0.222701 z"
     id="path4807"
     style="fill:#172a75;stroke-width:0.541847" />
  <path
     d="m 32.705169,25.598142 -2.54235,1.52205 2.377086,0.349492 1.338906,-2.250836 z"
     id="path4809"
     style="fill:#172d7d;stroke-width:0.541847" />
  <path
     d="m 14.948818,19.63294 1.087488,-2.238916 -1.46299,2.378712 z m 16.808117,2.771551 0.948234,3.193109 0.704402,-2.015674 z"
     id="path4811"
     style="fill:#18338a;stroke-width:0.541847" />
  <path
     d="m 33.411196,23.582468 -0.657261,-2.521217 -0.997,1.343782 z"
     id="path4813"
     style="fill:#153791;stroke-width:0.541847" />
  <path
     d="m 30.162819,27.120192 2.54235,-1.52205 -2.463781,-1.0967 z"
     id="path4815"
     style="fill:#1b318b;stroke-width:0.541847" />
  <path
     d="m 30.162819,27.120192 -2.303937,-2.327778 0.217281,3.212615 z"
     id="path4817"
     style="fill:#242d8d;stroke-width:0.541847" />
  <path
     d="m 26.555197,29.382407 -1.769133,-1.566483 3.290099,0.189105 z"
     id="path4819"
     style="fill:#2a2b8f;stroke-width:0.541847" />
  <path
     d="m 16.283931,27.790457 0.581402,-2.131628 -1.292307,0.472491 z m 8.502133,0.02438 -0.574358,2.540182 2.342407,-0.972616 z"
     id="path4821"
     style="fill:#27267f;stroke-width:0.541847" />
  <path
     d="m 21.124256,28.335557 -1.702484,-0.865873 -0.391757,2.022718 2.684314,0.834446 2.498461,0.02817 z"
     id="path4823"
     style="fill:#2d2381;stroke-width:0.541847" />
  <path
     d="m 24.21279,30.355023 0.573274,-2.539099 -3.661808,0.519633 z"
     id="path4825"
     style="fill:#2f2485;stroke-width:0.541847" />
  <path
     d="m 16.149552,23.878859 0.734204,-2.345117 -0.833362,-1.307479 z"
     id="path4827"
     style="fill:#233196;stroke-width:0.541847" />
  <path
     d="m 17.660766,19.538658 3.223994,-0.939565 -1.703028,3.479205 z"
     id="path4829"
     style="fill:#293cb7;stroke-width:0.541847" />
  <path
     d="m 30.162819,27.120192 -2.303937,-2.327778 2.382506,-0.290972 z"
     id="path4831"
     style="fill:#25339c;stroke-width:0.541847" />
  <path
     d="m 32.705169,25.598142 -0.948234,-3.193109 -1.515547,2.096409 z"
     id="path4833"
     style="fill:#19348f;stroke-width:0.541847" />
  <path
     d="m 28.076163,28.005029 -2.635005,-2.547768 2.417724,-0.664847 z"
     id="path4835"
     style="fill:#2a309a;stroke-width:0.541847" />
  <path
     d="m 24.786064,27.815924 3.290099,0.189105 -2.635005,-2.547768 z"
     id="path4837"
     style="fill:#302b96;stroke-width:0.541847" />
  <path
     d="m 24.786064,27.815924 -1.801644,-1.467323 2.456738,-0.89134 z"
     id="path4839"
     style="fill:#3630a7;stroke-width:0.541847" />
  <path
     d="m 17.425604,16.068123 0.198858,-0.445941 -1.588156,1.772385 z m 13.733673,3.784265 0.596033,2.552645 0.996999,-1.343782 z"
     id="path4841"
     style="fill:#173da2;stroke-width:0.541847" />
  <path
     d="m 17.660766,19.538658 1.520966,2.53964 -2.297976,-0.544556 z"
     id="path4843"
     style="fill:#2a36a8;stroke-width:0.541847" />
  <path
     d="m 16.883756,21.533742 2.297976,0.544556 -1.554019,2.447527 z"
     id="path4845"
     style="fill:#312e9f;stroke-width:0.541847" />
  <path
     d="m 20.88476,18.599093 1.2728,-2.588947 -2.331029,1.154135 z"
     id="path4847"
     style="fill:#184dcd;stroke-width:0.541847" />
  <path
     d="m 16.149552,23.878859 1.478161,0.646966 -0.76238,1.133004 z"
     id="path4849"
     style="fill:#272986;stroke-width:0.541847" />
  <path
     d="m 17.627713,24.525825 -0.76238,1.133004 2.164682,3.833573 0.391757,-2.022718 z"
     id="path4851"
     style="fill:#2c2584;stroke-width:0.541847" />
  <path
     d="m 19.421772,27.469684 0.239496,-3.561565 -2.033555,0.617706 z"
     id="path4853"
     style="fill:#32268b;stroke-width:0.541847" />
  <path
     d="M 19.421772,27.469684 22.98442,26.348601 19.661268,23.908119 Z"
     id="path4855"
     style="fill:#372999;stroke-width:0.541847" />
  <path
     d="m 22.98442,26.348601 -0.347324,-2.75367 -2.975828,0.313188 z"
     id="path4857"
     style="fill:#392da5;stroke-width:0.541847" />
  <path
     d="m 22.637096,23.594931 2.513089,-0.939565 0.290973,2.801895 z"
     id="path4859"
     style="fill:#3338bc;stroke-width:0.541847" />
  <path
     d="M 21.124256,28.335557 24.786064,27.815924 22.98442,26.348601 Z"
     id="path4861"
     style="fill:#362896;stroke-width:0.541847" />
  <path
     d="M 21.124256,28.335557 19.421772,27.469684 22.98442,26.348601 Z"
     id="path4863"
     style="fill:#35268f;stroke-width:0.541847" />
  <path
     d="m 20.88476,18.599093 2.182021,0.230828 -0.909221,-2.819775 z"
     id="path4865"
     style="fill:#2648d3;stroke-width:0.541847" />
  <path
     d="m 24.191114,16.834838 -2.033554,-0.824692 0.909221,2.819775 z"
     id="path4867"
     style="fill:#1057dc;stroke-width:0.541847" />
  <path
     d="m 24.191114,16.834838 2.165766,1.48412 -3.290099,0.510963 z"
     id="path4869"
     style="fill:#1653da;stroke-width:0.541847" />
  <path
     d="m 23.066781,18.829921 3.227245,1.711697 -1.143841,2.113748 z"
     id="path4871"
     style="fill:#2b46d5;stroke-width:0.541847" />
  <path
     d="m 26.294026,20.541618 0.06286,-2.22266 -3.290099,0.510963 z"
     id="path4873"
     style="fill:#244ad7;stroke-width:0.541847" />
  <path
     d="m 26.294026,20.541618 0.06286,-2.22266 2.279553,1.116207 z"
     id="path4875"
     style="fill:#2547cf;stroke-width:0.541847" />
  <path
     d="m 23.066781,18.829921 2.083404,3.825445 -3.653679,-1.830361 z"
     id="path4877"
     style="fill:#333cc5;stroke-width:0.541847" />
  <path
     d="m 22.637096,23.594931 2.513089,-0.939565 -3.653679,-1.830361 z"
     id="path4879"
     style="fill:#3833b6;stroke-width:0.541847" />
  <path
     d="m 25.150185,22.655366 3.222369,-0.588988 -2.078528,-1.52476 z"
     id="path4881"
     style="fill:#2a41c6;stroke-width:0.541847" />
  <path
     d="m 28.636433,19.435165 -0.263879,2.631213 -2.078528,-1.52476 z"
     id="path4883"
     style="fill:#2045c1;stroke-width:0.541847" />
  <path
     d="m 28.636433,19.435165 1.520968,2.066066 -1.784847,0.565147 z"
     id="path4885"
     style="fill:#1b43b7;stroke-width:0.541847" />
  <path
     d="m 31.159277,19.852388 -2.522844,-0.417223 1.520968,2.066066 z"
     id="path4887"
     style="fill:#1742af;stroke-width:0.541847" />
  <path
     d="m 18.305564,16.911238 0.975326,-2.113206 -1.852035,1.267382 z m 12.856423,2.94115 -1.001877,1.648843 1.599535,0.903802 z"
     id="path4889"
     style="fill:#1740a9;stroke-width:0.541847" />
  <path
     d="m 30.241388,24.501442 1.515547,-2.096409 -1.599534,-0.903802 z"
     id="path4891"
     style="fill:#1b3ca4;stroke-width:0.541847" />
  <path
     d="m 30.241388,24.501442 -0.08399,-3.000211 -1.784848,0.565147 z"
     id="path4893"
     style="fill:#1f3dad;stroke-width:0.541847" />
  <path
     d="m 17.660766,19.538658 3.223994,-0.939565 -1.058229,-1.434812 z m 7.489419,3.116708 2.709239,2.137048 0.513671,-2.726036 z"
     id="path4895"
     style="fill:#2543c3;stroke-width:0.541847" />
  <path
     d="m 25.441158,25.457261 2.417724,-0.664847 -2.708697,-2.137048 z"
     id="path4897"
     style="fill:#2e37b2;stroke-width:0.541847" />
  <path
     d="m 20.88476,18.599093 0.611746,2.225912 1.570275,-1.995084 z"
     id="path4899"
     style="fill:#2d40c7;stroke-width:0.541847" />
  <path
     d="m 20.88476,18.599093 -1.703028,3.479205 2.314774,-1.253293 z"
     id="path4901"
     style="fill:#3537b8;stroke-width:0.541847" />
  <path
     d="m 21.496506,20.825005 -1.835238,3.083114 2.975828,-0.313188 z"
     id="path4903"
     style="fill:#3931b0;stroke-width:0.541847" />
  <path
     d="m 22.637096,23.594931 0.347324,2.75367 2.456738,-0.89134 z m -2.976912,0.313188 1.835238,-3.083114 -2.314773,1.253293 z"
     id="path4905"
     style="fill:#3735b8;stroke-width:0.541847" />
  <path
     d="m 17.627713,24.525825 1.554019,-2.447527 0.479536,1.829821 z"
     id="path4907"
     style="fill:#342892;stroke-width:0.541847" />
  <path
     d="m 19.160058,32.583102 1.645592,0.514755 -2.514715,-1.622834 z m -0.118664,-1.830363 1.805979,1.390382 0.866956,-1.814107 -2.684314,-0.834445 z m 4.943277,1.672685 0.228119,-2.068234 -2.498461,-0.02817 z m 2.665349,-0.717949 -0.731494,1.721992 2.959572,-1.103744 z"
     id="path4909"
     style="fill:#232372;stroke-width:0.541847" />
  <path
     d="m 16.149552,23.878859 0.734204,-2.345117 0.743957,2.992083 z"
     id="path4911"
     style="fill:#2a2f96;stroke-width:0.541847" />
  <path
     d="m 16.883756,21.533742 0.77701,-1.995084 -1.60983,0.690314 z m 11.487173,0.532636 -0.513672,2.726036 2.384131,-0.290972 z"
     id="path4913"
     style="fill:#2636a5;stroke-width:0.541847" />
  <path
     d="m 34.33017,24.661828 v -0.0043 l -0.09428,-3.106955 v -0.01084 l -0.46707,-1.550256 v -0.0033 l -1.336197,-2.52176 -1.539931,-1.62771 h -0.0033 l -1.622293,-1.157929 h -0.0066 l -1.408804,-0.552684 h -0.0097 l -1.690533,-0.60143 h -0.01138 l -2.783444,-0.177179 h -0.01191 l -1.755587,0.316981 h -0.0066 l -1.430979,0.43998 h -0.0092 l -2.541267,1.478161 -1.587614,1.771299 -1.462988,2.378171 v 0.0059 l -0.576473,2.024405 v 0.0076 l -0.108369,3.071736 v 0.01463 l 0.548892,2.092615 v 0.0071 l 1.21103,2.38413 v 0.0038 l 0.837696,1.180144 v 0.0028 l 1.181229,1.083696 h 0.0033 l 1.475452,0.998083 h 0.0033 l 1.819524,0.791098 h 0.01138 l 3.044642,0.357077 h 0.0043 l 1.589781,0.04444 h 0.01247 l 2.352703,-0.663223 h 0.0081 l 2.102369,-1.154134 0.0038,-0.0028 h 0.0028 l 1.354621,-1.154136 1.049016,-1.25221 0.0038,-0.0054 1.483579,-2.904303 v -0.01138 l 0.325109,-1.985871 v -0.0048 z m -16.616846,6.884719 -0.306143,-0.280678 0.688147,0.539139 z m 4.465911,1.166598 -1.075569,-0.502834 2.546685,0.229201 z m 0.391755,-9.157227 -2.823027,0.296932 1.740957,-2.925978 z m -0.985079,-2.635006 3.449403,1.727952 -2.372752,0.88538 z m 1.011087,2.724411 0.32836,2.600869 -3.142716,-2.306646 z m 0.287181,2.68648 -3.413641,1.073942 0.229201,-3.413641 z m -0.189647,-2.643132 2.644758,1.756128 -2.31694,0.840947 z m 0.04227,-0.08236 2.373293,-0.887548 0.274717,2.646385 z m 3.646094,-3.056564 2.199359,-1.03818 -0.248166,2.470284 z m 1.875876,1.490623 -3.023511,0.552685 1.073942,-1.984788 z m -3.109664,0.518549 -1.966907,-3.616834 3.051144,1.617958 z m -0.10837,-0.01029 -3.472161,-1.739331 1.492249,-1.896468 z m -5.361583,1.241914 -0.442689,-1.689481 2.136505,-1.156303 z m -0.292598,3.531765 -1.688398,-2.769385 1.912722,-0.581403 z m 3.445609,-0.877252 -1.716573,1.833612 -1.571359,-0.798683 z m 2.541809,-0.914097 -0.612289,2.20532 -1.687856,-1.371959 z m -0.165806,-2.772094 2.552103,2.012964 -2.27576,0.626919 z m 0.05093,-0.07694 3.056564,-0.558102 -0.487663,2.585156 z m 3.167101,-0.680019 0.244914,-2.44319 1.412056,1.91814 z m 1.687855,-0.438895 0.07803,2.797559 -1.742583,-2.2698 z m -3.770719,-1.095075 0.05851,-2.076361 2.130004,1.043057 z m -0.09211,0 -3.039767,-1.612538 3.098828,-0.481162 z m -4.733583,0.258462 -0.569482,-2.07311 2.032471,0.216739 z m -0.07424,0.07749 -2.157097,1.165514 1.586531,-3.240791 z m -1.837406,3.07336 -1.872085,0.568941 1.43102,-2.254629 z m -0.338654,3.426104 -2.338616,-1.655887 0.697358,-1.035472 z m 0.188561,0.235161 1.57136,0.798684 -1.93223,1.067441 z m 3.53339,-1.127043 1.687315,1.374126 -3.428814,0.487663 z m 2.476245,-0.866957 2.4925,2.407973 -3.109665,-0.178269 z m 0.0661,-0.06393 2.285515,-0.628543 0.205359,3.037598 z m 2.867458,-3.305271 1.757213,2.289306 -2.239999,0.270924 z m 1.807063,-0.596033 1.483037,0.840405 -1.408804,1.944693 z m 0.01571,-0.09646 0.921141,-1.512298 0.546183,2.342951 z m -0.06773,-0.0661 -1.413139,-1.919224 2.344576,0.387421 z m -3.71545,-3.111289 1.659679,-1.502544 0.476286,2.549394 z m -3.28468,0.462737 1.053351,-1.868833 2.028678,1.390383 z m -2.198819,-0.20807 1.192065,-2.427477 0.852869,2.644217 z m -1.777261,3.42177 -1.446733,-2.415558 3.066317,-0.894048 z m -1.531262,2.429103 -0.700067,-2.8149 2.161973,0.512047 z m -0.771049,1.149801 -0.641547,-1.593032 1.324816,0.579777 z m 2.495209,1.928978 -0.36087,1.871001 -2.004838,-3.545852 z m 1.725786,0.913014 0.548891,1.854202 -2.499002,-0.777009 z m 3.63038,-0.532636 -0.544558,2.410138 -2.930854,-1.917057 z m 3.236998,0.173933 -1.408804,1.27605 -1.63909,-1.451067 z m -0.05093,-3.132422 2.167391,2.192316 -1.965282,0.833362 z m 0.04444,-0.08562 2.236205,-0.270924 -0.07587,2.456738 z m 3.782097,-2.318566 0.892965,3.007797 -2.321275,-1.032762 z m -0.506627,-2.54235 1.457028,1.104827 -0.910845,1.227827 z m -2.507672,-0.561896 1.354619,-1.549143 0.998626,1.937648 z m -0.06123,-0.0699 -0.473032,-2.532054 1.823859,0.984536 z m -2.31098,-1.072858 -2.020008,-1.38388 3.67156,-0.11162 z m -3.274387,0.455152 -0.846907,-2.625794 1.893759,0.767799 z m -2.202069,-0.204819 -0.980203,-1.329693 2.160348,-1.07015 z m -0.06772,0.06286 -3.004004,0.875626 2.017841,-2.212365 z m -1.722535,3.434773 -2.140298,-0.507169 0.723909,-1.857996 z m -1.525843,2.438314 -1.354619,-0.593323 0.673517,-2.14951 z m -0.755336,1.185021 -1.165514,0.426435 0.519632,-2.031929 z m 2.09641,3.72683 -2.564024,-1.589239 0.541848,-1.990749 z m 2.611164,0.953652 -2.425853,0.384712 -0.01029,-1.142216 z m -0.308853,-1.869917 2.852286,1.86504 -2.30773,-0.02601 z m 3.610331,-0.541847 1.655345,1.46624 -2.192316,0.910304 z m 3.244585,0.185311 0.875083,2.425311 -2.295266,-1.137881 z m 0.07803,-0.05418 1.950651,-0.827944 -1.07611,3.259215 z m 2.151134,-3.459156 2.320734,1.032761 -2.394424,1.433729 z m 1.553478,-2.051436 1.517174,1.079903 -0.650218,1.849326 z m -0.0168,-0.125168 0.911931,-1.228909 0.600909,2.306104 z m -0.609037,-2.559688 0.419392,-1.313981 1.008378,2.399302 z m -0.0634,-0.102408 -0.967741,-1.872625 1.389298,0.555394 z m -2.859333,-2.980184 2.020551,-0.132211 -0.254669,1.083695 z m -4.000462,0.03522 1.422351,-1.764798 2.280095,1.652094 z m -0.08399,-0.04227 -0.732577,-1.918682 2.140299,0.172307 z m -0.09536,0.0087 -1.871,-0.758586 1.147092,-1.137881 z m -4.203655,0.321317 0.804644,-2.321277 1.365998,1.246251 z m -2.158179,2.301227 0.588988,-2.411764 1.398509,0.232453 z m -0.874543,2.059021 -0.755336,-1.186104 1.459738,-0.623125 z m -0.04011,0.10837 -0.645882,2.059022 -0.0867,-3.21099 z m -0.743953,2.38414 -0.526676,2.059021 -0.826319,-2.059021 z m -1.374126,-0.08994 0.04388,-2.020549 1.305312,2.018925 z m 2.081779,1.896468 -0.526134,1.916516 -0.639381,-1.493874 z m 2.100202,3.732247 -1.589239,0.224867 L 16.403135,27.92 Z m 0.08669,0.08019 0.0103,1.125958 -1.571358,-0.904344 z m 2.650177,0.840946 -0.80681,1.680812 -1.676477,-1.290681 z m 0.09427,0.0168 2.12296,1.960406 -2.937357,-0.264422 z m 0.104034,-0.02871 2.329945,0.02655 -0.212404,1.927353 z m 4.678855,-0.92114 0.08887,2.177143 -2.283346,-1.271716 z m 0.09266,0.0081 2.302853,1.143299 -2.213989,1.034929 z m 3.571862,-2.231329 1.143298,1.788097 -2.221575,1.475994 z m 0.07966,-0.0466 2.200986,0.325109 -1.074484,1.435896 z m 0.04064,-0.08669 2.35487,-1.408804 -0.153343,1.733913 z m 3.110205,-3.359456 0.415598,1.454861 -1.043056,0.33703 z m -0.555934,-2.481663 1.192063,1.502002 -0.612287,0.722826 z m -1.116207,-2.735789 1.549143,1.134629 -0.532637,1.282554 z m -1.596284,-0.779719 0.249791,-1.064731 1.115124,1.610371 z m -1.973951,-1.076109 -0.270925,-1.625544 2.329946,1.492249 z m -0.102408,-0.05418 -2.221576,-1.608746 1.950653,-0.01247 z m -4.5163,-1.87371 1.449442,-0.889714 0.622584,1.056604 z m -1.392007,1.209404 -1.342157,-1.224575 2.482205,0.0932 z m -2.360831,1.164431 -1.393632,-0.23191 2.184188,-2.048185 z m -2.161972,2.344575 -1.426144,-1.157929 2.023802,-1.288513 z m -0.06068,0.06935 -1.473285,0.628545 0.07152,-1.766966 z m -1.473827,4.189568 -1.323734,-2.047642 1.232163,-1.328612 z m -0.573816,2.418809 -0.250876,1.252751 -0.49579,-3.110748 z m 0.06393,0.149549 0.620415,1.44836 -0.884296,-0.123542 z m 1.609287,3.391425 -0.935229,-0.181519 0.0596,-1.529094 z m 1.766966,1.083696 -0.664305,0.638838 -0.892423,-1.533971 z m 0.0791,0.05093 1.595742,1.230535 -2.258964,-0.590613 z m 5.206073,-0.382546 2.275762,1.26359 -2.4925,0.669182 z m 4.710284,0.248709 -0.124625,1.589239 -2.054146,-0.570566 z m 2.285513,-1.503628 -1.264672,2.217784 -0.893507,-0.783512 z m 1.24625,-1.565939 0.0066,1.159553 -1.01163,0.19344 z m 0.253585,-1.975035 1.02951,-0.332695 -1.172558,1.973409 z m 0.713613,-2.039515 0.584112,-0.688689 -0.187478,2.066065 z m -0.655093,-2.539099 0.524508,-1.263048 0.679477,2.779138 z m -1.115665,-2.676728 0.368456,-0.643173 1.110246,1.726328 z m -0.06393,-0.07315 -1.090198,-1.571358 1.458655,0.929811 z m -3.656931,-3.326404 1.103203,-0.11758 1.116205,1.539389 z m -2.24054,-0.06503 -0.607411,-1.032221 2.48383,1.020842 z m -2.309356,-0.202651 -0.487663,-0.857204 1.917059,-0.0195 z m -0.09753,0.01463 -2.414473,-0.09048 1.924101,-0.768882 z m -4.876629,1.991833 0.866956,-1.872084 1.253835,-0.114331 z m -0.155511,0.11704 -0.790015,-0.758588 1.667808,-1.141132 z m -0.05907,0.07044 -1.965283,1.251126 1.174184,-2.012963 z m -2.221576,3.247293 -0.986164,-0.530468 1.056604,-1.198025 z m -0.0309,0.08724 -1.198567,1.291224 0.208069,-1.823319 z m -1.356246,3.621169 -0.506626,0.413972 0.54564,-2.197193 z m 0.01247,0.108369 0.516924,3.243501 -1.059313,-2.799186 z m 1.600619,3.862833 -0.05907,1.524217 -0.825777,-1.6483 z m 1.017048,1.950652 0.843115,1.447275 -1.730662,-1.616873 z m 3.546936,2.394967 -0.03629,0.837155 -2.206404,-1.423434 z m 0.09048,0.03576 1.145466,0.535345 -1.181228,0.288805 z m 3.050061,0.266588 0.03576,1.174184 -1.664016,-0.870749 z m 2.630671,-0.704402 -0.675142,1.589239 -1.784847,-0.928185 z m 0.108369,-0.01409 2.053062,0.570024 -2.726578,1.017048 z m 2.375461,-1.064731 0.869665,0.758587 -0.991039,0.771591 z m 2.360289,-1.628253 1.002418,-0.191814 -2.197734,2.28443 z m 1.180687,-0.443231 -0.0071,-1.130837 0.924935,-0.565147 z m 0.08127,-1.292307 1.121624,-1.884546 -0.206444,1.326985 z m 1.431562,-4.074695 0.131127,1.38713 -0.296933,0.410178 z m -0.683812,-3.473786 0.256294,0.24058 0.256835,1.858537 z m -1.300435,-2.119709 0.241123,-0.121373 0.697899,1.581652 z m -1.68894,-1.107537 0.423725,-0.606327 1.037096,1.538305 z m -0.0661,-0.0661 -1.104284,-1.523676 1.529094,0.916265 z m -2.487622,-1.5952 -0.0071,-0.662137 1.06419,0.549434 z m -0.09211,-0.01789 -2.432354,-0.999168 2.42531,0.319149 z m -4.811067,-1.116748 0.387422,-0.332153 1.283637,0.315898 z m -2.113206,0.793265 0.752626,-0.812773 1.041433,0.09374 z m -0.194523,0.07477 -1.13788,0.103488 1.872084,-0.89188 z m -3.135131,1.310189 0.125709,-0.282303 1.046308,-0.519632 z m -1.373585,2.211823 -0.0764,-0.738539 1.13788,-1.083696 z m -0.0791,0.130043 -0.943899,1.070149 0.869666,-1.788097 z m -1.406095,3.344284 -0.602536,0.112162 0.795975,-1.807062 z m -0.02005,0.09753 -0.575984,2.321816 -0.03685,-2.208028 z m 0.507713,5.780973 -0.684897,-0.563521 -0.328359,-2.113206 z m 0.960153,1.950652 -0.43727,-0.143588 -0.292599,-1.310731 z m 1.869917,1.80327 -1.451068,-0.786763 -0.233536,-0.784596 z m 0.265506,0.24925 0.629085,0.801935 -1.923559,-1.506879 z m 0.235162,0.151175 2.001043,1.291223 -1.309645,-0.409636 z m 3.671018,1.149801 1.555103,0.812772 -2.703278,-0.532636 z m 1.866665,-0.309394 1.740415,0.905426 -1.705194,0.270924 z m 4.620878,-0.04227 -0.704401,0.61012 -1.590325,0.246541 z m 1.305853,-0.913555 0.05907,0.379293 -0.913555,0.282303 z m 2.370585,-2.446984 -0.937397,1.672142 -1.195858,0.549975 z m 0.262254,-0.27851 0.629085,-1.162264 -0.672433,1.594658 z m 1.329694,-3.581615 0.23733,-0.328359 -0.379294,1.256003 z m 0.228659,-2.477327 -0.0033,-0.02438 0.02385,-0.311021 0.02385,0.805727 z m -0.0634,-0.457862 -0.23733,-1.721992 0.294223,0.975326 z m -0.704403,-2.685397 -0.433478,-0.983454 0.60687,1.146008 z m -1.30802,-2.030846 -0.866956,-1.28472 1.105369,1.164972 z m -2.894551,-2.772635 0.05798,-0.04172 0.664304,0.475199 z m -0.08778,-0.05039 -0.450275,-0.232453 0.500668,0.196691 z m -3.801603,-0.984538 0.844199,-0.17339 1.270091,0.4519 z m -0.275259,-0.03685 -1.149258,-0.282845 1.926809,0.122458 z m -2.177144,0.02113 -0.896216,-0.08073 1.254378,-0.226493 z m -3.162765,0.800851 0.512588,-0.38417 0.826859,-0.254669 z m -0.421007,0.20048 -0.444857,0.221074 0.683813,-0.399883 z m -1.866123,1.279845 -0.527759,0.503918 0.603076,-0.672975 z m -2.471909,3.556147 -0.234621,0.08669 0.91193,-1.48087 z m -0.305603,0.210779 0.253044,-0.09374 -0.639923,1.453778 z m -0.630169,3.772886 0.01301,0.808977 -0.0466,0.147384 z m 0.04388,1.015965 0.230828,1.487371 -0.318065,-1.213738 z m 1.204528,3.076611 0.296391,1.327527 -0.946608,-1.862331 z m 0.950944,1.896466 0.205901,0.692482 -0.612829,-0.826317 z m 4.597036,3.563734 0.08562,0.137087 -0.899467,-0.391214 z m 0.230827,0.195064 -0.10837,-0.167972 1.956613,0.385254 z m 4.793186,0.162556 -0.205902,0.232993 -1.073943,-0.0298 z m 0.142506,-0.02222 1.280386,-0.198859 -1.470575,0.413971 z m 2.958489,-1.105913 0.751,-0.23191 -1.322108,0.729869 z m 1.202901,-0.497957 -0.05907,-0.379293 1.097242,-0.50446 z m 2.376544,-2.849036 -0.05147,0.512047 -0.721741,0.860996 z m 1.188273,-2.183646 0.185311,-0.08941 -0.849075,1.667806 z m 0.246541,-0.221073 -0.20807,0.100779 0.418307,-1.376292 z"
     id="path4915"
     style="fill:url(#a);stroke-width:0.541847" />
  <path
     d="m 34.33017,24.661828 v -0.0043 l -0.09428,-3.106955 v -0.01084 l -0.46707,-1.550256 v -0.0033 l -1.336197,-2.52176 -1.539931,-1.62771 h -0.0033 l -1.622293,-1.157929 h -0.0066 l -1.408804,-0.552684 h -0.0097 l -1.690533,-0.60143 h -0.01138 l -2.783444,-0.177179 h -0.01191 l -1.755587,0.316981 h -0.0066 l -1.430979,0.43998 h -0.0092 l -2.541267,1.478161 -1.587614,1.771299 -1.462988,2.378171 v 0.0059 l -0.576473,2.024405 v 0.0076 l -0.108369,3.071736 v 0.01463 l 0.548892,2.092615 v 0.0071 l 1.21103,2.38413 v 0.0038 l 0.837696,1.180144 v 0.0028 l 1.181229,1.083696 h 0.0033 l 1.475452,0.998083 h 0.0033 l 1.819524,0.791098 h 0.01138 l 3.044642,0.357077 h 0.0043 l 1.589781,0.04444 h 0.01247 l 2.352703,-0.663223 h 0.0081 l 2.102369,-1.154134 0.0038,-0.0028 h 0.0028 l 1.354621,-1.154136 1.049016,-1.25221 0.0038,-0.0054 1.483579,-2.904303 v -0.01138 l 0.325109,-1.985871 v -0.0048 z m -16.616846,6.884719 -0.306143,-0.280678 0.688147,0.539139 z m 4.465911,1.166598 -1.075569,-0.502834 2.546685,0.229201 z m 0.391755,-9.157227 -2.823027,0.296932 1.740957,-2.925978 z m -0.985079,-2.635006 3.449403,1.727952 -2.372752,0.88538 z m 1.011087,2.724411 0.32836,2.600869 -3.142716,-2.306646 z m 0.287181,2.68648 -3.413641,1.073942 0.229201,-3.413641 z m -0.189647,-2.643132 2.644758,1.756128 -2.31694,0.840947 z m 0.04227,-0.08236 2.373293,-0.887548 0.274717,2.646385 z m 3.646094,-3.056564 2.199359,-1.03818 -0.248166,2.470284 z m 1.875876,1.490623 -3.023511,0.552685 1.073942,-1.984788 z m -3.109664,0.518549 -1.966907,-3.616834 3.051144,1.617958 z m -0.10837,-0.01029 -3.472161,-1.739331 1.492249,-1.896468 z m -5.361583,1.241914 -0.442689,-1.689481 2.136505,-1.156303 z m -0.292598,3.531765 -1.688398,-2.769385 1.912722,-0.581403 z m 3.445609,-0.877252 -1.716573,1.833612 -1.571359,-0.798683 z m 2.541809,-0.914097 -0.612289,2.20532 -1.687856,-1.371959 z m -0.165806,-2.772094 2.552103,2.012964 -2.27576,0.626919 z m 0.05093,-0.07694 3.056564,-0.558102 -0.487663,2.585156 z m 3.167101,-0.680019 0.244914,-2.44319 1.412056,1.91814 z m 1.687855,-0.438895 0.07803,2.797559 -1.742583,-2.2698 z m -3.770719,-1.095075 0.05851,-2.076361 2.130004,1.043057 z m -0.09211,0 -3.039767,-1.612538 3.098828,-0.481162 z m -4.733583,0.258462 -0.569482,-2.07311 2.032471,0.216739 z m -0.07424,0.07749 -2.157097,1.165514 1.586531,-3.240791 z m -1.837406,3.07336 -1.872085,0.568941 1.43102,-2.254629 z m -0.338654,3.426104 -2.338616,-1.655887 0.697358,-1.035472 z m 0.188561,0.235161 1.57136,0.798684 -1.93223,1.067441 z m 3.53339,-1.127043 1.687315,1.374126 -3.428814,0.487663 z m 2.476245,-0.866957 2.4925,2.407973 -3.109665,-0.178269 z m 0.0661,-0.06393 2.285515,-0.628543 0.205359,3.037598 z m 2.867458,-3.305271 1.757213,2.289306 -2.239999,0.270924 z m 1.807063,-0.596033 1.483037,0.840405 -1.408804,1.944693 z m 0.01571,-0.09646 0.921141,-1.512298 0.546183,2.342951 z m -0.06773,-0.0661 -1.413139,-1.919224 2.344576,0.387421 z m -3.71545,-3.111289 1.659679,-1.502544 0.476286,2.549394 z m -3.28468,0.462737 1.053351,-1.868833 2.028678,1.390383 z m -2.198819,-0.20807 1.192065,-2.427477 0.852869,2.644217 z m -1.777261,3.42177 -1.446733,-2.415558 3.066317,-0.894048 z m -1.531262,2.429103 -0.700067,-2.8149 2.161973,0.512047 z m -0.771049,1.149801 -0.641547,-1.593032 1.324816,0.579777 z m 2.495209,1.928978 -0.36087,1.871001 -2.004838,-3.545852 z m 1.725786,0.913014 0.548891,1.854202 -2.499002,-0.777009 z m 3.63038,-0.532636 -0.544558,2.410138 -2.930854,-1.917057 z m 3.236998,0.173933 -1.408804,1.27605 -1.63909,-1.451067 z m -0.05093,-3.132422 2.167391,2.192316 -1.965282,0.833362 z m 0.04444,-0.08562 2.236205,-0.270924 -0.07587,2.456738 z m 3.782097,-2.318566 0.892965,3.007797 -2.321275,-1.032762 z m -0.506627,-2.54235 1.457028,1.104827 -0.910845,1.227827 z m -2.507672,-0.561896 1.354619,-1.549143 0.998626,1.937648 z m -0.06123,-0.0699 -0.473032,-2.532054 1.823859,0.984536 z m -2.31098,-1.072858 -2.020008,-1.38388 3.67156,-0.11162 z m -3.274387,0.455152 -0.846907,-2.625794 1.893759,0.767799 z m -2.202069,-0.204819 -0.980203,-1.329693 2.160348,-1.07015 z m -0.06772,0.06286 -3.004004,0.875626 2.017841,-2.212365 z m -1.722535,3.434773 -2.140298,-0.507169 0.723909,-1.857996 z m -1.525843,2.438314 -1.354619,-0.593323 0.673517,-2.14951 z m -0.755336,1.185021 -1.165514,0.426435 0.519632,-2.031929 z m 2.09641,3.72683 -2.564024,-1.589239 0.541848,-1.990749 z m 2.611164,0.953652 -2.425853,0.384712 -0.01029,-1.142216 z m -0.308853,-1.869917 2.852286,1.86504 -2.30773,-0.02601 z m 3.610331,-0.541847 1.655345,1.46624 -2.192316,0.910304 z m 3.244585,0.185311 0.875083,2.425311 -2.295266,-1.137881 z m 0.07803,-0.05418 1.950651,-0.827944 -1.07611,3.259215 z m 2.151134,-3.459156 2.320734,1.032761 -2.394424,1.433729 z m 1.553478,-2.051436 1.517174,1.079903 -0.650218,1.849326 z m -0.0168,-0.125168 0.911931,-1.228909 0.600909,2.306104 z m -0.609037,-2.559688 0.419392,-1.313981 1.008378,2.399302 z m -0.0634,-0.102408 -0.967741,-1.872625 1.389298,0.555394 z m -2.859333,-2.980184 2.020551,-0.132211 -0.254669,1.083695 z m -4.000462,0.03522 1.422351,-1.764798 2.280095,1.652094 z m -0.08399,-0.04227 -0.732577,-1.918682 2.140299,0.172307 z m -0.09536,0.0087 -1.871,-0.758586 1.147092,-1.137881 z m -4.203655,0.321317 0.804644,-2.321277 1.365998,1.246251 z m -2.158179,2.301227 0.588988,-2.411764 1.398509,0.232453 z m -0.874543,2.059021 -0.755336,-1.186104 1.459738,-0.623125 z m -0.04011,0.10837 -0.645882,2.059022 -0.0867,-3.21099 z m -0.743953,2.38414 -0.526676,2.059021 -0.826319,-2.059021 z m -1.374126,-0.08994 0.04388,-2.020549 1.305312,2.018925 z m 2.081779,1.896468 -0.526134,1.916516 -0.639381,-1.493874 z m 2.100202,3.732247 -1.589239,0.224867 L 16.403135,27.92 Z m 0.08669,0.08019 0.0103,1.125958 -1.571358,-0.904344 z m 2.650177,0.840946 -0.80681,1.680812 -1.676477,-1.290681 z m 0.09427,0.0168 2.12296,1.960406 -2.937357,-0.264422 z m 0.104034,-0.02871 2.329945,0.02655 -0.212404,1.927353 z m 4.678855,-0.92114 0.08887,2.177143 -2.283346,-1.271716 z m 0.09266,0.0081 2.302853,1.143299 -2.213989,1.034929 z m 3.571862,-2.231329 1.143298,1.788097 -2.221575,1.475994 z m 0.07966,-0.0466 2.200986,0.325109 -1.074484,1.435896 z m 0.04064,-0.08669 2.35487,-1.408804 -0.153343,1.733913 z m 3.110205,-3.359456 0.415598,1.454861 -1.043056,0.33703 z m -0.555934,-2.481663 1.192063,1.502002 -0.612287,0.722826 z m -1.116207,-2.735789 1.549143,1.134629 -0.532637,1.282554 z m -1.596284,-0.779719 0.249791,-1.064731 1.115124,1.610371 z m -1.973951,-1.076109 -0.270925,-1.625544 2.329946,1.492249 z m -0.102408,-0.05418 -2.221576,-1.608746 1.950653,-0.01247 z m -4.5163,-1.87371 1.449442,-0.889714 0.622584,1.056604 z m -1.392007,1.209404 -1.342157,-1.224575 2.482205,0.0932 z m -2.360831,1.164431 -1.393632,-0.23191 2.184188,-2.048185 z m -2.161972,2.344575 -1.426144,-1.157929 2.023802,-1.288513 z m -0.06068,0.06935 -1.473285,0.628545 0.07152,-1.766966 z m -1.473827,4.189568 -1.323734,-2.047642 1.232163,-1.328612 z m -0.573816,2.418809 -0.250876,1.252751 -0.49579,-3.110748 z m 0.06393,0.149549 0.620415,1.44836 -0.884296,-0.123542 z m 1.609287,3.391425 -0.935229,-0.181519 0.0596,-1.529094 z m 1.766966,1.083696 -0.664305,0.638838 -0.892423,-1.533971 z m 0.0791,0.05093 1.595742,1.230535 -2.258964,-0.590613 z m 5.206073,-0.382546 2.275762,1.26359 -2.4925,0.669182 z m 4.710284,0.248709 -0.124625,1.589239 -2.054146,-0.570566 z m 2.285513,-1.503628 -1.264672,2.217784 -0.893507,-0.783512 z m 1.24625,-1.565939 0.0066,1.159553 -1.01163,0.19344 z m 0.253585,-1.975035 1.02951,-0.332695 -1.172558,1.973409 z m 0.713613,-2.039515 0.584112,-0.688689 -0.187478,2.066065 z m -0.655093,-2.539099 0.524508,-1.263048 0.679477,2.779138 z m -1.115665,-2.676728 0.368456,-0.643173 1.110246,1.726328 z m -0.06393,-0.07315 -1.090198,-1.571358 1.458655,0.929811 z m -3.656931,-3.326404 1.103203,-0.11758 1.116205,1.539389 z m -2.24054,-0.06503 -0.607411,-1.032221 2.48383,1.020842 z m -2.309356,-0.202651 -0.487663,-0.857204 1.917059,-0.0195 z m -0.09753,0.01463 -2.414473,-0.09048 1.924101,-0.768882 z m -4.876629,1.991833 0.866956,-1.872084 1.253835,-0.114331 z m -0.155511,0.11704 -0.790015,-0.758588 1.667808,-1.141132 z m -0.05907,0.07044 -1.965283,1.251126 1.174184,-2.012963 z m -2.221576,3.247293 -0.986164,-0.530468 1.056604,-1.198025 z m -0.0309,0.08724 -1.198567,1.291224 0.208069,-1.823319 z m -1.356246,3.621169 -0.506626,0.413972 0.54564,-2.197193 z m 0.01247,0.108369 0.516924,3.243501 -1.059313,-2.799186 z m 1.600619,3.862833 -0.05907,1.524217 -0.825777,-1.6483 z m 1.017048,1.950652 0.843115,1.447275 -1.730662,-1.616873 z m 3.546936,2.394967 -0.03629,0.837155 -2.206404,-1.423434 z m 0.09048,0.03576 1.145466,0.535345 -1.181228,0.288805 z m 3.050061,0.266588 0.03576,1.174184 -1.664016,-0.870749 z m 2.630671,-0.704402 -0.675142,1.589239 -1.784847,-0.928185 z m 0.108369,-0.01409 2.053062,0.570024 -2.726578,1.017048 z m 2.375461,-1.064731 0.869665,0.758587 -0.991039,0.771591 z m 2.360289,-1.628253 1.002418,-0.191814 -2.197734,2.28443 z m 1.180687,-0.443231 -0.0071,-1.130837 0.924935,-0.565147 z m 0.08127,-1.292307 1.121624,-1.884546 -0.206444,1.326985 z m 1.431562,-4.074695 0.131127,1.38713 -0.296933,0.410178 z m -0.683812,-3.473786 0.256294,0.24058 0.256835,1.858537 z m -1.300435,-2.119709 0.241123,-0.121373 0.697899,1.581652 z m -1.68894,-1.107537 0.423725,-0.606327 1.037096,1.538305 z m -0.0661,-0.0661 -1.104284,-1.523676 1.529094,0.916265 z m -2.487622,-1.5952 -0.0071,-0.662137 1.06419,0.549434 z m -0.09211,-0.01789 -2.432354,-0.999168 2.42531,0.319149 z m -4.811067,-1.116748 0.387422,-0.332153 1.283637,0.315898 z m -2.113206,0.793265 0.752626,-0.812773 1.041433,0.09374 z m -0.194523,0.07477 -1.13788,0.103488 1.872084,-0.89188 z m -3.135131,1.310189 0.125709,-0.282303 1.046308,-0.519632 z m -1.373585,2.211823 -0.0764,-0.738539 1.13788,-1.083696 z m -0.0791,0.130043 -0.943899,1.070149 0.869666,-1.788097 z m -1.406095,3.344284 -0.602536,0.112162 0.795975,-1.807062 z m -0.02005,0.09753 -0.575984,2.321816 -0.03685,-2.208028 z m 0.507713,5.780973 -0.684897,-0.563521 -0.328359,-2.113206 z m 0.960153,1.950652 -0.43727,-0.143588 -0.292599,-1.310731 z m 1.869917,1.80327 -1.451068,-0.786763 -0.233536,-0.784596 z m 0.265506,0.24925 0.629085,0.801935 -1.923559,-1.506879 z m 0.235162,0.151175 2.001043,1.291223 -1.309645,-0.409636 z m 3.671018,1.149801 1.555103,0.812772 -2.703278,-0.532636 z m 1.866665,-0.309394 1.740415,0.905426 -1.705194,0.270924 z m 4.620878,-0.04227 -0.704401,0.61012 -1.590325,0.246541 z m 1.305853,-0.913555 0.05907,0.379293 -0.913555,0.282303 z m 2.370585,-2.446984 -0.937397,1.672142 -1.195858,0.549975 z m 0.262254,-0.27851 0.629085,-1.162264 -0.672433,1.594658 z m 1.329694,-3.581615 0.23733,-0.328359 -0.379294,1.256003 z m 0.228659,-2.477327 -0.0033,-0.02438 0.02385,-0.311021 0.02385,0.805727 z m -0.0634,-0.457862 -0.23733,-1.721992 0.294223,0.975326 z m -0.704403,-2.685397 -0.433478,-0.983454 0.60687,1.146008 z m -1.30802,-2.030846 -0.866956,-1.28472 1.105369,1.164972 z m -2.894551,-2.772635 0.05798,-0.04172 0.664304,0.475199 z m -0.08778,-0.05039 -0.450275,-0.232453 0.500668,0.196691 z m -3.801603,-0.984538 0.844199,-0.17339 1.270091,0.4519 z m -0.275259,-0.03685 -1.149258,-0.282845 1.926809,0.122458 z m -2.177144,0.02113 -0.896216,-0.08073 1.254378,-0.226493 z m -3.162765,0.800851 0.512588,-0.38417 0.826859,-0.254669 z m -0.421007,0.20048 -0.444857,0.221074 0.683813,-0.399883 z m -1.866123,1.279845 -0.527759,0.503918 0.603076,-0.672975 z m -2.471909,3.556147 -0.234621,0.08669 0.91193,-1.48087 z m -0.305603,0.210779 0.253044,-0.09374 -0.639923,1.453778 z m -0.630169,3.772886 0.01301,0.808977 -0.0466,0.147384 z m 0.04388,1.015965 0.230828,1.487371 -0.318065,-1.213738 z m 1.204528,3.076611 0.296391,1.327527 -0.946608,-1.862331 z m 0.950944,1.896466 0.205901,0.692482 -0.612829,-0.826317 z m 4.597036,3.563734 0.08562,0.137087 -0.899467,-0.391214 z m 0.230827,0.195064 -0.10837,-0.167972 1.956613,0.385254 z m 4.793186,0.162556 -0.205902,0.232993 -1.073943,-0.0298 z m 0.142506,-0.02222 1.280386,-0.198859 -1.470575,0.413971 z m 2.958489,-1.105913 0.751,-0.23191 -1.322108,0.729869 z m 1.202901,-0.497957 -0.05907,-0.379293 1.097242,-0.50446 z m 2.376544,-2.849036 -0.05147,0.512047 -0.721741,0.860996 z m 1.188273,-2.183646 0.185311,-0.08941 -0.849075,1.667806 z m 0.246541,-0.221073 -0.20807,0.100779 0.418307,-1.376292 z"
     id="path4917"
     style="fill:url(#b);stroke-width:0.541847" />
  <path
     d="m 43.47927,16.236638 c -0.913556,-2.195567 -2.763424,-4.566152 -4.217743,-5.314985 a 21.763315,21.763315 0 0 1 2.126752,6.373755 c 0,-0.0048 0,0.0043 0.0033,0.02005 l 0.0038,0.02222 A 18.99339,18.99339 0 0 1 40.740794,31.510787 C 38.331739,36.67568 32.498748,41.968449 23.368613,41.71107 13.505868,41.432015 4.8162548,34.120321 3.1939625,24.544246 c -0.2953062,-1.51013 0,-2.27576 0.1484669,-3.503046 a 15.645311,15.645311 0 0 0 -0.3402809,2.89726 v 0.108369 a 21.028027,21.028027 0 0 0 41.7455775,3.55127 c 0.03522,-0.270922 0.06393,-0.539138 0.09536,-0.810062 A 21.56554,21.56554 0 0 0 43.47927,16.236638 Z"
     id="path4919"
     style="fill:url(#c);stroke-width:0.541847" />
  <path
     d="m 43.47927,16.236638 c -0.913556,-2.195567 -2.763424,-4.566152 -4.217743,-5.314985 a 21.763315,21.763315 0 0 1 2.126752,6.373755 c 0,-0.0048 0,0.0043 0.0033,0.02005 l 0.0038,0.02222 A 18.99339,18.99339 0 0 1 40.740794,31.510787 C 38.331739,36.67568 32.498748,41.968449 23.368613,41.71107 13.505868,41.432015 4.8162548,34.120321 3.1939625,24.544246 c -0.2953062,-1.51013 0,-2.27576 0.1484669,-3.503046 a 15.645311,15.645311 0 0 0 -0.3402809,2.89726 v 0.108369 a 21.028027,21.028027 0 0 0 41.7455775,3.55127 c 0.03522,-0.270922 0.06393,-0.539138 0.09536,-0.810062 A 21.56554,21.56554 0 0 0 43.47927,16.236638 Z"
     id="path4921"
     style="fill:url(#d);stroke-width:0.541847" />
  <path
     d="m 3.193972,24.544248 c 1.6222923,9.576075 10.311905,16.887769 20.176785,17.16682 9.130135,0.25792 14.963127,-5.03539 17.372182,-10.200283 A 18.99339,18.99339 0 0 0 41.39749,17.337672 v -0.02005 c 0,-0.01571 -0.0033,-0.02492 -0.0033,-0.02005 l 0.0043,0.03522 c 0.745583,4.864169 -1.731203,9.576619 -5.603246,12.763225 l -0.01191,0.02708 c -7.549022,6.1348 -14.768602,3.700278 -16.231592,2.704361 a 13.416151,13.416151 0 0 1 -0.306113,-0.152803 c -4.39872,-2.099659 -6.216078,-6.103374 -5.826489,-9.53652 a 5.398971,5.398971 0 0 1 -4.9806642,-3.129713 7.9386117,7.9386117 0 0 1 7.7300002,-0.309395 10.47771,10.47771 0 0 0 7.893637,0.309937 c -0.0076,-0.170682 -3.666684,-1.625544 -5.093368,-3.028929 -0.76238,-0.75046 -1.124335,-1.111872 -1.444566,-1.383337 a 6.3732134,6.3732134 0 0 0 -0.541849,-0.41072 c -0.125166,-0.08508 -0.265504,-0.177185 -0.433478,-0.287723 -1.533429,-0.995916 -4.582948,-0.940647 -4.683731,-0.938479 h -0.0097 C 11.021505,12.904806 11.080567,9.4261435 11.128249,8.7000675 A 3.7680093,3.7680093 0 0 0 10.423847,9.071775 15.320746,15.320746 0 0 0 8.3691602,10.830072 18.422824,18.422824 0 0 0 6.403878,13.184942 v 0.0033 -0.0033 a 17.712462,17.712462 0 0 0 -2.8214009,6.360209 c -0.00976,0.04551 -0.7564203,3.307439 -0.3885054,4.999087 z"
     id="path4923"
     style="fill:url(#e);stroke-width:0.541847" />
  <path
     d="m 31.441038,16.257228 a 11.411856,11.411856 0 0 1 1.950653,2.546685 4.2675931,4.2675931 0 0 1 0.315896,0.257919 c 4.768261,4.388967 2.268716,10.592581 2.082863,11.03473 3.872045,-3.186606 6.34883,-7.899056 5.603248,-12.763225 C 39.01607,11.413651 34.985264,9.0268116 31.694623,3.8299489 a 25.951257,25.951257 0 0 1 -0.495249,-0.8046434 6.3650857,6.3650857 0 0 1 -0.231369,-0.433479 3.8102735,3.8102735 0 0 1 -0.314272,-0.8339028 0.05418477,0.05418477 0 0 0 -0.04768,-0.05418 0.06989836,0.06989836 0 0 0 -0.03955,0 l -0.01028,0.00546 -0.0157,0.00652 c -0.812771,0.3874206 -5.634674,8.0139293 0.90055,14.5415693 z"
     id="path4925"
     style="fill:url(#f);stroke-width:0.541847" />
  <path
     d="m 23.353418,13.377849 2.783472,0.177185 1.690566,0.60145 1.408804,0.552685 1.622834,1.159013 1.528553,1.611455 0.53101,1.001877 a 12.711749,12.711749 0 0 1 0.343531,0.223782 c 0.04606,0.03197 0.08778,0.06393 0.130586,0.0959 A 11.411856,11.411856 0 0 0 31.442121,16.257228 C 24.905812,9.729588 29.727715,2.1030797 30.540487,1.7156591 l 0.01084,-0.011918 c -5.28139,3.0885326 -7.073281,8.8055689 -7.23746,11.6654419 v 0.01626 z"
     id="path4927"
     style="fill:url(#g);stroke-width:0.541847" />
  <path
     d="m 16.54456,14.898273 a 12.362799,12.362799 0 0 1 0.433477,0.287723 9.7137048,9.7137048 0 0 1 -0.05907,-5.132383 15.570537,15.570537 0 0 0 -5.060858,3.906181 c 0.103499,-0.0023 3.153012,-0.05744 4.686442,0.938479 z"
     id="path4929"
     style="fill:url(#h);stroke-width:0.541847" />
  <path
     d="m 14.585779,25.945466 c 0,0 0.97045,-3.612499 6.949199,-3.612499 0.646424,0 2.492498,-1.801644 2.528261,-2.323985 a 10.47771,10.47771 0 0 1 -7.893638,-0.309936 7.9386117,7.9386117 0 0 0 -7.7300001,0.309394 5.398971,5.398971 0 0 0 4.9806651,3.129713 c -0.389589,3.433147 1.427767,7.436861 5.826489,9.53652 0.09862,0.04714 0.19073,0.09862 0.291513,0.14359 -2.567275,-1.325902 -4.687524,-3.830863 -4.952489,-6.872797 z"
     id="path4931"
     style="fill:url(#i);stroke-width:0.541847" />
  <path
     d="m 33.708671,19.059123 a 4.2675931,4.2675931 0 0 0 -0.315897,-0.25792 c -0.04281,-0.03197 -0.08452,-0.06393 -0.130586,-0.0959 A 7.2640111,7.2640111 0 0 0 28.19266,17.475847 c 7.562571,3.77668 5.532267,16.781567 -4.946527,16.290654 a 9.3419973,9.3419973 0 0 1 -2.73579,-0.527222 12.321618,12.321618 0 0 1 -0.617706,-0.251959 c -0.118124,-0.05418 -0.236788,-0.108369 -0.354369,-0.169057 l 0.01463,0.0092 c 1.462988,0.995917 8.681484,3.430439 16.226714,-2.706529 l 0.01191,-0.02708 c 0.18586,-0.442179 2.683236,-6.64742 -2.082856,-11.03476 z"
     id="path4933"
     style="fill:url(#j);stroke-width:0.541847" />
  <path
     d="m 43.477644,16.236096 c -0.913555,-2.196109 -2.763423,-4.566151 -4.217743,-5.315527 a 21.776862,21.776862 0 0 1 2.128378,6.374297 l 0.0043,0.03469 C 39.015498,11.410403 34.984151,9.0235629 31.692425,3.8261595 A 24.552206,24.552206 0 0 1 31.197176,3.0220567 6.9334841,6.9334841 0 0 1 30.965265,2.5885788 3.8216522,3.8216522 0 0 1 30.652077,1.7568422 a 0.05418477,0.05418477 0 0 0 -0.04768,-0.05418 0.07477499,0.07477499 0 0 0 -0.03955,0 c -0.0033,0 -0.0076,0.00484 -0.01084,0.00598 -0.0033,0.00104 -0.01029,0.00598 -0.01517,0.00808 l 0.0087,-0.011918 C 25.266148,4.7933418 23.475341,10.527717 23.310619,13.38759 l 0.04281,-0.0076 2.783471,0.177185 1.566482,0.557019 1.532887,0.596034 1.622835,1.159011 1.526925,1.610372 c 0,0 0.525594,0.986162 0.532637,1.00296 a 7.1951965,7.1951965 0 0 0 -4.727621,-1.006753 c 7.562027,3.776679 5.532266,16.781567 -4.946528,16.290653 A 9.3587946,9.3587946 0 0 1 20.508718,33.239802 Q 20.202032,33.12493 19.891011,32.986217 A 7.8242817,7.8242817 0 0 1 19.536643,32.81716 l 0.01463,0.0092 A 12.362799,12.362799 0 0 1 19.24513,32.6741 c 0.09807,0.0466 0.19073,0.09807 0.291514,0.143048 -2.567275,-1.32536 -4.687525,-3.830864 -4.95249,-6.872797 0,0 0.970451,-3.612499 6.949198,-3.612499 0.646425,0 2.492501,-1.801644 2.528262,-2.323986 -0.0076,-0.170681 -3.667226,-1.625542 -5.093369,-3.028928 -0.76238,-0.749917 -1.124335,-1.111871 -1.445107,-1.383337 a 6.1770645,6.1770645 0 0 0 -0.544558,-0.41018 9.7223744,9.7223744 0 0 1 -0.05907,-5.132922 15.575414,15.575414 0 0 0 -5.060859,3.906722 h -0.0097 C 11.015575,12.904795 11.074636,9.4261322 11.121778,8.6995144 A 3.8156919,3.8156919 0 0 0 10.417375,9.071222 15.292028,15.292028 0 0 0 8.3626886,10.83006 18.372974,18.372974 0 0 0 6.3990328,13.18168 17.724382,17.724382 0 0 0 3.5808827,19.544598 c -0.01029,0.04551 -0.018428,0.09266 -0.028172,0.138171 -0.039554,0.185312 -0.2167389,1.12325 -0.2427475,1.324817 0,0.01517 0,-0.0157 0,0 A 24.432458,24.432458 0 0 0 2.999996,23.93792 v 0.10837 a 21.027485,21.027485 0 0 0 41.747745,3.551811 c 0.03576,-0.270922 0.06449,-0.541847 0.0959,-0.812771 a 21.569335,21.569335 0 0 0 -1.366,-10.549234 z m -2.085572,1.078278 0.0033,0.02275 z"
     id="path4935"
     style="fill:url(#k);stroke-width:0.541847" />
  <path
     d="m 24.063239,20.008982 c 0,0 -0.08887,0.03685 -0.253585,0.0932 -0.41072,0.694107 -1.871001,2.019467 -2.429103,2.016758 -5.978749,-0.02601 -6.964912,3.546935 -6.964912,3.546935 a 7.6362605,7.6362605 0 0 0 1.171475,3.431523 7.6909872,7.6909872 0 0 1 -1.001335,-3.151929 c 0,0 0.97045,-3.612499 6.949199,-3.612499 0.646424,0 2.492498,-1.801644 2.528261,-2.323986 z"
     id="path4937"
     style="fill:url(#l);stroke-width:0.541847" />
  <path
     d="m 41.39749,17.337672 v -0.02005 c 0,-0.01571 -0.0033,-0.02492 0,-0.02005 0.0033,0.0048 0,0.01191 0.0038,0.03522 a 20.989556,20.989556 0 0 0 -0.4519,-1.040347 C 40.89519,16.177578 40.84101,16.070292 40.784116,15.958129 40.678469,15.741385 40.573892,15.524646 40.464439,15.320911 40.396706,15.193577 40.325726,15.072745 40.25637,14.949204 40.154494,14.767685 40.053719,14.585082 39.949142,14.407355 39.8722,14.27948 39.79309,14.157022 39.715063,14.032397 39.612655,13.869842 39.510787,13.707289 39.40621,13.549069 39.323316,13.423902 39.238237,13.30307 39.154251,13.181155 39.049671,13.03052 38.94564,12.879887 38.838896,12.733046 38.751116,12.611673 38.661711,12.493007 38.572307,12.374343 38.463938,12.232921 38.359361,12.091499 38.251533,11.952786 A 36.328184,36.328184 0 0 0 37.971939,11.600042 C 37.863569,11.465123 37.7552,11.329118 37.644121,11.196366 q -0.143589,-0.173933 -0.288804,-0.346241 c -0.05419,-0.0623 -0.10458,-0.12625 -0.157678,-0.188563 l 0.06719,0.08236 C 35.436624,8.594958 33.45942,6.6145044 31.694081,3.8272399 A 25.55625,25.55625 0 0 1 31.198832,3.0225954 6.3650857,6.3650857 0 0 1 30.967463,2.5891175 4.307148,4.307148 0 0 1 30.678116,1.8511207 c -0.0038,-0.013545 -0.01029,-0.034136 -0.01247,-0.044972 a 2.4491518,2.4491518 0 0 1 -0.01191,-0.048762 0.05418477,0.05418477 0 0 0 -0.04769,-0.05418 0.06989836,0.06989836 0 0 0 -0.03955,0 l -0.01029,0.00598 a 0.14629889,0.14629889 0 0 0 -0.0157,0.00808 0.61662276,0.61662276 0 0 0 -0.127334,0.093744 0.68272818,0.68272818 0 0 0 -0.03034,0.02709 2.0167573,2.0167573 0 0 0 -0.166347,0.1761008 l -0.0059,0.00598 C 28.952862,3.4983578 25.735912,9.933885 30.919771,15.70673 26.066439,9.995655 29.12517,3.8240091 30.454323,2.2071348 a 4.6653093,4.6653093 0 0 0 0.259544,0.6350453 6.2247471,6.2247471 0 0 0 0.23137,0.433479 c 0.162554,0.2779676 0.328901,0.5418474 0.495249,0.8041017 3.292267,5.1974046 7.323614,7.5858702 9.699075,13.5033882 0,-0.02275 -0.0038,-0.03143 -0.0038,-0.03469 0,-0.0033 0,0.0043 0.0028,0.02005 l 0.0033,0.02005 a 18.993932,18.993932 0 0 1 -0.652385,14.176362 17.422031,17.422031 0 0 1 -3.339951,4.788851 17.455084,17.455084 0 0 0 3.593534,-5.042977 18.996099,18.996099 0 0 0 0.654553,-14.173111 z"
     id="path4939"
     style="fill:url(#m);stroke-width:0.541847" />
  <path
     d="m 30.540487,1.7156591 0.01084,-0.011918 c -4.757426,2.7834721 -6.683153,7.69749 -7.138305,10.7350879 A 15.535858,15.535858 0 0 1 29.764021,2.6378867 2.9454844,2.9454844 0 0 1 30.540488,1.715662 Z"
     id="path4941"
     style="fill:url(#n);stroke-width:0.541847" />
  <path
     d="m 35.779613,30.120945 0.01191,-0.02708 c 0.185856,-0.44215 2.683232,-6.647391 -2.08286,-11.034732 a 4.2675931,4.2675931 0 0 0 -0.315898,-0.257919 c -0.04281,-0.03197 -0.08452,-0.06393 -0.130585,-0.0959 a 7.3382443,7.3382443 0 0 0 -4.87663,-1.259795 h -0.0015 a 4.666393,4.666393 0 0 0 -0.191272,0.0298 c 7.476958,3.734415 5.576698,16.489511 -4.59541,16.299865 l 0.0829,0.0048 C 33.992143,34.185291 36.024073,21.539107 28.85922,17.573865 a 7.6129611,7.6129611 0 0 1 3.982039,1.149801 4.4339402,4.4339402 0 0 1 0.133837,0.09157 4.0096735,4.0096735 0 0 1 0.325109,0.244914 c 4.934606,4.197695 2.682146,10.495591 2.51309,10.945325 l -0.01084,0.02817"
     id="path4943"
     style="fill:url(#o);stroke-width:0.541847" />
  <path
     d="m 16.225953,19.909282 a 10.50372,10.50372 0 0 0 7.601583,0.186938 10.505344,10.505344 0 0 1 -7.657935,-0.397174 7.9884616,7.9884616 0 0 0 -7.6297587,0.24383 l -0.027636,0.01789 h -0.00274 l -0.022754,0.01517 -0.017336,0.01191 -0.010836,0.0076 h -0.00326 l -0.00756,0.0054 h -0.00274 l 0.00976,0.0233 v 0.0033 l 0.011918,0.02708 v 0.0054 l 0.017882,0.03901 v 0.0033 a 4.3347821,4.3347821 0 0 0 0.1381716,0.26388 5.3778391,5.3778391 0 0 0 4.7964361,2.763424 c -0.379293,3.330197 1.321024,7.196822 5.437984,9.342539 -3.934898,-2.267633 -5.588076,-6.382966 -5.128589,-9.656269 -3.038141,-0.0802 -4.3965528,-1.901344 -4.7850571,-2.673477 a 8.3081518,8.3081518 0 0 1 7.2824331,-0.232994 z"
     id="path4945"
     style="fill:url(#p);stroke-width:0.541847" />
  <path
     d="m 16.977496,15.174617 -0.102953,-0.06014 0.10837,0.07152 z m -0.02168,-0.07694 a 9.7299603,9.7299603 0 0 1 -0.03413,-5.044061 15.326165,15.326165 0 0 0 -4.865793,3.690525 15.871804,15.871804 0 0 1 4.437191,-3.134048 9.8502505,9.8502505 0 0 0 0.462737,4.487584 z"
     id="path4947"
     style="fill:url(#q);stroke-width:0.541847" />
  <path
     d="m 3.701142,26.745234 -0.0168,-0.06014 a 19.444749,19.444749 0 0 1 -0.4876631,-2.140841 9.0840778,9.0840778 0 0 1 0,-2.709239 17.874474,17.874474 0 0 0 -0.1923558,2.102369 v 0.108369 A 21.009606,21.009606 0 0 0 17.114041,43.88171 21.253436,21.253436 0 0 1 3.701142,26.745234 Z"
     id="path4949"
     style="fill:url(#r);stroke-width:0.541847" />
  <path
     d="M 3.5326275,24.628775 C 3.1647127,22.937128 3.9119201,19.675746 3.9211318,19.629689 a 17.712462,17.712462 0 0 1 2.821402,-6.362377 v 0.0033 -0.0033 a 18.422824,18.422824 0 0 1 1.963114,-2.352161 15.320746,15.320746 0 0 1 2.0546862,-1.7582957 1.8086878,1.8086878 0 0 1 0.08887,-0.05418 c -0.0076,1.5973677 0.08345,4.2930607 0.823067,5.1768147 h 0.0097 c 0.101323,-0.0054 3.161681,-0.14034 4.72708,0.812771 0.173933,0.108369 0.316981,0.194523 0.444857,0.276342 a 6.4626183,6.4626183 0 0 1 0.557561,0.396091 c 0.328361,0.263337 0.701152,0.614997 1.48629,1.344866 1.137879,1.057144 3.613581,2.10833 4.683731,2.608996 -1.042515,-0.52505 -3.502504,-1.647216 -4.611666,-2.739039 -0.76238,-0.750459 -1.124334,-1.111872 -1.444566,-1.383338 A 6.3732134,6.3732134 0 0 0 16.983436,15.185458 C 16.85827,15.100383 16.717931,15.008275 16.549958,14.897737 15.01653,13.901821 11.96701,13.95709 11.866227,13.959257 h -0.0097 c -0.761838,-0.963947 -0.778094,-3.951696 -0.739081,-5.0131757 0,-0.04118 0,-0.078572 0.0043,-0.1137884 v -0.068816 c 0,-0.022754 0,-0.044972 0.0038,-0.063934 0,0 -0.0038,-0.00378 -0.0087,-0.00378 h -0.01896 l -0.01191,0.0043 -0.01733,0.00652 -0.0168,0.00704 -0.02005,0.00924 -0.02168,0.01029 -0.02168,0.010836 -0.02655,0.01301 -0.02113,0.011382 -0.03143,0.016254 -0.01788,0.00976 a 10.453327,10.453327 0 0 0 -0.4682,0.2709207 15.320746,15.320746 0 0 0 -2.0546867,1.7582954 18.422824,18.422824 0 0 0 -1.9647404,2.361373 v 0.0033 -0.0033 a 17.712462,17.712462 0 0 0 -2.821401,6.360209 c -0.00976,0.04551 -0.7585874,3.305271 -0.3885053,4.999086 C 4.5745164,32.691501 11.07398,39.201801 19.059733,41.132405 11.229574,39.102071 4.8937491,32.662752 3.5326275,24.628775 Z"
     id="path4951"
     style="fill:url(#s);stroke-width:0.541847" />
  <path
     d="m 43.47927,16.236638 a 12.877013,12.877013 0 0 0 -3.689983,-4.984999 l -0.03739,-0.02655 a 7.3761736,7.3761736 0 0 0 -0.124624,-0.08562 q -0.02331,-0.01626 -0.04714,-0.03089 -0.0596,-0.03792 -0.117039,-0.07315 l -0.04551,-0.02708 a 4.260549,4.260549 0 0 0 -0.156052,-0.08615 19.038905,19.038905 0 0 1 0.165806,0.333237 18.200124,18.200124 0 0 1 0.100779,0.207528 21.530321,21.530321 0 0 1 1.860163,5.832449 l 0.0043,0.03522 c 0.745582,4.864169 -1.731203,9.576618 -5.603248,12.763225 l -0.01191,0.02708 c -4.813235,3.914848 -9.493174,4.341824 -12.631557,3.879087 3.127004,0.584111 8.059445,0.337571 13.139809,-3.792934 l 0.01138,-0.0271 c 3.872043,-3.186606 6.349373,-7.899056 5.60379,-12.763225 l -0.0043,-0.03522 a 21.099009,21.099009 0 0 0 -1.532886,-5.117751 13.904898,13.904898 0 0 1 2.299059,3.276553 20.923993,20.923993 0 0 1 1.943066,10.295108 c -0.01626,0.268214 -0.0298,0.535886 -0.05039,0.801934 A 20.931579,20.931579 0 0 1 24.825619,44.948067 21.483722,21.483722 0 0 1 20.674522,44.779011 21.043742,21.043742 0 0 0 44.747736,27.598101 c 0.03522,-0.270922 0.06393,-0.539138 0.09536,-0.810062 A 21.56554,21.56554 0 0 0 43.47927,16.236638 Z m -2.08178,1.101034 v -0.02005 z"
     id="path4953"
     style="fill:url(#t);stroke-width:0.541847" />
</svg>
