<?xml version="1.0" encoding="UTF-8" standalone="no"?>
<svg
   xmlns:dc="http://purl.org/dc/elements/1.1/"
   xmlns:cc="http://creativecommons.org/ns#"
   xmlns:rdf="http://www.w3.org/1999/02/22-rdf-syntax-ns#"
   xmlns:svg="http://www.w3.org/2000/svg"
   xmlns="http://www.w3.org/2000/svg"
   xmlns:sodipodi="http://sodipodi.sourceforge.net/DTD/sodipodi-0.dtd"
   xmlns:inkscape="http://www.inkscape.org/namespaces/inkscape"
   inkscape:version="1.0 (4035a4fb49, 2020-05-01)"
   sodipodi:docname="firefox24.svg"
   viewBox="0 0 24 24"
   version="1.1"
   id="svg4959"
   width="24"
   height="24">
  <sodipodi:namedview
     inkscape:current-layer="svg4959"
     inkscape:window-maximized="1"
     inkscape:window-y="27"
     inkscape:window-x="0"
     inkscape:cy="13.371356"
     inkscape:cx="11.79714"
     inkscape:zoom="27.65008"
     showgrid="true"
     id="namedview233"
     inkscape:window-height="1022"
     inkscape:window-width="1920"
     inkscape:pageshadow="2"
     inkscape:pageopacity="0"
     guidetolerance="10"
     gridtolerance="10"
     objecttolerance="10"
     borderopacity="1"
     bordercolor="#666666"
     pagecolor="#ffffff">
    <inkscape:grid
       id="grid1058"
       type="xygrid" />
  </sodipodi:namedview>
  <metadata
     id="metadata4963">
    <rdf:RDF>
      <cc:Work
         rdf:about="">
        <dc:format>image/svg+xml</dc:format>
        <dc:type
           rdf:resource="http://purl.org/dc/dcmitype/StillImage" />
        <dc:title></dc:title>
      </cc:Work>
    </rdf:RDF>
  </metadata>
  <defs
     id="defs4647">
    <linearGradient
       x1="84.162506"
       y1="-3.6041653"
       x2="91.017914"
       y2="41.136391"
       id="f"
       gradientTransform="matrix(0.17764894,0,0,0.37475997,1.676638,1.3989467)"
       gradientUnits="userSpaceOnUse">
      <stop
         stop-color="#AAF2FF"
         offset="0%"
         id="stop4518" />
      <stop
         stop-color="#0DF"
         offset="29%"
         id="stop4520" />
      <stop
         stop-color="#0090ED"
         offset="61%"
         id="stop4522" />
      <stop
         stop-color="#0250BB"
         offset="89%"
         id="stop4524" />
    </linearGradient>
    <linearGradient
       x1="59.666759"
       y1="0.0084456606"
       x2="65.72345"
       y2="30.049629"
       id="g"
       gradientTransform="matrix(0.19810655,0,0,0.3360601,1.676638,1.3989467)"
       gradientUnits="userSpaceOnUse">
      <stop
         stop-color="#AAF2FF"
         offset="0%"
         id="stop4527" />
      <stop
         stop-color="#0DF"
         offset="29%"
         id="stop4529" />
      <stop
         stop-color="#0090ED"
         offset="74%"
         id="stop4531" />
      <stop
         stop-color="#0250BB"
         offset="100%"
         id="stop4533" />
    </linearGradient>
    <linearGradient
       x1="68.991951"
       y1="11.815484"
       x2="17.021517"
       y2="66.148209"
       id="k"
       gradientTransform="matrix(0.25398902,0,0,0.26212043,1.676638,1.3989467)"
       gradientUnits="userSpaceOnUse">
      <stop
         stop-color="#80EBFF"
         stop-opacity=".5"
         offset="24%"
         id="stop4536" />
      <stop
         stop-color="#0DF"
         stop-opacity="0"
         offset="70%"
         id="stop4538" />
    </linearGradient>
    <linearGradient
       x1="32.206059"
       y1="33.089981"
       x2="25.120728"
       y2="60.567245"
       id="l"
       gradientTransform="matrix(0.26584194,0,0,0.25043342,1.676638,1.3989467)"
       gradientUnits="userSpaceOnUse">
      <stop
         stop-color="#BFF3FF"
         stop-opacity=".9"
         offset="0%"
         id="stop4541" />
      <stop
         stop-color="#80EBFF"
         stop-opacity=".5"
         offset="100%"
         id="stop4543" />
    </linearGradient>
    <linearGradient
       x1="95.009483"
       y1="-0.82379484"
       x2="93.769226"
       y2="57.467999"
       id="m"
       gradientTransform="matrix(0.16583572,0,0,0.40145577,1.676638,1.3989467)"
       gradientUnits="userSpaceOnUse">
      <stop
         stop-color="#BFF3FF"
         offset="0%"
         id="stop4546" />
      <stop
         stop-color="#0DF"
         stop-opacity="0"
         offset="100%"
         id="stop4548" />
    </linearGradient>
    <linearGradient
       x1="56.13681"
       y1="-0.63725394"
       x2="55.329029"
       y2="23.111471"
       id="n"
       gradientTransform="matrix(0.21040331,0,0,0.31641949,1.676638,1.3989467)"
       gradientUnits="userSpaceOnUse">
      <stop
         stop-color="#BFF3FF"
         offset="0%"
         id="stop4551" />
      <stop
         stop-color="#AAF2FF"
         stop-opacity=".5"
         offset="100%"
         id="stop4553" />
    </linearGradient>
    <linearGradient
       x1="58.332546"
       y1="25.308983"
       x2="56.715939"
       y2="64.10762"
       id="o"
       gradientTransform="matrix(0.22998742,0,0,0.28947542,1.676638,1.3989467)"
       gradientUnits="userSpaceOnUse">
      <stop
         stop-color="#BFF3FF"
         offset="0%"
         id="stop4556" />
      <stop
         stop-color="#0DF"
         stop-opacity="0"
         offset="100%"
         id="stop4558" />
    </linearGradient>
    <linearGradient
       x1="23.729013"
       y1="33.093102"
       x2="25.866491"
       y2="66.491219"
       id="p"
       gradientTransform="matrix(0.27415491,0,0,0.24283974,1.676638,1.3989467)"
       gradientUnits="userSpaceOnUse">
      <stop
         stop-color="#BFF3FF"
         stop-opacity=".8"
         offset="0%"
         id="stop4561" />
      <stop
         stop-color="#80EBFF"
         stop-opacity=".2"
         offset="100%"
         id="stop4563" />
    </linearGradient>
    <linearGradient
       x1="29.194855"
       y1="12.974803"
       x2="20.563929"
       y2="26.988457"
       id="q"
       gradientTransform="matrix(0.2528079,0,0,0.26334505,1.676638,1.3989467)"
       gradientUnits="userSpaceOnUse">
      <stop
         stop-color="#BFF3FF"
         stop-opacity=".8"
         offset="0%"
         id="stop4566" />
      <stop
         stop-color="#80EBFF"
         stop-opacity=".2"
         offset="100%"
         id="stop4568" />
    </linearGradient>
    <linearGradient
       x1="18.502363"
       y1="29.405516"
       x2="16.874853"
       y2="74.324791"
       id="r"
       gradientTransform="matrix(0.20641688,0,0,0.32253035,1.676638,1.3989467)"
       gradientUnits="userSpaceOnUse">
      <stop
         stop-color="#0DF"
         stop-opacity=".4"
         offset="0%"
         id="stop4571" />
      <stop
         stop-color="#0DF"
         stop-opacity="0"
         offset="100%"
         id="stop4573" />
    </linearGradient>
    <linearGradient
       x1="25.577993"
       y1="4.5553231"
       x2="25.577993"
       y2="57.36784"
       id="s"
       gradientTransform="matrix(0.20507527,0,0,0.32464036,1.676638,1.3989467)"
       gradientUnits="userSpaceOnUse">
      <stop
         stop-color="#BFF3FF"
         offset="0%"
         id="stop4576" />
      <stop
         stop-color="#0DF"
         stop-opacity="0"
         offset="100%"
         id="stop4578" />
    </linearGradient>
    <linearGradient
       x1="68.298668"
       y1="12.77847"
       x2="65.108376"
       y2="89.877266"
       id="t"
       gradientTransform="matrix(0.21785241,0,0,0.30560006,1.676638,1.3989467)"
       gradientUnits="userSpaceOnUse">
      <stop
         stop-color="#BFF3FF"
         stop-opacity=".8"
         offset="0%"
         id="stop4581" />
      <stop
         stop-color="#0DF"
         stop-opacity="0"
         offset="100%"
         id="stop4583" />
    </linearGradient>
    <linearGradient
       x1="-0.1"
       y1="0.66000003"
       x2="1.1"
       y2="0.33000001"
       id="u">
      <stop
         offset="0"
         stop-color="#0250bb"
         id="stop4586" />
      <stop
         offset=".123"
         stop-color="#024eb6"
         id="stop4588" />
      <stop
         offset="1"
         stop-color="#054096"
         id="stop4590" />
    </linearGradient>
    <radialGradient
       cx="42.067257"
       cy="30.945194"
       r="22.6548"
       id="a"
       gradientTransform="matrix(0.25809104,0,0,0.25795436,1.676638,1.3989467)"
       fx="42.067257"
       fy="30.945194"
       gradientUnits="userSpaceOnUse">
      <stop
         stop-color="#0DF"
         stop-opacity=".4"
         offset="10%"
         id="stop4593" />
      <stop
         stop-color="#7542E5"
         stop-opacity=".25"
         offset="90%"
         id="stop4595" />
    </radialGradient>
    <radialGradient
       cx="39.89164"
       cy="41.40416"
       fx="39.801777"
       fy="41.40416"
       r="19.256578"
       id="b"
       gradientTransform="matrix(0.25809104,0,0,0.25795436,1.676638,1.3989467)"
       gradientUnits="userSpaceOnUse">
      <stop
         stop-color="#7542E5"
         stop-opacity="0"
         offset="91%"
         id="stop4598" />
      <stop
         stop-color="#0DF"
         stop-opacity=".4"
         offset="100%"
         id="stop4600" />
    </radialGradient>
    <radialGradient
       cx="61.200493"
       cy="9.810463"
       fx="61.200493"
       fy="9.810463"
       r="89.403168"
       gradientTransform="matrix(0.28632853,0,0,0.23251511,1.676638,1.3989467)"
       id="c"
       gradientUnits="userSpaceOnUse">
      <stop
         stop-color="#80EBFF"
         offset="0%"
         id="stop4603" />
      <stop
         stop-color="#0DF"
         offset="26%"
         id="stop4605" />
      <stop
         stop-color="#0090ED"
         offset="53%"
         id="stop4607" />
      <stop
         stop-color="#0060DF"
         offset="86%"
         id="stop4609" />
    </radialGradient>
    <radialGradient
       cx="34.469643"
       cy="46.828964"
       fx="34.658924"
       fy="46.828964"
       r="89.403168"
       gradientTransform="matrix(0.28632853,0,0,0.23251511,1.676638,1.3989467)"
       id="d"
       gradientUnits="userSpaceOnUse">
      <stop
         stop-color="#321C64"
         stop-opacity=".8"
         offset="30%"
         id="stop4612" />
      <stop
         stop-color="#212F83"
         stop-opacity=".5"
         offset="37%"
         id="stop4614" />
      <stop
         stop-color="#0A47AC"
         stop-opacity=".14"
         offset="48%"
         id="stop4616" />
      <stop
         stop-color="#0250BB"
         stop-opacity="0"
         offset="53%"
         id="stop4618" />
    </radialGradient>
    <radialGradient
       cx="61.191902"
       cy="-19.160242"
       r="139.74019"
       gradientTransform="matrix(0.28174713,0,0,0.23629596,1.676638,1.3989467)"
       id="e"
       fx="61.191902"
       fy="-19.160242"
       gradientUnits="userSpaceOnUse">
      <stop
         stop-color="#80EBFF"
         offset="0%"
         id="stop4621" />
      <stop
         stop-color="#00B3F4"
         offset="47%"
         id="stop4623" />
      <stop
         stop-color="#0060DF"
         offset="84%"
         id="stop4625" />
      <stop
         stop-color="#592ACB"
         offset="100%"
         id="stop4627" />
    </radialGradient>
    <radialGradient
       cx="37.300232"
       cy="5.5633535"
       fx="37.300232"
       fy="5.5633535"
       r="28.381479"
       gradientTransform="matrix(0.25770923,0,0,0.25833652,1.676638,1.3989467)"
       id="h"
       gradientUnits="userSpaceOnUse">
      <stop
         stop-color="#0DF"
         offset="0%"
         id="stop4630" />
      <stop
         stop-color="#0090ED"
         offset="82%"
         id="stop4632" />
    </radialGradient>
    <radialGradient
       cx="52.950813"
       cy="21.181152"
       fx="52.950813"
       fy="21.181152"
       r="85.359634"
       gradientTransform="matrix(0.27280644,0,0,0.24404011,1.676638,1.3989467)"
       id="i"
       gradientUnits="userSpaceOnUse">
      <stop
         stop-color="#80EBFF"
         offset="29%"
         id="stop4635" />
      <stop
         stop-color="#00B3F4"
         offset="100%"
         id="stop4637" />
    </radialGradient>
    <radialGradient
       cx="36.138844"
       cy="15.884185"
       fx="36.138844"
       fy="15.884185"
       r="71.746956"
       gradientTransform="matrix(0.26060872,0,0,0.25546232,1.676638,1.3989467)"
       id="j"
       gradientUnits="userSpaceOnUse">
      <stop
         stop-color="#AAF2FF"
         offset="18%"
         id="stop4640" />
      <stop
         stop-color="#0DF"
         offset="43%"
         id="stop4642" />
      <stop
         stop-color="#0060DF"
         offset="69%"
         id="stop4644" />
    </radialGradient>
  </defs>
  <path
     d="m 7.446283,13.430288 0.630091,1.746813 0.946686,1.277471 2.222607,0.424189 1.063312,0.09031 1.815447,-0.453604 0.782067,-0.749556 z"
     id="path4649"
     style="fill:#09204d;stroke-width:0.258023" />
  <path
     d="m 16.853016,10.853415 -0.222673,-0.738461 -0.636284,-1.2008384 -0.727882,-0.767359 -0.772778,-0.551911 -0.670859,-0.263183 -0.805031,-0.286405 -1.325463,-0.08437 -0.835993,0.150685 -0.681954,0.209772 -1.210126,0.708273 -0.756265,0.843992 -0.697435,1.1327194 -0.274278,0.963973 -0.05135,1.462731 0.261635,0.997258 0.576939,1.135299 0.406644,0.548299 0.562747,0.516045 0.702596,0.475278 0.86644,0.376971 1.44983,0.170037 0.757296,0.02116 1.120335,-0.315562 1.001644,-0.549846 0.644282,-0.549847 0.49979,-0.596032 0.706467,-1.383002 0.155845,-0.946169 z"
     id="path4651"
     style="fill:#09204d;stroke-width:0.258023" />
  <path
     d="m 11.716301,7.6255506 -0.593711,0.588808 0.96836,0.39271 0.720399,-0.893532 z"
     id="path4653"
     style="fill:#0e56d7;stroke-width:0.258023" />
  <path
     d="m 12.09095,8.6070686 1.874792,-0.05702 -1.154393,-0.836509 z"
     id="path4655"
     style="fill:#1053d1;stroke-width:0.258023" />
  <path
     d="m 13.82641,7.7073436 -1.015061,0.0062 1.154393,0.836509 1.06744,-0.06967 z"
     id="path4657"
     style="fill:#0b4fbf;stroke-width:0.258023" />
  <path
     d="m 15.033182,8.4803796 -0.606869,-0.836767 0.839864,0.503144 z"
     id="path4659"
     style="fill:#0b48b0;stroke-width:0.258023" />
  <path
     d="m 15.836665,8.9928126 -0.803483,-0.512433 0.232995,-0.333623 z"
     id="path4661"
     style="fill:#0c45a7;stroke-width:0.258023" />
  <path
     d="m 15.033182,8.4803796 -0.13443,0.573327 0.734849,0.293887 z"
     id="path4663"
     style="fill:#0f46af;stroke-width:0.258023" />
  <path
     d="m 15.033182,8.4803796 0.803483,0.512433 -0.203064,0.354781 z"
     id="path4665"
     style="fill:#0c47ad;stroke-width:0.258023" />
  <path
     d="m 13.965742,8.5500456 1.06744,-0.06967 -0.13443,0.573327 z"
     id="path4667"
     style="fill:#0e4fc3;stroke-width:0.258023" />
  <path
     d="m 13.965742,8.5500456 -0.843476,0.763748 1.085502,0.531526 z"
     id="path4669"
     style="fill:#174dca;stroke-width:0.258023" />
  <path
     d="m 12.09095,8.6070686 1.874792,-0.05702 -0.843476,0.763748 z"
     id="path4671"
     style="fill:#1650d4;stroke-width:0.258023" />
  <path
     d="m 14.898752,9.0537066 0.510369,0.9902914 0.22448,-0.6964044 z"
     id="path4673"
     style="fill:#1246b2;stroke-width:0.258023" />
  <path
     d="m 15.409121,10.043998 0.22448,-0.6964044 0.534881,1.2720524 z"
     id="path4675"
     style="fill:#133ea1;stroke-width:0.258023" />
  <path
     d="m 15.633601,9.3475936 0.815094,0.597065 -0.280213,0.6749874 z"
     id="path4677"
     style="fill:#103d98;stroke-width:0.258023" />
  <path
     d="m 15.836665,8.9928126 0.157394,-0.0787 0.454636,1.030543 z"
     id="path4679"
     style="fill:#0b3785;stroke-width:0.258023" />
  <path
     d="M 16.448695,9.9446586 16.630343,10.114954 15.994059,8.9141156 Z"
     id="path4681"
     style="fill:#0b3685;stroke-width:0.258023" />
  <path
     d="m 16.448695,9.9446586 -0.61203,-0.951846 -0.203064,0.354781 z m -1.182518,-1.797902 0.570488,0.846056 0.157394,-0.07741 z"
     id="path4683"
     style="fill:#0c3b91;stroke-width:0.258023" />
  <path
     d="m 16.811991,11.430354 -0.181648,-1.3154 0.222673,0.738461 -0.04386,0.576939 z"
     id="path4685"
     style="fill:#0b3279;stroke-width:0.258023" />
  <path
     d="m 16.448695,9.9446586 0.363296,1.4856954 -0.181648,-1.3154 z"
     id="path4687"
     style="fill:#0f388d;stroke-width:0.258023" />
  <path
     d="m 16.168482,10.619646 0.643509,0.810708 -0.363296,-1.4856954 z"
     id="path4689"
     style="fill:#0d3481;stroke-width:0.258023" />
  <path
     d="m 16.809152,11.430354 0.04386,-0.576939 0.04412,1.479502 -0.08515,-0.902563 z"
     id="path4691"
     style="fill:#0b2e71;stroke-width:0.258023" />
  <path
     d="m 16.704137,12.599712 0.193001,-0.266795 -0.08515,-0.902563 z"
     id="path4693"
     style="fill:#0e2f77;stroke-width:0.258023" />
  <path
     d="m 16.741293,13.279086 -0.154298,0.07431 0.310143,-1.02048 z"
     id="path4695"
     style="fill:#0e2969;stroke-width:0.258023" />
  <path
     d="m 16.586995,13.353397 0.310143,-1.02048 -0.193001,0.266795 z"
     id="path4697"
     style="fill:#0c2a69;stroke-width:0.258023" />
  <path
     d="m 16.704137,12.599712 0.107854,-1.169358 -0.330527,0.389872 z"
     id="path4699"
     style="fill:#123180;stroke-width:0.258023" />
  <path
     d="m 16.586995,13.353397 0.117142,-0.753685 -0.637574,1.071569 z"
     id="path4701"
     style="fill:#112b70;stroke-width:0.258023" />
  <path
     d="m 16.168482,10.619646 0.643509,0.810708 -0.330527,0.389872 z"
     id="path4703"
     style="fill:#12378c;stroke-width:0.258023" />
  <path
     d="M 16.704137,12.599712 16.481464,11.820226 16.14526,12.78007 Z"
     id="path4705"
     style="fill:#122e7b;stroke-width:0.258023" />
  <path
     d="m 16.034826,14.662088 0.552169,-1.308691 -0.516561,0.95391 z"
     id="path4707"
     style="fill:#11296c;stroke-width:0.258023" />
  <path
     d="m 16.070434,14.307307 0.516561,-0.95391 -0.520432,0.317884 z"
     id="path4709"
     style="fill:#142a72;stroke-width:0.258023" />
  <path
     d="m 16.586995,13.353397 -0.552169,1.307917 0.706467,-1.383002 z m -1.051701,1.904723 0.499532,-0.596032 0.03561,-0.354781 z m -0.645056,0.549847 0.645056,-0.549847 -0.681179,0.31324 z"
     id="path4711"
     style="fill:#112768;stroke-width:0.258023" />
  <path
     d="m 11.129815,16.190872 -0.650991,0.159458 0.01987,-0.454636 z"
     id="path4713"
     style="fill:#1c226a;stroke-width:0.258023" />
  <path
     d="M 7.510273,10.006326 7.689856,9.9397556 7.235995,10.970298 Z"
     id="path4715"
     style="fill:#182b7a;stroke-width:0.258023" />
  <path
     d="M 7.235995,10.970299 7.579681,10.906309 7.689856,9.9397556 Z"
     id="path4717"
     style="fill:#1f308d;stroke-width:0.258023" />
  <path
     d="m 7.256636,12.208034 -0.02064,-1.237735 0.343686,-0.06399 z"
     id="path4719"
     style="fill:#1e2b7f;stroke-width:0.258023" />
  <path
     d="m 14.898752,9.0537066 -0.690984,0.791613 1.201353,0.1986784 z M 8.869278,8.2419666 9.7512,7.6384516 8.963973,8.0301306 Z"
     id="path4721"
     style="fill:#1346b5;stroke-width:0.258023" />
  <path
     d="M 8.963973,8.0296146 10.174099,7.3213416 9.7512,7.6384516 8.963973,8.0296146"
     id="path4723"
     style="fill:#1244ac;stroke-width:0.258023" />
  <path
     d="m 9.7512,7.6384516 1.104853,-0.526882 -0.681954,0.209772 z"
     id="path4725"
     style="fill:#0e4ab6;stroke-width:0.258023" />
  <path
     d="m 13.965742,8.5500456 0.242026,1.295274 0.690984,-0.791613 z m -3.542135,-0.973003 1.02951,-0.412837 -0.59758,-0.05367 z"
     id="path4727"
     style="fill:#0e4bba;stroke-width:0.258023" />
  <path
     d="m 11.692046,6.9608846 -0.835993,0.150685 0.59758,0.05367 z"
     id="path4729"
     style="fill:#0a4ebc;stroke-width:0.258023" />
  <path
     d="m 12.482628,7.1551756 -1.028995,0.01006 0.238413,-0.204354"
     id="path4731"
     style="fill:#0c54cc;stroke-width:0.258023" />
  <path
     d="m 14.426313,7.6430966 -0.599903,0.06373 1.206772,0.774068 z m -1.943685,-0.487921 1.339912,0.176487 -0.805031,-0.286405 z"
     id="path4733"
     style="fill:#0b4bb4;stroke-width:0.258023" />
  <path
     d="m 14.426313,7.6436126 -0.603773,-0.31195 0.670859,0.263183 z"
     id="path4735"
     style="fill:#0c3889;stroke-width:0.258023" />
  <path
     d="M 7.446283,13.430288 7.84338,13.75617 7.257668,12.208034 Z m 5.467243,3.078984 0.348331,-0.819996 -1.269214,0.340848 z m 0.348331,-0.819996 1.060989,0.294404 0.06425,-0.820512 z"
     id="path4737"
     style="fill:#202575;stroke-width:0.258023" />
  <path
     d="m 14.854115,15.57136 -0.467022,-0.408192 1.128334,-0.749814 z"
     id="path4739"
     style="fill:#1b2773;stroke-width:0.258023" />
  <path
     d="m 15.515427,14.413354 -0.661312,1.158006 0.681179,-0.31324 0.53514,-0.950813 z"
     id="path4741"
     style="fill:#15276d;stroke-width:0.258023" />
  <path
     d="m 14.493399,7.5948456 -0.06709,0.04877 0.839864,0.503144 z m -0.666989,0.112498 0.599903,-0.06373 -0.603773,-0.31195 z"
     id="path4743"
     style="fill:#0c409d;stroke-width:0.258023" />
  <path
     d="m 11.692046,6.9608846 0.790582,0.194291 0.534881,-0.109918 z m 2.130494,0.370778 -1.339912,-0.176487 1.343782,0.552168 z"
     id="path4745"
     style="fill:#0b4cb7;stroke-width:0.258023" />
  <path
     d="m 12.482628,7.1551756 0.328721,0.558361 1.015061,-0.0062 z"
     id="path4747"
     style="fill:#0b55ce;stroke-width:0.258023" />
  <path
     d="m 12.482628,7.1551756 0.328721,0.558361 -1.095048,-0.08799 z"
     id="path4749"
     style="fill:#0a52c5;stroke-width:0.258023" />
  <path
     d="m 11.453633,7.1652386 0.262668,0.460312 0.766327,-0.470375 z"
     id="path4751"
     style="fill:#0951c4;stroke-width:0.258023" />
  <path
     d="m 10.424123,7.5770426 1.02951,-0.411804 0.262668,0.460312 z"
     id="path4753"
     style="fill:#0b50c4;stroke-width:0.258023" />
  <path
     d="m 9.7512,7.6384516 0.672923,-0.06141 0.43193,-0.464441 z m 0.672923,-0.06141 0.698467,0.637316 0.593453,-0.588808 z"
     id="path4755"
     style="fill:#0f4dbf;stroke-width:0.258023" />
  <path
     d="M 10.424123,7.5770426 9.287017,8.6434506 9.7512,7.6384516 Z"
     id="path4757"
     style="fill:#1546b6;stroke-width:0.258023" />
  <path
     d="m 9.287017,8.6434506 0.72556,0.120496 0.411546,-1.186904 z"
     id="path4759"
     style="fill:#1549bd;stroke-width:0.258023" />
  <path
     d="m 10.012577,8.7639466 0.411546,-1.186904 0.698467,0.637316 z"
     id="path4761"
     style="fill:#144bc3;stroke-width:0.258023" />
  <path
     d="m 8.207708,8.8736066 0.04412,0.428834 0.617448,-1.060474 z"
     id="path4763"
     style="fill:#173794;stroke-width:0.258023" />
  <path
     d="m 7.689856,9.9397566 0.517852,-1.06615 0.04412,0.428834 z"
     id="path4765"
     style="fill:#192f84;stroke-width:0.258023" />
  <path
     d="m 8.25183,9.3024406 0.617448,-1.060474 0.417739,0.401484 z"
     id="path4767"
     style="fill:#1a389b;stroke-width:0.258023" />
  <path
     d="M 8.214417,10.222033 8.251827,9.3024406 7.689853,9.9397566 Z"
     id="path4769"
     style="fill:#1d3089;stroke-width:0.258023" />
  <path
     d="m 8.214417,10.222033 0.03741,-0.9195924 0.72943,0.592162 z"
     id="path4771"
     style="fill:#1e389f;stroke-width:0.258023" />
  <path
     d="M 8.98126,9.8946026 9.287017,8.6434506 8.25183,9.3024406 Z"
     id="path4773"
     style="fill:#1c40af;stroke-width:0.258023" />
  <path
     d="m 8.98126,9.8946026 0.305757,-1.251152 0.72556,0.120496 z"
     id="path4775"
     style="fill:#1e41b7;stroke-width:0.258023" />
  <path
     d="M 7.579681,10.90631 7.689856,9.9397566 8.214417,10.222033 Z"
     id="path4777"
     style="fill:#192c7d;stroke-width:0.258023" />
  <path
     d="M 12.913526,16.509272 13.88911,16.357813 14.322846,15.98368 Z M 7.185422,12.432514 7.257412,12.207518 7.236772,10.969009 Z M 7.580455,10.905794 7.25741,12.207518 7.843122,13.755654 7.556459,11.962396 Z"
     id="path4779"
     style="fill:#162467;stroke-width:0.258023" />
  <path
     d="M 7.842348,13.75617 8.325624,13.82403 7.987099,13.033965 Z"
     id="path4781"
     style="fill:#1a236a;stroke-width:0.258023" />
  <path
     d="m 14.854115,15.57136 -0.531269,0.412836 -0.433736,0.374133 1.001644,-0.549846 z m -2.842636,1.080857 0.757296,0.02116 1.120335,-0.315562 -0.975584,0.151459 z M 8.293372,14.654605 8.80116,14.752135 8.325624,13.823253 Z"
     id="path4783"
     style="fill:#132668;stroke-width:0.258023" />
  <path
     d="M 10.498691,15.895694 9.638702,15.233608 9.28134,15.577552 10.478824,16.35033 Z M 7.446283,13.430288 8.023222,14.565587 7.842606,13.75617 Z M 7.184648,12.43303 7.446283,13.430288 7.256636,12.208034 Z m 4.807995,3.597094 -1.493952,-0.13443 0.631124,0.295178 -0.650991,0.159458 -0.783615,-0.244089 0.86644,0.376971 1.44983,0.170037 0.903079,-0.142945 z M 8.325624,13.82403 7.84338,13.75617 8.294404,14.654605 Z M 7.556459,11.962396 7.84338,13.75617 7.988131,13.033707 Z m 1.244701,2.789742 -0.507788,-0.09753 -0.269376,-0.08902 0.406644,0.548299 0.562747,0.516045 0.701822,0.47631 -0.412836,-0.527657 z"
     id="path4785"
     style="fill:#1b2268;stroke-width:0.258023" />
  <path
     d="m 7.579681,10.90631 0.681954,1.055054 -0.04722,-1.739331 z"
     id="path4787"
     style="fill:#212a81;stroke-width:0.258023" />
  <path
     d="m 7.556459,11.962396 0.43064,1.071569 0.274536,-1.072601 z"
     id="path4789"
     style="fill:#21267a;stroke-width:0.258023" />
  <path
     d="m 7.987099,13.033965 0.274536,-1.072601 0.340848,0.847605 z"
     id="path4791"
     style="fill:#262781;stroke-width:0.258023" />
  <path
     d="m 8.325624,13.82403 1.307659,0.810449 -1.0308,-1.82551 z"
     id="path4793"
     style="fill:#272379;stroke-width:0.258023" />
  <path
     d="m 8.023996,14.565587 0.27015,0.08902 -0.450766,-0.898435 z m 2.888306,0.466247 -0.412836,0.86386 1.493951,0.13443 z M 8.325624,13.82403 8.80116,14.752912 9.28134,15.578584 9.638702,15.23464 9.633302,14.635512 Z"
     id="path4795"
     style="fill:#1e226d;stroke-width:0.258023" />
  <path
     d="m 14.387093,15.163168 -0.06425,0.820512 0.531269,-0.412836 z m -2.286339,-0.117916 -0.108627,0.984872 1.26973,-0.340848 -0.04515,-1.107175 z"
     id="path4797"
     style="fill:#222475;stroke-width:0.258023" />
  <path
     d="M 7.556459,11.962396 H 8.261635 L 7.579681,10.907342 Z m 5.660244,2.619705 0.04515,1.107175 1.125236,-0.526108 z"
     id="path4799"
     style="fill:#23277d;stroke-width:0.258023" />
  <path
     d="m 13.216703,14.582101 0.724269,-0.655894 0.446121,1.236961 z"
     id="path4801"
     style="fill:#1e2776;stroke-width:0.258023" />
  <path
     d="m 14.387093,15.163168 0.547525,-1.658312 -0.993646,0.421351 z"
     id="path4803"
     style="fill:#222b86;stroke-width:0.258023" />
  <path
     d="m 15.515427,14.413354 -1.128334,0.749814 0.547525,-1.658312 z"
     id="path4805"
     style="fill:#192974;stroke-width:0.258023" />
  <path
     d="m 16.066563,13.671281 -1.131945,-0.166425 0.580809,0.908498 0.555007,-0.106047 z"
     id="path4807"
     style="fill:#172a75;stroke-width:0.258023" />
  <path
     d="m 16.14526,12.78007 -1.210642,0.724786 1.131945,0.166425 0.637574,-1.071827 z"
     id="path4809"
     style="fill:#172d7d;stroke-width:0.258023" />
  <path
     d="m 7.689856,9.9394986 0.517852,-1.06615 -0.696661,1.1327194 z m 8.003864,1.3197864 0.45154,1.520527 0.33543,-0.959844 z"
     id="path4811"
     style="fill:#18338a;stroke-width:0.258023" />
  <path
     d="m 16.481464,11.820226 -0.312982,-1.20058 -0.474762,0.639897 z"
     id="path4813"
     style="fill:#153791;stroke-width:0.258023" />
  <path
     d="M 14.934618,13.504856 16.14526,12.78007 14.972031,12.257832 Z"
     id="path4815"
     style="fill:#1b318b;stroke-width:0.258023" />
  <path
     d="m 14.934618,13.504856 -1.097113,-1.108465 0.103467,1.529816 z"
     id="path4817"
     style="fill:#242d8d;stroke-width:0.258023" />
  <path
     d="m 13.216703,14.582101 -0.842445,-0.745944 1.566714,0.09005 z"
     id="path4819"
     style="fill:#2a2b8f;stroke-width:0.258023" />
  <path
     d="m 8.325624,13.82403 0.276859,-1.015061 -0.615384,0.224996 z m 4.048634,0.01161 -0.273504,1.209611 1.115432,-0.463151 z"
     id="path4821"
     style="fill:#27267f;stroke-width:0.258023" />
  <path
     d="m 10.630541,14.083601 -0.810707,-0.41232 -0.186551,0.963198 1.278245,0.397355 1.189742,0.01342 z"
     id="path4823"
     style="fill:#2d2381;stroke-width:0.258023" />
  <path
     d="m 12.10127,15.045252 0.272988,-1.209095 -1.743717,0.247444 z"
     id="path4825"
     style="fill:#2f2485;stroke-width:0.258023" />
  <path
     d="M 8.261635,11.961364 8.611255,10.844642 8.214417,10.222033 Z"
     id="path4827"
     style="fill:#233196;stroke-width:0.258023" />
  <path
     d="M 8.98126,9.8946026 10.516495,9.4471906 9.70553,11.103955 Z"
     id="path4829"
     style="fill:#293cb7;stroke-width:0.258023" />
  <path
     d="m 14.934618,13.504856 -1.097113,-1.108465 1.134526,-0.138559 z"
     id="path4831"
     style="fill:#25339c;stroke-width:0.258023" />
  <path
     d="m 16.14526,12.78007 -0.45154,-1.520527 -0.721689,0.998289 z"
     id="path4833"
     style="fill:#19348f;stroke-width:0.258023" />
  <path
     d="m 13.940972,13.926207 -1.254764,-1.213223 1.151297,-0.316593 z"
     id="path4835"
     style="fill:#2a309a;stroke-width:0.258023" />
  <path
     d="m 12.374258,13.836157 1.566714,0.09005 -1.254764,-1.213223 z"
     id="path4837"
     style="fill:#302b96;stroke-width:0.258023" />
  <path
     d="m 12.374258,13.836157 -0.857925,-0.698725 1.169875,-0.424448 z"
     id="path4839"
     style="fill:#3630a7;stroke-width:0.258023" />
  <path
     d="m 8.869278,8.2419666 0.0947,-0.212352 -0.756265,0.843992 z m 6.539843,1.8020314 0.283825,1.215545 0.474762,-0.639897 z"
     id="path4841"
     style="fill:#173da2;stroke-width:0.258023" />
  <path
     d="M 8.98126,9.8946026 9.70553,11.103955 8.611255,10.844642 Z"
     id="path4843"
     style="fill:#2a36a8;stroke-width:0.258023" />
  <path
     d="M 8.611255,10.844642 9.70553,11.103955 8.965521,12.269443 Z"
     id="path4845"
     style="fill:#312e9f;stroke-width:0.258023" />
  <path
     d="m 10.516495,9.4471906 0.606095,-1.232832 -1.110013,0.549588 z"
     id="path4847"
     style="fill:#184dcd;stroke-width:0.258023" />
  <path
     d="m 8.261635,11.961364 0.703886,0.308079 -0.363038,0.539526 z"
     id="path4849"
     style="fill:#272986;stroke-width:0.258023" />
  <path
     d="m 8.965521,12.269443 -0.363038,0.539526 1.0308,1.82551 0.186551,-0.963198 z"
     id="path4851"
     style="fill:#2c2584;stroke-width:0.258023" />
  <path
     d="M 9.819834,13.671281 9.93388,11.975298 8.965521,12.269443 Z"
     id="path4853"
     style="fill:#32268b;stroke-width:0.258023" />
  <path
     d="M 9.819834,13.671281 11.516333,13.137432 9.93388,11.975298 Z"
     id="path4855"
     style="fill:#372999;stroke-width:0.258023" />
  <path
     d="M 11.516333,13.137432 11.35094,11.82616 9.93388,11.975298 Z"
     id="path4857"
     style="fill:#392da5;stroke-width:0.258023" />
  <path
     d="m 11.35094,11.82616 1.19671,-0.447411 0.138558,1.334235 z"
     id="path4859"
     style="fill:#3338bc;stroke-width:0.258023" />
  <path
     d="m 10.630541,14.083601 1.743717,-0.247444 -0.857925,-0.698725 z"
     id="path4861"
     style="fill:#362896;stroke-width:0.258023" />
  <path
     d="m 10.630541,14.083601 -0.810707,-0.41232 1.696499,-0.533849 z"
     id="path4863"
     style="fill:#35268f;stroke-width:0.258023" />
  <path
     d="m 10.516495,9.4471906 1.039057,0.109918 -0.432962,-1.34275 z"
     id="path4865"
     style="fill:#2648d3;stroke-width:0.258023" />
  <path
     d="m 12.09095,8.6070686 -0.96836,-0.39271 0.432962,1.34275 z"
     id="path4867"
     style="fill:#1057dc;stroke-width:0.258023" />
  <path
     d="m 12.09095,8.6070686 1.031316,0.706725 -1.566714,0.243315 z"
     id="path4869"
     style="fill:#1653da;stroke-width:0.258023" />
  <path
     d="m 11.555552,9.5571086 1.536784,0.8150944 -0.544686,1.006546 z"
     id="path4871"
     style="fill:#2b46d5;stroke-width:0.258023" />
  <path
     d="m 13.092336,10.372203 0.02993,-1.0584094 -1.566714,0.243315 z"
     id="path4873"
     style="fill:#244ad7;stroke-width:0.258023" />
  <path
     d="m 13.092336,10.372203 0.02993,-1.0584094 1.085502,0.531526 z"
     id="path4875"
     style="fill:#2547cf;stroke-width:0.258023" />
  <path
     d="M 11.555552,9.5571086 12.54765,11.378749 10.807803,10.507148 Z"
     id="path4877"
     style="fill:#333cc5;stroke-width:0.258023" />
  <path
     d="m 11.35094,11.82616 1.19671,-0.447411 -1.739847,-0.871601 z"
     id="path4879"
     style="fill:#3833b6;stroke-width:0.258023" />
  <path
     d="m 12.54765,11.378749 1.534461,-0.280471 -0.989775,-0.726075 z"
     id="path4881"
     style="fill:#2a41c6;stroke-width:0.258023" />
  <path
     d="M 14.207768,9.8453196 14.082111,11.098278 13.092336,10.372203 Z"
     id="path4883"
     style="fill:#2045c1;stroke-width:0.258023" />
  <path
     d="m 14.207768,9.8453196 0.724269,0.9838414 -0.849926,0.269117 z"
     id="path4885"
     style="fill:#1b43b7;stroke-width:0.258023" />
  <path
     d="M 15.409121,10.043998 14.207768,9.8453196 14.932037,10.829161 Z"
     id="path4887"
     style="fill:#1742af;stroke-width:0.258023" />
  <path
     d="m 9.288307,8.6434506 0.464441,-1.006289 -0.881922,0.603515 z m 6.122104,1.4005474 -0.477083,0.785163 0.761682,0.430382 z"
     id="path4889"
     style="fill:#1740a9;stroke-width:0.258023" />
  <path
     d="M 14.972031,12.257832 15.69372,11.259543 14.932037,10.829161 Z"
     id="path4891"
     style="fill:#1b3ca4;stroke-width:0.258023" />
  <path
     d="m 14.972031,12.257832 -0.03999,-1.428671 -0.849926,0.269117 z"
     id="path4893"
     style="fill:#1f3dad;stroke-width:0.258023" />
  <path
     d="m 8.98126,9.8946026 1.535235,-0.447412 -0.503918,-0.683244 z m 3.56639,1.4841464 1.290113,1.017642 0.244606,-1.298113 z"
     id="path4895"
     style="fill:#2543c3;stroke-width:0.258023" />
  <path
     d="M 12.686208,12.712984 13.837505,12.396391 12.54765,11.378749 Z"
     id="path4897"
     style="fill:#2e37b2;stroke-width:0.258023" />
  <path
     d="m 10.516495,9.4471906 0.291308,1.0599574 0.747749,-0.9500394 z"
     id="path4899"
     style="fill:#2d40c7;stroke-width:0.258023" />
  <path
     d="M 10.516495,9.4471906 9.70553,11.103955 10.807803,10.507148 Z"
     id="path4901"
     style="fill:#3537b8;stroke-width:0.258023" />
  <path
     d="M 10.807803,10.507148 9.93388,11.975298 11.35094,11.82616 Z"
     id="path4903"
     style="fill:#3931b0;stroke-width:0.258023" />
  <path
     d="m 11.35094,11.82616 0.165393,1.311272 1.169875,-0.424448 z m -1.417576,0.149138 0.873923,-1.46815 -1.102273,0.596807 z"
     id="path4905"
     style="fill:#3735b8;stroke-width:0.258023" />
  <path
     d="M 8.965521,12.269443 9.70553,11.103955 9.93388,11.975298 Z"
     id="path4907"
     style="fill:#342892;stroke-width:0.258023" />
  <path
     d="m 9.695209,16.106241 0.783615,0.245121 -1.197484,-0.772778 z m -0.05651,-0.871601 0.859989,0.662086 0.412837,-0.86386 -1.278245,-0.397354 z m 2.353941,0.796516 0.108627,-0.984872 -1.189742,-0.01342 z m 1.269214,-0.34188 -0.348331,0.819996 1.40932,-0.525592 z"
     id="path4909"
     style="fill:#232372;stroke-width:0.258023" />
  <path
     d="m 8.261635,11.961364 0.34962,-1.116722 0.354266,1.424801 z"
     id="path4911"
     style="fill:#2a2f96;stroke-width:0.258023" />
  <path
     d="M 8.611255,10.844642 8.98126,9.8946026 8.214675,10.223323 Z m 5.470082,0.253636 -0.244606,1.298113 1.1353,-0.138559 z"
     id="path4913"
     style="fill:#2636a5;stroke-width:0.258023" />
  <path
     d="m 16.91907,12.334207 v -0.0021 l -0.0449,-1.479502 v -0.0052 l -0.222411,-0.738128 v -0.0015 l -0.636284,-1.2008374 -0.733301,-0.7751 h -0.0015 l -0.77252,-0.551395 h -0.0031 l -0.670859,-0.263183 h -0.0046 l -0.80503,-0.286405 h -0.0054 l -1.325462,-0.08437 h -0.0057 l -0.835993,0.150944 h -0.0031 l -0.681438,0.209514 h -0.0044 l -1.210126,0.703886 -0.756007,0.843476 -0.696661,1.132462 v 0.0028 L 7.225742,10.953542 v 0.0036 l -0.0516,1.462731 v 0.007 l 0.261377,0.996484 v 0.0034 l 0.576681,1.1353 v 0.0018 l 0.398903,0.561974 v 0.0013 l 0.562489,0.516045 h 0.0015 l 0.702596,0.475278 h 0.0015 l 0.866441,0.376713 h 0.0054 l 1.44983,0.170037 h 0.0021 l 0.757038,0.02116 h 0.0059 l 1.120334,-0.31582 h 0.0039 l 1.001128,-0.549588 0.0018,-0.0013 h 0.0013 l 0.645057,-0.549589 0.499532,-0.59629 0.0018,-0.0026 0.706466,-1.383002 v -0.0054 l 0.154814,-0.945654 v -0.0023 z M 9.006288,15.612643 8.860505,15.478988 9.188194,15.73572 Z m 2.126623,0.555523 -0.512175,-0.239445 1.212707,0.109144 z m 0.186551,-4.360583 -1.344299,0.141396 0.829027,-1.393322 z m -0.469086,-1.254765 1.642573,0.822835 -1.129881,0.421609 z m 0.481471,1.297339 0.156362,1.238508 -1.496532,-1.098402 z m 0.136752,1.279276 -1.625543,0.511401 0.109143,-1.625543 z m -0.09031,-1.258635 1.259409,0.836252 -1.103305,0.400451 z m 0.02013,-0.03922 1.130139,-0.422641 0.130818,1.260183 z m 1.736234,-1.455506 1.047314,-0.4943724 -0.118174,1.1763264 z m 0.893275,0.70982 -1.439767,0.263184 0.511401,-0.945138 z m -1.480792,0.246928 -0.936623,-1.7223014 1.452926,0.7704554 z m -0.05161,-0.0049 -1.653409,-0.828253 0.710594,-0.9030804 z M 9.942392,11.919308 9.731587,11.114793 10.74897,10.564172 Z M 9.803059,13.6011 8.999061,12.282346 9.909881,12.005487 Z M 11.443826,13.183361 10.62641,14.05651 9.878144,13.676184 Z m 1.210384,-0.435284 -0.291566,1.050152 -0.80374,-0.653314 z m -0.07896,-1.320045 1.215287,0.958555 -1.083695,0.298532 z m 0.02425,-0.03664 1.455506,-0.265763 -0.23222,1.231026 z m 1.508143,-0.323818 0.116626,-1.1634254 0.672407,0.9134014 z m 0.803741,-0.208999 0.03715,1.332172 -0.829801,-1.080858 z m -1.79558,-0.521463 0.02787,-0.9887434 1.014287,0.496693 z m -0.04386,0 -1.447508,-0.7678764 1.475632,-0.229124 z m -2.254086,0.123076 -0.271182,-0.9871944 0.967843,0.103209 z m -0.03535,0.0369 -1.027188,0.555006 0.755491,-1.5432334 z M 9.907553,11.960592 9.016085,12.231516 9.697523,11.157884 Z M 9.746289,13.59207 8.632663,12.803552 8.964739,12.310471 Z m 0.08979,0.111982 0.748266,0.380325 -0.920109,0.508305 z m 1.682566,-0.536688 0.803483,0.654346 -1.632768,0.23222 z m 1.179164,-0.412836 1.186904,1.146653 -1.480792,-0.08489 z m 0.03148,-0.03045 1.088339,-0.299306 0.09779,1.446475 z m 1.365456,-1.573938 0.836767,1.090146 -1.066665,0.129011 z m 0.860505,-0.283825 0.706209,0.400193 -0.670859,0.926044 z m 0.0075,-0.04593 0.438639,-0.720141 0.260087,1.11569 z m -0.03225,-0.03148 -0.672923,-0.9139164 1.116464,0.1844864 z m -1.769261,-1.4815664 0.790323,-0.715497 0.226802,1.213997 z m -1.564134,0.220351 0.501596,-0.88992 0.966037,0.662086 z m -1.047056,-0.09908 0.56765,-1.155942 0.406128,1.259151 z M 9.703735,11.058023 9.014814,9.9077576 10.474964,9.4820196 Z M 8.974562,12.214739 8.641197,10.874311 9.670708,11.118142 Z M 8.607396,12.762263 8.301897,12.003676 8.932763,12.27976 Z m 1.188195,0.918561 -0.171843,0.890952 -0.954684,-1.688501 z m 0.821802,0.434768 0.261377,0.882953 -1.190001,-0.370004 z m 1.728752,-0.253636 -0.259313,1.147684 -1.395645,-0.912884 z m 1.541428,0.08282 -0.670859,0.607643 -0.780519,-0.690985 z m -0.02426,-1.491629 1.032091,1.043959 -0.935848,0.396839 z m 0.02116,-0.04077 1.06486,-0.129011 -0.03612,1.169875 z m 1.800999,-1.104079 0.425221,1.432284 -1.105369,-0.491791 z m -0.241252,-1.210643 0.693823,0.526109 -0.433736,0.584679 z m -1.194129,-0.2675694 0.645057,-0.737687 0.475536,0.9226894 z m -0.02916,-0.03328 -0.225254,-1.20574 0.868504,0.468827 z m -1.100467,-0.510885 -0.961909,-0.65899 1.748362,-0.05315 z m -1.559231,0.216739 -0.40329,-1.250378 0.90179,0.365618 z m -1.048604,-0.09753 -0.466763,-0.633188 1.028736,-0.509595 z m -0.03225,0.02993 -1.430478,0.416965 0.960877,-1.053507 z M 9.660125,11.070666 8.640935,10.829157 8.985653,9.9443966 Z M 8.933533,12.231768 8.288476,11.949233 8.609198,10.925657 Z m -0.359684,0.564296 -0.555007,0.203064 0.247444,-0.967585 z m 0.99829,1.77468 -1.220963,-0.756781 0.258022,-0.947975 z m 1.243411,0.45412 -1.155167,0.183196 -0.0049,-0.543912 z m -0.147073,-0.890437 1.358232,0.888115 -1.098919,-0.01239 z m 1.719206,-0.258022 0.788259,0.698209 -1.04396,0.433478 z m 1.54504,0.08824 0.416706,1.154909 -1.092984,-0.541848 z m 0.03715,-0.0258 0.928881,-0.394258 -0.512433,1.552006 z m 1.02435,-1.647217 1.105111,0.491792 -1.140202,0.682728 z m 0.739751,-0.976874 0.722463,0.51424 -0.309627,0.880631 z m -0.008,-0.0596 0.434252,-0.585195 0.286148,1.098144 z m -0.290017,-1.218899 0.199709,-0.6257054 0.480181,1.1425244 z m -0.03019,-0.04877 -0.460828,-0.891727 0.66157,0.264474 z m -1.361586,-1.419125 0.962167,-0.06296 -0.121271,0.516046 z m -1.904981,0.01677 0.677309,-0.840379 1.08576,0.786711 z m -0.03999,-0.02013 -0.348846,-0.913659 1.019189,0.08205 z m -0.04541,0.0041 -0.890952,-0.361232 0.546234,-0.541847 z m -2.00174,0.153007 0.383164,-1.105369 0.650475,0.593452 z m -1.027704,1.095823 0.28047,-1.148459 0.665957,0.110692 z M 8.607907,10.798416 8.248224,10.233604 8.943337,9.9368776 Z m -0.01909,0.05161 -0.307564,0.980486 -0.04128,-1.529043 z M 8.234551,11.985325 7.983753,12.965812 7.590269,11.985325 Z m -0.654345,-0.04283 0.0209,-0.962167 0.621576,0.961393 z M 8.571529,12.845574 8.320989,13.7582 8.016522,13.046832 Z m 1.000096,1.77726 -0.756781,0.10708 -0.432446,-0.84425 z m 0.04128,0.03819 0.0049,0.536171 -0.748266,-0.43064 z m 1.261989,0.400451 -0.384196,0.800386 -0.798322,-0.61461 z m 0.0449,0.008 1.010932,0.933526 -1.398741,-0.125915 z m 0.04954,-0.01367 1.109497,0.01264 -0.101144,0.917786 z m 2.228026,-0.438639 0.04232,1.036735 -1.087308,-0.605579 z m 0.04412,0.0039 1.096596,0.544428 -1.054281,0.492823 z m 1.700885,-1.062537 0.544428,0.851475 -1.057893,0.702854 z m 0.03793,-0.02219 1.048088,0.154813 -0.511659,0.683761 z m 0.01935,-0.04128 1.121367,-0.670859 -0.07302,0.825673 z m 1.481051,-1.59974 0.197903,0.69279 -0.496694,0.160491 z m -0.264732,-1.181744 0.56765,0.715239 -0.291565,0.344202 z m -0.531526,-1.3027574 0.737686,0.5403 -0.253636,0.6107394 z m -0.760135,-0.371295 0.118948,-0.507014 0.531011,0.766843 z m -0.939977,-0.512433 -0.129011,-0.774068 1.109497,0.710595 z m -0.04877,-0.0258 -1.057893,-0.766069 0.928881,-0.0059 z m -2.150619,-0.892242 0.69021,-0.423674 0.296468,0.503145 z m -0.662861,0.575906 -0.639122,-0.583131 1.182002,0.04438 z m -1.124205,0.554491 -0.663634,-0.110434 1.04009,-0.975326 z M 8.968361,9.8559086 8.289245,9.3045146 9.25296,8.6909366 Z m -0.0289,0.03303 -0.701563,0.2993064 0.03406,-0.8414124 z M 8.23764,11.883971 7.60729,10.908903 8.194034,10.276231 Z M 7.964394,13.035784 7.844929,13.632332 7.608838,12.151024 Z m 0.03045,0.07121 0.295436,0.689695 -0.421093,-0.05883 z m 0.766328,1.614964 -0.445348,-0.08644 0.02838,-0.72814 z M 9.602584,15.238004 9.286248,15.542212 8.861284,14.81175 Z m 0.03767,0.02425 0.759877,0.585969 -1.075697,-0.281245 z m 2.479082,-0.182164 1.083695,0.601709 -1.186904,0.318658 z m 2.242991,0.118432 -0.05935,0.756781 -0.978164,-0.271698 z m 1.08834,-0.716013 -0.602225,1.056087 -0.425479,-0.373101 z m 0.593452,-0.745685 0.0031,0.552168 -0.481728,0.09211 z m 0.120755,-0.940493 0.490243,-0.158426 -0.558361,0.939719 z m 0.339816,-0.971198 0.278148,-0.327946 -0.08928,0.98384 z m -0.31195,-1.209094 0.249766,-0.601451 0.323561,1.323399 z m -0.531268,-1.2746324 0.175455,-0.306273 0.528688,0.82206 z m -0.03045,-0.03483 -0.519142,-0.748266 0.694597,0.442767 z m -1.741395,-1.584001 0.525334,-0.05599 0.531527,0.733042 z m -1.066924,-0.03096 -0.289244,-0.491533 1.182776,0.486114 z m -1.099693,-0.0965 -0.23222,-0.408192 0.912884,-0.0093 z m -0.04644,0.007 -1.149749,-0.04309 0.916239,-0.366134 z m -2.322204,0.948491 0.412836,-0.891468 0.597065,-0.05444 z m -0.07405,0.05573 -0.376197,-0.361231 0.794194,-0.543396 z m -0.02812,0.03354 -0.935848,0.595775 0.559135,-0.958555 z M 8.194303,10.186207 7.724702,9.9336026 8.227846,9.3631146 Z m -0.01471,0.04154 -0.570747,0.614868 0.09908,-0.8682468 z M 7.533762,11.952113 7.29251,12.149242 7.552339,11.10296 Z m 0.0059,0.0516 0.246154,1.544524 -0.504434,-1.332945 z m 0.762199,1.839444 -0.02812,0.725818 -0.393227,-0.784905 z m 0.484309,0.928882 0.401483,0.689178 -0.824124,-0.76994 z m 1.689016,1.14046 -0.01729,0.398645 -1.050669,-0.677826 z m 0.04309,0.01703 0.54546,0.254927 -0.562489,0.137526 z m 1.45241,0.126948 0.01703,0.559135 -0.792387,-0.414643 z m 1.2527,-0.33543 -0.321496,0.756781 -0.849927,-0.441993 z m 0.05161,-0.0067 0.977648,0.27144 -1.298371,0.484309 z m 1.131171,-0.507014 0.414127,0.361232 -0.471924,0.367424 z m 1.123947,-0.775358 0.477342,-0.09134 -1.04654,1.087823 z m 0.562231,-0.211063 -0.0034,-0.538493 0.440445,-0.269118 z m 0.0387,-0.615384 0.534107,-0.897403 -0.09831,0.631898 z m 0.681696,-1.940331 0.06244,0.660538 -0.141396,0.195324 z m -0.325625,-1.654183 0.122045,0.114562 0.122303,0.885018 z m -0.619254,-1.0093854 0.11482,-0.0578 0.332333,0.753168 z m -0.804257,-0.527398 0.201774,-0.288728 0.493855,0.732527 z m -0.03148,-0.03148 -0.52585,-0.72556 0.72814,0.436316 z m -1.184582,-0.759619 -0.0034,-0.315304 0.506756,0.261635 z m -0.04386,-0.0085 -1.158264,-0.475794 1.15491,0.151976 z m -2.290983,-0.531784 0.184486,-0.158168 0.611256,0.150427 z m -1.006289,0.377745 0.358394,-0.387034 0.495919,0.04464 z m -0.09263,0.03561 -0.541848,0.04928 0.891469,-0.424705 z m -1.492919,0.623899 0.05986,-0.13443 0.498242,-0.247444 z m -0.654088,1.053248 -0.03638,-0.351685 0.541848,-0.516045 z m -0.03767,0.06193 -0.449476,0.509595 0.414127,-0.851475 z M 7.559535,10.887796 7.272614,10.941206 7.651649,10.0807 Z m -0.0095,0.04644 -0.274278,1.105627 -0.01755,-1.051442 z M 7.791802,13.68708 7.465662,13.418737 7.3093,12.412448 Z M 8.249019,14.615962 8.040794,14.547582 7.901462,13.923425 Z M 9.139455,15.474661 8.44847,15.100012 8.337262,14.726396 Z m 0.126431,0.118691 0.299564,0.381873 -0.91598,-0.717561 z m 0.111982,0.07199 0.952878,0.614868 -0.623641,-0.195065 z m 1.748104,0.547524 0.740525,0.387034 -1.287275,-0.253636 z m 0.888888,-0.147331 0.828769,0.431156 -0.811998,0.129012 z m 2.200417,-0.02013 -0.335429,0.290533 -0.757297,0.1174 z m 0.621835,-0.435027 0.02812,0.180616 -0.435027,0.13443 z m 1.128849,-1.16523 -0.446379,0.796258 -0.569456,0.261893 z m 0.124883,-0.132624 0.299565,-0.553459 -0.320207,0.759361 z m 0.633188,-1.70553 0.113014,-0.156362 -0.180616,0.598097 z m 0.108886,-1.17968 -0.0015,-0.01161 0.01135,-0.148105 0.01135,0.38368 z m -0.03019,-0.218029 -0.113014,-0.819996 0.140106,0.464441 z m -0.33543,-1.2787604 -0.206418,-0.468311 0.288986,0.5457184 z m -0.622866,-0.967069 -0.412837,-0.611772 0.526367,0.554749 z m -1.378358,-1.320302 0.02761,-0.01987 0.316336,0.226286 z m -0.0418,-0.024 -0.214417,-0.110691 0.238413,0.09366 z m -1.810287,-0.468827 0.401999,-0.08257 0.604805,0.215191 z m -0.131076,-0.01754 -0.547266,-0.134688 0.917529,0.05831 z m -1.036735,0.01006 -0.42677,-0.03845 0.597323,-0.107853 z m -1.506079,0.381357 0.24409,-0.182938 0.393742,-0.121271 z m -0.200483,0.09547 -0.211837,0.105274 0.325625,-0.190421 z m -0.88863,0.60945 -0.251315,0.239961 0.28718,-0.320464 z m -1.1771,1.693403 -0.111724,0.04128 0.434252,-0.705176 z M 7.528359,10.022898 7.648856,9.9782576 7.344131,10.670533 Z m -0.30008,1.796612 0.0062,0.385228 -0.02219,0.07018 z m 0.0209,0.483792 0.109917,0.708273 -0.151459,-0.577971 z m 0.573584,1.465053 0.141139,0.632156 -0.450766,-0.886824 z m 0.45283,0.90308 0.09805,0.329753 -0.291824,-0.393485 z m 2.189064,1.697015 0.04077,0.06528 -0.428318,-0.186293 z m 0.109918,0.09289 -0.0516,-0.07999 0.93172,0.183454 z m 2.282469,0.07741 -0.09805,0.11095 -0.511401,-0.01419 z m 0.06786,-0.01058 0.609707,-0.09469 -0.700273,0.197129 z m 1.408804,-0.526624 0.357619,-0.110434 -0.629575,0.347557 z m 0.57281,-0.237123 -0.02812,-0.180616 0.522496,-0.240219 z m 1.131688,-1.356683 -0.02451,0.243831 -0.343687,0.409998 z m 0.565843,-1.039832 0.08824,-0.04257 -0.404321,0.794194 z m 0.117401,-0.105273 -0.09908,0.04799 0.199194,-0.655378 z"
     id="path4915"
     style="fill:url(#a);stroke-width:0.258023" />
  <path
     d="m 16.91907,12.334207 v -0.0021 l -0.0449,-1.479502 v -0.0052 l -0.222411,-0.738128 v -0.0015 l -0.636284,-1.2008374 -0.733301,-0.7751 h -0.0015 l -0.77252,-0.551395 h -0.0031 l -0.670859,-0.263183 h -0.0046 l -0.80503,-0.286405 h -0.0054 l -1.325462,-0.08437 h -0.0057 l -0.835993,0.150944 h -0.0031 l -0.681438,0.209514 h -0.0044 l -1.210126,0.703886 -0.756007,0.843476 -0.696661,1.132462 v 0.0028 L 7.225742,10.953542 v 0.0036 l -0.0516,1.462731 v 0.007 l 0.261377,0.996484 v 0.0034 l 0.576681,1.1353 v 0.0018 l 0.398903,0.561974 v 0.0013 l 0.562489,0.516045 h 0.0015 l 0.702596,0.475278 h 0.0015 l 0.866441,0.376713 h 0.0054 l 1.44983,0.170037 h 0.0021 l 0.757038,0.02116 h 0.0059 l 1.120334,-0.31582 h 0.0039 l 1.001128,-0.549588 0.0018,-0.0013 h 0.0013 l 0.645057,-0.549589 0.499532,-0.59629 0.0018,-0.0026 0.706466,-1.383002 v -0.0054 l 0.154814,-0.945654 v -0.0023 z M 9.006288,15.612643 8.860505,15.478988 9.188194,15.73572 Z m 2.126623,0.555523 -0.512175,-0.239445 1.212707,0.109144 z m 0.186551,-4.360583 -1.344299,0.141396 0.829027,-1.393322 z m -0.469086,-1.254765 1.642573,0.822835 -1.129881,0.421609 z m 0.481471,1.297339 0.156362,1.238508 -1.496532,-1.098402 z m 0.136752,1.279276 -1.625543,0.511401 0.109143,-1.625543 z m -0.09031,-1.258635 1.259409,0.836252 -1.103305,0.400451 z m 0.02013,-0.03922 1.130139,-0.422641 0.130818,1.260183 z m 1.736234,-1.455506 1.047314,-0.4943724 -0.118174,1.1763264 z m 0.893275,0.70982 -1.439767,0.263184 0.511401,-0.945138 z m -1.480792,0.246928 -0.936623,-1.7223014 1.452926,0.7704554 z m -0.05161,-0.0049 -1.653409,-0.828253 0.710594,-0.9030804 z M 9.942392,11.919308 9.731587,11.114793 10.74897,10.564172 Z M 9.803059,13.6011 8.999061,12.282346 9.909881,12.005487 Z M 11.443826,13.183361 10.62641,14.05651 9.878144,13.676184 Z m 1.210384,-0.435284 -0.291566,1.050152 -0.80374,-0.653314 z m -0.07896,-1.320045 1.215287,0.958555 -1.083695,0.298532 z m 0.02425,-0.03664 1.455506,-0.265763 -0.23222,1.231026 z m 1.508143,-0.323818 0.116626,-1.1634254 0.672407,0.9134014 z m 0.803741,-0.208999 0.03715,1.332172 -0.829801,-1.080858 z m -1.79558,-0.521463 0.02787,-0.9887434 1.014287,0.496693 z m -0.04386,0 -1.447508,-0.7678764 1.475632,-0.229124 z m -2.254086,0.123076 -0.271182,-0.9871944 0.967843,0.103209 z m -0.03535,0.0369 -1.027188,0.555006 0.755491,-1.5432334 z M 9.907553,11.960592 9.016085,12.231516 9.697523,11.157884 Z M 9.746289,13.59207 8.632663,12.803552 8.964739,12.310471 Z m 0.08979,0.111982 0.748266,0.380325 -0.920109,0.508305 z m 1.682566,-0.536688 0.803483,0.654346 -1.632768,0.23222 z m 1.179164,-0.412836 1.186904,1.146653 -1.480792,-0.08489 z m 0.03148,-0.03045 1.088339,-0.299306 0.09779,1.446475 z m 1.365456,-1.573938 0.836767,1.090146 -1.066665,0.129011 z m 0.860505,-0.283825 0.706209,0.400193 -0.670859,0.926044 z m 0.0075,-0.04593 0.438639,-0.720141 0.260087,1.11569 z m -0.03225,-0.03148 -0.672923,-0.9139164 1.116464,0.1844864 z m -1.769261,-1.4815664 0.790323,-0.715497 0.226802,1.213997 z m -1.564134,0.220351 0.501596,-0.88992 0.966037,0.662086 z m -1.047056,-0.09908 0.56765,-1.155942 0.406128,1.259151 z M 9.703735,11.058023 9.014814,9.9077576 10.474964,9.4820196 Z M 8.974562,12.214739 8.641197,10.874311 9.670708,11.118142 Z M 8.607396,12.762263 8.301897,12.003676 8.932763,12.27976 Z m 1.188195,0.918561 -0.171843,0.890952 -0.954684,-1.688501 z m 0.821802,0.434768 0.261377,0.882953 -1.190001,-0.370004 z m 1.728752,-0.253636 -0.259313,1.147684 -1.395645,-0.912884 z m 1.541428,0.08282 -0.670859,0.607643 -0.780519,-0.690985 z m -0.02426,-1.491629 1.032091,1.043959 -0.935848,0.396839 z m 0.02116,-0.04077 1.06486,-0.129011 -0.03612,1.169875 z m 1.800999,-1.104079 0.425221,1.432284 -1.105369,-0.491791 z m -0.241252,-1.210643 0.693823,0.526109 -0.433736,0.584679 z m -1.194129,-0.2675694 0.645057,-0.737687 0.475536,0.9226894 z m -0.02916,-0.03328 -0.225254,-1.20574 0.868504,0.468827 z m -1.100467,-0.510885 -0.961909,-0.65899 1.748362,-0.05315 z m -1.559231,0.216739 -0.40329,-1.250378 0.90179,0.365618 z m -1.048604,-0.09753 -0.466763,-0.633188 1.028736,-0.509595 z m -0.03225,0.02993 -1.430478,0.416965 0.960877,-1.053507 z M 9.660125,11.070666 8.640935,10.829157 8.985653,9.9443966 Z M 8.933533,12.231768 8.288476,11.949233 8.609198,10.925657 Z m -0.359684,0.564296 -0.555007,0.203064 0.247444,-0.967585 z m 0.99829,1.77468 -1.220963,-0.756781 0.258022,-0.947975 z m 1.243411,0.45412 -1.155167,0.183196 -0.0049,-0.543912 z m -0.147073,-0.890437 1.358232,0.888115 -1.098919,-0.01239 z m 1.719206,-0.258022 0.788259,0.698209 -1.04396,0.433478 z m 1.54504,0.08824 0.416706,1.154909 -1.092984,-0.541848 z m 0.03715,-0.0258 0.928881,-0.394258 -0.512433,1.552006 z m 1.02435,-1.647217 1.105111,0.491792 -1.140202,0.682728 z m 0.739751,-0.976874 0.722463,0.51424 -0.309627,0.880631 z m -0.008,-0.0596 0.434252,-0.585195 0.286148,1.098144 z m -0.290017,-1.218899 0.199709,-0.6257054 0.480181,1.1425244 z m -0.03019,-0.04877 -0.460828,-0.891727 0.66157,0.264474 z m -1.361586,-1.419125 0.962167,-0.06296 -0.121271,0.516046 z m -1.904981,0.01677 0.677309,-0.840379 1.08576,0.786711 z m -0.03999,-0.02013 -0.348846,-0.913659 1.019189,0.08205 z m -0.04541,0.0041 -0.890952,-0.361232 0.546234,-0.541847 z m -2.00174,0.153007 0.383164,-1.105369 0.650475,0.593452 z m -1.027704,1.095823 0.28047,-1.148459 0.665957,0.110692 z M 8.607907,10.798416 8.248224,10.233604 8.943337,9.9368776 Z m -0.01909,0.05161 -0.307564,0.980486 -0.04128,-1.529043 z M 8.234551,11.985325 7.983753,12.965812 7.590269,11.985325 Z m -0.654345,-0.04283 0.0209,-0.962167 0.621576,0.961393 z M 8.571529,12.845574 8.320989,13.7582 8.016522,13.046832 Z m 1.000096,1.77726 -0.756781,0.10708 -0.432446,-0.84425 z m 0.04128,0.03819 0.0049,0.536171 -0.748266,-0.43064 z m 1.261989,0.400451 -0.384196,0.800386 -0.798322,-0.61461 z m 0.0449,0.008 1.010932,0.933526 -1.398741,-0.125915 z m 0.04954,-0.01367 1.109497,0.01264 -0.101144,0.917786 z m 2.228026,-0.438639 0.04232,1.036735 -1.087308,-0.605579 z m 0.04412,0.0039 1.096596,0.544428 -1.054281,0.492823 z m 1.700885,-1.062537 0.544428,0.851475 -1.057893,0.702854 z m 0.03793,-0.02219 1.048088,0.154813 -0.511659,0.683761 z m 0.01935,-0.04128 1.121367,-0.670859 -0.07302,0.825673 z m 1.481051,-1.59974 0.197903,0.69279 -0.496694,0.160491 z m -0.264732,-1.181744 0.56765,0.715239 -0.291565,0.344202 z m -0.531526,-1.3027574 0.737686,0.5403 -0.253636,0.6107394 z m -0.760135,-0.371295 0.118948,-0.507014 0.531011,0.766843 z m -0.939977,-0.512433 -0.129011,-0.774068 1.109497,0.710595 z m -0.04877,-0.0258 -1.057893,-0.766069 0.928881,-0.0059 z m -2.150619,-0.892242 0.69021,-0.423674 0.296468,0.503145 z m -0.662861,0.575906 -0.639122,-0.583131 1.182002,0.04438 z m -1.124205,0.554491 -0.663634,-0.110434 1.04009,-0.975326 z M 8.968361,9.8559086 8.289245,9.3045146 9.25296,8.6909366 Z m -0.0289,0.03303 -0.701563,0.2993064 0.03406,-0.8414124 z M 8.23764,11.883971 7.60729,10.908903 8.194034,10.276231 Z M 7.964394,13.035784 7.844929,13.632332 7.608838,12.151024 Z m 0.03045,0.07121 0.295436,0.689695 -0.421093,-0.05883 z m 0.766328,1.614964 -0.445348,-0.08644 0.02838,-0.72814 z M 9.602584,15.238004 9.286248,15.542212 8.861284,14.81175 Z m 0.03767,0.02425 0.759877,0.585969 -1.075697,-0.281245 z m 2.479082,-0.182164 1.083695,0.601709 -1.186904,0.318658 z m 2.242991,0.118432 -0.05935,0.756781 -0.978164,-0.271698 z m 1.08834,-0.716013 -0.602225,1.056087 -0.425479,-0.373101 z m 0.593452,-0.745685 0.0031,0.552168 -0.481728,0.09211 z m 0.120755,-0.940493 0.490243,-0.158426 -0.558361,0.939719 z m 0.339816,-0.971198 0.278148,-0.327946 -0.08928,0.98384 z m -0.31195,-1.209094 0.249766,-0.601451 0.323561,1.323399 z m -0.531268,-1.2746324 0.175455,-0.306273 0.528688,0.82206 z m -0.03045,-0.03483 -0.519142,-0.748266 0.694597,0.442767 z m -1.741395,-1.584001 0.525334,-0.05599 0.531527,0.733042 z m -1.066924,-0.03096 -0.289244,-0.491533 1.182776,0.486114 z m -1.099693,-0.0965 -0.23222,-0.408192 0.912884,-0.0093 z m -0.04644,0.007 -1.149749,-0.04309 0.916239,-0.366134 z m -2.322204,0.948491 0.412836,-0.891468 0.597065,-0.05444 z m -0.07405,0.05573 -0.376197,-0.361231 0.794194,-0.543396 z m -0.02812,0.03354 -0.935848,0.595775 0.559135,-0.958555 z M 8.194303,10.186207 7.724702,9.9336026 8.227846,9.3631146 Z m -0.01471,0.04154 -0.570747,0.614868 0.09908,-0.8682468 z M 7.533762,11.952113 7.29251,12.149242 7.552339,11.10296 Z m 0.0059,0.0516 0.246154,1.544524 -0.504434,-1.332945 z m 0.762199,1.839444 -0.02812,0.725818 -0.393227,-0.784905 z m 0.484309,0.928882 0.401483,0.689178 -0.824124,-0.76994 z m 1.689016,1.14046 -0.01729,0.398645 -1.050669,-0.677826 z m 0.04309,0.01703 0.54546,0.254927 -0.562489,0.137526 z m 1.45241,0.126948 0.01703,0.559135 -0.792387,-0.414643 z m 1.2527,-0.33543 -0.321496,0.756781 -0.849927,-0.441993 z m 0.05161,-0.0067 0.977648,0.27144 -1.298371,0.484309 z m 1.131171,-0.507014 0.414127,0.361232 -0.471924,0.367424 z m 1.123947,-0.775358 0.477342,-0.09134 -1.04654,1.087823 z m 0.562231,-0.211063 -0.0034,-0.538493 0.440445,-0.269118 z m 0.0387,-0.615384 0.534107,-0.897403 -0.09831,0.631898 z m 0.681696,-1.940331 0.06244,0.660538 -0.141396,0.195324 z m -0.325625,-1.654183 0.122045,0.114562 0.122303,0.885018 z m -0.619254,-1.0093854 0.11482,-0.0578 0.332333,0.753168 z m -0.804257,-0.527398 0.201774,-0.288728 0.493855,0.732527 z m -0.03148,-0.03148 -0.52585,-0.72556 0.72814,0.436316 z m -1.184582,-0.759619 -0.0034,-0.315304 0.506756,0.261635 z m -0.04386,-0.0085 -1.158264,-0.475794 1.15491,0.151976 z m -2.290983,-0.531784 0.184486,-0.158168 0.611256,0.150427 z m -1.006289,0.377745 0.358394,-0.387034 0.495919,0.04464 z m -0.09263,0.03561 -0.541848,0.04928 0.891469,-0.424705 z m -1.492919,0.623899 0.05986,-0.13443 0.498242,-0.247444 z m -0.654088,1.053248 -0.03638,-0.351685 0.541848,-0.516045 z m -0.03767,0.06193 -0.449476,0.509595 0.414127,-0.851475 z M 7.559535,10.887796 7.272614,10.941206 7.651649,10.0807 Z m -0.0095,0.04644 -0.274278,1.105627 -0.01755,-1.051442 z M 7.791802,13.68708 7.465662,13.418737 7.3093,12.412448 Z M 8.249019,14.615962 8.040794,14.547582 7.901462,13.923425 Z M 9.139455,15.474661 8.44847,15.100012 8.337262,14.726396 Z m 0.126431,0.118691 0.299564,0.381873 -0.91598,-0.717561 z m 0.111982,0.07199 0.952878,0.614868 -0.623641,-0.195065 z m 1.748104,0.547524 0.740525,0.387034 -1.287275,-0.253636 z m 0.888888,-0.147331 0.828769,0.431156 -0.811998,0.129012 z m 2.200417,-0.02013 -0.335429,0.290533 -0.757297,0.1174 z m 0.621835,-0.435027 0.02812,0.180616 -0.435027,0.13443 z m 1.128849,-1.16523 -0.446379,0.796258 -0.569456,0.261893 z m 0.124883,-0.132624 0.299565,-0.553459 -0.320207,0.759361 z m 0.633188,-1.70553 0.113014,-0.156362 -0.180616,0.598097 z m 0.108886,-1.17968 -0.0015,-0.01161 0.01135,-0.148105 0.01135,0.38368 z m -0.03019,-0.218029 -0.113014,-0.819996 0.140106,0.464441 z m -0.33543,-1.2787604 -0.206418,-0.468311 0.288986,0.5457184 z m -0.622866,-0.967069 -0.412837,-0.611772 0.526367,0.554749 z m -1.378358,-1.320302 0.02761,-0.01987 0.316336,0.226286 z m -0.0418,-0.024 -0.214417,-0.110691 0.238413,0.09366 z m -1.810287,-0.468827 0.401999,-0.08257 0.604805,0.215191 z m -0.131076,-0.01754 -0.547266,-0.134688 0.917529,0.05831 z m -1.036735,0.01006 -0.42677,-0.03845 0.597323,-0.107853 z m -1.506079,0.381357 0.24409,-0.182938 0.393742,-0.121271 z m -0.200483,0.09547 -0.211837,0.105274 0.325625,-0.190421 z m -0.88863,0.60945 -0.251315,0.239961 0.28718,-0.320464 z m -1.1771,1.693403 -0.111724,0.04128 0.434252,-0.705176 z M 7.528359,10.022898 7.648856,9.9782576 7.344131,10.670533 Z m -0.30008,1.796612 0.0062,0.385228 -0.02219,0.07018 z m 0.0209,0.483792 0.109917,0.708273 -0.151459,-0.577971 z m 0.573584,1.465053 0.141139,0.632156 -0.450766,-0.886824 z m 0.45283,0.90308 0.09805,0.329753 -0.291824,-0.393485 z m 2.189064,1.697015 0.04077,0.06528 -0.428318,-0.186293 z m 0.109918,0.09289 -0.0516,-0.07999 0.93172,0.183454 z m 2.282469,0.07741 -0.09805,0.11095 -0.511401,-0.01419 z m 0.06786,-0.01058 0.609707,-0.09469 -0.700273,0.197129 z m 1.408804,-0.526624 0.357619,-0.110434 -0.629575,0.347557 z m 0.57281,-0.237123 -0.02812,-0.180616 0.522496,-0.240219 z m 1.131688,-1.356683 -0.02451,0.243831 -0.343687,0.409998 z m 0.565843,-1.039832 0.08824,-0.04257 -0.404321,0.794194 z m 0.117401,-0.105273 -0.09908,0.04799 0.199194,-0.655378 z"
     id="path4917"
     style="fill:url(#b);stroke-width:0.258023" />
  <path
     d="m 21.275783,8.3222116 c -0.435026,-1.045508 -1.315915,-2.174357 -2.008448,-2.530944 a 10.363481,10.363481 0 0 1 1.012739,3.035121 c 0,-0.0023 0,0.0021 0.0015,0.0095 l 0.0018,0.01058 a 9.0444695,9.0444695 0 0 1 -0.311691,6.7491004 c -1.147169,2.459472 -3.924784,4.979838 -8.272466,4.857277 -4.696529,-0.132882 -8.834439,-3.61464 -9.606959,-8.174675 -0.140622,-0.719109 0,-1.083695 0.0707,-1.668116 A 7.4501472,7.4501472 0 0 0 2.00092,11.989702 v 0.0516 a 10.013345,10.013345 0 0 0 19.878842,1.691081 c 0.01677,-0.129011 0.03045,-0.256732 0.04541,-0.385744 A 10.269303,10.269303 0 0 0 21.275783,8.3222116 Z"
     id="path4919"
     style="fill:url(#c);stroke-width:0.258023" />
  <path
     d="m 21.275783,8.3222116 c -0.435026,-1.045508 -1.315915,-2.174357 -2.008448,-2.530944 a 10.363481,10.363481 0 0 1 1.012739,3.035121 c 0,-0.0023 0,0.0021 0.0015,0.0095 l 0.0018,0.01058 a 9.0444695,9.0444695 0 0 1 -0.311691,6.7491004 c -1.147169,2.459472 -3.924784,4.979838 -8.272466,4.857277 -4.696529,-0.132882 -8.834439,-3.61464 -9.606959,-8.174675 -0.140622,-0.719109 0,-1.083695 0.0707,-1.668116 A 7.4501472,7.4501472 0 0 0 2.00092,11.989702 v 0.0516 a 10.013345,10.013345 0 0 0 19.878842,1.691081 c 0.01677,-0.129011 0.03045,-0.256732 0.04541,-0.385744 A 10.269303,10.269303 0 0 0 21.275783,8.3222116 Z"
     id="path4921"
     style="fill:url(#d);stroke-width:0.258023" />
  <path
     d="m 2.092312,12.278216 c 0.77252,4.560035 4.91043,8.041793 9.607991,8.174675 4.347683,0.122819 7.125297,-2.397805 8.272466,-4.857277 A 9.0444695,9.0444695 0 0 0 20.28446,8.8465136 v -0.0095 c 0,-0.0075 -0.0015,-0.01187 -0.0015,-0.0095 l 0.0021,0.01677 c 0.355039,2.3162704 -0.824382,4.5602934 -2.668212,6.0777254 l -0.0057,0.0129 C 14.016376,17.856242 10.578481,16.696946 9.88182,16.2227 A 6.3886419,6.3886419 0 0 1 9.736037,16.14994 C 7.641409,15.150102 6.776001,13.243572 6.961519,11.60874 A 2.5709381,2.5709381 0 0 1 4.589775,10.118401 3.7802905,3.7802905 0 0 1 8.270727,9.9710696 4.9893848,4.9893848 0 0 0 12.029601,10.118659 C 12.026001,10.037379 10.283562,9.3445906 9.604188,8.6763116 9.24115,8.3189506 9.068791,8.1468496 8.916299,8.0175796 A 3.0348629,3.0348629 0 0 0 8.658277,7.8219986 C 8.598677,7.7814886 8.531845,7.7376286 8.451858,7.6849886 7.721654,7.2107436 6.269503,7.2370616 6.22151,7.2380936 H 6.21691 C 5.819813,6.7357236 5.847937,5.0792176 5.870643,4.7334676 a 1.7942898,1.7942898 0 0 0 -0.335429,0.177003 7.2955916,7.2955916 0 0 0 -0.978422,0.837284 8.7727716,8.7727716 0 0 0 -0.935848,1.121366 v 0.0015 -0.0015 a 8.4345038,8.4345038 0 0 0 -1.343525,3.028671 c -0.0046,0.02167 -0.360199,1.5749704 -0.185002,2.3805174 z"
     id="path4923"
     style="fill:url(#e);stroke-width:0.258023" />
  <path
     d="m 15.543293,8.3320166 a 5.4342159,5.4342159 0 0 1 0.928882,1.212707 2.0321867,2.0321867 0 0 1 0.150427,0.122819 c 2.2706,2.0899834 1.080341,5.0440854 0.991839,5.2546324 1.84383,-1.517432 3.023252,-3.761455 2.668213,-6.0777254 -1.132204,-2.818898 -3.051634,-3.955488 -4.618606,-6.430183 a 12.357739,12.357739 0 0 1 -0.235833,-0.383164 3.0309926,3.0309926 0 0 1 -0.110176,-0.206418 1.8144156,1.8144156 0 0 1 -0.149653,-0.397097 0.02580227,0.02580227 0 0 0 -0.02271,-0.0258 0.03328493,0.03328493 0 0 0 -0.01883,0 l -0.0049,0.0026 -0.0075,0.0031 c -0.387034,0.184486 -2.683178,3.816156 0.428834,6.924555 z"
     id="path4925"
     style="fill:url(#f);stroke-width:0.258023" />
  <path
     d="m 11.692046,6.9608846 1.325463,0.08437 0.805031,0.286405 0.670859,0.263183 0.772778,0.551911 0.727882,0.767359 0.252862,0.477084 a 6.0532124,6.0532124 0 0 1 0.163586,0.106564 c 0.02193,0.01522 0.0418,0.03045 0.06218,0.04567 a 5.4342159,5.4342159 0 0 0 -0.928878,-1.211414 c -3.112528,-3.108399 -0.816384,-6.740069 -0.42935,-6.924555 l 0.0052,-0.0057 c -2.514947,1.470729 -3.368228,4.193126 -3.446409,5.55497 v 0.0077 z"
     id="path4927"
     style="fill:url(#g);stroke-width:0.258023" />
  <path
     d="m 8.449733,7.6848956 a 5.8870458,5.8870458 0 0 1 0.206418,0.13701 4.6255728,4.6255728 0 0 1 -0.02812,-2.443991 7.4145401,7.4145401 0 0 0 -2.409932,1.860086 c 0.04928,-0.001 1.501434,-0.02735 2.231638,0.446895 z"
     id="path4929"
     style="fill:url(#h);stroke-width:0.258023" />
  <path
     d="m 7.516981,12.945463 c 0,0 0.462119,-1.720237 3.309141,-1.720237 0.307821,0 1.186905,-0.857926 1.203934,-1.10666 A 4.9893848,4.9893848 0 0 1 8.271182,9.9709766 3.7802905,3.7802905 0 0 0 4.59023,10.118308 2.5709381,2.5709381 0 0 0 6.961974,11.608647 c -0.185518,1.634832 0.67989,3.541362 2.774518,4.5412 0.04696,0.02245 0.09082,0.04696 0.138817,0.06838 -1.222512,-0.631382 -2.232155,-1.824221 -2.358328,-3.27276 z"
     id="path4931"
     style="fill:url(#i);stroke-width:0.258023" />
  <path
     d="m 16.623118,9.6662516 a 2.0321867,2.0321867 0 0 0 -0.150427,-0.122818 c -0.02038,-0.01522 -0.04025,-0.03045 -0.06218,-0.04567 a 3.4590522,3.4590522 0 0 0 -2.41406,-0.585454 c 3.601223,1.7984184 2.634412,7.9912214 -2.355489,7.7574524 a 4.4485693,4.4485693 0 0 1 -1.302757,-0.251056 5.867436,5.867436 0 0 1 -0.294146,-0.11998 c -0.05625,-0.0258 -0.112755,-0.05161 -0.168746,-0.0805 l 0.007,0.0044 c 0.696662,0.474246 4.13404,1.633542 7.727006,-1.288823 l 0.0057,-0.0129 c 0.0885,-0.210547 1.277729,-3.165423 -0.991839,-5.2546334 z"
     id="path4933"
     style="fill:url(#j);stroke-width:0.258023" />
  <path
     d="m 21.275009,8.3219536 c -0.435026,-1.045766 -1.315915,-2.174357 -2.008448,-2.531202 a 10.369932,10.369932 0 0 1 1.013513,3.035379 l 0.0021,0.01651 c -1.131946,-2.81864 -3.051634,-3.95523 -4.619122,-6.430184 a 11.691524,11.691524 0 0 1 -0.235833,-0.382905 3.3016584,3.3016584 0 0 1 -0.110434,-0.206418 1.8198341,1.8198341 0 0 1 -0.149137,-0.396065 0.02580227,0.02580227 0 0 0 -0.02271,-0.0258 0.03560713,0.03560713 0 0 0 -0.01884,0 c -0.0015,0 -0.0036,0.0023 -0.0052,0.0028 -0.0015,5.16e-4 -0.0049,0.0028 -0.0072,0.0039 l 0.0041,-0.0057 c -2.514947,1.470729 -3.367712,4.201383 -3.446151,5.563227 l 0.02038,-0.0036 1.325463,0.08437 0.745944,0.265247 0.729946,0.283825 0.772778,0.551911 0.727108,0.766843 c 0,0 0.250282,0.469602 0.253636,0.4776 a 3.4262833,3.4262833 0 0 0 -2.251248,-0.479406 c 3.600965,1.7984184 2.634412,7.9912214 -2.355489,7.7574524 A 4.456568,4.456568 0 0 1 10.337408,16.41894 q -0.146041,-0.0547 -0.294146,-0.120754 a 3.7258477,3.7258477 0 0 1 -0.168746,-0.0805 l 0.007,0.0044 a 5.8870458,5.8870458 0 0 1 -0.145783,-0.0725 c 0.0467,0.02219 0.09082,0.0467 0.138817,0.06812 -1.222512,-0.631124 -2.232155,-1.824221 -2.358328,-3.27276 0,0 0.462119,-1.720237 3.309141,-1.720237 0.307821,0 1.186905,-0.857926 1.203934,-1.10666 C 12.025697,10.036769 10.283,9.3439806 9.603884,8.6757016 9.240846,8.3185986 9.068487,8.1462396 8.915737,8.0169696 A 2.9414587,2.9414587 0 0 0 8.656424,7.8216466 4.6297012,4.6297012 0 0 1 8.628304,5.3773976 7.4168623,7.4168623 0 0 0 6.218372,7.2377416 h -0.0046 C 5.816933,6.7356296 5.845057,5.0791236 5.867505,4.7331156 a 1.8169958,1.8169958 0 0 0 -0.335429,0.177003 7.2819164,7.2819164 0 0 0 -0.978422,0.837542 8.7490335,8.7490335 0 0 0 -0.935075,1.119818 8.4401803,8.4401803 0 0 0 -1.341976,3.029961 c -0.0049,0.02167 -0.0088,0.04412 -0.01342,0.0658 -0.01883,0.08824 -0.103209,0.5348814 -0.115594,0.6308654 0,0.0072 0,-0.0075 0,0 A 11.634501,11.634501 0 0 0 2,11.989492 v 0.0516 a 10.013087,10.013087 0 0 0 19.879874,1.691339 c 0.01703,-0.129011 0.0307,-0.258023 0.04567,-0.387034 A 10.271109,10.271109 0 0 0 21.275009,8.3219536 Z m -0.993129,0.513465 0.0015,0.01084 z"
     id="path4935"
     style="fill:url(#k);stroke-width:0.258023" />
  <path
     d="m 12.030056,10.118566 c 0,0 -0.04232,0.01755 -0.120754,0.04438 -0.195582,0.330527 -0.890953,0.961651 -1.156716,0.960361 -2.847023,-0.01239 -3.316624,1.689016 -3.316624,1.689016 a 3.6363138,3.6363138 0 0 0 0.557845,1.634058 3.6623741,3.6623741 0 0 1 -0.476826,-1.500918 c 0,0 0.462119,-1.720237 3.309141,-1.720237 0.307821,0 1.186905,-0.857926 1.203934,-1.10666 z"
     id="path4937"
     style="fill:url(#l);stroke-width:0.258023" />
  <path
     d="m 20.28446,8.8465136 v -0.0095 c 0,-0.0075 -0.0015,-0.01187 0,-0.0095 0.0015,0.0023 0,0.0057 0.0018,0.01677 a 9.9950251,9.9950251 0 0 0 -0.215191,-0.495403 c -0.0258,-0.0547 -0.0516,-0.10579 -0.0787,-0.1592 -0.05031,-0.103209 -0.100112,-0.206419 -0.152233,-0.303435 -0.03225,-0.06064 -0.06605,-0.118174 -0.09908,-0.177004 -0.04851,-0.08644 -0.0965,-0.173391 -0.146299,-0.258022 -0.03664,-0.06089 -0.07431,-0.119207 -0.111465,-0.178552 -0.04877,-0.07741 -0.09727,-0.154814 -0.147073,-0.230156 -0.03948,-0.0596 -0.07999,-0.117143 -0.119981,-0.175198 -0.0498,-0.07173 -0.09934,-0.14346 -0.150169,-0.213384 -0.0418,-0.0578 -0.08437,-0.114304 -0.126947,-0.170811 -0.0516,-0.06734 -0.101403,-0.134688 -0.15275,-0.200742 a 17.299131,17.299131 0 0 0 -0.133131,-0.168065 c -0.05161,-0.06425 -0.103209,-0.129011 -0.156104,-0.192227 q -0.06838,-0.08282 -0.137526,-0.164876 c -0.0258,-0.02967 -0.0498,-0.06012 -0.07509,-0.08979 l 0.032,0.03922 c -0.870569,-1.023318 -1.812093,-1.966391 -2.652731,-3.29366 a 12.16964,12.16964 0 0 1 -0.235833,-0.383163 3.0309926,3.0309926 0 0 1 -0.110176,-0.206418 2.0510224,2.0510224 0 0 1 -0.137784,-0.351427 c -0.0018,-0.0065 -0.0049,-0.01626 -0.0059,-0.02142 a 1.1662626,1.1662626 0 0 1 -0.0057,-0.02322 0.02580227,0.02580227 0 0 0 -0.02271,-0.0258 0.03328493,0.03328493 0 0 0 -0.01883,0 l -0.0049,0.0028 a 0.06966613,0.06966613 0 0 0 -0.0075,0.0039 0.29362982,0.29362982 0 0 0 -0.06064,0.04464 0.32510859,0.32510859 0 0 0 -0.01445,0.0129 0.96036046,0.96036046 0 0 0 -0.07921,0.08386 l -0.0028,0.0028 c -0.598871,0.703886 -2.130752,3.768421 0.337751,6.517395 -2.311109,-2.719559 -0.854571,-5.658438 -0.221641,-6.428377 a 2.2215754,2.2215754 0 0 0 0.123593,0.302402 2.9641647,2.9641647 0 0 0 0.110175,0.206418 c 0.07741,0.132366 0.15662,0.258023 0.235833,0.382906 1.567746,2.474954 3.487435,3.612318 4.618606,6.430184 0,-0.01084 -0.0018,-0.01497 -0.0018,-0.01651 0,-0.0015 0,0.0021 0.0013,0.0095 l 0.0015,0.0095 a 9.0447275,9.0447275 0 0 1 -0.310659,6.7506484 8.2962036,8.2962036 0 0 1 -1.590452,2.280404 8.311943,8.311943 0 0 0 1.711207,-2.401417 9.0457596,9.0457596 0 0 0 0.311691,-6.7491004 z"
     id="path4939"
     style="fill:url(#m);stroke-width:0.258023" />
  <path
     d="m 15.114459,1.4074616 0.0052,-0.0057 c -2.265439,1.325462 -3.182452,3.66547 -3.399191,5.111945 a 7.3980267,7.3980267 0 0 1 3.024245,-4.66709 1.4026114,1.4026114 0 0 1 0.369746,-0.439155 z"
     id="path4941"
     style="fill:url(#n);stroke-width:0.258023" />
  <path
     d="m 17.609281,14.933786 0.0057,-0.0129 c 0.0885,-0.210547 1.277729,-3.165423 -0.991839,-5.2546334 a 2.0321867,2.0321867 0 0 0 -0.150427,-0.122818 c -0.02038,-0.01522 -0.04025,-0.03045 -0.06218,-0.04567 a 3.4944013,3.4944013 0 0 0 -2.322204,-0.599903 h -7.74e-4 a 2.2220914,2.2220914 0 0 0 -0.09108,0.01419 c 3.560455,1.7782934 2.65557,7.8521474 -2.18829,7.7618394 l 0.03948,0.0023 c 4.91043,0.193001 5.878015,-5.828991 2.466181,-7.7172014 a 3.6252188,3.6252188 0 0 1 1.896209,0.547524 2.1113997,2.1113997 0 0 1 0.06373,0.04361 1.9093679,1.9093679 0 0 1 0.154814,0.116627 c 2.349813,1.9989014 1.277212,4.9978994 1.196709,5.2120584 l -0.0052,0.01342"
     id="path4943"
     style="fill:url(#o);stroke-width:0.258023" />
  <path
     d="m 8.298016,10.07109 a 5.0017699,5.0017699 0 0 0 3.6198,0.08902 A 5.002544,5.002544 0 0 1 8.271182,9.9709782 3.8040286,3.8040286 0 0 0 4.637964,10.087089 l -0.01316,0.0085 h -0.0013 l -0.01084,0.0072 -0.0083,0.0057 -0.0052,0.0036 h -0.0015 l -0.0036,0.0026 h -0.0013 l 0.0046,0.01109 v 0.0015 l 0.0057,0.0129 v 0.0026 l 0.0085,0.01858 v 0.0015 a 2.0641815,2.0641815 0 0 0 0.0658,0.125657 2.5608752,2.5608752 0 0 0 2.284016,1.315916 C 6.780764,13.19024 7.59044,15.03149 9.550896,16.05326 7.677135,14.973435 6.889908,13.013753 7.108711,11.455038 5.661978,11.416848 5.015115,10.549636 4.830113,10.181954 a 3.956262,3.956262 0 0 1 3.467825,-0.11095 z"
     id="path4945"
     style="fill:url(#p);stroke-width:0.258023" />
  <path
     d="m 8.655893,7.8164876 -0.04902,-0.02864 0.0516,0.03406 z m -0.01032,-0.03664 a 4.6333135,4.6333135 0 0 1 -0.01626,-2.401934 7.2981719,7.2981719 0 0 0 -2.317044,1.757393 7.5580007,7.5580007 0 0 1 2.112948,-1.492403 4.6905945,4.6905945 0 0 0 0.220352,2.136944 z"
     id="path4947"
     style="fill:url(#q);stroke-width:0.258023" />
  <path
     d="m 2.333821,13.326304 -0.008,-0.02864 A 9.2594024,9.2594024 0 0 1 2.0936,12.278216 a 4.3257504,4.3257504 0 0 1 0,-1.290113 8.5116526,8.5116526 0 0 0 -0.0916,1.001128 v 0.0516 A 10.004572,10.004572 0 0 0 8.720911,21.486526 10.120682,10.120682 0 0 1 2.333817,13.3263 Z"
     id="path4949"
     style="fill:url(#r);stroke-width:0.258023" />
  <path
     d="M 2.253576,12.318468 C 2.078379,11.512921 2.434192,9.9598816 2.438579,9.9379496 a 8.4345038,8.4345038 0 0 1 1.343524,-3.029702 v 0.0015 -0.0015 a 8.7727716,8.7727716 0 0 1 0.934816,-1.120077 7.2955916,7.2955916 0 0 1 0.978422,-0.837283 0.86127975,0.86127975 0 0 1 0.04232,-0.0258 c -0.0036,0.76065 0.03974,2.044313 0.391936,2.465148 h 0.0046 c 0.04825,-0.0026 1.505562,-0.06683 2.25099,0.387034 0.08282,0.05161 0.150943,0.09263 0.211836,0.131592 a 3.0774367,3.0774367 0 0 1 0.265506,0.188615 c 0.156361,0.125399 0.333881,0.292855 0.707756,0.640412 0.541847,0.503402 1.720753,1.003966 2.230348,1.242379 C 11.304197,9.7302436 10.132774,9.1958786 9.604602,8.6759626 9.241564,8.3186016 9.069205,8.1465006 8.916713,8.0172306 A 3.0348629,3.0348629 0 0 0 8.658691,7.8216496 C 8.599091,7.7811396 8.53226,7.7372796 8.452273,7.6846396 7.722068,7.2103946 6.269917,7.2367126 6.221924,7.2377446 h -0.0046 c -0.36278,-0.459022 -0.370521,-1.88176 -0.351943,-2.387226 0,-0.01961 0,-0.03741 0.0021,-0.05419 v -0.03277 c 0,-0.01084 0,-0.02142 0.0018,-0.03045 0,0 -0.0018,-0.0018 -0.0041,-0.0018 h -0.009 l -0.0057,0.0021 -0.0083,0.0031 -0.008,0.0034 -0.0095,0.0044 -0.01032,0.0049 -0.01032,0.0052 -0.01264,0.0062 -0.01006,0.0054 -0.01497,0.0077 -0.0085,0.0046 a 4.9777738,4.9777738 0 0 0 -0.222932,0.129011 7.2955916,7.2955916 0 0 0 -0.978422,0.837284 8.7727716,8.7727716 0 0 0 -0.93559,1.124462 v 0.0015 -0.0015 A 8.4345038,8.4345038 0 0 0 2.277402,9.8977366 C 2.272802,9.9194066 1.916171,11.471675 2.0924,12.278254 2.749842,16.157883 5.844824,19.258026 9.647563,20.177361 5.918789,19.210512 2.901729,16.14417 2.253576,12.318468 Z"
     id="path4951"
     style="fill:url(#s);stroke-width:0.258023" />
  <path
     d="m 21.275783,8.3222116 a 6.1319093,6.1319093 0 0 0 -1.757134,-2.373808 l -0.0178,-0.01264 a 3.5124629,3.5124629 0 0 0 -0.05935,-0.04077 q -0.01109,-0.0077 -0.02245,-0.01471 -0.02838,-0.01806 -0.05573,-0.03483 l -0.02167,-0.0129 a 2.0288324,2.0288324 0 0 0 -0.07431,-0.04102 9.0661434,9.0661434 0 0 1 0.07896,0.158684 8.6667242,8.6667242 0 0 1 0.04799,0.09882 10.252532,10.252532 0 0 1 0.885792,2.777357 l 0.0021,0.01677 C 20.63722,11.159435 19.457798,13.403458 17.613968,14.92089 l -0.0057,0.0129 c -2.292016,1.864214 -4.520558,2.067536 -6.015025,1.847184 1.489049,0.278149 3.837829,0.160748 6.25705,-1.806159 l 0.0054,-0.0129 c 1.84383,-1.517431 3.023509,-3.761455 2.66847,-6.0777244 l -0.0021,-0.01677 a 10.047146,10.047146 0 0 0 -0.729946,-2.437024 6.6213783,6.6213783 0 0 1 1.09479,1.560263 9.9638043,9.9638043 0 0 1 0.92527,4.9024314 c -0.0077,0.127722 -0.01419,0.255185 -0.024,0.381874 a 9.9674166,9.9674166 0 0 1 -9.395122,8.719361 10.230342,10.230342 0 0 1 -1.976712,-0.0805 10.020827,10.020827 0 0 0 11.463432,-8.181384 c 0.01677,-0.129011 0.03045,-0.256732 0.04541,-0.385744 A 10.269303,10.269303 0 0 0 21.275783,8.3222116 Z m -0.991323,0.524302 v -0.0095 z"
     id="path4953"
     style="fill:url(#t);stroke-width:0.258023" />
</svg>
