<?xml version="1.0" encoding="UTF-8" standalone="no"?>
<svg
   xmlns:dc="http://purl.org/dc/elements/1.1/"
   xmlns:cc="http://creativecommons.org/ns#"
   xmlns:rdf="http://www.w3.org/1999/02/22-rdf-syntax-ns#"
   xmlns:svg="http://www.w3.org/2000/svg"
   xmlns="http://www.w3.org/2000/svg"
   xmlns:sodipodi="http://sodipodi.sourceforge.net/DTD/sodipodi-0.dtd"
   xmlns:inkscape="http://www.inkscape.org/namespaces/inkscape"
   inkscape:version="1.0 (4035a4fb49, 2020-05-01)"
   sodipodi:docname="firefox32.svg"
   viewBox="0 0 32 32"
   version="1.1"
   id="svg4959"
   width="32"
   height="32">
  <sodipodi:namedview
     inkscape:current-layer="svg4959"
     inkscape:window-maximized="1"
     inkscape:window-y="27"
     inkscape:window-x="0"
     inkscape:cy="18.512458"
     inkscape:cx="18.663554"
     inkscape:zoom="19.551559"
     showgrid="true"
     id="namedview233"
     inkscape:window-height="1022"
     inkscape:window-width="1920"
     inkscape:pageshadow="2"
     inkscape:pageopacity="0"
     guidetolerance="10"
     gridtolerance="10"
     objecttolerance="10"
     borderopacity="1"
     bordercolor="#666666"
     pagecolor="#ffffff">
    <inkscape:grid
       id="grid1058"
       type="xygrid" />
  </sodipodi:namedview>
  <metadata
     id="metadata4963">
    <rdf:RDF>
      <cc:Work
         rdf:about="">
        <dc:format>image/svg+xml</dc:format>
        <dc:type
           rdf:resource="http://purl.org/dc/dcmitype/StillImage" />
        <dc:title></dc:title>
      </cc:Work>
    </rdf:RDF>
  </metadata>
  <defs
     id="defs4647">
    <linearGradient
       x1="84.162506"
       y1="-3.6041653"
       x2="91.017914"
       y2="41.136391"
       id="f"
       gradientTransform="matrix(0.24870851,0,0,0.52466397,1.54727,1.0985213)"
       gradientUnits="userSpaceOnUse">
      <stop
         stop-color="#AAF2FF"
         offset="0%"
         id="stop4518" />
      <stop
         stop-color="#0DF"
         offset="29%"
         id="stop4520" />
      <stop
         stop-color="#0090ED"
         offset="61%"
         id="stop4522" />
      <stop
         stop-color="#0250BB"
         offset="89%"
         id="stop4524" />
    </linearGradient>
    <linearGradient
       x1="59.666759"
       y1="0.0084456606"
       x2="65.72345"
       y2="30.049629"
       id="g"
       gradientTransform="matrix(0.27734917,0,0,0.47048415,1.54727,1.0985213)"
       gradientUnits="userSpaceOnUse">
      <stop
         stop-color="#AAF2FF"
         offset="0%"
         id="stop4527" />
      <stop
         stop-color="#0DF"
         offset="29%"
         id="stop4529" />
      <stop
         stop-color="#0090ED"
         offset="74%"
         id="stop4531" />
      <stop
         stop-color="#0250BB"
         offset="100%"
         id="stop4533" />
    </linearGradient>
    <linearGradient
       x1="68.991951"
       y1="11.815484"
       x2="17.021517"
       y2="66.148209"
       id="k"
       gradientTransform="matrix(0.35558464,0,0,0.3669686,1.54727,1.0985213)"
       gradientUnits="userSpaceOnUse">
      <stop
         stop-color="#80EBFF"
         stop-opacity=".5"
         offset="24%"
         id="stop4536" />
      <stop
         stop-color="#0DF"
         stop-opacity="0"
         offset="70%"
         id="stop4538" />
    </linearGradient>
    <linearGradient
       x1="32.206059"
       y1="33.089981"
       x2="25.120728"
       y2="60.567245"
       id="l"
       gradientTransform="matrix(0.37217872,0,0,0.35060679,1.54727,1.0985213)"
       gradientUnits="userSpaceOnUse">
      <stop
         stop-color="#BFF3FF"
         stop-opacity=".9"
         offset="0%"
         id="stop4541" />
      <stop
         stop-color="#80EBFF"
         stop-opacity=".5"
         offset="100%"
         id="stop4543" />
    </linearGradient>
    <linearGradient
       x1="95.009483"
       y1="-0.82379484"
       x2="93.769226"
       y2="57.467999"
       id="m"
       gradientTransform="matrix(0.23217002,0,0,0.56203809,1.54727,1.0985213)"
       gradientUnits="userSpaceOnUse">
      <stop
         stop-color="#BFF3FF"
         offset="0%"
         id="stop4546" />
      <stop
         stop-color="#0DF"
         stop-opacity="0"
         offset="100%"
         id="stop4548" />
    </linearGradient>
    <linearGradient
       x1="56.13681"
       y1="-0.63725394"
       x2="55.329029"
       y2="23.111471"
       id="n"
       gradientTransform="matrix(0.29456464,0,0,0.4429873,1.54727,1.0985213)"
       gradientUnits="userSpaceOnUse">
      <stop
         stop-color="#BFF3FF"
         offset="0%"
         id="stop4551" />
      <stop
         stop-color="#AAF2FF"
         stop-opacity=".5"
         offset="100%"
         id="stop4553" />
    </linearGradient>
    <linearGradient
       x1="58.332546"
       y1="25.308983"
       x2="56.715939"
       y2="64.10762"
       id="o"
       gradientTransform="matrix(0.32198239,0,0,0.4052656,1.54727,1.0985213)"
       gradientUnits="userSpaceOnUse">
      <stop
         stop-color="#BFF3FF"
         offset="0%"
         id="stop4556" />
      <stop
         stop-color="#0DF"
         stop-opacity="0"
         offset="100%"
         id="stop4558" />
    </linearGradient>
    <linearGradient
       x1="23.729013"
       y1="33.093102"
       x2="25.866491"
       y2="66.491219"
       id="p"
       gradientTransform="matrix(0.38381688,0,0,0.33997565,1.54727,1.0985213)"
       gradientUnits="userSpaceOnUse">
      <stop
         stop-color="#BFF3FF"
         stop-opacity=".8"
         offset="0%"
         id="stop4561" />
      <stop
         stop-color="#80EBFF"
         stop-opacity=".2"
         offset="100%"
         id="stop4563" />
    </linearGradient>
    <linearGradient
       x1="29.194855"
       y1="12.974803"
       x2="20.563929"
       y2="26.988457"
       id="q"
       gradientTransform="matrix(0.35393107,0,0,0.36868308,1.54727,1.0985213)"
       gradientUnits="userSpaceOnUse">
      <stop
         stop-color="#BFF3FF"
         stop-opacity=".8"
         offset="0%"
         id="stop4566" />
      <stop
         stop-color="#80EBFF"
         stop-opacity=".2"
         offset="100%"
         id="stop4568" />
    </linearGradient>
    <linearGradient
       x1="18.502363"
       y1="29.405516"
       x2="16.874853"
       y2="74.324791"
       id="r"
       gradientTransform="matrix(0.28898364,0,0,0.45154249,1.54727,1.0985213)"
       gradientUnits="userSpaceOnUse">
      <stop
         stop-color="#0DF"
         stop-opacity=".4"
         offset="0%"
         id="stop4571" />
      <stop
         stop-color="#0DF"
         stop-opacity="0"
         offset="100%"
         id="stop4573" />
    </linearGradient>
    <linearGradient
       x1="25.577993"
       y1="4.5553231"
       x2="25.577993"
       y2="57.36784"
       id="s"
       gradientTransform="matrix(0.28710539,0,0,0.4544965,1.54727,1.0985213)"
       gradientUnits="userSpaceOnUse">
      <stop
         stop-color="#BFF3FF"
         offset="0%"
         id="stop4576" />
      <stop
         stop-color="#0DF"
         stop-opacity="0"
         offset="100%"
         id="stop4578" />
    </linearGradient>
    <linearGradient
       x1="68.298668"
       y1="12.77847"
       x2="65.108376"
       y2="89.877266"
       id="t"
       gradientTransform="matrix(0.30499338,0,0,0.42784009,1.54727,1.0985213)"
       gradientUnits="userSpaceOnUse">
      <stop
         stop-color="#BFF3FF"
         stop-opacity=".8"
         offset="0%"
         id="stop4581" />
      <stop
         stop-color="#0DF"
         stop-opacity="0"
         offset="100%"
         id="stop4583" />
    </linearGradient>
    <linearGradient
       x1="-0.1"
       y1="0.66000003"
       x2="1.1"
       y2="0.33000001"
       id="u">
      <stop
         offset="0"
         stop-color="#0250bb"
         id="stop4586" />
      <stop
         offset=".123"
         stop-color="#024eb6"
         id="stop4588" />
      <stop
         offset="1"
         stop-color="#054096"
         id="stop4590" />
    </linearGradient>
    <radialGradient
       cx="42.067257"
       cy="30.945194"
       r="22.6548"
       id="a"
       gradientTransform="matrix(0.36132746,0,0,0.36113611,1.54727,1.0985213)"
       fx="42.067257"
       fy="30.945194"
       gradientUnits="userSpaceOnUse">
      <stop
         stop-color="#0DF"
         stop-opacity=".4"
         offset="10%"
         id="stop4593" />
      <stop
         stop-color="#7542E5"
         stop-opacity=".25"
         offset="90%"
         id="stop4595" />
    </radialGradient>
    <radialGradient
       cx="39.89164"
       cy="41.40416"
       fx="39.801777"
       fy="41.40416"
       r="19.256578"
       id="b"
       gradientTransform="matrix(0.36132746,0,0,0.36113611,1.54727,1.0985213)"
       gradientUnits="userSpaceOnUse">
      <stop
         stop-color="#7542E5"
         stop-opacity="0"
         offset="91%"
         id="stop4598" />
      <stop
         stop-color="#0DF"
         stop-opacity=".4"
         offset="100%"
         id="stop4600" />
    </radialGradient>
    <radialGradient
       cx="61.200493"
       cy="9.810463"
       fx="61.200493"
       fy="9.810463"
       r="89.403168"
       gradientTransform="matrix(0.40085994,0,0,0.32552116,1.54727,1.0985213)"
       id="c"
       gradientUnits="userSpaceOnUse">
      <stop
         stop-color="#80EBFF"
         offset="0%"
         id="stop4603" />
      <stop
         stop-color="#0DF"
         offset="26%"
         id="stop4605" />
      <stop
         stop-color="#0090ED"
         offset="53%"
         id="stop4607" />
      <stop
         stop-color="#0060DF"
         offset="86%"
         id="stop4609" />
    </radialGradient>
    <radialGradient
       cx="34.469643"
       cy="46.828964"
       fx="34.658924"
       fy="46.828964"
       r="89.403168"
       gradientTransform="matrix(0.40085994,0,0,0.32552116,1.54727,1.0985213)"
       id="d"
       gradientUnits="userSpaceOnUse">
      <stop
         stop-color="#321C64"
         stop-opacity=".8"
         offset="30%"
         id="stop4612" />
      <stop
         stop-color="#212F83"
         stop-opacity=".5"
         offset="37%"
         id="stop4614" />
      <stop
         stop-color="#0A47AC"
         stop-opacity=".14"
         offset="48%"
         id="stop4616" />
      <stop
         stop-color="#0250BB"
         stop-opacity="0"
         offset="53%"
         id="stop4618" />
    </radialGradient>
    <radialGradient
       cx="61.191902"
       cy="-19.160242"
       r="139.74019"
       gradientTransform="matrix(0.39444598,0,0,0.33081435,1.54727,1.0985213)"
       id="e"
       fx="61.191902"
       fy="-19.160242"
       gradientUnits="userSpaceOnUse">
      <stop
         stop-color="#80EBFF"
         offset="0%"
         id="stop4621" />
      <stop
         stop-color="#00B3F4"
         offset="47%"
         id="stop4623" />
      <stop
         stop-color="#0060DF"
         offset="84%"
         id="stop4625" />
      <stop
         stop-color="#592ACB"
         offset="100%"
         id="stop4627" />
    </radialGradient>
    <radialGradient
       cx="37.300232"
       cy="5.5633535"
       fx="37.300232"
       fy="5.5633535"
       r="28.381479"
       gradientTransform="matrix(0.36079293,0,0,0.36167114,1.54727,1.0985213)"
       id="h"
       gradientUnits="userSpaceOnUse">
      <stop
         stop-color="#0DF"
         offset="0%"
         id="stop4630" />
      <stop
         stop-color="#0090ED"
         offset="82%"
         id="stop4632" />
    </radialGradient>
    <radialGradient
       cx="52.950813"
       cy="21.181152"
       fx="52.950813"
       fy="21.181152"
       r="85.359634"
       gradientTransform="matrix(0.38192901,0,0,0.34165615,1.54727,1.0985213)"
       id="i"
       gradientUnits="userSpaceOnUse">
      <stop
         stop-color="#80EBFF"
         offset="29%"
         id="stop4635" />
      <stop
         stop-color="#00B3F4"
         offset="100%"
         id="stop4637" />
    </radialGradient>
    <radialGradient
       cx="36.138844"
       cy="15.884185"
       fx="36.138844"
       fy="15.884185"
       r="71.746956"
       gradientTransform="matrix(0.36485222,0,0,0.35764725,1.54727,1.0985213)"
       id="j"
       gradientUnits="userSpaceOnUse">
      <stop
         stop-color="#AAF2FF"
         offset="18%"
         id="stop4640" />
      <stop
         stop-color="#0DF"
         offset="43%"
         id="stop4642" />
      <stop
         stop-color="#0060DF"
         offset="69%"
         id="stop4644" />
    </radialGradient>
  </defs>
  <path
     d="m 9.624773,17.942397 0.882128,2.445539 1.32536,1.788459 3.11165,0.593865 1.488636,0.126431 2.541627,-0.635045 1.094893,-1.049379 z"
     id="path4649"
     style="fill:#09204d;stroke-width:0.361232" />
  <path
     d="M 22.7942,14.334776 22.482457,13.30093 21.591659,11.619758 20.572624,10.545454 19.490735,9.7727803 18.551533,9.4043233 17.42449,9.0033563 l -1.855648,-0.118123 -1.170391,0.21096 -0.954735,0.293681 -1.694178,0.9915807 -1.05877,1.181589 -0.976409,1.585808 -0.38399,1.349562 -0.07189,2.047823 0.366289,1.39616 0.807714,1.58942 0.569302,0.767618 0.787846,0.722463 0.983634,0.665389 1.213017,0.52776 2.029761,0.238051 1.060215,0.02962 1.568469,-0.441786 1.402301,-0.769785 0.901996,-0.769785 0.699706,-0.834445 0.989053,-1.936202 0.218184,-1.324637 z"
     id="path4651"
     style="fill:#09204d;stroke-width:0.361232" />
  <path
     d="m 15.602798,9.8157663 -0.831195,0.8243307 1.355703,0.549795 1.008559,-1.2509457 z"
     id="path4653"
     style="fill:#0e56d7;stroke-width:0.361232" />
  <path
     d="m 16.127306,11.189892 2.62471,-0.07983 -1.616151,-1.1711137 z"
     id="path4655"
     style="fill:#1053d1;stroke-width:0.361232" />
  <path
     d="m 18.556951,9.9302773 -1.421086,0.0087 1.616151,1.1711137 1.494416,-0.09753 z"
     id="path4657"
     style="fill:#0b4fbf;stroke-width:0.361232" />
  <path
     d="M 20.246432,11.012527 19.396815,9.8410523 20.572624,10.545454 Z"
     id="path4659"
     style="fill:#0b48b0;stroke-width:0.361232" />
  <path
     d="m 21.371308,11.729933 -1.124876,-0.717406 0.326192,-0.467073 z"
     id="path4661"
     style="fill:#0c45a7;stroke-width:0.361232" />
  <path
     d="m 20.246432,11.012527 -0.188202,0.802657 1.028789,0.411443 z"
     id="path4663"
     style="fill:#0f46af;stroke-width:0.361232" />
  <path
     d="m 20.246432,11.012527 1.124876,0.717406 -0.284289,0.496694 z"
     id="path4665"
     style="fill:#0c47ad;stroke-width:0.361232" />
  <path
     d="m 18.752016,11.11006 1.494416,-0.09753 -0.188202,0.802657 z"
     id="path4667"
     style="fill:#0e4fc3;stroke-width:0.361232" />
  <path
     d="m 18.752016,11.11006 -1.180866,1.069246 1.519702,0.744137 z"
     id="path4669"
     style="fill:#174dca;stroke-width:0.361232" />
  <path
     d="m 16.127306,11.189892 2.62471,-0.07983 -1.180866,1.069246 z"
     id="path4671"
     style="fill:#1650d4;stroke-width:0.361232" />
  <path
     d="m 20.05823,11.815184 0.714517,1.386408 0.314272,-0.974965 z"
     id="path4673"
     style="fill:#1246b2;stroke-width:0.361232" />
  <path
     d="m 20.772747,13.201592 0.314272,-0.974965 0.748833,1.780873 z"
     id="path4675"
     style="fill:#133ea1;stroke-width:0.361232" />
  <path
     d="m 21.087019,12.226627 1.141131,0.83589 -0.392298,0.944983 z"
     id="path4677"
     style="fill:#103d98;stroke-width:0.361232" />
  <path
     d="m 21.371308,11.729933 0.220351,-0.110175 0.636491,1.442759 z"
     id="path4679"
     style="fill:#0b3785;stroke-width:0.361232" />
  <path
     d="m 22.22815,13.062517 0.254307,0.238413 -0.890798,-1.681172 z"
     id="path4681"
     style="fill:#0b3685;stroke-width:0.361232" />
  <path
     d="m 22.22815,13.062517 -0.856842,-1.332584 -0.284289,0.496694 z m -1.655526,-2.517063 0.798684,1.184479 0.220351,-0.108369 z"
     id="path4683"
     style="fill:#0c3b91;stroke-width:0.361232" />
  <path
     d="M 22.736764,15.14249 22.482457,13.30093 22.7942,14.334776 22.73279,15.14249 Z"
     id="path4685"
     style="fill:#0b3279;stroke-width:0.361232" />
  <path
     d="m 22.22815,13.062517 0.508614,2.079973 -0.254307,-1.84156 z"
     id="path4687"
     style="fill:#0f388d;stroke-width:0.361232" />
  <path
     d="m 21.835852,14.0075 0.900912,1.13499 -0.508614,-2.079973 z"
     id="path4689"
     style="fill:#0d3481;stroke-width:0.361232" />
  <path
     d="m 22.73279,15.14249 0.06141,-0.807714 0.06177,2.071303 -0.119207,-1.263589 z"
     id="path4691"
     style="fill:#0b2e71;stroke-width:0.361232" />
  <path
     d="M 22.585769,16.779592 22.855971,16.406079 22.736764,15.14249 Z"
     id="path4693"
     style="fill:#0e2f77;stroke-width:0.361232" />
  <path
     d="M 22.637787,17.730716 22.42177,17.83475 22.855971,16.406079 Z"
     id="path4695"
     style="fill:#0e2969;stroke-width:0.361232" />
  <path
     d="m 22.42177,17.83475 0.434201,-1.428671 -0.270202,0.373513 z"
     id="path4697"
     style="fill:#0c2a69;stroke-width:0.361232" />
  <path
     d="m 22.585769,16.779592 0.150995,-1.637102 -0.462738,0.545821 z"
     id="path4699"
     style="fill:#123180;stroke-width:0.361232" />
  <path
     d="m 22.42177,17.83475 0.163999,-1.055158 -0.892604,1.500196 z"
     id="path4701"
     style="fill:#112b70;stroke-width:0.361232" />
  <path
     d="m 21.835852,14.0075 0.900912,1.13499 -0.462738,0.545821 z"
     id="path4703"
     style="fill:#12378c;stroke-width:0.361232" />
  <path
     d="m 22.585769,16.779592 -0.311743,-1.091281 -0.470685,1.343782 z"
     id="path4705"
     style="fill:#122e7b;stroke-width:0.361232" />
  <path
     d="M 21.648734,19.666918 22.42177,17.83475 21.698584,19.170224 Z"
     id="path4707"
     style="fill:#11296c;stroke-width:0.361232" />
  <path
     d="M 21.698584,19.170224 22.42177,17.83475 21.693165,18.279788 Z"
     id="path4709"
     style="fill:#142a72;stroke-width:0.361232" />
  <path
     d="m 22.42177,17.83475 -0.773036,1.831084 0.989053,-1.936202 z m -1.472381,2.666613 0.699345,-0.834445 0.04985,-0.496694 z m -0.903079,0.769785 0.903079,-0.769785 -0.953652,0.438536 z"
     id="path4711"
     style="fill:#112768;stroke-width:0.361232" />
  <path
     d="m 14.781718,21.807216 -0.911388,0.223241 0.02782,-0.63649 z"
     id="path4713"
     style="fill:#1c226a;stroke-width:0.361232" />
  <path
     d="m 9.714359,13.148852 0.251417,-0.0932 -0.635407,1.44276 z"
     id="path4715"
     style="fill:#182b7a;stroke-width:0.361232" />
  <path
     d="M 9.330369,14.498414 9.81153,14.408824 9.965776,13.05565 Z"
     id="path4717"
     style="fill:#1f308d;stroke-width:0.361232" />
  <path
     d="m 9.359268,16.231242 -0.0289,-1.732828 0.481161,-0.08959 z"
     id="path4719"
     style="fill:#1e2b7f;stroke-width:0.361232" />
  <path
     d="m 20.05823,11.815184 -0.967378,1.108259 1.681895,0.278149 z m -8.441264,-1.136435 1.234691,-0.8449207 -1.102119,0.5483497 z"
     id="path4721"
     style="fill:#1346b5;stroke-width:0.361232" />
  <path
     d="m 11.749538,10.381455 1.694178,-0.9915807 -0.592059,0.443954 -1.102119,0.5476267"
     id="path4723"
     style="fill:#1244ac;stroke-width:0.361232" />
  <path
     d="m 12.851657,9.8338283 1.546794,-0.737635 -0.954735,0.293681 z"
     id="path4725"
     style="fill:#0e4ab6;stroke-width:0.361232" />
  <path
     d="m 18.752016,11.11006 0.338836,1.813383 0.967378,-1.108259 z m -4.958989,-1.3622047 1.441314,-0.577971 -0.836612,-0.07514 z"
     id="path4727"
     style="fill:#0e4bba;stroke-width:0.361232" />
  <path
     d="m 15.568842,8.8852333 -1.170391,0.21096 0.836613,0.07514 z"
     id="path4729"
     style="fill:#0a4ebc;stroke-width:0.361232" />
  <path
     d="m 16.675656,9.1572413 -1.440592,0.01409 0.333778,-0.286096"
     id="path4731"
     style="fill:#0c54cc;stroke-width:0.361232" />
  <path
     d="m 19.396815,9.8403303 -0.839864,0.08922 1.689481,1.0836957 z m -2.721159,-0.683089 1.875877,0.247082 -1.127043,-0.400967 z"
     id="path4733"
     style="fill:#0b4bb4;stroke-width:0.361232" />
  <path
     d="m 19.396815,9.8410523 -0.845282,-0.436729 0.939202,0.368457 z"
     id="path4735"
     style="fill:#0c3889;stroke-width:0.361232" />
  <path
     d="m 9.624773,17.942397 0.555936,0.456236 -0.819996,-2.167391 z m 7.65414,4.310579 0.487663,-1.147995 -1.776899,0.477188 z m 0.487663,-1.147995 1.485385,0.412166 0.08995,-1.148717 z"
     id="path4737"
     style="fill:#202575;stroke-width:0.361232" />
  <path
     d="M 19.995737,20.939899 19.341908,20.36843 20.921574,19.31869 Z"
     id="path4739"
     style="fill:#1b2773;stroke-width:0.361232" />
  <path
     d="m 20.921574,19.31869 -0.925837,1.621209 0.953652,-0.438536 0.749195,-1.331139 z"
     id="path4741"
     style="fill:#15276d;stroke-width:0.361232" />
  <path
     d="m 19.490735,9.7727803 -0.09392,0.06827 1.175809,0.7044017 z m -0.933784,0.157497 0.839864,-0.08923 -0.845282,-0.436729 z"
     id="path4743"
     style="fill:#0c409d;stroke-width:0.361232" />
  <path
     d="m 15.568842,8.8852333 1.106814,0.272008 0.748834,-0.153885 z m 2.982691,0.51909 -1.875877,-0.247082 1.881295,0.773036 z"
     id="path4745"
     style="fill:#0b4cb7;stroke-width:0.361232" />
  <path
     d="m 16.675656,9.1572413 0.460209,0.781705 1.421086,-0.0087 z"
     id="path4747"
     style="fill:#0b55ce;stroke-width:0.361232" />
  <path
     d="m 16.675656,9.1572413 0.460209,0.781705 -1.533067,-0.12318 z"
     id="path4749"
     style="fill:#0a52c5;stroke-width:0.361232" />
  <path
     d="m 15.235064,9.1713293 0.367734,0.644437 1.072858,-0.658525 z"
     id="path4751"
     style="fill:#0951c4;stroke-width:0.361232" />
  <path
     d="m 13.793749,9.7478553 1.441315,-0.576526 0.367734,0.644437 z"
     id="path4753"
     style="fill:#0b50c4;stroke-width:0.361232" />
  <path
     d="m 12.851657,9.8338283 0.942092,-0.08597 0.604702,-0.650218 z m 0.942092,-0.08597 0.977854,0.8922417 0.830834,-0.8243307 z"
     id="path4755"
     style="fill:#0f4dbf;stroke-width:0.361232" />
  <path
     d="M 13.793749,9.7478553 12.201801,11.240826 12.851657,9.8338283 Z"
     id="path4757"
     style="fill:#1546b6;stroke-width:0.361232" />
  <path
     d="m 12.201801,11.240826 1.015783,0.168695 0.576165,-1.6616657 z"
     id="path4759"
     style="fill:#1549bd;stroke-width:0.361232" />
  <path
     d="m 13.217584,11.409521 0.576165,-1.6616657 0.977854,0.8922417 z"
     id="path4761"
     style="fill:#144bc3;stroke-width:0.361232" />
  <path
     d="m 10.690768,11.563044 0.06177,0.600367 0.864427,-1.484662 z"
     id="path4763"
     style="fill:#173794;stroke-width:0.361232" />
  <path
     d="m 9.965776,13.055654 0.724992,-1.49261 0.06177,0.600367 z"
     id="path4765"
     style="fill:#192f84;stroke-width:0.361232" />
  <path
     d="m 10.752539,12.163411 0.864427,-1.484662 0.584835,0.562077 z"
     id="path4767"
     style="fill:#1a389b;stroke-width:0.361232" />
  <path
     d="m 10.70016,13.450842 0.05238,-1.287431 -0.786763,0.892243 z"
     id="path4769"
     style="fill:#1d3089;stroke-width:0.361232" />
  <path
     d="m 10.70016,13.450842 0.05238,-1.287431 1.021202,0.829027 z"
     id="path4771"
     style="fill:#1e389f;stroke-width:0.361232" />
  <path
     d="m 11.773741,12.992438 0.42806,-1.751612 -1.449262,0.922585 z"
     id="path4773"
     style="fill:#1c40af;stroke-width:0.361232" />
  <path
     d="m 11.773741,12.992438 0.42806,-1.751612 1.015783,0.168695 z"
     id="path4775"
     style="fill:#1e41b7;stroke-width:0.361232" />
  <path
     d="m 9.81153,14.408828 0.154246,-1.353174 0.734384,0.395188 z"
     id="path4777"
     style="fill:#192c7d;stroke-width:0.361232" />
  <path
     d="m 17.278913,22.252976 1.365818,-0.212043 0.60723,-0.523786 z M 9.259568,16.545514 9.360352,16.23052 9.331452,14.496607 Z M 9.812614,14.408106 9.360352,16.23052 10.180348,18.397911 9.779019,15.88735 Z"
     id="path4779"
     style="fill:#162467;stroke-width:0.361232" />
  <path
     d="m 10.179264,18.398633 0.676587,0.095 -0.473936,-1.106092 z"
     id="path4781"
     style="fill:#1a236a;stroke-width:0.361232" />
  <path
     d="m 19.995737,20.939899 -0.743776,0.57797 -0.60723,0.523786 1.402301,-0.769784 z m -3.97969,1.513199 1.060215,0.02962 1.568469,-0.441786 -1.365818,0.212043 z m -5.20535,-2.796656 0.710904,0.136546 -0.66575,-1.300435 z"
     id="path4783"
     style="fill:#132668;stroke-width:0.361232" />
  <path
     d="m 13.898145,21.393967 -1.203985,-0.926921 -0.500306,0.481522 1.676476,1.081889 z m -4.273372,-3.45157 0.807714,1.58942 -0.252862,-1.133184 z m -0.366289,-1.39616 0.366289,1.39616 -0.265505,-1.711155 z m 6.731193,5.035932 -2.091532,-0.188202 0.883573,0.413249 -0.911388,0.223241 -1.097061,-0.341725 1.213017,0.52776 2.029761,0.238051 1.264311,-0.200122 z m -5.133826,-3.088532 -0.675142,-0.095 0.631433,1.257809 z m -1.076832,-2.606287 0.40169,2.511283 0.202651,-1.011449 z m 1.742582,3.905638 -0.710904,-0.136546 -0.377126,-0.124625 0.569301,0.767618 0.787847,0.722463 0.98255,0.666834 -0.57797,-0.738719 z"
     id="path4785"
     style="fill:#1b2268;stroke-width:0.361232" />
  <path
     d="m 9.81153,14.408828 0.954736,1.477077 -0.06611,-2.435063 z"
     id="path4787"
     style="fill:#212a81;stroke-width:0.361232" />
  <path
     d="m 9.779019,15.88735 0.602896,1.500195 0.384351,-1.50164 z"
     id="path4789"
     style="fill:#21267a;stroke-width:0.361232" />
  <path
     d="m 10.381915,17.387545 0.384351,-1.50164 0.477187,1.186646 z"
     id="path4791"
     style="fill:#262781;stroke-width:0.361232" />
  <path
     d="m 10.855851,18.493637 1.830723,1.134629 -1.443121,-2.555715 z"
     id="path4793"
     style="fill:#272379;stroke-width:0.361232" />
  <path
     d="m 10.433571,19.531817 0.37821,0.124625 -0.631072,-1.257809 z m 4.043629,0.652746 -0.577971,1.209404 2.091532,0.188202 z m -3.621349,-1.690926 0.66575,1.300434 0.672253,1.155942 0.500306,-0.481522 -0.0076,-0.83878 z"
     id="path4795"
     style="fill:#1e226d;stroke-width:0.361232" />
  <path
     d="m 19.341908,20.36843 -0.08995,1.148717 0.743776,-0.577971 z m -3.200875,-0.165083 -0.152078,1.378822 1.777621,-0.477188 -0.06321,-1.550045 z"
     id="path4797"
     style="fill:#222475;stroke-width:0.361232" />
  <path
     d="m 9.779019,15.88735 h 0.987247 L 9.81153,14.410273 Z m 7.924342,3.667586 0.06321,1.550045 1.575332,-0.736551 z"
     id="path4799"
     style="fill:#23277d;stroke-width:0.361232" />
  <path
     d="m 17.703361,19.554936 1.013977,-0.918251 0.62457,1.731745 z"
     id="path4801"
     style="fill:#1e2776;stroke-width:0.361232" />
  <path
     d="m 19.341908,20.36843 0.766534,-2.321637 -1.391104,0.589892 z"
     id="path4803"
     style="fill:#222b86;stroke-width:0.361232" />
  <path
     d="m 20.921574,19.31869 -1.579666,1.04974 0.766534,-2.321637 z"
     id="path4805"
     style="fill:#192974;stroke-width:0.361232" />
  <path
     d="m 21.693165,18.279788 -1.584723,-0.232995 0.813132,1.271897 0.77701,-0.148466 z"
     id="path4807"
     style="fill:#172a75;stroke-width:0.361232" />
  <path
     d="m 21.803341,17.032093 -1.694899,1.0147 1.584723,0.232995 0.892604,-1.500557 z"
     id="path4809"
     style="fill:#172d7d;stroke-width:0.361232" />
  <path
     d="m 9.965776,13.055293 0.724992,-1.49261 -0.975326,1.585808 z m 11.20541,1.8477 0.632155,2.128739 0.469601,-1.343782 z"
     id="path4811"
     style="fill:#18338a;stroke-width:0.361232" />
  <path
     d="M 22.274026,15.688311 21.835852,14.0075 21.171186,14.903354 Z"
     id="path4813"
     style="fill:#153791;stroke-width:0.361232" />
  <path
     d="m 20.108442,18.046793 1.694899,-1.0147 -1.642521,-0.731133 z"
     id="path4815"
     style="fill:#1b318b;stroke-width:0.361232" />
  <path
     d="m 20.108442,18.046793 -1.535958,-1.551851 0.144854,2.141743 z"
     id="path4817"
     style="fill:#242d8d;stroke-width:0.361232" />
  <path
     d="m 17.703361,19.554936 -1.179422,-1.044321 2.193399,0.12607 z"
     id="path4819"
     style="fill:#2a2b8f;stroke-width:0.361232" />
  <path
     d="m 10.855851,18.493637 0.387602,-1.421086 -0.861538,0.314994 z m 5.668088,0.01626 -0.382906,1.693455 1.561605,-0.648411 z"
     id="path4821"
     style="fill:#27267f;stroke-width:0.361232" />
  <path
     d="m 14.082735,18.857036 -1.134991,-0.577248 -0.26117,1.348478 1.789542,0.556297 1.66564,0.01878 z"
     id="path4823"
     style="fill:#2d2381;stroke-width:0.361232" />
  <path
     d="m 16.141756,20.203347 0.382183,-1.692732 -2.441204,0.346421 z"
     id="path4825"
     style="fill:#2f2485;stroke-width:0.361232" />
  <path
     d="M 10.766266,15.885905 11.255735,14.322494 10.70016,13.450842 Z"
     id="path4827"
     style="fill:#233196;stroke-width:0.361232" />
  <path
     d="m 11.773741,12.992438 2.149329,-0.626375 -1.135351,2.319469 z"
     id="path4829"
     style="fill:#293cb7;stroke-width:0.361232" />
  <path
     d="M 20.108442,18.046793 18.572484,16.494942 20.16082,16.30096 Z"
     id="path4831"
     style="fill:#25339c;stroke-width:0.361232" />
  <path
     d="M 21.803341,17.032093 21.171186,14.903354 20.16082,16.30096 Z"
     id="path4833"
     style="fill:#19348f;stroke-width:0.361232" />
  <path
     d="m 18.717338,18.636685 -1.75667,-1.698512 1.611816,-0.443231 z"
     id="path4835"
     style="fill:#2a309a;stroke-width:0.361232" />
  <path
     d="m 16.523939,18.510615 2.193399,0.12607 -1.75667,-1.698512 z"
     id="path4837"
     style="fill:#302b96;stroke-width:0.361232" />
  <path
     d="m 16.523939,18.510615 -1.201096,-0.978216 1.637825,-0.594226 z"
     id="path4839"
     style="fill:#3630a7;stroke-width:0.361232" />
  <path
     d="m 11.616966,10.678749 0.132572,-0.297294 -1.05877,1.181589 z m 9.155781,2.522843 0.397355,1.701762 0.664666,-0.895854 z"
     id="path4841"
     style="fill:#173da2;stroke-width:0.361232" />
  <path
     d="m 11.773741,12.992438 1.013978,1.693094 -1.531984,-0.363038 z"
     id="path4843"
     style="fill:#2a36a8;stroke-width:0.361232" />
  <path
     d="m 11.255735,14.322494 1.531984,0.363038 -1.036013,1.631684 z"
     id="path4845"
     style="fill:#312e9f;stroke-width:0.361232" />
  <path
     d="m 13.92307,12.366063 0.848533,-1.725966 -1.554019,0.769424 z"
     id="path4847"
     style="fill:#184dcd;stroke-width:0.361232" />
  <path
     d="m 10.766266,15.885905 0.98544,0.431311 -0.508253,0.755335 z"
     id="path4849"
     style="fill:#272986;stroke-width:0.361232" />
  <path
     d="m 11.751706,16.317216 -0.508253,0.755335 1.443121,2.555715 0.26117,-1.348478 z"
     id="path4851"
     style="fill:#2c2584;stroke-width:0.361232" />
  <path
     d="m 12.947744,18.279788 0.159665,-2.374377 -1.355703,0.411805 z"
     id="path4853"
     style="fill:#32268b;stroke-width:0.361232" />
  <path
     d="m 12.947744,18.279788 2.375099,-0.747389 -2.215434,-1.626988 z"
     id="path4855"
     style="fill:#372999;stroke-width:0.361232" />
  <path
     d="m 15.322843,17.532399 -0.231549,-1.83578 -1.983885,0.208792 z"
     id="path4857"
     style="fill:#392da5;stroke-width:0.361232" />
  <path
     d="m 15.091294,15.696619 1.675393,-0.626375 0.193981,1.867929 z"
     id="path4859"
     style="fill:#3338bc;stroke-width:0.361232" />
  <path
     d="m 14.082735,18.857036 2.441204,-0.346421 -1.201096,-0.978216 z"
     id="path4861"
     style="fill:#362896;stroke-width:0.361232" />
  <path
     d="m 14.082735,18.857036 -1.134991,-0.577248 2.375099,-0.747389 z"
     id="path4863"
     style="fill:#35268f;stroke-width:0.361232" />
  <path
     d="m 13.92307,12.366063 1.45468,0.153884 -0.606147,-1.87985 z"
     id="path4865"
     style="fill:#2648d3;stroke-width:0.361232" />
  <path
     d="m 16.127306,11.189892 -1.355703,-0.549795 0.606147,1.87985 z"
     id="path4867"
     style="fill:#1057dc;stroke-width:0.361232" />
  <path
     d="m 16.127306,11.189892 1.443844,0.989414 -2.1934,0.340641 z"
     id="path4869"
     style="fill:#1653da;stroke-width:0.361232" />
  <path
     d="m 15.37775,12.519947 2.151497,1.141131 -0.76256,1.409166 z"
     id="path4871"
     style="fill:#2b46d5;stroke-width:0.361232" />
  <path
     d="m 17.529247,13.661078 0.0419,-1.481772 -2.1934,0.340641 z"
     id="path4873"
     style="fill:#244ad7;stroke-width:0.361232" />
  <path
     d="m 17.529247,13.661078 0.0419,-1.481772 1.519702,0.744137 z"
     id="path4875"
     style="fill:#2547cf;stroke-width:0.361232" />
  <path
     d="m 15.37775,12.519947 1.388937,2.550297 -2.435786,-1.220241 z"
     id="path4877"
     style="fill:#333cc5;stroke-width:0.361232" />
  <path
     d="m 15.091294,15.696619 1.675393,-0.626375 -2.435786,-1.220241 z"
     id="path4879"
     style="fill:#3833b6;stroke-width:0.361232" />
  <path
     d="m 16.766687,15.070244 2.148245,-0.392659 -1.385685,-1.016507 z"
     id="path4881"
     style="fill:#2a41c6;stroke-width:0.361232" />
  <path
     d="m 19.090852,12.923443 -0.17592,1.754142 -1.385685,-1.016507 z"
     id="path4883"
     style="fill:#2045c1;stroke-width:0.361232" />
  <path
     d="m 19.090852,12.923443 1.013977,1.377377 -1.189897,0.376765 z"
     id="path4885"
     style="fill:#1b43b7;stroke-width:0.361232" />
  <path
     d="m 20.772747,13.201592 -1.681895,-0.278149 1.013977,1.377377 z"
     id="path4887"
     style="fill:#1742af;stroke-width:0.361232" />
  <path
     d="m 12.203607,11.240826 0.650217,-1.4088037 -1.23469,0.8449207 z m 8.570946,1.960766 -0.667917,1.099228 1.066356,0.602534 z"
     id="path4889"
     style="fill:#1740a9;stroke-width:0.361232" />
  <path
     d="M 20.16082,16.30096 21.171186,14.903354 20.104829,14.30082 Z"
     id="path4891"
     style="fill:#1b3ca4;stroke-width:0.361232" />
  <path
     d="m 20.16082,16.30096 -0.05599,-2.00014 -1.189897,0.376765 z"
     id="path4893"
     style="fill:#1f3dad;stroke-width:0.361232" />
  <path
     d="m 11.773741,12.992438 2.149329,-0.626375 -0.705486,-0.956542 z m 4.992946,2.077806 1.806158,1.424698 0.342448,-1.817357 z"
     id="path4895"
     style="fill:#2543c3;stroke-width:0.361232" />
  <path
     d="m 16.960668,16.938173 1.611816,-0.443231 -1.805797,-1.424698 z"
     id="path4897"
     style="fill:#2e37b2;stroke-width:0.361232" />
  <path
     d="m 13.92307,12.366063 0.407831,1.48394 1.046849,-1.330056 z"
     id="path4899"
     style="fill:#2d40c7;stroke-width:0.361232" />
  <path
     d="m 13.92307,12.366063 -1.135351,2.319469 1.543182,-0.835529 z"
     id="path4901"
     style="fill:#3537b8;stroke-width:0.361232" />
  <path
     d="m 14.330901,13.850003 -1.223492,2.055408 1.983885,-0.208792 z"
     id="path4903"
     style="fill:#3931b0;stroke-width:0.361232" />
  <path
     d="m 15.091294,15.696619 0.231549,1.83578 1.637825,-0.594226 z m -1.984608,0.208792 1.223492,-2.055408 -1.543182,0.835529 z"
     id="path4905"
     style="fill:#3735b8;stroke-width:0.361232" />
  <path
     d="m 11.751706,16.317216 1.036013,-1.631684 0.31969,1.219879 z"
     id="path4907"
     style="fill:#342892;stroke-width:0.361232" />
  <path
     d="m 12.773269,21.688732 1.097061,0.34317 -1.676476,-1.081889 z m -0.07911,-1.220241 1.203985,0.926921 0.577971,-1.209404 -1.789542,-0.556297 z m 3.295517,1.115123 0.152079,-1.378822 -1.66564,-0.01878 z m 1.776899,-0.478633 -0.487663,1.147995 1.973048,-0.735829 z"
     id="path4909"
     style="fill:#232372;stroke-width:0.361232" />
  <path
     d="m 10.766266,15.885905 0.489469,-1.563411 0.495971,1.994722 z"
     id="path4911"
     style="fill:#2a2f96;stroke-width:0.361232" />
  <path
     d="m 11.255735,14.322494 0.518006,-1.330056 -1.07322,0.46021 z m 7.658113,0.355091 -0.342448,1.817357 1.58942,-0.193982 z"
     id="path4913"
     style="fill:#2636a5;stroke-width:0.361232" />
  <path
     d="m 22.886675,16.407885 v -0.0029 l -0.06285,-2.071303 v -0.0072 l -0.311382,-1.033484 v -0.0022 l -0.890797,-1.681173 -1.026621,-1.08514 h -0.0022 L 19.511298,9.7525333 h -0.0043 l -0.939203,-0.368457 h -0.0065 l -1.127043,-0.400967 h -0.0076 l -1.855648,-0.118123 h -0.0079 l -1.170391,0.211321 h -0.0043 l -0.954014,0.29332 h -0.0061 l -1.694177,0.9854397 -1.05841,1.180867 -0.975325,1.585446 v 0.004 l -0.384351,1.349562 v 0.0051 l -0.07225,2.047823 v 0.0098 l 0.365927,1.395077 v 0.0047 l 0.807353,1.58942 v 0.0025 l 0.558465,0.786762 v 0.0018 l 0.787485,0.722464 h 0.0022 l 0.983635,0.665389 h 0.0022 l 1.213016,0.527398 h 0.0076 l 2.029761,0.238052 h 0.0029 l 1.059854,0.02962 h 0.0083 l 1.568468,-0.442148 h 0.0054 l 1.40158,-0.769423 0.0025,-0.0018 h 0.0018 l 0.903079,-0.769424 0.699345,-0.834807 0.0025,-0.0036 0.989053,-1.936202 v -0.0076 l 0.216739,-1.323915 v -0.0033 z m -11.077894,4.589811 -0.204096,-0.187118 0.458764,0.359425 z m 2.977272,0.777732 -0.717045,-0.335223 1.697789,0.152801 z m 0.26117,-6.104817 -1.882017,0.197955 1.160637,-1.950652 z m -0.656719,-1.75667 2.299601,1.151968 -1.581834,0.590252 z m 0.674058,1.816273 0.218907,1.733912 -2.095144,-1.537763 z m 0.191453,1.790987 -2.27576,0.715961 0.152801,-2.27576 z m -0.126431,-1.762088 1.763172,1.170752 -1.544627,0.560631 z m 0.02818,-0.05491 1.582195,-0.591697 0.183145,1.764256 z m 2.430729,-2.037708 1.46624,-0.69212 -0.165445,1.646855 z m 1.250584,0.993748 -2.015673,0.368457 0.715961,-1.323192 z m -2.073109,0.345699 -1.311271,-2.411222 2.034096,1.078638 z m -0.07225,-0.0069 -2.314773,-1.159554 0.994832,-1.264311 z m -3.574389,0.827943 -0.295126,-1.126321 1.424337,-0.770868 z m -0.195065,2.354509 -1.125598,-1.846256 1.275148,-0.387601 z m 2.297073,-0.584834 -1.144382,1.222408 -1.047572,-0.532456 z m 1.694538,-0.609398 -0.408192,1.470213 -1.125237,-0.914639 z m -0.110537,-1.848062 1.701402,1.341976 -1.517173,0.417945 z m 0.03396,-0.0513 2.037709,-0.372069 -0.325109,1.723437 z m 2.1114,-0.453346 0.163277,-1.628794 0.94137,1.27876 z m 1.125237,-0.292598 0.05202,1.86504 -1.161721,-1.5132 z m -2.513812,-0.730049 0.03901,-1.38424 1.420002,0.695371 z m -0.06141,0 -2.026511,-1.075026 2.065885,-0.320774 z m -3.155721,0.172307 -0.379655,-1.382072 1.354981,0.144492 z m -0.04949,0.05166 -1.438064,0.777009 1.057687,-2.160527 z m -1.224937,2.048906 -1.248056,0.379294 0.954013,-1.503086 z m -0.22577,2.284069 -1.559076,-1.103925 0.464905,-0.690314 z m 0.125709,0.156774 1.047572,0.532456 -1.288152,0.711626 z m 2.355592,-0.751362 1.124876,0.916084 -2.285875,0.325109 z m 1.650829,-0.577971 1.661667,1.605314 -2.07311,-0.118845 z m 0.04407,-0.04262 1.523675,-0.419029 0.136907,2.025065 z m 1.911638,-2.203514 1.171475,1.526204 -1.493332,0.180616 z m 1.204708,-0.397355 0.988692,0.560271 -0.939203,1.296461 z m 0.01048,-0.0643 0.614094,-1.008198 0.364122,1.561966 z m -0.04515,-0.04407 -0.942093,-1.279483 1.56305,0.258281 z m -2.476966,-2.074193 1.106453,-1.001696 0.317522,1.699596 z m -2.189787,0.308492 0.702234,-1.245889 1.352452,0.926921 z m -1.465879,-0.138713 0.79471,-1.618319 0.568579,1.762812 z m -1.18484,2.281178 -0.964489,-1.610371 2.044211,-0.596032 z m -1.020841,1.619402 -0.466711,-1.876599 1.441314,0.341364 z m -0.514033,0.766534 -0.427698,-1.062021 0.883211,0.386518 z m 1.663472,1.285985 -0.24058,1.247334 -1.336557,-2.363901 z m 1.150524,0.608676 0.365927,1.236135 -1.666,-0.518006 z m 2.420253,-0.355091 -0.363038,1.606759 -1.953903,-1.278038 z m 2.157998,0.115955 -0.939202,0.850701 -1.092727,-0.967378 z m -0.03396,-2.08828 1.444927,1.461543 -1.310187,0.555575 z m 0.02962,-0.05707 1.490804,-0.180616 -0.05057,1.637825 z m 2.521398,-1.545711 0.59531,2.005198 -1.547517,-0.688508 z m -0.337752,-1.694899 0.971353,0.736551 -0.607231,0.818552 z m -1.67178,-0.374598 0.903079,-1.032761 0.66575,1.291765 z m -0.04082,-0.0466 -0.315356,-1.688037 1.215906,0.656359 z m -1.540654,-0.715239 -1.346672,-0.922586 2.447707,-0.07441 z M 15.3857,12.443693 14.821095,10.693164 16.0836,11.20503 Z m -1.468045,-0.136545 -0.653469,-0.886463 1.440231,-0.713433 z m -0.04515,0.0419 -2.002669,0.58375 1.345227,-1.474909 z m -1.148363,2.289885 -1.426866,-0.338113 0.482606,-1.238664 z m -1.017229,1.625543 -0.903079,-0.395549 0.449011,-1.433006 z m -0.503557,0.790014 -0.777009,0.284289 0.346421,-1.354619 z m 1.397606,2.484552 -1.709349,-1.059493 0.361232,-1.327166 z m 1.740776,0.635768 -1.617235,0.256474 -0.0069,-0.761476 z m -0.205902,-1.246611 1.901524,1.24336 -1.538486,-0.01734 z m 2.406887,-0.361232 1.103563,0.977493 -1.461544,0.60687 z m 2.163056,0.123541 0.583389,1.616874 -1.530178,-0.758587 z m 0.05202,-0.03612 1.300434,-0.551962 -0.717406,2.172809 z m 1.43409,-2.306103 1.547156,0.688507 -1.596283,0.95582 z m 1.035652,-1.367624 1.011449,0.719935 -0.433478,1.232884 z m -0.0112,-0.08344 0.607953,-0.819274 0.400606,1.537402 z m -0.406025,-1.706459 0.279593,-0.875987 0.672253,1.599534 z m -0.04226,-0.06827 -0.64516,-1.248417 0.926198,0.370262 z m -1.90622,-1.986775 1.347033,-0.08814 -0.169779,0.722463 z m -2.666974,0.02348 0.948233,-1.1765317 1.520063,1.1013957 z m -0.05599,-0.02818 -0.488386,-1.2791217 1.426866,0.114872 z m -0.06358,0.0058 -1.247333,-0.505725 0.764727,-0.7585857 z m -2.802436,0.21421 0.536429,-1.5475167 0.910665,0.8308327 z m -1.438786,1.534152 0.392659,-1.607843 0.932339,0.154968 z m -0.583028,1.37268 -0.503557,-0.790736 0.973158,-0.415417 z m -0.02673,0.07225 -0.430589,1.37268 -0.0578,-2.140659 z m -0.495972,1.589419 -0.351117,1.372681 -0.550878,-1.372681 z m -0.916083,-0.05996 0.02926,-1.347033 0.870208,1.345949 z m 1.387852,1.264311 -0.350756,1.277677 -0.426254,-0.995916 z m 1.400134,2.488165 -1.059492,0.149911 -0.605425,-1.181951 z m 0.0578,0.05346 0.0069,0.75064 -1.047572,-0.602896 z m 1.766785,0.560632 -0.537874,1.120541 -1.117651,-0.860455 z m 0.06285,0.0112 1.415306,1.306936 -1.958237,-0.176281 z m 0.06936,-0.01914 1.553296,0.0177 -0.141602,1.284901 z m 3.119236,-0.614095 0.05924,1.45143 -1.522231,-0.847811 z m 0.06177,0.0054 1.535235,0.762199 -1.475993,0.689953 z m 2.38124,-1.487552 0.762199,1.192064 -1.481051,0.983996 z m 0.0531,-0.03107 1.467323,0.216739 -0.716322,0.957264 z m 0.02709,-0.0578 1.569913,-0.939203 -0.102228,1.155942 z m 2.07347,-2.239637 0.277065,0.969907 -0.695371,0.224686 z M 21.902321,14.139 l 0.79471,1.001335 -0.408192,0.481883 z m -0.744138,-1.823859 1.032762,0.756419 -0.355091,0.855036 z m -1.064189,-0.519813 0.166528,-0.70982 0.743415,1.073581 z m -1.315967,-0.717406 -0.180616,-1.0836947 1.553297,0.9948317 z m -0.06827,-0.03612 -1.48105,-1.0724967 1.300434,-0.0083 z m -3.010867,-1.2491397 0.966295,-0.593142 0.415056,0.704402 z m -0.928004,0.8062697 -0.894771,-0.8163837 1.654803,0.06213 z m -1.573887,0.776287 -0.929088,-0.154607 1.456125,-1.3654567 z m -1.441315,1.56305 -0.950762,-0.771953 1.349201,-0.859009 z m -0.04046,0.04624 -0.982189,0.419029 0.04768,-1.177977 z m -0.98255,2.793044 -0.882489,-1.365095 0.821441,-0.88574 z M 10.35013,17.390092 10.182879,18.22526 9.852352,16.151428 Z m 0.04263,0.0997 0.41361,0.965572 -0.58953,-0.08236 z m 1.072858,2.26095 -0.623486,-0.121013 0.03974,-1.019396 z m 1.177977,0.722463 -0.44287,0.425892 -0.594949,-1.022647 z m 0.05274,0.03396 1.063828,0.820357 -1.505976,-0.393742 z m 3.470715,-0.25503 1.517173,0.842393 -1.661666,0.446121 z m 3.140188,0.165806 -0.08308,1.059492 -1.369429,-0.380377 z m 1.523675,-1.002418 -0.843115,1.478521 -0.595671,-0.522341 z m 0.830833,-1.04396 0.0043,0.773036 -0.67442,0.128959 z m 0.169057,-1.31669 0.68634,-0.221796 -0.781705,1.315606 z m 0.475742,-1.359676 0.389408,-0.459126 -0.124986,1.377377 z m -0.436729,-1.692733 0.349672,-0.842031 0.452985,1.852758 z m -0.743776,-1.784485 0.245637,-0.428782 0.740164,1.150885 z m -0.04263,-0.04877 -0.726798,-1.047572 0.972436,0.619874 z m -2.437953,-2.2176017 0.735468,-0.07839 0.744137,1.0262597 z m -1.493693,-0.04335 -0.404941,-0.688147 1.655886,0.680561 z m -1.53957,-0.135101 -0.325109,-0.571469 1.278038,-0.013 z m -0.06502,0.0098 -1.609649,-0.06033 1.282734,-0.512587 z m -3.251086,1.3278877 0.577971,-1.2480557 0.83589,-0.07622 z m -0.103673,0.07803 -0.526676,-0.505724 1.111871,-0.7607537 z m -0.03937,0.04696 -1.310187,0.834084 0.782789,-1.341976 z m -1.48105,2.164862 -0.657442,-0.353646 0.704402,-0.798683 z m -0.02059,0.05816 -0.799045,0.860815 0.138713,-1.215545 z M 9.747242,15.872968 9.40949,16.148949 9.77325,14.684154 Z m 0.0083,0.07225 0.344615,2.162333 -0.706208,-1.866123 z m 1.067079,2.575221 -0.03937,1.016145 -0.550518,-1.098867 z m 0.678032,1.300435 0.562076,0.96485 -1.153774,-1.077916 z m 2.364623,1.596644 -0.0242,0.558103 -1.470935,-0.948956 z m 0.06033,0.02384 0.763644,0.356897 -0.787486,0.192537 z m 2.033373,0.177726 0.02384,0.78279 -1.109343,-0.5805 z m 1.753781,-0.469601 -0.450095,1.059493 -1.189898,-0.61879 z m 0.07225,-0.0094 1.368707,0.380016 -1.817718,0.678032 z m 1.58364,-0.70982 0.579777,0.505724 -0.660693,0.514394 z m 1.573526,-1.085502 0.668278,-0.127876 -1.465156,1.522953 z m 0.787124,-0.295488 -0.0047,-0.75389 0.616622,-0.376765 z m 0.05418,-0.861537 0.74775,-1.256364 -0.137629,0.884656 z m 0.954375,-2.716463 0.08742,0.924753 -0.197955,0.273453 z m -0.455875,-2.315857 0.170863,0.160387 0.171224,1.239025 z m -0.866956,-1.413139 0.160748,-0.08092 0.465267,1.054436 z m -1.125959,-0.738357 0.282483,-0.404219 0.691397,1.025537 z m -0.04407,-0.04407 -0.73619,-1.0157837 1.019396,0.6108427 z m -1.658415,-1.0634657 -0.0047,-0.441425 0.709459,0.366289 z m -0.06141,-0.01192 -1.62157,-0.666111 1.616874,0.212765 z m -3.207377,-0.744498 0.258281,-0.221436 0.855758,0.210599 z m -1.408804,0.528843 0.501751,-0.541848 0.694287,0.06249 z m -0.129682,0.04985 -0.758587,0.069 1.248056,-0.594587 z m -2.090087,0.8734577 0.08381,-0.188201 0.697538,-0.346422 z m -0.915723,1.474548 -0.05093,-0.492359 0.758586,-0.722463 z m -0.05274,0.0867 -0.629265,0.713433 0.579777,-1.192065 z m -0.937396,2.229522 -0.40169,0.07478 0.53065,-1.204707 z m -0.01337,0.06502 -0.383989,1.547878 -0.02456,-1.472019 z m 0.338475,3.853982 -0.456597,-0.375681 -0.218907,-1.408804 z m 0.640102,1.300434 -0.291514,-0.09573 -0.195065,-0.87382 z m 1.246611,1.20218 -0.967379,-0.524509 -0.15569,-0.523063 z m 0.177004,0.166166 0.41939,0.534623 -1.282373,-1.004585 z m 0.156774,0.100784 1.334029,0.860815 -0.873097,-0.273091 z m 2.447346,0.766534 1.036735,0.541847 -1.802186,-0.35509 z m 1.244443,-0.206264 1.160276,0.603619 -1.136796,0.180616 z m 3.080584,-0.02818 -0.469601,0.406747 -1.060215,0.164361 z m 0.870569,-0.609036 0.03937,0.252862 -0.609036,0.188202 z m 1.580389,-1.631323 -0.624931,1.114761 -0.797238,0.36665 z m 0.174836,-0.185673 0.41939,-0.774842 -0.448288,1.063105 z m 0.886463,-2.387742 0.15822,-0.218907 -0.252863,0.837336 z m 0.15244,-1.651552 -0.0022,-0.01625 0.0159,-0.207347 0.01589,0.537151 z m -0.04226,-0.305241 -0.15822,-1.147994 0.196149,0.650217 z m -0.469602,-1.790264 -0.288985,-0.655636 0.40458,0.764005 z m -0.872013,-1.353897 -0.577971,-0.856481 0.736913,0.776649 z m -1.9297,-1.8484227 0.03865,-0.02782 0.44287,0.3167997 z m -0.05852,-0.03359 -0.300183,-0.154968 0.333778,0.131127 z m -2.534402,-0.656358 0.562799,-0.115594 0.846727,0.301267 z m -0.183506,-0.02456 -0.766172,-0.188563 1.28454,0.08164 z m -1.451429,0.01409 -0.597477,-0.05382 0.836251,-0.150995 z m -2.10851,0.5339 0.341726,-0.256113 0.551239,-0.169779 z m -0.280677,0.133656 -0.296571,0.147382 0.455874,-0.266589 z m -1.244082,0.8532287 -0.35184,0.335946 0.402051,-0.44865 z m -1.647939,2.370764 -0.156414,0.0578 0.607953,-0.987247 z m -0.203735,0.14052 0.168695,-0.06249 -0.426615,0.969185 z m -0.420113,2.515256 0.0087,0.539319 -0.03107,0.09826 z m 0.02926,0.67731 0.153885,0.991581 -0.212043,-0.809159 z m 0.803018,2.051074 0.197594,0.885018 -0.631072,-1.241554 z m 0.633962,1.264311 0.137268,0.461654 -0.408553,-0.550878 z m 3.06469,2.375822 0.05707,0.09139 -0.599645,-0.260809 z m 0.153885,0.130043 -0.07225,-0.111982 1.304408,0.256836 z m 3.195456,0.108369 -0.137268,0.15533 -0.715961,-0.01987 z m 0.095,-0.01481 0.853591,-0.132572 -0.980383,0.275981 z m 1.972326,-0.737274 0.500667,-0.154607 -0.881405,0.486579 z M 20.06907,21.210172 20.0297,20.95731 20.761194,20.621003 Z m 1.584363,-1.899357 -0.03432,0.341364 -0.481161,0.573998 z m 0.792181,-1.455764 0.123541,-0.0596 -0.56605,1.111871 z m 0.164361,-0.147382 -0.138713,0.06719 0.278871,-0.917529 z"
     id="path4915"
     style="fill:url(#a);stroke-width:0.361232" />
  <path
     d="m 22.886675,16.407885 v -0.0029 l -0.06285,-2.071303 v -0.0072 l -0.311382,-1.033484 v -0.0022 l -0.890797,-1.681173 -1.026621,-1.08514 h -0.0022 L 19.511298,9.7525333 h -0.0043 l -0.939203,-0.368457 h -0.0065 l -1.127043,-0.400967 h -0.0076 l -1.855648,-0.118123 h -0.0079 l -1.170391,0.211321 h -0.0043 l -0.954014,0.29332 h -0.0061 l -1.694177,0.9854397 -1.05841,1.180867 -0.975325,1.585446 v 0.004 l -0.384351,1.349562 v 0.0051 l -0.07225,2.047823 v 0.0098 l 0.365927,1.395077 v 0.0047 l 0.807353,1.58942 v 0.0025 l 0.558465,0.786762 v 0.0018 l 0.787485,0.722464 h 0.0022 l 0.983635,0.665389 h 0.0022 l 1.213016,0.527398 h 0.0076 l 2.029761,0.238052 h 0.0029 l 1.059854,0.02962 h 0.0083 l 1.568468,-0.442148 h 0.0054 l 1.40158,-0.769423 0.0025,-0.0018 h 0.0018 l 0.903079,-0.769424 0.699345,-0.834807 0.0025,-0.0036 0.989053,-1.936202 v -0.0076 l 0.216739,-1.323915 v -0.0033 z m -11.077894,4.589811 -0.204096,-0.187118 0.458764,0.359425 z m 2.977272,0.777732 -0.717045,-0.335223 1.697789,0.152801 z m 0.26117,-6.104817 -1.882017,0.197955 1.160637,-1.950652 z m -0.656719,-1.75667 2.299601,1.151968 -1.581834,0.590252 z m 0.674058,1.816273 0.218907,1.733912 -2.095144,-1.537763 z m 0.191453,1.790987 -2.27576,0.715961 0.152801,-2.27576 z m -0.126431,-1.762088 1.763172,1.170752 -1.544627,0.560631 z m 0.02818,-0.05491 1.582195,-0.591697 0.183145,1.764256 z m 2.430729,-2.037708 1.46624,-0.69212 -0.165445,1.646855 z m 1.250584,0.993748 -2.015673,0.368457 0.715961,-1.323192 z m -2.073109,0.345699 -1.311271,-2.411222 2.034096,1.078638 z m -0.07225,-0.0069 -2.314773,-1.159554 0.994832,-1.264311 z m -3.574389,0.827943 -0.295126,-1.126321 1.424337,-0.770868 z m -0.195065,2.354509 -1.125598,-1.846256 1.275148,-0.387601 z m 2.297073,-0.584834 -1.144382,1.222408 -1.047572,-0.532456 z m 1.694538,-0.609398 -0.408192,1.470213 -1.125237,-0.914639 z m -0.110537,-1.848062 1.701402,1.341976 -1.517173,0.417945 z m 0.03396,-0.0513 2.037709,-0.372069 -0.325109,1.723437 z m 2.1114,-0.453346 0.163277,-1.628794 0.94137,1.27876 z m 1.125237,-0.292598 0.05202,1.86504 -1.161721,-1.5132 z m -2.513812,-0.730049 0.03901,-1.38424 1.420002,0.695371 z m -0.06141,0 -2.026511,-1.075026 2.065885,-0.320774 z m -3.155721,0.172307 -0.379655,-1.382072 1.354981,0.144492 z m -0.04949,0.05166 -1.438064,0.777009 1.057687,-2.160527 z m -1.224937,2.048906 -1.248056,0.379294 0.954013,-1.503086 z m -0.22577,2.284069 -1.559076,-1.103925 0.464905,-0.690314 z m 0.125709,0.156774 1.047572,0.532456 -1.288152,0.711626 z m 2.355592,-0.751362 1.124876,0.916084 -2.285875,0.325109 z m 1.650829,-0.577971 1.661667,1.605314 -2.07311,-0.118845 z m 0.04407,-0.04262 1.523675,-0.419029 0.136907,2.025065 z m 1.911638,-2.203514 1.171475,1.526204 -1.493332,0.180616 z m 1.204708,-0.397355 0.988692,0.560271 -0.939203,1.296461 z m 0.01048,-0.0643 0.614094,-1.008198 0.364122,1.561966 z m -0.04515,-0.04407 -0.942093,-1.279483 1.56305,0.258281 z m -2.476966,-2.074193 1.106453,-1.001696 0.317522,1.699596 z m -2.189787,0.308492 0.702234,-1.245889 1.352452,0.926921 z m -1.465879,-0.138713 0.79471,-1.618319 0.568579,1.762812 z m -1.18484,2.281178 -0.964489,-1.610371 2.044211,-0.596032 z m -1.020841,1.619402 -0.466711,-1.876599 1.441314,0.341364 z m -0.514033,0.766534 -0.427698,-1.062021 0.883211,0.386518 z m 1.663472,1.285985 -0.24058,1.247334 -1.336557,-2.363901 z m 1.150524,0.608676 0.365927,1.236135 -1.666,-0.518006 z m 2.420253,-0.355091 -0.363038,1.606759 -1.953903,-1.278038 z m 2.157998,0.115955 -0.939202,0.850701 -1.092727,-0.967378 z m -0.03396,-2.08828 1.444927,1.461543 -1.310187,0.555575 z m 0.02962,-0.05707 1.490804,-0.180616 -0.05057,1.637825 z m 2.521398,-1.545711 0.59531,2.005198 -1.547517,-0.688508 z m -0.337752,-1.694899 0.971353,0.736551 -0.607231,0.818552 z m -1.67178,-0.374598 0.903079,-1.032761 0.66575,1.291765 z m -0.04082,-0.0466 -0.315356,-1.688037 1.215906,0.656359 z m -1.540654,-0.715239 -1.346672,-0.922586 2.447707,-0.07441 z M 15.3857,12.443693 14.821095,10.693164 16.0836,11.20503 Z m -1.468045,-0.136545 -0.653469,-0.886463 1.440231,-0.713433 z m -0.04515,0.0419 -2.002669,0.58375 1.345227,-1.474909 z m -1.148363,2.289885 -1.426866,-0.338113 0.482606,-1.238664 z m -1.017229,1.625543 -0.903079,-0.395549 0.449011,-1.433006 z m -0.503557,0.790014 -0.777009,0.284289 0.346421,-1.354619 z m 1.397606,2.484552 -1.709349,-1.059493 0.361232,-1.327166 z m 1.740776,0.635768 -1.617235,0.256474 -0.0069,-0.761476 z m -0.205902,-1.246611 1.901524,1.24336 -1.538486,-0.01734 z m 2.406887,-0.361232 1.103563,0.977493 -1.461544,0.60687 z m 2.163056,0.123541 0.583389,1.616874 -1.530178,-0.758587 z m 0.05202,-0.03612 1.300434,-0.551962 -0.717406,2.172809 z m 1.43409,-2.306103 1.547156,0.688507 -1.596283,0.95582 z m 1.035652,-1.367624 1.011449,0.719935 -0.433478,1.232884 z m -0.0112,-0.08344 0.607953,-0.819274 0.400606,1.537402 z m -0.406025,-1.706459 0.279593,-0.875987 0.672253,1.599534 z m -0.04226,-0.06827 -0.64516,-1.248417 0.926198,0.370262 z m -1.90622,-1.986775 1.347033,-0.08814 -0.169779,0.722463 z m -2.666974,0.02348 0.948233,-1.1765317 1.520063,1.1013957 z m -0.05599,-0.02818 -0.488386,-1.2791217 1.426866,0.114872 z m -0.06358,0.0058 -1.247333,-0.505725 0.764727,-0.7585857 z m -2.802436,0.21421 0.536429,-1.5475167 0.910665,0.8308327 z m -1.438786,1.534152 0.392659,-1.607843 0.932339,0.154968 z m -0.583028,1.37268 -0.503557,-0.790736 0.973158,-0.415417 z m -0.02673,0.07225 -0.430589,1.37268 -0.0578,-2.140659 z m -0.495972,1.589419 -0.351117,1.372681 -0.550878,-1.372681 z m -0.916083,-0.05996 0.02926,-1.347033 0.870208,1.345949 z m 1.387852,1.264311 -0.350756,1.277677 -0.426254,-0.995916 z m 1.400134,2.488165 -1.059492,0.149911 -0.605425,-1.181951 z m 0.0578,0.05346 0.0069,0.75064 -1.047572,-0.602896 z m 1.766785,0.560632 -0.537874,1.120541 -1.117651,-0.860455 z m 0.06285,0.0112 1.415306,1.306936 -1.958237,-0.176281 z m 0.06936,-0.01914 1.553296,0.0177 -0.141602,1.284901 z m 3.119236,-0.614095 0.05924,1.45143 -1.522231,-0.847811 z m 0.06177,0.0054 1.535235,0.762199 -1.475993,0.689953 z m 2.38124,-1.487552 0.762199,1.192064 -1.481051,0.983996 z m 0.0531,-0.03107 1.467323,0.216739 -0.716322,0.957264 z m 0.02709,-0.0578 1.569913,-0.939203 -0.102228,1.155942 z m 2.07347,-2.239637 0.277065,0.969907 -0.695371,0.224686 z M 21.902321,14.139 l 0.79471,1.001335 -0.408192,0.481883 z m -0.744138,-1.823859 1.032762,0.756419 -0.355091,0.855036 z m -1.064189,-0.519813 0.166528,-0.70982 0.743415,1.073581 z m -1.315967,-0.717406 -0.180616,-1.0836947 1.553297,0.9948317 z m -0.06827,-0.03612 -1.48105,-1.0724967 1.300434,-0.0083 z m -3.010867,-1.2491397 0.966295,-0.593142 0.415056,0.704402 z m -0.928004,0.8062697 -0.894771,-0.8163837 1.654803,0.06213 z m -1.573887,0.776287 -0.929088,-0.154607 1.456125,-1.3654567 z m -1.441315,1.56305 -0.950762,-0.771953 1.349201,-0.859009 z m -0.04046,0.04624 -0.982189,0.419029 0.04768,-1.177977 z m -0.98255,2.793044 -0.882489,-1.365095 0.821441,-0.88574 z M 10.35013,17.390092 10.182879,18.22526 9.852352,16.151428 Z m 0.04263,0.0997 0.41361,0.965572 -0.58953,-0.08236 z m 1.072858,2.26095 -0.623486,-0.121013 0.03974,-1.019396 z m 1.177977,0.722463 -0.44287,0.425892 -0.594949,-1.022647 z m 0.05274,0.03396 1.063828,0.820357 -1.505976,-0.393742 z m 3.470715,-0.25503 1.517173,0.842393 -1.661666,0.446121 z m 3.140188,0.165806 -0.08308,1.059492 -1.369429,-0.380377 z m 1.523675,-1.002418 -0.843115,1.478521 -0.595671,-0.522341 z m 0.830833,-1.04396 0.0043,0.773036 -0.67442,0.128959 z m 0.169057,-1.31669 0.68634,-0.221796 -0.781705,1.315606 z m 0.475742,-1.359676 0.389408,-0.459126 -0.124986,1.377377 z m -0.436729,-1.692733 0.349672,-0.842031 0.452985,1.852758 z m -0.743776,-1.784485 0.245637,-0.428782 0.740164,1.150885 z m -0.04263,-0.04877 -0.726798,-1.047572 0.972436,0.619874 z m -2.437953,-2.2176017 0.735468,-0.07839 0.744137,1.0262597 z m -1.493693,-0.04335 -0.404941,-0.688147 1.655886,0.680561 z m -1.53957,-0.135101 -0.325109,-0.571469 1.278038,-0.013 z m -0.06502,0.0098 -1.609649,-0.06033 1.282734,-0.512587 z m -3.251086,1.3278877 0.577971,-1.2480557 0.83589,-0.07622 z m -0.103673,0.07803 -0.526676,-0.505724 1.111871,-0.7607537 z m -0.03937,0.04696 -1.310187,0.834084 0.782789,-1.341976 z m -1.48105,2.164862 -0.657442,-0.353646 0.704402,-0.798683 z m -0.02059,0.05816 -0.799045,0.860815 0.138713,-1.215545 z M 9.747242,15.872968 9.40949,16.148949 9.77325,14.684154 Z m 0.0083,0.07225 0.344615,2.162333 -0.706208,-1.866123 z m 1.067079,2.575221 -0.03937,1.016145 -0.550518,-1.098867 z m 0.678032,1.300435 0.562076,0.96485 -1.153774,-1.077916 z m 2.364623,1.596644 -0.0242,0.558103 -1.470935,-0.948956 z m 0.06033,0.02384 0.763644,0.356897 -0.787486,0.192537 z m 2.033373,0.177726 0.02384,0.78279 -1.109343,-0.5805 z m 1.753781,-0.469601 -0.450095,1.059493 -1.189898,-0.61879 z m 0.07225,-0.0094 1.368707,0.380016 -1.817718,0.678032 z m 1.58364,-0.70982 0.579777,0.505724 -0.660693,0.514394 z m 1.573526,-1.085502 0.668278,-0.127876 -1.465156,1.522953 z m 0.787124,-0.295488 -0.0047,-0.75389 0.616622,-0.376765 z m 0.05418,-0.861537 0.74775,-1.256364 -0.137629,0.884656 z m 0.954375,-2.716463 0.08742,0.924753 -0.197955,0.273453 z m -0.455875,-2.315857 0.170863,0.160387 0.171224,1.239025 z m -0.866956,-1.413139 0.160748,-0.08092 0.465267,1.054436 z m -1.125959,-0.738357 0.282483,-0.404219 0.691397,1.025537 z m -0.04407,-0.04407 -0.73619,-1.0157837 1.019396,0.6108427 z m -1.658415,-1.0634657 -0.0047,-0.441425 0.709459,0.366289 z m -0.06141,-0.01192 -1.62157,-0.666111 1.616874,0.212765 z m -3.207377,-0.744498 0.258281,-0.221436 0.855758,0.210599 z m -1.408804,0.528843 0.501751,-0.541848 0.694287,0.06249 z m -0.129682,0.04985 -0.758587,0.069 1.248056,-0.594587 z m -2.090087,0.8734577 0.08381,-0.188201 0.697538,-0.346422 z m -0.915723,1.474548 -0.05093,-0.492359 0.758586,-0.722463 z m -0.05274,0.0867 -0.629265,0.713433 0.579777,-1.192065 z m -0.937396,2.229522 -0.40169,0.07478 0.53065,-1.204707 z m -0.01337,0.06502 -0.383989,1.547878 -0.02456,-1.472019 z m 0.338475,3.853982 -0.456597,-0.375681 -0.218907,-1.408804 z m 0.640102,1.300434 -0.291514,-0.09573 -0.195065,-0.87382 z m 1.246611,1.20218 -0.967379,-0.524509 -0.15569,-0.523063 z m 0.177004,0.166166 0.41939,0.534623 -1.282373,-1.004585 z m 0.156774,0.100784 1.334029,0.860815 -0.873097,-0.273091 z m 2.447346,0.766534 1.036735,0.541847 -1.802186,-0.35509 z m 1.244443,-0.206264 1.160276,0.603619 -1.136796,0.180616 z m 3.080584,-0.02818 -0.469601,0.406747 -1.060215,0.164361 z m 0.870569,-0.609036 0.03937,0.252862 -0.609036,0.188202 z m 1.580389,-1.631323 -0.624931,1.114761 -0.797238,0.36665 z m 0.174836,-0.185673 0.41939,-0.774842 -0.448288,1.063105 z m 0.886463,-2.387742 0.15822,-0.218907 -0.252863,0.837336 z m 0.15244,-1.651552 -0.0022,-0.01625 0.0159,-0.207347 0.01589,0.537151 z m -0.04226,-0.305241 -0.15822,-1.147994 0.196149,0.650217 z m -0.469602,-1.790264 -0.288985,-0.655636 0.40458,0.764005 z m -0.872013,-1.353897 -0.577971,-0.856481 0.736913,0.776649 z m -1.9297,-1.8484227 0.03865,-0.02782 0.44287,0.3167997 z m -0.05852,-0.03359 -0.300183,-0.154968 0.333778,0.131127 z m -2.534402,-0.656358 0.562799,-0.115594 0.846727,0.301267 z m -0.183506,-0.02456 -0.766172,-0.188563 1.28454,0.08164 z m -1.451429,0.01409 -0.597477,-0.05382 0.836251,-0.150995 z m -2.10851,0.5339 0.341726,-0.256113 0.551239,-0.169779 z m -0.280677,0.133656 -0.296571,0.147382 0.455874,-0.266589 z m -1.244082,0.8532287 -0.35184,0.335946 0.402051,-0.44865 z m -1.647939,2.370764 -0.156414,0.0578 0.607953,-0.987247 z m -0.203735,0.14052 0.168695,-0.06249 -0.426615,0.969185 z m -0.420113,2.515256 0.0087,0.539319 -0.03107,0.09826 z m 0.02926,0.67731 0.153885,0.991581 -0.212043,-0.809159 z m 0.803018,2.051074 0.197594,0.885018 -0.631072,-1.241554 z m 0.633962,1.264311 0.137268,0.461654 -0.408553,-0.550878 z m 3.06469,2.375822 0.05707,0.09139 -0.599645,-0.260809 z m 0.153885,0.130043 -0.07225,-0.111982 1.304408,0.256836 z m 3.195456,0.108369 -0.137268,0.15533 -0.715961,-0.01987 z m 0.095,-0.01481 0.853591,-0.132572 -0.980383,0.275981 z m 1.972326,-0.737274 0.500667,-0.154607 -0.881405,0.486579 z M 20.06907,21.210172 20.0297,20.95731 20.761194,20.621003 Z m 1.584363,-1.899357 -0.03432,0.341364 -0.481161,0.573998 z m 0.792181,-1.455764 0.123541,-0.0596 -0.56605,1.111871 z m 0.164361,-0.147382 -0.138713,0.06719 0.278871,-0.917529 z"
     id="path4917"
     style="fill:url(#b);stroke-width:0.361232" />
  <path
     d="M 28.986074,10.791092 C 28.377037,9.3273813 27.143792,7.7469923 26.174246,7.2477703 a 14.508874,14.508874 0 0 1 1.417834,4.2491687 c 0,-0.0033 0,0.0029 0.0022,0.01337 l 0.0025,0.01481 a 12.662257,12.662257 0 0 1 -0.436368,9.448739 c -1.60604,3.443258 -5.4947,6.97177 -11.581456,6.800184 C 9.003816,27.588008 3.210742,22.713547 2.129214,16.329497 c -0.196871,-1.006752 0,-1.517173 0.09898,-2.335363 A 10.430206,10.430206 0 0 0 2.001341,15.92564 v 0.07225 a 14.018683,14.018683 0 0 0 27.830379,2.367513 c 0.02348,-0.180616 0.04263,-0.359426 0.06358,-0.540042 a 14.377024,14.377024 0 0 0 -0.90922,-7.034266 z"
     id="path4919"
     style="fill:url(#c);stroke-width:0.361232" />
  <path
     d="M 28.986074,10.791092 C 28.377037,9.3273813 27.143792,7.7469923 26.174246,7.2477703 a 14.508874,14.508874 0 0 1 1.417834,4.2491687 c 0,-0.0033 0,0.0029 0.0022,0.01337 l 0.0025,0.01481 a 12.662257,12.662257 0 0 1 -0.436368,9.448739 c -1.60604,3.443258 -5.4947,6.97177 -11.581456,6.800184 C 9.003816,27.588008 3.210742,22.713547 2.129214,16.329497 c -0.196871,-1.006752 0,-1.517173 0.09898,-2.335363 A 10.430206,10.430206 0 0 0 2.001341,15.92564 v 0.07225 a 14.018683,14.018683 0 0 0 27.830379,2.367513 c 0.02348,-0.180616 0.04263,-0.359426 0.06358,-0.540042 a 14.377024,14.377024 0 0 0 -0.90922,-7.034266 z"
     id="path4921"
     style="fill:url(#d);stroke-width:0.361232" />
  <path
     d="m 2.129214,16.329497 c 1.081528,6.38405 6.874602,11.258511 13.451187,11.444545 6.086756,0.171947 9.975416,-3.356926 11.581452,-6.800188 a 12.662257,12.662257 0 0 0 0.436368,-9.448739 v -0.01337 c 0,-0.01047 -0.0022,-0.01662 -0.0022,-0.01337 l 0.0029,0.02348 c 0.497055,3.242777 -1.154136,6.38441 -3.735498,8.508814 l -0.0079,0.01806 c -5.032681,4.089866 -9.845733,2.466852 -10.821059,1.802908 A 8.9440986,8.9440986 0 0 1 12.830344,21.74978 C 9.897864,20.350007 8.686293,17.680866 8.946019,15.392101 a 3.5993134,3.5993134 0 0 1 -3.320443,-2.086475 5.2924067,5.2924067 0 0 1 5.153333,-0.206263 6.9851387,6.9851387 0 0 0 5.262424,0.206625 C 16.036233,13.1922 13.596878,12.222292 12.645755,11.286702 12.137501,10.786396 11.896199,10.545454 11.682711,10.364477 A 4.2488081,4.2488081 0 0 0 11.321479,10.090664 C 11.238039,10.033954 11.144475,9.9725413 11.032493,9.8988503 10.010208,9.2349063 7.977195,9.2717513 7.910006,9.2731963 h -0.0065 C 7.347568,8.5698783 7.386942,6.2507703 7.418731,5.7667193 A 2.5120057,2.5120057 0 0 0 6.94913,6.0145243 10.213828,10.213828 0 0 0 5.579339,7.1867213 12.28188,12.28188 0 0 0 4.269151,8.7566353 v 0.0022 -0.0022 A 11.808305,11.808305 0 0 0 2.388217,12.996773 c -0.0065,0.03034 -0.504279,2.204959 -0.259003,3.332724 z"
     id="path4923"
     style="fill:url(#e);stroke-width:0.361232" />
  <path
     d="m 20.960587,10.804819 a 7.6079023,7.6079023 0 0 1 1.300435,1.697789 2.8450614,2.8450614 0 0 1 0.210598,0.171946 c 3.178839,2.925978 1.512477,7.06172 1.388575,7.356485 2.581362,-2.124404 4.232552,-5.266036 3.735498,-8.508814 C 26.010608,7.5757683 23.323404,5.9845423 21.129644,2.5199683 a 17.300834,17.300834 0 0 1 -0.330166,-0.536429 4.2433896,4.2433896 0 0 1 -0.154246,-0.288986 2.5401818,2.5401818 0 0 1 -0.209514,-0.555935 0.03612318,0.03612318 0 0 0 -0.03179,-0.03612 0.0465989,0.0465989 0 0 0 -0.02637,0 l -0.0069,0.0036 -0.01048,0.0043 c -0.541847,0.25828 -3.756449,5.342618 0.600367,9.6943767 z"
     id="path4925"
     style="fill:url(#f);stroke-width:0.361232" />
  <path
     d="m 15.568842,8.8852333 1.855648,0.118123 1.127043,0.400967 0.939202,0.368457 1.081889,0.7726737 1.019035,1.074304 0.354007,0.667917 a 8.4744973,8.4744973 0 0 1 0.229021,0.149189 c 0.0307,0.02131 0.05852,0.04263 0.08706,0.06394 A 7.6079023,7.6079023 0 0 0 20.961313,10.804821 C 16.603774,6.4530623 19.818376,1.3687243 20.360223,1.1104443 l 0.0072,-0.0079 c -3.520926,2.059021 -4.71552,5.870377 -4.824973,7.776958 v 0.01084 z"
     id="path4927"
     style="fill:url(#g);stroke-width:0.361232" />
  <path
     d="m 11.029604,9.8988503 a 8.2418641,8.2418641 0 0 1 0.288985,0.1918137 6.4758019,6.4758019 0 0 1 -0.03937,-3.4215877 10.380356,10.380356 0 0 0 -3.373905,2.60412 c 0.06899,-0.0014 2.102008,-0.03829 3.124294,0.625654 z"
     id="path4929"
     style="fill:url(#h);stroke-width:0.361232" />
  <path
     d="m 9.723751,17.263643 c 0,0 0.646966,-2.408332 4.632797,-2.408332 0.43095,0 1.661666,-1.201096 1.685508,-1.549323 a 6.9851387,6.9851387 0 0 1 -5.262425,-0.206625 5.2924067,5.2924067 0 0 0 -5.153332,0.206263 3.5993134,3.5993134 0 0 0 3.320442,2.086475 c -0.259725,2.288765 0.951846,4.957906 3.884325,6.357679 0.06574,0.03143 0.127154,0.06574 0.194343,0.09573 -1.711516,-0.883935 -3.125016,-2.553909 -3.301658,-4.581864 z"
     id="path4931"
     style="fill:url(#i);stroke-width:0.361232" />
  <path
     d="m 22.472342,12.672748 a 2.8450614,2.8450614 0 0 0 -0.210598,-0.171946 c -0.02854,-0.02131 -0.05635,-0.04263 -0.08706,-0.06394 A 4.8426731,4.8426731 0 0 0 18.795,11.617227 c 5.041712,2.517785 3.688176,11.187709 -3.297685,10.860433 a 6.227997,6.227997 0 0 1 -1.823859,-0.351478 8.2144105,8.2144105 0 0 1 -0.411804,-0.167973 c -0.07875,-0.03612 -0.157859,-0.07225 -0.236246,-0.112704 l 0.0098,0.0061 c 0.975326,0.663944 5.787656,2.286958 10.817808,-1.804353 l 0.0079,-0.01806 c 0.123903,-0.294765 1.78882,-4.431591 -1.388575,-7.356485 z"
     id="path4933"
     style="fill:url(#j);stroke-width:0.361232" />
  <path
     d="M 28.98499,10.790731 C 28.375953,9.3266583 27.142708,7.7466313 26.173162,7.2470473 a 14.517905,14.517905 0 0 1 1.418918,4.2495307 l 0.0029,0.02312 C 26.010246,7.5736013 23.322682,5.9823753 21.128199,2.5174393 a 16.368134,16.368134 0 0 1 -0.330166,-0.536068 4.6223217,4.6223217 0 0 1 -0.154607,-0.288985 2.5477677,2.5477677 0 0 1 -0.208792,-0.554491 0.03612318,0.03612318 0 0 0 -0.03179,-0.03612 0.04984998,0.04984998 0 0 0 -0.02637,0 c -0.0022,0 -0.0051,0.0033 -0.0072,0.004 -0.0022,7.22e-4 -0.0069,0.004 -0.01011,0.0054 l 0.0058,-0.0079 c -3.520926,2.059021 -4.714797,5.881937 -4.824611,7.788518 l 0.02854,-0.0051 1.855648,0.118123 1.044321,0.371346 1.021924,0.397355 1.081889,0.7726747 1.017952,1.073581 c 0,0 0.350394,0.657441 0.35509,0.66864 A 4.7967967,4.7967967 0 0 0 18.79397,11.617244 c 5.041351,2.517785 3.688177,11.187709 -3.297685,10.860433 A 6.2391951,6.2391951 0 0 1 13.672426,22.12656 q -0.204457,-0.07658 -0.411804,-0.169057 a 5.2161868,5.2161868 0 0 1 -0.236246,-0.112704 l 0.0098,0.0061 A 8.2418641,8.2418641 0 0 1 12.83008,21.749393 c 0.06538,0.03107 0.127153,0.06538 0.194342,0.09536 -1.711516,-0.883573 -3.125016,-2.553908 -3.301658,-4.581864 0,0 0.646966,-2.408332 4.632797,-2.408332 0.43095,0 1.661667,-1.201095 1.685508,-1.549323 -0.0051,-0.113788 -2.444817,-1.083695 -3.395579,-2.019285 -0.508253,-0.499945 -0.749556,-0.741248 -0.963405,-0.922225 a 4.1180422,4.1180422 0 0 0 -0.363038,-0.273453 6.4815817,6.4815817 0 0 1 -0.03937,-3.4219477 10.383607,10.383607 0 0 0 -3.373905,2.604481 h -0.0065 C 7.343698,8.5698473 7.383072,6.2507393 7.414499,5.7663273 A 2.5437941,2.5437941 0 0 0 6.944898,6.0141323 10.194683,10.194683 0 0 0 5.575107,7.1866903 12.248647,12.248647 0 0 0 4.266003,8.7544363 11.816252,11.816252 0 0 0 2.387236,12.996381 c -0.0069,0.03034 -0.01228,0.06177 -0.01878,0.09211 -0.02637,0.123541 -0.144492,0.748834 -0.161831,0.883212 0,0.01011 0,-0.01048 0,0 A 16.288302,16.288302 0 0 0 2,15.925244 v 0.07225 a 14.018321,14.018321 0 0 0 27.831824,2.367875 c 0.02384,-0.180616 0.04299,-0.361232 0.06394,-0.541848 A 14.379553,14.379553 0 0 0 28.985099,10.7907 Z m -1.390381,0.718851 0.0022,0.01517 z"
     id="path4935"
     style="fill:url(#k);stroke-width:0.361232" />
  <path
     d="m 16.042056,13.305988 c 0,0 -0.05924,0.02456 -0.169057,0.06213 -0.273814,0.462738 -1.247333,1.346311 -1.619402,1.344505 -3.985831,-0.01734 -4.643273,2.364623 -4.643273,2.364623 a 5.0908393,5.0908393 0 0 0 0.780983,2.287681 5.1273237,5.1273237 0 0 1 -0.667556,-2.101285 c 0,0 0.646966,-2.408332 4.632797,-2.408332 0.43095,0 1.661666,-1.201096 1.685508,-1.549322 z"
     id="path4937"
     style="fill:url(#l);stroke-width:0.361232" />
  <path
     d="m 27.598221,11.525115 v -0.01337 c 0,-0.01047 -0.0022,-0.01662 0,-0.01337 0.0022,0.0033 0,0.0079 0.0025,0.02348 A 13.993035,13.993035 0 0 0 27.299454,10.82829 c -0.03612,-0.07658 -0.07225,-0.148105 -0.110176,-0.22288 -0.07044,-0.144493 -0.140158,-0.288986 -0.213127,-0.424809 -0.04515,-0.08489 -0.09248,-0.165444 -0.138713,-0.2478047 -0.06791,-0.121012 -0.135101,-0.242747 -0.204818,-0.361231 -0.0513,-0.08525 -0.104035,-0.16689 -0.156052,-0.249973 -0.06827,-0.108369 -0.136185,-0.216739 -0.205903,-0.322219 -0.05527,-0.08344 -0.111981,-0.163999 -0.167972,-0.245276 -0.06972,-0.100422 -0.139075,-0.200845 -0.210237,-0.298739 -0.05852,-0.08092 -0.118123,-0.160025 -0.177726,-0.239135 -0.07225,-0.09428 -0.141964,-0.188563 -0.213849,-0.281038 a 24.218784,24.218784 0 0 0 -0.186396,-0.235162 c -0.07225,-0.08995 -0.144493,-0.180616 -0.218545,-0.269118 q -0.0957,-0.115946 -0.192508,-0.230818 c -0.03612,-0.04154 -0.06972,-0.08417 -0.105118,-0.125709 l 0.04479,0.05491 c -1.218794,-1.432648 -2.536928,-2.75295 -3.713821,-4.611126 a 17.037496,17.037496 0 0 1 -0.330166,-0.536429 4.2433896,4.2433896 0 0 1 -0.154246,-0.288986 2.8714313,2.8714313 0 0 1 -0.192898,-0.491997 c -0.0025,-0.009 -0.0069,-0.02276 -0.0083,-0.02998 a 1.6327676,1.6327676 0 0 1 -0.0079,-0.03251 0.03612318,0.03612318 0 0 0 -0.03179,-0.03612 0.0465989,0.0465989 0 0 0 -0.02637,0 l -0.0069,0.004 a 0.09753258,0.09753258 0 0 0 -0.01048,0.0054 0.41108175,0.41108175 0 0 0 -0.08489,0.06249 0.45515203,0.45515203 0 0 0 -0.02023,0.01806 1.3445046,1.3445046 0 0 0 -0.110898,0.1174 l -0.004,0.004 c -0.838419,0.98544 -2.983052,5.27579 0.472852,9.1243527 C 17.377514,6.6304603 19.416668,2.5160303 20.302769,1.4381153 a 3.1102055,3.1102055 0 0 0 0.17303,0.423363 4.1498306,4.1498306 0 0 0 0.154246,0.288986 c 0.10837,0.185312 0.219268,0.361232 0.330166,0.536068 2.194844,3.464935 4.882409,5.057245 6.466049,9.0022567 0,-0.01517 -0.0025,-0.02095 -0.0025,-0.02312 0,-0.0022 0,0.0029 0.0018,0.01337 l 0.0022,0.01337 a 12.662618,12.662618 0 0 1 -0.434923,9.450907 11.614685,11.614685 0 0 1 -2.226633,3.192566 11.63672,11.63672 0 0 0 2.395689,-3.361984 12.664063,12.664063 0 0 0 0.436368,-9.448739 z"
     id="path4939"
     style="fill:url(#m);stroke-width:0.361232" />
  <path
     d="m 20.36022,1.1104423 0.0072,-0.0079 c -3.171615,1.855647 -4.455433,5.131658 -4.758868,7.156724 a 10.357237,10.357237 0 0 1 4.233998,-6.533961 1.9636559,1.9636559 0 0 1 0.517645,-0.614816 z"
     id="path4941"
     style="fill:url(#n);stroke-width:0.361232" />
  <path
     d="m 23.85297,20.047295 0.0079,-0.01806 c 0.123903,-0.294765 1.78882,-4.431591 -1.388575,-7.356485 a 2.8450614,2.8450614 0 0 0 -0.210598,-0.171946 c -0.02854,-0.02131 -0.05635,-0.04263 -0.08706,-0.06394 A 4.8921619,4.8921619 0 0 0 18.923601,11.597 h -0.0011 a 3.110928,3.110928 0 0 0 -0.127515,0.01987 c 4.984637,2.489609 3.717797,10.993005 -3.063607,10.866574 l 0.05527,0.0033 c 6.874602,0.270201 8.229221,-8.160587 3.452653,-10.804081 a 5.0753064,5.0753064 0 0 1 2.654692,0.766534 2.9559596,2.9559596 0 0 1 0.08922,0.06105 2.6731151,2.6731151 0 0 1 0.216739,0.163277 c 3.289737,2.798462 1.788097,6.997059 1.675393,7.296882 l -0.0072,0.01878"
     id="path4943"
     style="fill:url(#o);stroke-width:0.361232" />
  <path
     d="m 10.817199,13.239521 a 7.0024779,7.0024779 0 0 0 5.067721,0.124625 7.0035616,7.0035616 0 0 1 -5.105289,-0.264783 5.32564,5.32564 0 0 0 -5.086504,0.162554 l -0.01842,0.01192 h -0.0018 l -0.01517,0.01011 -0.01156,0.0079 -0.0072,0.0051 h -0.0022 l -0.0051,0.0036 h -0.0018 l 0.0065,0.01553 v 0.0022 l 0.0079,0.01806 v 0.0036 l 0.01192,0.02601 v 0.0022 a 2.8898542,2.8898542 0 0 0 0.09211,0.17592 3.5852253,3.5852253 0 0 0 3.197624,1.842282 C 8.693068,17.60648 9.826614,20.18423 12.571253,21.614708 9.947988,20.102953 8.84587,17.359397 9.152194,15.177196 7.126768,15.123736 6.221159,13.909634 5.962156,13.394879 a 5.5387667,5.5387667 0 0 1 4.854955,-0.15533 z"
     id="path4945"
     style="fill:url(#p);stroke-width:0.361232" />
  <path
     d="m 11.318228,10.083078 -0.06863,-0.0401 0.07225,0.04768 z m -0.01445,-0.0513 a 6.4866389,6.4866389 0 0 1 -0.02276,-3.3627067 10.217441,10.217441 0 0 0 -3.243861,2.46035 10.581201,10.581201 0 0 1 2.958127,-2.089365 6.5668324,6.5668324 0 0 0 0.308491,2.9917217 z"
     id="path4947"
     style="fill:url(#q);stroke-width:0.361232" />
  <path
     d="m 2.467327,17.796821 -0.0112,-0.0401 a 12.963163,12.963163 0 0 1 -0.325109,-1.427227 6.0560506,6.0560506 0 0 1 0,-1.806158 11.916314,11.916314 0 0 0 -0.128237,1.401579 v 0.07225 A 14.006401,14.006401 0 0 0 11.409256,29.221138 14.168955,14.168955 0 0 1 2.467325,17.796822 Z"
     id="path4949"
     style="fill:url(#r);stroke-width:0.361232" />
  <path
     d="M 2.354984,16.38585 C 2.109707,15.258084 2.607846,13.08383 2.613987,13.053125 A 11.808305,11.808305 0 0 1 4.494921,8.8115423 v 0.0022 -0.0022 a 12.28188,12.28188 0 0 1 1.308743,-1.568107 10.213828,10.213828 0 0 1 1.36979,-1.172197 1.2057916,1.2057916 0 0 1 0.05924,-0.03612 c -0.0051,1.064911 0.05563,2.862039 0.548712,3.451208 h 0.0065 c 0.06755,-0.0036 2.107787,-0.09356 3.151386,0.5418467 0.115955,0.07225 0.21132,0.129683 0.296571,0.184229 a 4.3084113,4.3084113 0 0 1 0.371707,0.26406 c 0.218907,0.175559 0.467434,0.409998 0.990859,0.896577 0.758587,0.704764 2.409055,1.405553 3.122488,1.739331 -0.69501,-0.350033 -2.335003,-1.098144 -3.074444,-1.826026 -0.508253,-0.500306 -0.749556,-0.741248 -0.963044,-0.922225 A 4.2488081,4.2488081 0 0 0 11.322197,10.090305 C 11.238757,10.033595 11.145194,9.9721833 11.033212,9.8984913 10.010926,9.2345473 7.977914,9.2713933 7.910724,9.2728383 h -0.0065 c -0.507892,-0.642631 -0.518729,-2.634463 -0.49272,-3.342116 0,-0.02745 0,-0.05238 0.0029,-0.07586 v -0.04588 c 0,-0.01517 0,-0.02998 0.0025,-0.04263 0,0 -0.0025,-0.0025 -0.0058,-0.0025 h -0.01264 l -0.0079,0.0029 -0.01156,0.0043 -0.0112,0.0047 -0.01337,0.0061 -0.01445,0.0069 -0.01445,0.0072 -0.0177,0.0087 -0.01409,0.0076 -0.02095,0.01084 -0.01192,0.0065 a 6.9688833,6.9688833 0 0 0 -0.312105,0.180616 10.213828,10.213828 0 0 0 -1.369791,1.172197 12.28188,12.28188 0 0 0 -1.309826,1.574248 v 0.0022 -0.0022 A 11.808305,11.808305 0 0 0 2.388218,12.996791 c -0.0065,0.03034 -0.505724,2.203514 -0.259003,3.332724 0.920419,5.431481 5.253394,9.771681 10.577227,11.05875 C 7.486282,26.034729 3.262399,21.741851 2.354985,16.385868 Z"
     id="path4951"
     style="fill:url(#s);stroke-width:0.361232" />
  <path
     d="M 28.986074,10.791092 A 8.584673,8.584673 0 0 0 26.526085,7.4677603 l -0.02493,-0.0177 a 4.9174481,4.9174481 0 0 0 -0.08308,-0.05707 q -0.01553,-0.01084 -0.03143,-0.02059 -0.03974,-0.02529 -0.07803,-0.04877 l -0.03034,-0.01806 a 2.8403654,2.8403654 0 0 0 -0.104034,-0.05744 12.692601,12.692601 0 0 1 0.110536,0.222157 12.133414,12.133414 0 0 1 0.06719,0.138352 14.353544,14.353544 0 0 1 1.240108,3.8882987 l 0.0029,0.02348 c 0.497055,3.242778 -1.154135,6.38441 -3.735498,8.508814 l -0.0079,0.01806 c -3.208822,2.609899 -6.32878,2.89455 -8.421035,2.586058 2.084669,0.389408 5.372962,0.225048 8.759871,-2.528622 l 0.0076,-0.01806 c 2.581362,-2.124404 4.232913,-5.266037 3.735858,-8.508814 l -0.0029,-0.02348 a 14.066004,14.066004 0 0 0 -1.021925,-3.4118337 9.2699297,9.2699297 0 0 1 1.532706,2.1843677 13.949326,13.949326 0 0 1 1.295377,6.863404 c -0.01084,0.17881 -0.01987,0.357258 -0.03359,0.534623 A 13.954383,13.954383 0 0 1 16.550309,29.932041 14.322478,14.322478 0 0 1 13.782912,29.819337 14.029158,14.029158 0 0 0 29.831717,18.3654 c 0.02348,-0.180616 0.04263,-0.359426 0.06358,-0.540042 a 14.377024,14.377024 0 0 0 -0.90922,-7.034266 z m -1.387853,0.734023 v -0.01337 z"
     id="path4953"
     style="fill:url(#t);stroke-width:0.361232" />
</svg>
