<?xml version="1.0" encoding="UTF-8" standalone="no"?>
<svg
   width="32"
   height="32"
   version="1"
   id="svg3"
   sodipodi:docname="wireshark.svg"
   inkscape:version="1.3.2 (091e20ef0f, 2023-11-25, custom)"
   xmlns:inkscape="http://www.inkscape.org/namespaces/inkscape"
   xmlns:sodipodi="http://sodipodi.sourceforge.net/DTD/sodipodi-0.dtd"
   xmlns="http://www.w3.org/2000/svg"
   xmlns:svg="http://www.w3.org/2000/svg">
  <defs
     id="defs3" />
  <sodipodi:namedview
     id="namedview3"
     pagecolor="#ffffff"
     bordercolor="#666666"
     borderopacity="1.0"
     inkscape:showpageshadow="2"
     inkscape:pageopacity="0.0"
     inkscape:pagecheckerboard="0"
     inkscape:deskcolor="#d1d1d1"
     inkscape:zoom="20.328537"
     inkscape:cx="20.734399"
     inkscape:cy="18.619146"
     inkscape:window-width="1920"
     inkscape:window-height="1011"
     inkscape:window-x="0"
     inkscape:window-y="32"
     inkscape:window-maximized="1"
     inkscape:current-layer="svg3" />
  <rect
     fill="#4e91d9"
     width="27.034483"
     height="27.034483"
     x="2.5"
     y="2"
     rx="1.4482758"
     ry="1.4482758"
     id="rect1"
     style="stroke-width:0.965517" />
  <path
     fill="#ffffff"
     opacity="0.1"
     d="M 3.9482759,2 C 3.145931,2 2.5,2.645931 2.5,3.4482759 V 4.4137931 C 2.5,3.6114483 3.145931,2.9655172 3.9482759,2.9655172 H 28.086207 c 0.802345,0 1.448276,0.6459311 1.448276,1.4482759 V 3.4482759 C 29.534483,2.645931 28.888552,2 28.086207,2 Z"
     id="path1"
     style="stroke-width:0.965517" />
  <path
     fill="none"
     stroke="#343434"
     stroke-linejoin="round"
     d="M 5.3965517,19.862069 H 12.155172 C 12.179803,10.932097 18.913793,9.2413793 18.913793,9.2413793 17.162731,16.510952 18.213677,19.862069 21.810345,19.862069 h 5.793103"
     id="path2"
     style="stroke-width:0.965517" />
  <path
     opacity="0.2"
     d="m 2.5,27.586207 v 0.965517 C 2.5,29.354069 3.145931,30 3.9482759,30 H 28.086207 c 0.802345,0 1.448276,-0.645931 1.448276,-1.448276 v -0.965517 c 0,0.802345 -0.645931,1.448276 -1.448276,1.448276 H 3.9482759 C 3.145931,29.034483 2.5,28.388552 2.5,27.586207 Z"
     id="path3"
     style="stroke-width:0.965517" />
</svg>
