<?xml version="1.0" encoding="UTF-8" standalone="no"?>
<svg
   xmlns:dc="http://purl.org/dc/elements/1.1/"
   xmlns:cc="http://creativecommons.org/ns#"
   xmlns:rdf="http://www.w3.org/1999/02/22-rdf-syntax-ns#"
   xmlns:svg="http://www.w3.org/2000/svg"
   xmlns="http://www.w3.org/2000/svg"
   xmlns:sodipodi="http://sodipodi.sourceforge.net/DTD/sodipodi-0.dtd"
   xmlns:inkscape="http://www.inkscape.org/namespaces/inkscape"
   inkscape:version="1.0 (4035a4fb49, 2020-05-01)"
   sodipodi:docname="spotify22.svg"
   id="svg4"
   viewBox="0 0 22 22"
   version="1.1"
   width="22"
   height="22">
  <metadata
     id="metadata10">
    <rdf:RDF>
      <cc:Work
         rdf:about="">
        <dc:format>image/svg+xml</dc:format>
        <dc:type
           rdf:resource="http://purl.org/dc/dcmitype/StillImage" />
        <dc:title></dc:title>
      </cc:Work>
    </rdf:RDF>
  </metadata>
  <defs
     id="defs8" />
  <sodipodi:namedview
     inkscape:current-layer="svg4"
     inkscape:window-maximized="1"
     inkscape:window-y="27"
     inkscape:window-x="0"
     inkscape:cy="11.660331"
     inkscape:cx="11.269488"
     inkscape:zoom="35.539227"
     showgrid="true"
     id="namedview6"
     inkscape:window-height="1022"
     inkscape:window-width="1920"
     inkscape:pageshadow="2"
     inkscape:pageopacity="0"
     guidetolerance="10"
     gridtolerance="10"
     objecttolerance="10"
     borderopacity="1"
     bordercolor="#666666"
     pagecolor="#ffffff">
    <inkscape:grid
       id="grid835"
       type="xygrid" />
  </sodipodi:namedview>
  <path
     style="stroke-width:0.119412"
     id="path2"
     d="M 10.99994,1 C 5.477243,1 1,5.477123 1,10.999821 1,16.522757 5.477243,20.999522 10.99994,20.999522 16.523235,20.999522 21,16.522757 21,10.999821 21,5.477482 16.523235,1.000477 10.999821,1.000477 Z m 4.585908,14.422612 c -0.179118,0.293754 -0.563625,0.386895 -0.85738,0.206583 -2.347883,-1.434141 -5.303575,-1.758943 -8.784442,-0.963657 -0.33543,0.07642 -0.669784,-0.133742 -0.746208,-0.46929 -0.07678,-0.335549 0.132548,-0.669903 0.468813,-0.746327 3.809251,-0.870634 7.076728,-0.495561 9.712634,1.115311 0.293754,0.180312 0.386896,0.563626 0.206583,0.85738 z m 1.223976,-2.723197 c -0.225689,0.367193 -0.705726,0.483023 -1.072322,0.257334 -2.68797,-1.652546 -6.785362,-2.131031 -9.964714,-1.165942 -0.41233,0.124547 -0.847827,-0.107829 -0.972971,-0.519443 -0.124188,-0.41233 0.108307,-0.846991 0.519921,-0.972374 3.631685,-1.101936 8.146543,-0.568163 11.23335,1.3287 0.366595,0.225689 0.482425,0.705727 0.256736,1.071845 z M 16.914907,9.864091 C 13.69197,7.949793 8.374543,7.773779 5.297408,8.707703 4.80328,8.857565 4.280732,8.578618 4.130989,8.08449 3.981246,7.590123 4.259955,7.067933 4.754441,6.917713 8.286774,5.845391 14.158872,6.052571 17.869488,8.255369 c 0.445408,0.263782 0.591091,0.837796 0.32719,1.281652 -0.262707,0.444452 -0.838274,0.590971 -1.281294,0.32707 z"
     fill="#1ed760" />
</svg>
