<?xml version="1.0" encoding="UTF-8" standalone="no"?>
<svg
   xmlns:dc="http://purl.org/dc/elements/1.1/"
   xmlns:cc="http://creativecommons.org/ns#"
   xmlns:rdf="http://www.w3.org/1999/02/22-rdf-syntax-ns#"
   xmlns:svg="http://www.w3.org/2000/svg"
   xmlns="http://www.w3.org/2000/svg"
   xmlns:sodipodi="http://sodipodi.sourceforge.net/DTD/sodipodi-0.dtd"
   xmlns:inkscape="http://www.inkscape.org/namespaces/inkscape"
   inkscape:version="1.0 (4035a4fb49, 2020-05-01)"
   sodipodi:docname="spotify32.svg"
   id="svg4"
   viewBox="0 0 32 32"
   version="1.1"
   width="32"
   height="32">
  <metadata
     id="metadata10">
    <rdf:RDF>
      <cc:Work
         rdf:about="">
        <dc:format>image/svg+xml</dc:format>
        <dc:type
           rdf:resource="http://purl.org/dc/dcmitype/StillImage" />
        <dc:title></dc:title>
      </cc:Work>
    </rdf:RDF>
  </metadata>
  <defs
     id="defs8" />
  <sodipodi:namedview
     inkscape:current-layer="svg4"
     inkscape:window-maximized="1"
     inkscape:window-y="27"
     inkscape:window-x="0"
     inkscape:cy="16.432176"
     inkscape:cx="20.114712"
     inkscape:zoom="24.44"
     showgrid="true"
     id="namedview6"
     inkscape:window-height="1022"
     inkscape:window-width="1920"
     inkscape:pageshadow="2"
     inkscape:pageopacity="0"
     guidetolerance="10"
     gridtolerance="10"
     objecttolerance="10"
     borderopacity="1"
     bordercolor="#666666"
     pagecolor="#ffffff">
    <inkscape:grid
       id="grid835"
       type="xygrid" />
  </sodipodi:namedview>
  <path
     style="stroke-width:0.17912"
     id="path2"
     d="M 15.99991,0.999666 C 7.7158643,0.999666 1,7.7155115 1,15.999756 1,24.284357 7.7158643,30.999666 15.99991,30.999666 24.284851,30.999666 31,24.284357 31,15.999756 31,7.7160495 24.284851,1.0003828 15.999731,1.0003828 Z m 6.878863,21.634435 c -0.268678,0.440642 -0.845439,0.580357 -1.28607,0.309881 C 18.070877,20.79272 13.637339,20.305506 8.4160386,21.498462 7.9128946,21.613101 7.4113632,21.297845 7.2967279,20.794511 7.1815546,20.291177 7.4955486,19.789632 7.9999461,19.674994 13.713822,18.369011 18.615039,18.931635 22.568898,21.348 c 0.440631,0.270475 0.580343,0.845458 0.309875,1.286101 z m 1.835963,-4.084892 C 24.376203,19.100011 23.656147,19.27376 23.106253,18.935217 19.074298,16.456339 12.928209,15.738594 8.1591829,17.186264 7.5406868,17.37309 6.8874421,17.024516 6.6997257,16.40708 6.5134429,15.78857 6.8621864,15.136564 7.4796079,14.948485 12.927134,13.295541 19.699421,14.09622 24.329632,16.941582 c 0.549893,0.338543 0.723637,1.058616 0.385104,1.607805 z M 24.872361,14.29612 C 20.037955,11.424605 12.061814,11.160578 7.4461118,12.561496 6.70492,12.786294 5.9210982,12.367865 5.6964839,11.626656 5.4718696,10.885087 5.8899314,10.101784 6.6316611,9.8764485 11.930161,8.2679265 20.738308,8.578704 26.304233,11.882979 c 0.668112,0.395682 0.886636,1.256725 0.490784,1.922523 -0.394061,0.666696 -1.257411,0.886479 -1.921941,0.490618 z"
     fill="#1ed760" />
</svg>
