<?xml version="1.0" encoding="UTF-8" standalone="no"?>
<svg
   xmlns:dc="http://purl.org/dc/elements/1.1/"
   xmlns:cc="http://creativecommons.org/ns#"
   xmlns:rdf="http://www.w3.org/1999/02/22-rdf-syntax-ns#"
   xmlns:svg="http://www.w3.org/2000/svg"
   xmlns="http://www.w3.org/2000/svg"
   xmlns:sodipodi="http://sodipodi.sourceforge.net/DTD/sodipodi-0.dtd"
   xmlns:inkscape="http://www.inkscape.org/namespaces/inkscape"
   inkscape:version="1.0 (4035a4fb49, 2020-05-01)"
   sodipodi:docname="todo22.svg"
   id="svg16"
   version="1.1"
   viewBox="0 0 5.8207188 5.8207188"
   height="22"
   width="22">
  <metadata
     id="metadata22">
    <rdf:RDF>
      <cc:Work
         rdf:about="">
        <dc:format>image/svg+xml</dc:format>
        <dc:type
           rdf:resource="http://purl.org/dc/dcmitype/StillImage" />
        <dc:title></dc:title>
      </cc:Work>
    </rdf:RDF>
  </metadata>
  <defs
     id="defs20" />
  <sodipodi:namedview
     inkscape:current-layer="svg16"
     inkscape:window-maximized="1"
     inkscape:window-y="27"
     inkscape:window-x="0"
     inkscape:cy="11.896189"
     inkscape:cx="16.309412"
     inkscape:zoom="48.875"
     showgrid="true"
     id="namedview18"
     inkscape:window-height="1022"
     inkscape:window-width="1920"
     inkscape:pageshadow="2"
     inkscape:pageopacity="0"
     guidetolerance="10"
     gridtolerance="10"
     objecttolerance="10"
     borderopacity="1"
     bordercolor="#666666"
     pagecolor="#ffffff"
     inkscape:document-rotation="0">
    <inkscape:grid
       id="grid847"
       type="xygrid" />
  </sodipodi:namedview>
  <g
     id="g14"
     paint-order="markers stroke fill"
     transform="matrix(0.36962727,0,0,0.36962727,-0.21927464,-103.7393)">
    <circle
       id="circle2"
       stroke-linejoin="round"
       stroke-linecap="round"
       stroke-width="0.529"
       stroke="#1f7195"
       fill="#32a3d7"
       opacity="0.9"
       cx="8.467"
       cy="288.53299"
       r="7.1440001" />
    <circle
       id="circle4"
       fill="#32a3d7"
       r="7.1440001"
       cy="288.53299"
       cx="8.467" />
    <path
       id="path6"
       opacity="0.15"
       d="m 12.583,284.417 a 5.82,5.82 0 0 0 -8.232,0 5.82,5.82 0 0 0 0,8.232 5.82,5.82 0 0 0 0.154,0.144 h 1.304 a 5.027,5.027 0 0 0 5.318,0 h 1.297 a 5.82,5.82 0 0 0 0.159,-0.144 5.82,5.82 0 0 0 0,-8.232 z" />
    <g
       id="g12"
       fill="#ffffff"
       transform="matrix(0.69638,0,0,0.69638,2.685,87.888)">
      <rect
         id="rect8"
         transform="rotate(45)"
         ry="0.79400003"
         y="199.105"
         x="206.25101"
         height="1.587"
         width="5.2919998" />
      <rect
         id="rect10"
         transform="rotate(-45)"
         width="7.9380002"
         height="1.587"
         x="-200.58701"
         y="210.061"
         ry="0.79400003" />
    </g>
  </g>
</svg>
