<?xml version="1.0" encoding="UTF-8" standalone="no"?>
<svg
   xmlns:dc="http://purl.org/dc/elements/1.1/"
   xmlns:cc="http://creativecommons.org/ns#"
   xmlns:rdf="http://www.w3.org/1999/02/22-rdf-syntax-ns#"
   xmlns:svg="http://www.w3.org/2000/svg"
   xmlns="http://www.w3.org/2000/svg"
   xmlns:sodipodi="http://sodipodi.sourceforge.net/DTD/sodipodi-0.dtd"
   xmlns:inkscape="http://www.inkscape.org/namespaces/inkscape"
   width="48"
   height="48"
   viewBox="0 0 12.69975 12.69975"
   version="1.1"
   id="svg16"
   sodipodi:docname="todo48.svg"
   inkscape:version="1.0 (4035a4fb49, 2020-05-01)">
  <metadata
     id="metadata22">
    <rdf:RDF>
      <cc:Work
         rdf:about="">
        <dc:format>image/svg+xml</dc:format>
        <dc:type
           rdf:resource="http://purl.org/dc/dcmitype/StillImage" />
        <dc:title />
      </cc:Work>
    </rdf:RDF>
  </metadata>
  <defs
     id="defs20" />
  <sodipodi:namedview
     inkscape:document-rotation="0"
     pagecolor="#ffffff"
     bordercolor="#666666"
     borderopacity="1"
     objecttolerance="10"
     gridtolerance="10"
     guidetolerance="10"
     inkscape:pageopacity="0"
     inkscape:pageshadow="2"
     inkscape:window-width="1920"
     inkscape:window-height="1022"
     id="namedview18"
     showgrid="true"
     inkscape:zoom="17.279922"
     inkscape:cx="22.678822"
     inkscape:cy="24.014437"
     inkscape:window-x="0"
     inkscape:window-y="27"
     inkscape:window-maximized="1"
     inkscape:current-layer="svg16">
    <inkscape:grid
       type="xygrid"
       id="grid847" />
  </sodipodi:namedview>
  <g
     transform="matrix(0.77675294,0,0,0.77675294,-0.22662757,-217.76871)"
     paint-order="markers stroke fill"
     id="g14">
    <circle
       r="7.1440001"
       cy="288.53299"
       cx="8.467"
       opacity="0.9"
       fill="#32a3d7"
       stroke="#1f7195"
       stroke-width="0.529"
       stroke-linecap="round"
       stroke-linejoin="round"
       id="circle2" />
    <circle
       cx="8.467"
       cy="288.53299"
       r="7.1440001"
       fill="#32a3d7"
       id="circle4" />
    <path
       d="m 12.583,284.417 a 5.82,5.82 0 0 0 -8.232,0 5.82,5.82 0 0 0 0,8.232 5.82,5.82 0 0 0 0.154,0.144 h 1.304 a 5.027,5.027 0 0 0 5.318,0 h 1.297 a 5.82,5.82 0 0 0 0.159,-0.144 5.82,5.82 0 0 0 0,-8.232 z"
       opacity="0.15"
       id="path6" />
    <g
       transform="matrix(0.69638,0,0,0.69638,2.685,87.888)"
       fill="#ffffff"
       id="g12">
      <rect
         width="5.2919998"
         height="1.587"
         x="206.25101"
         y="199.105"
         ry="0.79400003"
         transform="rotate(45)"
         id="rect8" />
      <rect
         ry="0.79400003"
         y="210.061"
         x="-200.58701"
         height="1.587"
         width="7.9380002"
         transform="rotate(-45)"
         id="rect10" />
    </g>
  </g>
</svg>
