<?xml version="1.0" encoding="UTF-8" standalone="no"?>
<svg
   xmlns:dc="http://purl.org/dc/elements/1.1/"
   xmlns:cc="http://creativecommons.org/ns#"
   xmlns:rdf="http://www.w3.org/1999/02/22-rdf-syntax-ns#"
   xmlns:svg="http://www.w3.org/2000/svg"
   xmlns="http://www.w3.org/2000/svg"
   xmlns:sodipodi="http://sodipodi.sourceforge.net/DTD/sodipodi-0.dtd"
   xmlns:inkscape="http://www.inkscape.org/namespaces/inkscape"
   viewBox="0 0 16 16"
   version="1.1"
   id="svg4"
   sodipodi:docname="slack16.svg"
   inkscape:version="0.92.4 5da689c313, 2019-01-14">
  <metadata
     id="metadata10">
    <rdf:RDF>
      <cc:Work
         rdf:about="">
        <dc:format>image/svg+xml</dc:format>
        <dc:type
           rdf:resource="http://purl.org/dc/dcmitype/StillImage" />
      </cc:Work>
    </rdf:RDF>
  </metadata>
  <defs
     id="defs8" />
  <sodipodi:namedview
     pagecolor="#ffffff"
     bordercolor="#666666"
     borderopacity="1"
     objecttolerance="10"
     gridtolerance="10"
     guidetolerance="10"
     inkscape:pageopacity="0"
     inkscape:pageshadow="2"
     inkscape:window-width="1920"
     inkscape:window-height="1022"
     id="namedview6"
     showgrid="false"
     inkscape:zoom="14.75"
     inkscape:cx="8"
     inkscape:cy="8"
     inkscape:window-x="0"
     inkscape:window-y="27"
     inkscape:window-maximized="1"
     inkscape:current-layer="svg4" />
  <path
     style="fill:#dfdfdf;fill-opacity:1"
     d="m 9.142 0.005 c -0.184 -0.016 -0.375 0.005 -0.563 0.066 c -0.749 0.243 -1.157 1.047 -0.914 1.795 l 0.467 1.436 -3 0.977 c -0.103 -0.318 -0.467 -1.437 -0.467 -1.437 -0.243 -0.749 -1.047 -1.159 -1.795 -0.916 -0.749 0.243 -1.159 1.048 -0.916 1.797 l 0.467 1.437 -1.483 0.481 c -0.699 0.253 -1.092 1.01 -0.883 1.733 0.218 0.756 1.021 1.218 1.764 0.977 0.004 -0.001 1.144 -0.371 1.483 -0.481 l 0.975 3 -1.483 0.481 c -0.699 0.253 -1.093 1.01 -0.884 1.734 0.218 0.756 1.021 1.218 1.764 0.977 0.004 -0.001 1.145 -0.372 1.484 -0.483 l 0.481 1.483 c 0.253 0.699 1.01 1.092 1.733 0.883 0.756 -0.218 1.218 -1.021 0.977 -1.764 -0.001 -0.004 -0.371 -1.143 -0.481 -1.481 1.398 -0.454 1.611 -0.524 3 -0.975 l 0.481 1.481 c 0.253 0.699 1.01 1.093 1.734 0.884 0.756 -0.218 1.218 -1.021 0.977 -1.764 -0.001 -0.004 -0.371 -1.144 -0.481 -1.483 0.316 -0.103 1.434 -0.466 1.434 -0.466 c 0.749 -0.243 1.159 -1.048 0.916 -1.797 -0.243 -0.749 -1.047 -1.157 -1.795 -0.914 l -1.436 0.467 c -0.454 -1.398 -0.524 -1.611 -0.975 -3 0.317 -0.103 1.436 -0.467 1.436 -0.467 0.749 -0.243 1.159 -1.047 0.916 -1.795 -0.243 -0.749 -1.048 -1.159 -1.797 -0.916 l -1.436 0.467 c -0.103 -0.317 -0.466 -1.436 -0.466 -1.436 -0.182 -0.562 -0.681 -0.934 -1.234 -0.981 z m -0.13 6.01 0.975 3 -3 0.975 c -0.454 -1.398 -0.524 -1.611 -0.975 -3 1.398 -0.454 1.611 -0.524 3 -0.975 z"
     id="path2" />
</svg>
