<?xml version="1.0" encoding="UTF-8" standalone="no"?>
<svg
   xmlns:dc="http://purl.org/dc/elements/1.1/"
   xmlns:cc="http://creativecommons.org/ns#"
   xmlns:rdf="http://www.w3.org/1999/02/22-rdf-syntax-ns#"
   xmlns:svg="http://www.w3.org/2000/svg"
   xmlns="http://www.w3.org/2000/svg"
   xmlns:sodipodi="http://sodipodi.sourceforge.net/DTD/sodipodi-0.dtd"
   xmlns:inkscape="http://www.inkscape.org/namespaces/inkscape"
   inkscape:version="1.0 (4035a4fb49, 2020-05-01)"
   sodipodi:docname="monitor32.svg"
   id="svg12"
   version="1.1"
   width="32"
   height="32">
  <metadata
     id="metadata18">
    <rdf:RDF>
      <cc:Work
         rdf:about="">
        <dc:format>image/svg+xml</dc:format>
        <dc:type
           rdf:resource="http://purl.org/dc/dcmitype/StillImage" />
        <dc:title></dc:title>
      </cc:Work>
    </rdf:RDF>
  </metadata>
  <defs
     id="defs16" />
  <sodipodi:namedview
     inkscape:current-layer="svg12"
     inkscape:window-maximized="1"
     inkscape:window-y="27"
     inkscape:window-x="0"
     inkscape:cy="16.406082"
     inkscape:cx="16.622441"
     inkscape:zoom="24.4375"
     showgrid="true"
     id="namedview14"
     inkscape:window-height="1022"
     inkscape:window-width="1920"
     inkscape:pageshadow="2"
     inkscape:pageopacity="0"
     guidetolerance="10"
     gridtolerance="10"
     objecttolerance="10"
     borderopacity="1"
     bordercolor="#666666"
     pagecolor="#ffffff">
    <inkscape:grid
       id="grid843"
       type="xygrid" />
  </sodipodi:namedview>
  <g
     id="g6"
     transform="matrix(0.51851852,0,0,0.51851852,-0.07407407,-1.111111)">
    <rect
       id="rect2"
       fill="#1c273b"
       overflow="visible"
       color="#000000"
       width="53"
       height="53"
       rx="2.891"
       ry="2.891"
       x="4.5"
       y="6.5"
       style="marker:none" />
    <path
       id="path4"
       fill-rule="evenodd"
       fill="#123d56"
       d="m 27.298,17.574 c -0.795,0 -0.182,15.289 -2.095,21.754 0,-2.28 -2.876,-2.605 -2.876,-2.605 -3.385,0 -3.992,-3.616 -3.992,-3.616 0,4.33 -2.729,4.282 -2.729,4.282 H 4.5 v 19.22 A 2.885,2.885 0 0 0 7.39,59.5 h 47.22 c 1.6,0 2.89,-1.29 2.89,-2.89 V 37.57 c -1.696,0 -3.226,-1.566 -3.226,-1.566 -0.997,-0.994 -1.345,-1.747 -2.226,-1.747 -0.882,0 -1.165,1.084 -1.165,1.084 0,0 -0.507,1.973 -2.244,1.973 -1.737,0 -2.71,-2.726 -2.71,-2.726 0,0 -1.19,-2.996 -3.309,-2.996 -2.12,0 -3.34,3.027 -3.34,3.027 -0.898,3.884 -5.72,2.409 -5.72,2.409 -2.993,-0.301 -2.729,2.963 -3.723,6.324 -1.63,-13.34 -1.744,-25.778 -2.54,-25.778 z" />
  </g>
  <path
     style="stroke-width:0.518519"
     id="path8"
     stroke-opacity="0.776"
     stroke-linejoin="round"
     stroke="#6adbc6"
     fill="none"
     d="m 2.5185185,18.36237 h 5.1976296 c 0,0 1.4694815,0.02437 1.4694815,-2.304814 0,0 0.3266668,1.944963 2.1482224,1.944963 0,0 1.547259,0.175777 1.547259,1.402074 1.029259,-3.47926 0.699482,-11.7045188 1.127259,-11.7045188 0.427778,0 0.488963,6.6919998 1.36526,13.8703698 0.535111,-1.808074 0.394074,-3.564814 2.004074,-3.402518 0,0 2.594148,0.793333 3.077407,-1.296296 0,0 0.657482,-1.628667 1.797704,-1.628667 1.140741,0 1.780074,1.612593 1.780074,1.612593 0,0 0.523704,1.465851 1.458592,1.465851 0.934371,0 1.20763,-1.060888 1.20763,-1.060888 0,0 0.151926,-0.583334 0.625852,-0.583334 0.474444,0 0.662148,0.404445 1.198815,0.939556 0,0 0.607703,0.842592 0.957703,0.842592" />
  <rect
     id="rect10"
     stroke-linejoin="round"
     stroke-linecap="round"
     stroke="#000000"
     fill="none"
     opacity="0.5"
     overflow="visible"
     color="#000000"
     width="27.481482"
     height="27.481482"
     rx="1.499037"
     ry="1.499037"
     x="2.2592592"
     y="2.2592592"
     style="stroke-width:0.518519;marker:none" />
</svg>
