<?xml version="1.0" encoding="UTF-8" standalone="no"?>
<svg
   xmlns:dc="http://purl.org/dc/elements/1.1/"
   xmlns:cc="http://creativecommons.org/ns#"
   xmlns:rdf="http://www.w3.org/1999/02/22-rdf-syntax-ns#"
   xmlns:svg="http://www.w3.org/2000/svg"
   xmlns="http://www.w3.org/2000/svg"
   xmlns:sodipodi="http://sodipodi.sourceforge.net/DTD/sodipodi-0.dtd"
   xmlns:inkscape="http://www.inkscape.org/namespaces/inkscape"
   inkscape:version="1.0 (4035a4fb49, 2020-05-01)"
   sodipodi:docname="monitor48.svg"
   id="svg12"
   version="1.1"
   width="48"
   height="48">
  <metadata
     id="metadata18">
    <rdf:RDF>
      <cc:Work
         rdf:about="">
        <dc:format>image/svg+xml</dc:format>
        <dc:type
           rdf:resource="http://purl.org/dc/dcmitype/StillImage" />
        <dc:title></dc:title>
      </cc:Work>
    </rdf:RDF>
  </metadata>
  <defs
     id="defs16" />
  <sodipodi:namedview
     inkscape:current-layer="svg12"
     inkscape:window-maximized="1"
     inkscape:window-y="27"
     inkscape:window-x="0"
     inkscape:cy="22.179028"
     inkscape:cx="32"
     inkscape:zoom="12.21875"
     showgrid="true"
     id="namedview14"
     inkscape:window-height="1022"
     inkscape:window-width="1920"
     inkscape:pageshadow="2"
     inkscape:pageopacity="0"
     guidetolerance="10"
     gridtolerance="10"
     objecttolerance="10"
     borderopacity="1"
     bordercolor="#666666"
     pagecolor="#ffffff">
    <inkscape:grid
       id="grid843"
       type="xygrid" />
  </sodipodi:namedview>
  <g
     id="g6"
     transform="matrix(0.74074074,0,0,0.74074074,1.0370376,-0.4444438)">
    <rect
       id="rect2"
       fill="#1c273b"
       overflow="visible"
       color="#000000"
       width="53"
       height="53"
       rx="2.891"
       ry="2.891"
       x="4.5"
       y="6.5"
       style="marker:none" />
    <path
       id="path4"
       fill-rule="evenodd"
       fill="#123d56"
       d="m 27.298,17.574 c -0.795,0 -0.182,15.289 -2.095,21.754 0,-2.28 -2.876,-2.605 -2.876,-2.605 -3.385,0 -3.992,-3.616 -3.992,-3.616 0,4.33 -2.729,4.282 -2.729,4.282 H 4.5 v 19.22 A 2.885,2.885 0 0 0 7.39,59.5 h 47.22 c 1.6,0 2.89,-1.29 2.89,-2.89 V 37.57 c -1.696,0 -3.226,-1.566 -3.226,-1.566 -0.997,-0.994 -1.345,-1.747 -2.226,-1.747 -0.882,0 -1.165,1.084 -1.165,1.084 0,0 -0.507,1.973 -2.244,1.973 -1.737,0 -2.71,-2.726 -2.71,-2.726 0,0 -1.19,-2.996 -3.309,-2.996 -2.12,0 -3.34,3.027 -3.34,3.027 -0.898,3.884 -5.72,2.409 -5.72,2.409 -2.993,-0.301 -2.729,2.963 -3.723,6.324 -1.63,-13.34 -1.744,-25.778 -2.54,-25.778 z" />
  </g>
  <path
     style="stroke-width:0.740741"
     id="path8"
     stroke-opacity="0.776"
     stroke-linejoin="round"
     stroke="#6adbc6"
     fill="none"
     d="m 4.7407416,27.374816 h 7.4251854 c 0,0 2.099259,0.03482 2.099259,-3.292593 0,0 0.466667,2.778519 3.068889,2.778519 0,0 2.21037,0.251111 2.21037,2.002963 1.470371,-4.970371 0.99926,-16.720741 1.610371,-16.720741 0.611111,0 0.698518,9.56 1.95037,19.814815 0.764445,-2.582963 0.562963,-5.092593 2.862963,-4.860741 0,0 3.705926,1.133333 4.396296,-1.851852 0,0 0.93926,-2.326666 2.568149,-2.326666 1.629629,0 2.542963,2.303703 2.542963,2.303703 0,0 0.748148,2.094074 2.083703,2.094074 1.334815,0 1.725185,-1.515555 1.725185,-1.515555 0,0 0.217037,-0.833334 0.894075,-0.833334 0.677777,0 0.945925,0.577778 1.712592,1.342223 0,0 0.868148,1.203703 1.368148,1.203703" />
  <rect
     id="rect10"
     stroke-linejoin="round"
     stroke-linecap="round"
     stroke="#000000"
     fill="none"
     opacity="0.5"
     overflow="visible"
     color="#000000"
     width="39.259258"
     height="39.259258"
     rx="2.1414814"
     ry="2.1414814"
     x="4.3703704"
     y="4.3703704"
     style="stroke-width:0.740741;marker:none" />
</svg>
